%FSLAX45Y45*%
G04 Gerber Fmt 4.5, Leading zero omitted, Abs format (unit mm)*
G04 Created by KiCad (PCBNEW 5.1.5+dfsg1-2build2) date 2021-12-29 18:25:53*
%MOMM*%
%LPD*%
G04 APERTURE LIST*
%TA.AperFunction,Profile*%
%ADD10C,0.050000*%
%TD*%
%ADD11C,0.200000*%
%ADD12C,0.300000*%
G04 APERTURE END LIST*
D10*
X9000000Y-4900000D02*
G75*
G02X9400000Y-4500000I400000J0D01*
G01*
X18600000Y-4500000D02*
G75*
G02X19000000Y-4900000I0J-400000D01*
G01*
X19000000Y-11100000D02*
X19000000Y-4900000D01*
X19000000Y-11100000D02*
G75*
G02X18600000Y-11500000I-400000J0D01*
G01*
X9400000Y-11500000D02*
X18600000Y-11500000D01*
X9400000Y-4500000D02*
X18600000Y-4500000D01*
X9400000Y-11500000D02*
G75*
G02X9000000Y-11100000I0J400000D01*
G01*
X9000000Y-4900000D02*
X9000000Y-11100000D01*
D11*
X17380000Y-4855000D02*
X17440000Y-4915000D01*
X17440000Y-4855000D02*
X17380000Y-4915000D01*
X17780000Y-4855000D02*
X17840000Y-4915000D01*
X17840000Y-4855000D02*
X17780000Y-4915000D01*
D12*
X9283928Y-11968214D02*
X9283928Y-11668214D01*
X9355357Y-11668214D01*
X9398214Y-11682500D01*
X9426786Y-11711071D01*
X9441071Y-11739643D01*
X9455357Y-11796786D01*
X9455357Y-11839643D01*
X9441071Y-11896786D01*
X9426786Y-11925357D01*
X9398214Y-11953929D01*
X9355357Y-11968214D01*
X9283928Y-11968214D01*
X9583928Y-11968214D02*
X9583928Y-11768214D01*
X9583928Y-11825357D02*
X9598214Y-11796786D01*
X9612500Y-11782500D01*
X9641071Y-11768214D01*
X9669643Y-11768214D01*
X9769643Y-11968214D02*
X9769643Y-11768214D01*
X9769643Y-11668214D02*
X9755357Y-11682500D01*
X9769643Y-11696786D01*
X9783928Y-11682500D01*
X9769643Y-11668214D01*
X9769643Y-11696786D01*
X9955357Y-11968214D02*
X9926786Y-11953929D01*
X9912500Y-11925357D01*
X9912500Y-11668214D01*
X10112500Y-11968214D02*
X10083928Y-11953929D01*
X10069643Y-11925357D01*
X10069643Y-11668214D01*
X10455357Y-11968214D02*
X10455357Y-11668214D01*
X10555357Y-11882500D01*
X10655357Y-11668214D01*
X10655357Y-11968214D01*
X10926786Y-11968214D02*
X10926786Y-11811071D01*
X10912500Y-11782500D01*
X10883928Y-11768214D01*
X10826786Y-11768214D01*
X10798214Y-11782500D01*
X10926786Y-11953929D02*
X10898214Y-11968214D01*
X10826786Y-11968214D01*
X10798214Y-11953929D01*
X10783928Y-11925357D01*
X10783928Y-11896786D01*
X10798214Y-11868214D01*
X10826786Y-11853929D01*
X10898214Y-11853929D01*
X10926786Y-11839643D01*
X11069643Y-11768214D02*
X11069643Y-12068214D01*
X11069643Y-11782500D02*
X11098214Y-11768214D01*
X11155357Y-11768214D01*
X11183928Y-11782500D01*
X11198214Y-11796786D01*
X11212500Y-11825357D01*
X11212500Y-11911071D01*
X11198214Y-11939643D01*
X11183928Y-11953929D01*
X11155357Y-11968214D01*
X11098214Y-11968214D01*
X11069643Y-11953929D01*
X11341071Y-11939643D02*
X11355357Y-11953929D01*
X11341071Y-11968214D01*
X11326786Y-11953929D01*
X11341071Y-11939643D01*
X11341071Y-11968214D01*
X11341071Y-11782500D02*
X11355357Y-11796786D01*
X11341071Y-11811071D01*
X11326786Y-11796786D01*
X11341071Y-11782500D01*
X11341071Y-11811071D01*
X8937500Y-12432500D02*
X8997500Y-12492500D01*
X8997500Y-12432500D02*
X8937500Y-12492500D01*
X9341071Y-12298214D02*
X9369643Y-12298214D01*
X9398214Y-12312500D01*
X9412500Y-12326786D01*
X9426786Y-12355357D01*
X9441071Y-12412500D01*
X9441071Y-12483929D01*
X9426786Y-12541071D01*
X9412500Y-12569643D01*
X9398214Y-12583929D01*
X9369643Y-12598214D01*
X9341071Y-12598214D01*
X9312500Y-12583929D01*
X9298214Y-12569643D01*
X9283928Y-12541071D01*
X9269643Y-12483929D01*
X9269643Y-12412500D01*
X9283928Y-12355357D01*
X9298214Y-12326786D01*
X9312500Y-12312500D01*
X9341071Y-12298214D01*
X9569643Y-12569643D02*
X9583928Y-12583929D01*
X9569643Y-12598214D01*
X9555357Y-12583929D01*
X9569643Y-12569643D01*
X9569643Y-12598214D01*
X9841071Y-12298214D02*
X9783928Y-12298214D01*
X9755357Y-12312500D01*
X9741071Y-12326786D01*
X9712500Y-12369643D01*
X9698214Y-12426786D01*
X9698214Y-12541071D01*
X9712500Y-12569643D01*
X9726786Y-12583929D01*
X9755357Y-12598214D01*
X9812500Y-12598214D01*
X9841071Y-12583929D01*
X9855357Y-12569643D01*
X9869643Y-12541071D01*
X9869643Y-12469643D01*
X9855357Y-12441071D01*
X9841071Y-12426786D01*
X9812500Y-12412500D01*
X9755357Y-12412500D01*
X9726786Y-12426786D01*
X9712500Y-12441071D01*
X9698214Y-12469643D01*
X10055357Y-12298214D02*
X10083928Y-12298214D01*
X10112500Y-12312500D01*
X10126786Y-12326786D01*
X10141071Y-12355357D01*
X10155357Y-12412500D01*
X10155357Y-12483929D01*
X10141071Y-12541071D01*
X10126786Y-12569643D01*
X10112500Y-12583929D01*
X10083928Y-12598214D01*
X10055357Y-12598214D01*
X10026786Y-12583929D01*
X10012500Y-12569643D01*
X9998214Y-12541071D01*
X9983928Y-12483929D01*
X9983928Y-12412500D01*
X9998214Y-12355357D01*
X10012500Y-12326786D01*
X10026786Y-12312500D01*
X10055357Y-12298214D01*
X10283928Y-12598214D02*
X10283928Y-12398214D01*
X10283928Y-12426786D02*
X10298214Y-12412500D01*
X10326786Y-12398214D01*
X10369643Y-12398214D01*
X10398214Y-12412500D01*
X10412500Y-12441071D01*
X10412500Y-12598214D01*
X10412500Y-12441071D02*
X10426786Y-12412500D01*
X10455357Y-12398214D01*
X10498214Y-12398214D01*
X10526786Y-12412500D01*
X10541071Y-12441071D01*
X10541071Y-12598214D01*
X10683928Y-12598214D02*
X10683928Y-12398214D01*
X10683928Y-12426786D02*
X10698214Y-12412500D01*
X10726786Y-12398214D01*
X10769643Y-12398214D01*
X10798214Y-12412500D01*
X10812500Y-12441071D01*
X10812500Y-12598214D01*
X10812500Y-12441071D02*
X10826786Y-12412500D01*
X10855357Y-12398214D01*
X10898214Y-12398214D01*
X10926786Y-12412500D01*
X10941071Y-12441071D01*
X10941071Y-12598214D01*
X11526786Y-12283929D02*
X11269643Y-12669643D01*
X11912500Y-12298214D02*
X11941071Y-12298214D01*
X11969643Y-12312500D01*
X11983928Y-12326786D01*
X11998214Y-12355357D01*
X12012500Y-12412500D01*
X12012500Y-12483929D01*
X11998214Y-12541071D01*
X11983928Y-12569643D01*
X11969643Y-12583929D01*
X11941071Y-12598214D01*
X11912500Y-12598214D01*
X11883928Y-12583929D01*
X11869643Y-12569643D01*
X11855357Y-12541071D01*
X11841071Y-12483929D01*
X11841071Y-12412500D01*
X11855357Y-12355357D01*
X11869643Y-12326786D01*
X11883928Y-12312500D01*
X11912500Y-12298214D01*
X12141071Y-12569643D02*
X12155357Y-12583929D01*
X12141071Y-12598214D01*
X12126786Y-12583929D01*
X12141071Y-12569643D01*
X12141071Y-12598214D01*
X12341071Y-12298214D02*
X12369643Y-12298214D01*
X12398214Y-12312500D01*
X12412500Y-12326786D01*
X12426786Y-12355357D01*
X12441071Y-12412500D01*
X12441071Y-12483929D01*
X12426786Y-12541071D01*
X12412500Y-12569643D01*
X12398214Y-12583929D01*
X12369643Y-12598214D01*
X12341071Y-12598214D01*
X12312500Y-12583929D01*
X12298214Y-12569643D01*
X12283928Y-12541071D01*
X12269643Y-12483929D01*
X12269643Y-12412500D01*
X12283928Y-12355357D01*
X12298214Y-12326786D01*
X12312500Y-12312500D01*
X12341071Y-12298214D01*
X12555357Y-12326786D02*
X12569643Y-12312500D01*
X12598214Y-12298214D01*
X12669643Y-12298214D01*
X12698214Y-12312500D01*
X12712500Y-12326786D01*
X12726786Y-12355357D01*
X12726786Y-12383929D01*
X12712500Y-12426786D01*
X12541071Y-12598214D01*
X12726786Y-12598214D01*
X12983928Y-12398214D02*
X12983928Y-12598214D01*
X12912500Y-12283929D02*
X12841071Y-12498214D01*
X13026786Y-12498214D01*
X13126786Y-12298214D02*
X13126786Y-12355357D01*
X13241071Y-12298214D02*
X13241071Y-12355357D01*
X13683928Y-12712500D02*
X13669643Y-12698214D01*
X13641071Y-12655357D01*
X13626786Y-12626786D01*
X13612500Y-12583929D01*
X13598214Y-12512500D01*
X13598214Y-12455357D01*
X13612500Y-12383929D01*
X13626786Y-12341071D01*
X13641071Y-12312500D01*
X13669643Y-12269643D01*
X13683928Y-12255357D01*
X13783928Y-12326786D02*
X13798214Y-12312500D01*
X13826786Y-12298214D01*
X13898214Y-12298214D01*
X13926786Y-12312500D01*
X13941071Y-12326786D01*
X13955357Y-12355357D01*
X13955357Y-12383929D01*
X13941071Y-12426786D01*
X13769643Y-12598214D01*
X13955357Y-12598214D01*
X14312500Y-12598214D02*
X14312500Y-12298214D01*
X14441071Y-12598214D02*
X14441071Y-12441071D01*
X14426786Y-12412500D01*
X14398214Y-12398214D01*
X14355357Y-12398214D01*
X14326786Y-12412500D01*
X14312500Y-12426786D01*
X14626786Y-12598214D02*
X14598214Y-12583929D01*
X14583928Y-12569643D01*
X14569643Y-12541071D01*
X14569643Y-12455357D01*
X14583928Y-12426786D01*
X14598214Y-12412500D01*
X14626786Y-12398214D01*
X14669643Y-12398214D01*
X14698214Y-12412500D01*
X14712500Y-12426786D01*
X14726786Y-12455357D01*
X14726786Y-12541071D01*
X14712500Y-12569643D01*
X14698214Y-12583929D01*
X14669643Y-12598214D01*
X14626786Y-12598214D01*
X14898214Y-12598214D02*
X14869643Y-12583929D01*
X14855357Y-12555357D01*
X14855357Y-12298214D01*
X15126786Y-12583929D02*
X15098214Y-12598214D01*
X15041071Y-12598214D01*
X15012500Y-12583929D01*
X14998214Y-12555357D01*
X14998214Y-12441071D01*
X15012500Y-12412500D01*
X15041071Y-12398214D01*
X15098214Y-12398214D01*
X15126786Y-12412500D01*
X15141071Y-12441071D01*
X15141071Y-12469643D01*
X14998214Y-12498214D01*
X15255357Y-12583929D02*
X15283928Y-12598214D01*
X15341071Y-12598214D01*
X15369643Y-12583929D01*
X15383928Y-12555357D01*
X15383928Y-12541071D01*
X15369643Y-12512500D01*
X15341071Y-12498214D01*
X15298214Y-12498214D01*
X15269643Y-12483929D01*
X15255357Y-12455357D01*
X15255357Y-12441071D01*
X15269643Y-12412500D01*
X15298214Y-12398214D01*
X15341071Y-12398214D01*
X15369643Y-12412500D01*
X15483928Y-12712500D02*
X15498214Y-12698214D01*
X15526786Y-12655357D01*
X15541071Y-12626786D01*
X15555357Y-12583929D01*
X15569643Y-12512500D01*
X15569643Y-12455357D01*
X15555357Y-12383929D01*
X15541071Y-12341071D01*
X15526786Y-12312500D01*
X15498214Y-12269643D01*
X15483928Y-12255357D01*
X16026786Y-12712500D02*
X16012500Y-12698214D01*
X15983928Y-12655357D01*
X15969643Y-12626786D01*
X15955357Y-12583929D01*
X15941071Y-12512500D01*
X15941071Y-12455357D01*
X15955357Y-12383929D01*
X15969643Y-12341071D01*
X15983928Y-12312500D01*
X16012500Y-12269643D01*
X16026786Y-12255357D01*
X16141071Y-12398214D02*
X16141071Y-12598214D01*
X16141071Y-12426786D02*
X16155357Y-12412500D01*
X16183928Y-12398214D01*
X16226786Y-12398214D01*
X16255357Y-12412500D01*
X16269643Y-12441071D01*
X16269643Y-12598214D01*
X16455357Y-12598214D02*
X16426786Y-12583929D01*
X16412500Y-12569643D01*
X16398214Y-12541071D01*
X16398214Y-12455357D01*
X16412500Y-12426786D01*
X16426786Y-12412500D01*
X16455357Y-12398214D01*
X16498214Y-12398214D01*
X16526786Y-12412500D01*
X16541071Y-12426786D01*
X16555357Y-12455357D01*
X16555357Y-12541071D01*
X16541071Y-12569643D01*
X16526786Y-12583929D01*
X16498214Y-12598214D01*
X16455357Y-12598214D01*
X16641071Y-12398214D02*
X16755357Y-12398214D01*
X16683928Y-12298214D02*
X16683928Y-12555357D01*
X16698214Y-12583929D01*
X16726786Y-12598214D01*
X16755357Y-12598214D01*
X17083928Y-12398214D02*
X17083928Y-12698214D01*
X17083928Y-12412500D02*
X17112500Y-12398214D01*
X17169643Y-12398214D01*
X17198214Y-12412500D01*
X17212500Y-12426786D01*
X17226786Y-12455357D01*
X17226786Y-12541071D01*
X17212500Y-12569643D01*
X17198214Y-12583929D01*
X17169643Y-12598214D01*
X17112500Y-12598214D01*
X17083928Y-12583929D01*
X17398214Y-12598214D02*
X17369643Y-12583929D01*
X17355357Y-12555357D01*
X17355357Y-12298214D01*
X17641071Y-12598214D02*
X17641071Y-12441071D01*
X17626786Y-12412500D01*
X17598214Y-12398214D01*
X17541071Y-12398214D01*
X17512500Y-12412500D01*
X17641071Y-12583929D02*
X17612500Y-12598214D01*
X17541071Y-12598214D01*
X17512500Y-12583929D01*
X17498214Y-12555357D01*
X17498214Y-12526786D01*
X17512500Y-12498214D01*
X17541071Y-12483929D01*
X17612500Y-12483929D01*
X17641071Y-12469643D01*
X17741071Y-12398214D02*
X17855357Y-12398214D01*
X17783928Y-12298214D02*
X17783928Y-12555357D01*
X17798214Y-12583929D01*
X17826786Y-12598214D01*
X17855357Y-12598214D01*
X18069643Y-12583929D02*
X18041071Y-12598214D01*
X17983928Y-12598214D01*
X17955357Y-12583929D01*
X17941071Y-12555357D01*
X17941071Y-12441071D01*
X17955357Y-12412500D01*
X17983928Y-12398214D01*
X18041071Y-12398214D01*
X18069643Y-12412500D01*
X18083928Y-12441071D01*
X18083928Y-12469643D01*
X17941071Y-12498214D01*
X18341071Y-12598214D02*
X18341071Y-12298214D01*
X18341071Y-12583929D02*
X18312500Y-12598214D01*
X18255357Y-12598214D01*
X18226786Y-12583929D01*
X18212500Y-12569643D01*
X18198214Y-12541071D01*
X18198214Y-12455357D01*
X18212500Y-12426786D01*
X18226786Y-12412500D01*
X18255357Y-12398214D01*
X18312500Y-12398214D01*
X18341071Y-12412500D01*
X18455357Y-12712500D02*
X18469643Y-12698214D01*
X18498214Y-12655357D01*
X18512500Y-12626786D01*
X18526786Y-12583929D01*
X18541071Y-12512500D01*
X18541071Y-12455357D01*
X18526786Y-12383929D01*
X18512500Y-12341071D01*
X18498214Y-12312500D01*
X18469643Y-12269643D01*
X18455357Y-12255357D01*
M02*
