%TF.GenerationSoftware,KiCad,Pcbnew,5.1.5+dfsg1-2build2*%
%TF.CreationDate,2021-12-29T18:24:04+01:00*%
%TF.ProjectId,motorDriver,6d6f746f-7244-4726-9976-65722e6b6963,rev?*%
%TF.SameCoordinates,Original*%
%TF.FileFunction,Legend,Bot*%
%TF.FilePolarity,Positive*%
%FSLAX46Y46*%
G04 Gerber Fmt 4.6, Leading zero omitted, Abs format (unit mm)*
G04 Created by KiCad (PCBNEW 5.1.5+dfsg1-2build2) date 2021-12-29 18:24:04*
%MOMM*%
%LPD*%
G04 APERTURE LIST*
%ADD10C,0.150000*%
%ADD11C,0.250000*%
%ADD12C,0.120000*%
%ADD13C,0.010000*%
%ADD14C,0.100000*%
%ADD15O,2.700000X2.700000*%
%ADD16R,2.700000X2.700000*%
%ADD17C,1.600000*%
%ADD18C,2.200000*%
%ADD19R,2.200000X2.200000*%
%ADD20C,5.700000*%
%ADD21O,2.100000X2.100000*%
%ADD22R,2.100000X2.100000*%
%ADD23O,1.800000X1.800000*%
%ADD24R,1.800000X1.800000*%
%ADD25C,2.400000*%
%ADD26C,0.800000*%
%ADD27C,4.500000*%
%ADD28O,1.100000X1.100000*%
%ADD29R,1.100000X1.100000*%
%ADD30C,0.700000*%
%ADD31O,0.950000X1.800000*%
%ADD32C,0.900000*%
G04 APERTURE END LIST*
D10*
X161738095Y-63702380D02*
X161738095Y-62702380D01*
X161357142Y-62702380D01*
X161261904Y-62750000D01*
X161214285Y-62797619D01*
X161166666Y-62892857D01*
X161166666Y-63035714D01*
X161214285Y-63130952D01*
X161261904Y-63178571D01*
X161357142Y-63226190D01*
X161738095Y-63226190D01*
X160404761Y-63178571D02*
X160261904Y-63226190D01*
X160214285Y-63273809D01*
X160166666Y-63369047D01*
X160166666Y-63511904D01*
X160214285Y-63607142D01*
X160261904Y-63654761D01*
X160357142Y-63702380D01*
X160738095Y-63702380D01*
X160738095Y-62702380D01*
X160404761Y-62702380D01*
X160309523Y-62750000D01*
X160261904Y-62797619D01*
X160214285Y-62892857D01*
X160214285Y-62988095D01*
X160261904Y-63083333D01*
X160309523Y-63130952D01*
X160404761Y-63178571D01*
X160738095Y-63178571D01*
X159547619Y-62702380D02*
X159452380Y-62702380D01*
X159357142Y-62750000D01*
X159309523Y-62797619D01*
X159261904Y-62892857D01*
X159214285Y-63083333D01*
X159214285Y-63321428D01*
X159261904Y-63511904D01*
X159309523Y-63607142D01*
X159357142Y-63654761D01*
X159452380Y-63702380D01*
X159547619Y-63702380D01*
X159642857Y-63654761D01*
X159690476Y-63607142D01*
X159738095Y-63511904D01*
X159785714Y-63321428D01*
X159785714Y-63083333D01*
X159738095Y-62892857D01*
X159690476Y-62797619D01*
X159642857Y-62750000D01*
X159547619Y-62702380D01*
X114973928Y-57802380D02*
X114783452Y-57802380D01*
X114688214Y-57850000D01*
X114592976Y-57945238D01*
X114545357Y-58135714D01*
X114545357Y-58469047D01*
X114592976Y-58659523D01*
X114688214Y-58754761D01*
X114783452Y-58802380D01*
X114973928Y-58802380D01*
X115069166Y-58754761D01*
X115164404Y-58659523D01*
X115212023Y-58469047D01*
X115212023Y-58135714D01*
X115164404Y-57945238D01*
X115069166Y-57850000D01*
X114973928Y-57802380D01*
X114116785Y-58135714D02*
X114116785Y-59135714D01*
X114116785Y-58183333D02*
X114021547Y-58135714D01*
X113831071Y-58135714D01*
X113735833Y-58183333D01*
X113688214Y-58230952D01*
X113640595Y-58326190D01*
X113640595Y-58611904D01*
X113688214Y-58707142D01*
X113735833Y-58754761D01*
X113831071Y-58802380D01*
X114021547Y-58802380D01*
X114116785Y-58754761D01*
X113354880Y-58135714D02*
X112973928Y-58135714D01*
X113212023Y-57802380D02*
X113212023Y-58659523D01*
X113164404Y-58754761D01*
X113069166Y-58802380D01*
X112973928Y-58802380D01*
X112640595Y-58802380D02*
X112640595Y-58135714D01*
X112640595Y-57802380D02*
X112688214Y-57850000D01*
X112640595Y-57897619D01*
X112592976Y-57850000D01*
X112640595Y-57802380D01*
X112640595Y-57897619D01*
X112021547Y-58802380D02*
X112116785Y-58754761D01*
X112164404Y-58707142D01*
X112212023Y-58611904D01*
X112212023Y-58326190D01*
X112164404Y-58230952D01*
X112116785Y-58183333D01*
X112021547Y-58135714D01*
X111878690Y-58135714D01*
X111783452Y-58183333D01*
X111735833Y-58230952D01*
X111688214Y-58326190D01*
X111688214Y-58611904D01*
X111735833Y-58707142D01*
X111783452Y-58754761D01*
X111878690Y-58802380D01*
X112021547Y-58802380D01*
X111259642Y-58135714D02*
X111259642Y-58802380D01*
X111259642Y-58230952D02*
X111212023Y-58183333D01*
X111116785Y-58135714D01*
X110973928Y-58135714D01*
X110878690Y-58183333D01*
X110831071Y-58278571D01*
X110831071Y-58802380D01*
X109926309Y-58802380D02*
X109926309Y-58278571D01*
X109973928Y-58183333D01*
X110069166Y-58135714D01*
X110259642Y-58135714D01*
X110354880Y-58183333D01*
X109926309Y-58754761D02*
X110021547Y-58802380D01*
X110259642Y-58802380D01*
X110354880Y-58754761D01*
X110402500Y-58659523D01*
X110402500Y-58564285D01*
X110354880Y-58469047D01*
X110259642Y-58421428D01*
X110021547Y-58421428D01*
X109926309Y-58373809D01*
X109307261Y-58802380D02*
X109402500Y-58754761D01*
X109450119Y-58659523D01*
X109450119Y-57802380D01*
X108164404Y-58802380D02*
X108164404Y-57802380D01*
X107735833Y-57897619D02*
X107688214Y-57850000D01*
X107592976Y-57802380D01*
X107354880Y-57802380D01*
X107259642Y-57850000D01*
X107212023Y-57897619D01*
X107164404Y-57992857D01*
X107164404Y-58088095D01*
X107212023Y-58230952D01*
X107783452Y-58802380D01*
X107164404Y-58802380D01*
X106164404Y-58707142D02*
X106212023Y-58754761D01*
X106354880Y-58802380D01*
X106450119Y-58802380D01*
X106592976Y-58754761D01*
X106688214Y-58659523D01*
X106735833Y-58564285D01*
X106783452Y-58373809D01*
X106783452Y-58230952D01*
X106735833Y-58040476D01*
X106688214Y-57945238D01*
X106592976Y-57850000D01*
X106450119Y-57802380D01*
X106354880Y-57802380D01*
X106212023Y-57850000D01*
X106164404Y-57897619D01*
X104973928Y-58802380D02*
X104973928Y-57802380D01*
X104592976Y-57802380D01*
X104497738Y-57850000D01*
X104450119Y-57897619D01*
X104402500Y-57992857D01*
X104402500Y-58135714D01*
X104450119Y-58230952D01*
X104497738Y-58278571D01*
X104592976Y-58326190D01*
X104973928Y-58326190D01*
X103545357Y-58135714D02*
X103545357Y-58802380D01*
X103973928Y-58135714D02*
X103973928Y-58659523D01*
X103926309Y-58754761D01*
X103831071Y-58802380D01*
X103688214Y-58802380D01*
X103592976Y-58754761D01*
X103545357Y-58707142D01*
X102926309Y-58802380D02*
X103021547Y-58754761D01*
X103069166Y-58659523D01*
X103069166Y-57802380D01*
X102402500Y-58802380D02*
X102497738Y-58754761D01*
X102545357Y-58659523D01*
X102545357Y-57802380D01*
X101592976Y-58135714D02*
X101592976Y-58802380D01*
X102021547Y-58135714D02*
X102021547Y-58659523D01*
X101973928Y-58754761D01*
X101878690Y-58802380D01*
X101735833Y-58802380D01*
X101640595Y-58754761D01*
X101592976Y-58707142D01*
X101116785Y-58135714D02*
X101116785Y-59135714D01*
X101116785Y-58183333D02*
X101021547Y-58135714D01*
X100831071Y-58135714D01*
X100735833Y-58183333D01*
X100688214Y-58230952D01*
X100640595Y-58326190D01*
X100640595Y-58611904D01*
X100688214Y-58707142D01*
X100735833Y-58754761D01*
X100831071Y-58802380D01*
X101021547Y-58802380D01*
X101116785Y-58754761D01*
X98878690Y-58802380D02*
X99212023Y-58326190D01*
X99450119Y-58802380D02*
X99450119Y-57802380D01*
X99069166Y-57802380D01*
X98973928Y-57850000D01*
X98926309Y-57897619D01*
X98878690Y-57992857D01*
X98878690Y-58135714D01*
X98926309Y-58230952D01*
X98973928Y-58278571D01*
X99069166Y-58326190D01*
X99450119Y-58326190D01*
X98069166Y-58754761D02*
X98164404Y-58802380D01*
X98354880Y-58802380D01*
X98450119Y-58754761D01*
X98497738Y-58659523D01*
X98497738Y-58278571D01*
X98450119Y-58183333D01*
X98354880Y-58135714D01*
X98164404Y-58135714D01*
X98069166Y-58183333D01*
X98021547Y-58278571D01*
X98021547Y-58373809D01*
X98497738Y-58469047D01*
X97640595Y-58754761D02*
X97545357Y-58802380D01*
X97354880Y-58802380D01*
X97259642Y-58754761D01*
X97212023Y-58659523D01*
X97212023Y-58611904D01*
X97259642Y-58516666D01*
X97354880Y-58469047D01*
X97497738Y-58469047D01*
X97592976Y-58421428D01*
X97640595Y-58326190D01*
X97640595Y-58278571D01*
X97592976Y-58183333D01*
X97497738Y-58135714D01*
X97354880Y-58135714D01*
X97259642Y-58183333D01*
X96783452Y-58802380D02*
X96783452Y-58135714D01*
X96783452Y-57802380D02*
X96831071Y-57850000D01*
X96783452Y-57897619D01*
X96735833Y-57850000D01*
X96783452Y-57802380D01*
X96783452Y-57897619D01*
X96354880Y-58754761D02*
X96259642Y-58802380D01*
X96069166Y-58802380D01*
X95973928Y-58754761D01*
X95926309Y-58659523D01*
X95926309Y-58611904D01*
X95973928Y-58516666D01*
X96069166Y-58469047D01*
X96212023Y-58469047D01*
X96307261Y-58421428D01*
X96354880Y-58326190D01*
X96354880Y-58278571D01*
X96307261Y-58183333D01*
X96212023Y-58135714D01*
X96069166Y-58135714D01*
X95973928Y-58183333D01*
X95640595Y-58135714D02*
X95259642Y-58135714D01*
X95497738Y-57802380D02*
X95497738Y-58659523D01*
X95450119Y-58754761D01*
X95354880Y-58802380D01*
X95259642Y-58802380D01*
X94783452Y-58802380D02*
X94878690Y-58754761D01*
X94926309Y-58707142D01*
X94973928Y-58611904D01*
X94973928Y-58326190D01*
X94926309Y-58230952D01*
X94878690Y-58183333D01*
X94783452Y-58135714D01*
X94640595Y-58135714D01*
X94545357Y-58183333D01*
X94497738Y-58230952D01*
X94450119Y-58326190D01*
X94450119Y-58611904D01*
X94497738Y-58707142D01*
X94545357Y-58754761D01*
X94640595Y-58802380D01*
X94783452Y-58802380D01*
X94021547Y-58802380D02*
X94021547Y-58135714D01*
X94021547Y-58326190D02*
X93973928Y-58230952D01*
X93926309Y-58183333D01*
X93831071Y-58135714D01*
X93735833Y-58135714D01*
X93450119Y-58754761D02*
X93354880Y-58802380D01*
X93164404Y-58802380D01*
X93069166Y-58754761D01*
X93021547Y-58659523D01*
X93021547Y-58611904D01*
X93069166Y-58516666D01*
X93164404Y-58469047D01*
X93307261Y-58469047D01*
X93402500Y-58421428D01*
X93450119Y-58326190D01*
X93450119Y-58278571D01*
X93402500Y-58183333D01*
X93307261Y-58135714D01*
X93164404Y-58135714D01*
X93069166Y-58183333D01*
X115164404Y-60071428D02*
X114402500Y-60071428D01*
X113164404Y-60452380D02*
X113164404Y-59452380D01*
X112735833Y-59547619D02*
X112688214Y-59500000D01*
X112592976Y-59452380D01*
X112354880Y-59452380D01*
X112259642Y-59500000D01*
X112212023Y-59547619D01*
X112164404Y-59642857D01*
X112164404Y-59738095D01*
X112212023Y-59880952D01*
X112783452Y-60452380D01*
X112164404Y-60452380D01*
X111164404Y-60357142D02*
X111212023Y-60404761D01*
X111354880Y-60452380D01*
X111450119Y-60452380D01*
X111592976Y-60404761D01*
X111688214Y-60309523D01*
X111735833Y-60214285D01*
X111783452Y-60023809D01*
X111783452Y-59880952D01*
X111735833Y-59690476D01*
X111688214Y-59595238D01*
X111592976Y-59500000D01*
X111450119Y-59452380D01*
X111354880Y-59452380D01*
X111212023Y-59500000D01*
X111164404Y-59547619D01*
X110212023Y-60452380D02*
X110783452Y-60452380D01*
X110497738Y-60452380D02*
X110497738Y-59452380D01*
X110592976Y-59595238D01*
X110688214Y-59690476D01*
X110783452Y-59738095D01*
X109783452Y-60357142D02*
X109735833Y-60404761D01*
X109783452Y-60452380D01*
X109831071Y-60404761D01*
X109783452Y-60357142D01*
X109783452Y-60452380D01*
X109783452Y-59833333D02*
X109735833Y-59880952D01*
X109783452Y-59928571D01*
X109831071Y-59880952D01*
X109783452Y-59833333D01*
X109783452Y-59928571D01*
X107973928Y-60452380D02*
X108307261Y-59976190D01*
X108545357Y-60452380D02*
X108545357Y-59452380D01*
X108164404Y-59452380D01*
X108069166Y-59500000D01*
X108021547Y-59547619D01*
X107973928Y-59642857D01*
X107973928Y-59785714D01*
X108021547Y-59880952D01*
X108069166Y-59928571D01*
X108164404Y-59976190D01*
X108545357Y-59976190D01*
X107592976Y-59547619D02*
X107545357Y-59500000D01*
X107450119Y-59452380D01*
X107212023Y-59452380D01*
X107116785Y-59500000D01*
X107069166Y-59547619D01*
X107021547Y-59642857D01*
X107021547Y-59738095D01*
X107069166Y-59880952D01*
X107640595Y-60452380D01*
X107021547Y-60452380D01*
X106545357Y-60404761D02*
X106545357Y-60452380D01*
X106592976Y-60547619D01*
X106640595Y-60595238D01*
X104783452Y-60452380D02*
X105116785Y-59976190D01*
X105354880Y-60452380D02*
X105354880Y-59452380D01*
X104973928Y-59452380D01*
X104878690Y-59500000D01*
X104831071Y-59547619D01*
X104783452Y-59642857D01*
X104783452Y-59785714D01*
X104831071Y-59880952D01*
X104878690Y-59928571D01*
X104973928Y-59976190D01*
X105354880Y-59976190D01*
X103878690Y-59452380D02*
X104354880Y-59452380D01*
X104402500Y-59928571D01*
X104354880Y-59880952D01*
X104259642Y-59833333D01*
X104021547Y-59833333D01*
X103926309Y-59880952D01*
X103878690Y-59928571D01*
X103831071Y-60023809D01*
X103831071Y-60261904D01*
X103878690Y-60357142D01*
X103926309Y-60404761D01*
X104021547Y-60452380D01*
X104259642Y-60452380D01*
X104354880Y-60404761D01*
X104402500Y-60357142D01*
X115164404Y-61721428D02*
X114402500Y-61721428D01*
X113164404Y-62102380D02*
X113164404Y-61102380D01*
X112735833Y-61197619D02*
X112688214Y-61150000D01*
X112592976Y-61102380D01*
X112354880Y-61102380D01*
X112259642Y-61150000D01*
X112212023Y-61197619D01*
X112164404Y-61292857D01*
X112164404Y-61388095D01*
X112212023Y-61530952D01*
X112783452Y-62102380D01*
X112164404Y-62102380D01*
X111164404Y-62007142D02*
X111212023Y-62054761D01*
X111354880Y-62102380D01*
X111450119Y-62102380D01*
X111592976Y-62054761D01*
X111688214Y-61959523D01*
X111735833Y-61864285D01*
X111783452Y-61673809D01*
X111783452Y-61530952D01*
X111735833Y-61340476D01*
X111688214Y-61245238D01*
X111592976Y-61150000D01*
X111450119Y-61102380D01*
X111354880Y-61102380D01*
X111212023Y-61150000D01*
X111164404Y-61197619D01*
X110783452Y-61197619D02*
X110735833Y-61150000D01*
X110640595Y-61102380D01*
X110402500Y-61102380D01*
X110307261Y-61150000D01*
X110259642Y-61197619D01*
X110212023Y-61292857D01*
X110212023Y-61388095D01*
X110259642Y-61530952D01*
X110831071Y-62102380D01*
X110212023Y-62102380D01*
X109783452Y-62007142D02*
X109735833Y-62054761D01*
X109783452Y-62102380D01*
X109831071Y-62054761D01*
X109783452Y-62007142D01*
X109783452Y-62102380D01*
X109783452Y-61483333D02*
X109735833Y-61530952D01*
X109783452Y-61578571D01*
X109831071Y-61530952D01*
X109783452Y-61483333D01*
X109783452Y-61578571D01*
X107973928Y-62102380D02*
X108307261Y-61626190D01*
X108545357Y-62102380D02*
X108545357Y-61102380D01*
X108164404Y-61102380D01*
X108069166Y-61150000D01*
X108021547Y-61197619D01*
X107973928Y-61292857D01*
X107973928Y-61435714D01*
X108021547Y-61530952D01*
X108069166Y-61578571D01*
X108164404Y-61626190D01*
X108545357Y-61626190D01*
X107640595Y-61102380D02*
X107021547Y-61102380D01*
X107354880Y-61483333D01*
X107212023Y-61483333D01*
X107116785Y-61530952D01*
X107069166Y-61578571D01*
X107021547Y-61673809D01*
X107021547Y-61911904D01*
X107069166Y-62007142D01*
X107116785Y-62054761D01*
X107212023Y-62102380D01*
X107497738Y-62102380D01*
X107592976Y-62054761D01*
X107640595Y-62007142D01*
X106545357Y-62054761D02*
X106545357Y-62102380D01*
X106592976Y-62197619D01*
X106640595Y-62245238D01*
X104783452Y-62102380D02*
X105116785Y-61626190D01*
X105354880Y-62102380D02*
X105354880Y-61102380D01*
X104973928Y-61102380D01*
X104878690Y-61150000D01*
X104831071Y-61197619D01*
X104783452Y-61292857D01*
X104783452Y-61435714D01*
X104831071Y-61530952D01*
X104878690Y-61578571D01*
X104973928Y-61626190D01*
X105354880Y-61626190D01*
X103926309Y-61102380D02*
X104116785Y-61102380D01*
X104212023Y-61150000D01*
X104259642Y-61197619D01*
X104354880Y-61340476D01*
X104402500Y-61530952D01*
X104402500Y-61911904D01*
X104354880Y-62007142D01*
X104307261Y-62054761D01*
X104212023Y-62102380D01*
X104021547Y-62102380D01*
X103926309Y-62054761D01*
X103878690Y-62007142D01*
X103831071Y-61911904D01*
X103831071Y-61673809D01*
X103878690Y-61578571D01*
X103926309Y-61530952D01*
X104021547Y-61483333D01*
X104212023Y-61483333D01*
X104307261Y-61530952D01*
X104354880Y-61578571D01*
X104402500Y-61673809D01*
X186927380Y-70880952D02*
X187641666Y-70880952D01*
X187784523Y-70833333D01*
X187879761Y-70738095D01*
X187927380Y-70595238D01*
X187927380Y-70500000D01*
X187927380Y-71833333D02*
X187927380Y-71357142D01*
X186927380Y-71357142D01*
X187832142Y-72738095D02*
X187879761Y-72690476D01*
X187927380Y-72547619D01*
X187927380Y-72452380D01*
X187879761Y-72309523D01*
X187784523Y-72214285D01*
X187689285Y-72166666D01*
X187498809Y-72119047D01*
X187355952Y-72119047D01*
X187165476Y-72166666D01*
X187070238Y-72214285D01*
X186975000Y-72309523D01*
X186927380Y-72452380D01*
X186927380Y-72547619D01*
X186975000Y-72690476D01*
X187022619Y-72738095D01*
X186927380Y-73452380D02*
X187641666Y-73452380D01*
X187784523Y-73404761D01*
X187879761Y-73309523D01*
X187927380Y-73166666D01*
X187927380Y-73071428D01*
X187927380Y-74404761D02*
X187927380Y-73928571D01*
X186927380Y-73928571D01*
X187832142Y-75309523D02*
X187879761Y-75261904D01*
X187927380Y-75119047D01*
X187927380Y-75023809D01*
X187879761Y-74880952D01*
X187784523Y-74785714D01*
X187689285Y-74738095D01*
X187498809Y-74690476D01*
X187355952Y-74690476D01*
X187165476Y-74738095D01*
X187070238Y-74785714D01*
X186975000Y-74880952D01*
X186927380Y-75023809D01*
X186927380Y-75119047D01*
X186975000Y-75261904D01*
X187022619Y-75309523D01*
X186927380Y-76023809D02*
X187641666Y-76023809D01*
X187784523Y-75976190D01*
X187879761Y-75880952D01*
X187927380Y-75738095D01*
X187927380Y-75642857D01*
X187927380Y-76976190D02*
X187927380Y-76500000D01*
X186927380Y-76500000D01*
X187832142Y-77880952D02*
X187879761Y-77833333D01*
X187927380Y-77690476D01*
X187927380Y-77595238D01*
X187879761Y-77452380D01*
X187784523Y-77357142D01*
X187689285Y-77309523D01*
X187498809Y-77261904D01*
X187355952Y-77261904D01*
X187165476Y-77309523D01*
X187070238Y-77357142D01*
X186975000Y-77452380D01*
X186927380Y-77595238D01*
X186927380Y-77690476D01*
X186975000Y-77833333D01*
X187022619Y-77880952D01*
X186927380Y-78595238D02*
X187641666Y-78595238D01*
X187784523Y-78547619D01*
X187879761Y-78452380D01*
X187927380Y-78309523D01*
X187927380Y-78214285D01*
X187927380Y-79547619D02*
X187927380Y-79071428D01*
X186927380Y-79071428D01*
X187832142Y-80452380D02*
X187879761Y-80404761D01*
X187927380Y-80261904D01*
X187927380Y-80166666D01*
X187879761Y-80023809D01*
X187784523Y-79928571D01*
X187689285Y-79880952D01*
X187498809Y-79833333D01*
X187355952Y-79833333D01*
X187165476Y-79880952D01*
X187070238Y-79928571D01*
X186975000Y-80023809D01*
X186927380Y-80166666D01*
X186927380Y-80261904D01*
X186975000Y-80404761D01*
X187022619Y-80452380D01*
X131509642Y-106135714D02*
X131319166Y-106802380D01*
X131128690Y-106326190D01*
X130938214Y-106802380D01*
X130747738Y-106135714D01*
X130462023Y-106135714D02*
X130271547Y-106802380D01*
X130081071Y-106326190D01*
X129890595Y-106802380D01*
X129700119Y-106135714D01*
X129414404Y-106135714D02*
X129223928Y-106802380D01*
X129033452Y-106326190D01*
X128842976Y-106802380D01*
X128652500Y-106135714D01*
X128271547Y-106707142D02*
X128223928Y-106754761D01*
X128271547Y-106802380D01*
X128319166Y-106754761D01*
X128271547Y-106707142D01*
X128271547Y-106802380D01*
X127366785Y-106135714D02*
X127366785Y-106945238D01*
X127414404Y-107040476D01*
X127462023Y-107088095D01*
X127557261Y-107135714D01*
X127700119Y-107135714D01*
X127795357Y-107088095D01*
X127366785Y-106754761D02*
X127462023Y-106802380D01*
X127652500Y-106802380D01*
X127747738Y-106754761D01*
X127795357Y-106707142D01*
X127842976Y-106611904D01*
X127842976Y-106326190D01*
X127795357Y-106230952D01*
X127747738Y-106183333D01*
X127652500Y-106135714D01*
X127462023Y-106135714D01*
X127366785Y-106183333D01*
X126890595Y-106802380D02*
X126890595Y-106135714D01*
X126890595Y-105802380D02*
X126938214Y-105850000D01*
X126890595Y-105897619D01*
X126842976Y-105850000D01*
X126890595Y-105802380D01*
X126890595Y-105897619D01*
X126557261Y-106135714D02*
X126176309Y-106135714D01*
X126414404Y-105802380D02*
X126414404Y-106659523D01*
X126366785Y-106754761D01*
X126271547Y-106802380D01*
X126176309Y-106802380D01*
X125700119Y-106802380D02*
X125795357Y-106754761D01*
X125842976Y-106659523D01*
X125842976Y-105802380D01*
X124890595Y-106802380D02*
X124890595Y-106278571D01*
X124938214Y-106183333D01*
X125033452Y-106135714D01*
X125223928Y-106135714D01*
X125319166Y-106183333D01*
X124890595Y-106754761D02*
X124985833Y-106802380D01*
X125223928Y-106802380D01*
X125319166Y-106754761D01*
X125366785Y-106659523D01*
X125366785Y-106564285D01*
X125319166Y-106469047D01*
X125223928Y-106421428D01*
X124985833Y-106421428D01*
X124890595Y-106373809D01*
X124414404Y-106802380D02*
X124414404Y-105802380D01*
X124414404Y-106183333D02*
X124319166Y-106135714D01*
X124128690Y-106135714D01*
X124033452Y-106183333D01*
X123985833Y-106230952D01*
X123938214Y-106326190D01*
X123938214Y-106611904D01*
X123985833Y-106707142D01*
X124033452Y-106754761D01*
X124128690Y-106802380D01*
X124319166Y-106802380D01*
X124414404Y-106754761D01*
X123509642Y-106707142D02*
X123462023Y-106754761D01*
X123509642Y-106802380D01*
X123557261Y-106754761D01*
X123509642Y-106707142D01*
X123509642Y-106802380D01*
X122604880Y-106754761D02*
X122700119Y-106802380D01*
X122890595Y-106802380D01*
X122985833Y-106754761D01*
X123033452Y-106707142D01*
X123081071Y-106611904D01*
X123081071Y-106326190D01*
X123033452Y-106230952D01*
X122985833Y-106183333D01*
X122890595Y-106135714D01*
X122700119Y-106135714D01*
X122604880Y-106183333D01*
X122033452Y-106802380D02*
X122128690Y-106754761D01*
X122176309Y-106707142D01*
X122223928Y-106611904D01*
X122223928Y-106326190D01*
X122176309Y-106230952D01*
X122128690Y-106183333D01*
X122033452Y-106135714D01*
X121890595Y-106135714D01*
X121795357Y-106183333D01*
X121747738Y-106230952D01*
X121700119Y-106326190D01*
X121700119Y-106611904D01*
X121747738Y-106707142D01*
X121795357Y-106754761D01*
X121890595Y-106802380D01*
X122033452Y-106802380D01*
X121271547Y-106802380D02*
X121271547Y-106135714D01*
X121271547Y-106230952D02*
X121223928Y-106183333D01*
X121128690Y-106135714D01*
X120985833Y-106135714D01*
X120890595Y-106183333D01*
X120842976Y-106278571D01*
X120842976Y-106802380D01*
X120842976Y-106278571D02*
X120795357Y-106183333D01*
X120700119Y-106135714D01*
X120557261Y-106135714D01*
X120462023Y-106183333D01*
X120414404Y-106278571D01*
X120414404Y-106802380D01*
X119223928Y-105754761D02*
X120081071Y-107040476D01*
X118604880Y-105802380D02*
X118604880Y-106516666D01*
X118652500Y-106659523D01*
X118747738Y-106754761D01*
X118890595Y-106802380D01*
X118985833Y-106802380D01*
X117747738Y-106754761D02*
X117842976Y-106802380D01*
X118033452Y-106802380D01*
X118128690Y-106754761D01*
X118176309Y-106659523D01*
X118176309Y-106278571D01*
X118128690Y-106183333D01*
X118033452Y-106135714D01*
X117842976Y-106135714D01*
X117747738Y-106183333D01*
X117700119Y-106278571D01*
X117700119Y-106373809D01*
X118176309Y-106469047D01*
X117366785Y-106135714D02*
X117128690Y-106802380D01*
X116890595Y-106135714D02*
X117128690Y-106802380D01*
X117223928Y-107040476D01*
X117271547Y-107088095D01*
X117366785Y-107135714D01*
X115938214Y-106802380D02*
X116271547Y-106326190D01*
X116509642Y-106802380D02*
X116509642Y-105802380D01*
X116128690Y-105802380D01*
X116033452Y-105850000D01*
X115985833Y-105897619D01*
X115938214Y-105992857D01*
X115938214Y-106135714D01*
X115985833Y-106230952D01*
X116033452Y-106278571D01*
X116128690Y-106326190D01*
X116509642Y-106326190D01*
X115081071Y-106135714D02*
X115081071Y-106802380D01*
X115509642Y-106135714D02*
X115509642Y-106659523D01*
X115462023Y-106754761D01*
X115366785Y-106802380D01*
X115223928Y-106802380D01*
X115128690Y-106754761D01*
X115081071Y-106707142D01*
X114604880Y-106135714D02*
X114604880Y-106802380D01*
X114604880Y-106230952D02*
X114557261Y-106183333D01*
X114462023Y-106135714D01*
X114319166Y-106135714D01*
X114223928Y-106183333D01*
X114176309Y-106278571D01*
X114176309Y-106802380D01*
X113700119Y-106135714D02*
X113700119Y-106802380D01*
X113700119Y-106230952D02*
X113652500Y-106183333D01*
X113557261Y-106135714D01*
X113414404Y-106135714D01*
X113319166Y-106183333D01*
X113271547Y-106278571D01*
X113271547Y-106802380D01*
X112414404Y-106754761D02*
X112509642Y-106802380D01*
X112700119Y-106802380D01*
X112795357Y-106754761D01*
X112842976Y-106659523D01*
X112842976Y-106278571D01*
X112795357Y-106183333D01*
X112700119Y-106135714D01*
X112509642Y-106135714D01*
X112414404Y-106183333D01*
X112366785Y-106278571D01*
X112366785Y-106373809D01*
X112842976Y-106469047D01*
X111938214Y-106802380D02*
X111938214Y-106135714D01*
X111938214Y-106326190D02*
X111890595Y-106230952D01*
X111842976Y-106183333D01*
X111747738Y-106135714D01*
X111652500Y-106135714D01*
X110604880Y-105754761D02*
X111462023Y-107040476D01*
X110366785Y-106135714D02*
X110176309Y-106802380D01*
X109985833Y-106326190D01*
X109795357Y-106802380D01*
X109604880Y-106135714D01*
X108795357Y-106802380D02*
X108795357Y-106278571D01*
X108842976Y-106183333D01*
X108938214Y-106135714D01*
X109128690Y-106135714D01*
X109223928Y-106183333D01*
X108795357Y-106754761D02*
X108890595Y-106802380D01*
X109128690Y-106802380D01*
X109223928Y-106754761D01*
X109271547Y-106659523D01*
X109271547Y-106564285D01*
X109223928Y-106469047D01*
X109128690Y-106421428D01*
X108890595Y-106421428D01*
X108795357Y-106373809D01*
X108176309Y-106802380D02*
X108271547Y-106754761D01*
X108319166Y-106659523D01*
X108319166Y-105802380D01*
X107795357Y-106802380D02*
X107795357Y-105802380D01*
X107700119Y-106421428D02*
X107414404Y-106802380D01*
X107414404Y-106135714D02*
X107795357Y-106516666D01*
X106985833Y-106802380D02*
X106985833Y-106135714D01*
X106985833Y-105802380D02*
X107033452Y-105850000D01*
X106985833Y-105897619D01*
X106938214Y-105850000D01*
X106985833Y-105802380D01*
X106985833Y-105897619D01*
X106509642Y-106135714D02*
X106509642Y-106802380D01*
X106509642Y-106230952D02*
X106462023Y-106183333D01*
X106366785Y-106135714D01*
X106223928Y-106135714D01*
X106128690Y-106183333D01*
X106081071Y-106278571D01*
X106081071Y-106802380D01*
X105176309Y-106135714D02*
X105176309Y-106945238D01*
X105223928Y-107040476D01*
X105271547Y-107088095D01*
X105366785Y-107135714D01*
X105509642Y-107135714D01*
X105604880Y-107088095D01*
X105176309Y-106754761D02*
X105271547Y-106802380D01*
X105462023Y-106802380D01*
X105557261Y-106754761D01*
X105604880Y-106707142D01*
X105652500Y-106611904D01*
X105652500Y-106326190D01*
X105604880Y-106230952D01*
X105557261Y-106183333D01*
X105462023Y-106135714D01*
X105271547Y-106135714D01*
X105176309Y-106183333D01*
X104700119Y-106421428D02*
X103938214Y-106421428D01*
X103462023Y-106802380D02*
X103462023Y-106135714D01*
X103462023Y-106326190D02*
X103414404Y-106230952D01*
X103366785Y-106183333D01*
X103271547Y-106135714D01*
X103176309Y-106135714D01*
X102700119Y-106802380D02*
X102795357Y-106754761D01*
X102842976Y-106707142D01*
X102890595Y-106611904D01*
X102890595Y-106326190D01*
X102842976Y-106230952D01*
X102795357Y-106183333D01*
X102700119Y-106135714D01*
X102557261Y-106135714D01*
X102462023Y-106183333D01*
X102414404Y-106230952D01*
X102366785Y-106326190D01*
X102366785Y-106611904D01*
X102414404Y-106707142D01*
X102462023Y-106754761D01*
X102557261Y-106802380D01*
X102700119Y-106802380D01*
X101938214Y-106802380D02*
X101938214Y-105802380D01*
X101938214Y-106183333D02*
X101842976Y-106135714D01*
X101652500Y-106135714D01*
X101557261Y-106183333D01*
X101509642Y-106230952D01*
X101462023Y-106326190D01*
X101462023Y-106611904D01*
X101509642Y-106707142D01*
X101557261Y-106754761D01*
X101652500Y-106802380D01*
X101842976Y-106802380D01*
X101938214Y-106754761D01*
X100890595Y-106802380D02*
X100985833Y-106754761D01*
X101033452Y-106707142D01*
X101081071Y-106611904D01*
X101081071Y-106326190D01*
X101033452Y-106230952D01*
X100985833Y-106183333D01*
X100890595Y-106135714D01*
X100747738Y-106135714D01*
X100652500Y-106183333D01*
X100604880Y-106230952D01*
X100557261Y-106326190D01*
X100557261Y-106611904D01*
X100604880Y-106707142D01*
X100652500Y-106754761D01*
X100747738Y-106802380D01*
X100890595Y-106802380D01*
X100271547Y-106135714D02*
X99890595Y-106135714D01*
X100128690Y-105802380D02*
X100128690Y-106659523D01*
X100081071Y-106754761D01*
X99985833Y-106802380D01*
X99890595Y-106802380D01*
X131557261Y-107452380D02*
X131223928Y-108452380D01*
X130890595Y-107452380D01*
X130176309Y-108404761D02*
X130271547Y-108452380D01*
X130462023Y-108452380D01*
X130557261Y-108404761D01*
X130604880Y-108309523D01*
X130604880Y-107928571D01*
X130557261Y-107833333D01*
X130462023Y-107785714D01*
X130271547Y-107785714D01*
X130176309Y-107833333D01*
X130128690Y-107928571D01*
X130128690Y-108023809D01*
X130604880Y-108119047D01*
X129700119Y-108452380D02*
X129700119Y-107785714D01*
X129700119Y-107976190D02*
X129652500Y-107880952D01*
X129604880Y-107833333D01*
X129509642Y-107785714D01*
X129414404Y-107785714D01*
X129128690Y-108404761D02*
X129033452Y-108452380D01*
X128842976Y-108452380D01*
X128747738Y-108404761D01*
X128700119Y-108309523D01*
X128700119Y-108261904D01*
X128747738Y-108166666D01*
X128842976Y-108119047D01*
X128985833Y-108119047D01*
X129081071Y-108071428D01*
X129128690Y-107976190D01*
X129128690Y-107928571D01*
X129081071Y-107833333D01*
X128985833Y-107785714D01*
X128842976Y-107785714D01*
X128747738Y-107833333D01*
X128271547Y-108452380D02*
X128271547Y-107785714D01*
X128271547Y-107452380D02*
X128319166Y-107500000D01*
X128271547Y-107547619D01*
X128223928Y-107500000D01*
X128271547Y-107452380D01*
X128271547Y-107547619D01*
X127652500Y-108452380D02*
X127747738Y-108404761D01*
X127795357Y-108357142D01*
X127842976Y-108261904D01*
X127842976Y-107976190D01*
X127795357Y-107880952D01*
X127747738Y-107833333D01*
X127652500Y-107785714D01*
X127509642Y-107785714D01*
X127414404Y-107833333D01*
X127366785Y-107880952D01*
X127319166Y-107976190D01*
X127319166Y-108261904D01*
X127366785Y-108357142D01*
X127414404Y-108404761D01*
X127509642Y-108452380D01*
X127652500Y-108452380D01*
X126890595Y-107785714D02*
X126890595Y-108452380D01*
X126890595Y-107880952D02*
X126842976Y-107833333D01*
X126747738Y-107785714D01*
X126604880Y-107785714D01*
X126509642Y-107833333D01*
X126462023Y-107928571D01*
X126462023Y-108452380D01*
X125985833Y-108357142D02*
X125938214Y-108404761D01*
X125985833Y-108452380D01*
X126033452Y-108404761D01*
X125985833Y-108357142D01*
X125985833Y-108452380D01*
X125985833Y-107833333D02*
X125938214Y-107880952D01*
X125985833Y-107928571D01*
X126033452Y-107880952D01*
X125985833Y-107833333D01*
X125985833Y-107928571D01*
X124081071Y-107785714D02*
X123842976Y-108452380D01*
X123604880Y-107785714D01*
X123033452Y-107452380D02*
X122938214Y-107452380D01*
X122842976Y-107500000D01*
X122795357Y-107547619D01*
X122747738Y-107642857D01*
X122700119Y-107833333D01*
X122700119Y-108071428D01*
X122747738Y-108261904D01*
X122795357Y-108357142D01*
X122842976Y-108404761D01*
X122938214Y-108452380D01*
X123033452Y-108452380D01*
X123128690Y-108404761D01*
X123176309Y-108357142D01*
X123223928Y-108261904D01*
X123271547Y-108071428D01*
X123271547Y-107833333D01*
X123223928Y-107642857D01*
X123176309Y-107547619D01*
X123128690Y-107500000D01*
X123033452Y-107452380D01*
X122271547Y-108357142D02*
X122223928Y-108404761D01*
X122271547Y-108452380D01*
X122319166Y-108404761D01*
X122271547Y-108357142D01*
X122271547Y-108452380D01*
X121604880Y-107452380D02*
X121509642Y-107452380D01*
X121414404Y-107500000D01*
X121366785Y-107547619D01*
X121319166Y-107642857D01*
X121271547Y-107833333D01*
X121271547Y-108071428D01*
X121319166Y-108261904D01*
X121366785Y-108357142D01*
X121414404Y-108404761D01*
X121509642Y-108452380D01*
X121604880Y-108452380D01*
X121700119Y-108404761D01*
X121747738Y-108357142D01*
X121795357Y-108261904D01*
X121842976Y-108071428D01*
X121842976Y-107833333D01*
X121795357Y-107642857D01*
X121747738Y-107547619D01*
X121700119Y-107500000D01*
X121604880Y-107452380D01*
X120842976Y-108357142D02*
X120795357Y-108404761D01*
X120842976Y-108452380D01*
X120890595Y-108404761D01*
X120842976Y-108357142D01*
X120842976Y-108452380D01*
X119842976Y-108452380D02*
X120414404Y-108452380D01*
X120128690Y-108452380D02*
X120128690Y-107452380D01*
X120223928Y-107595238D01*
X120319166Y-107690476D01*
X120414404Y-107738095D01*
X130842976Y-110007142D02*
X130890595Y-110054761D01*
X131033452Y-110102380D01*
X131128690Y-110102380D01*
X131271547Y-110054761D01*
X131366785Y-109959523D01*
X131414404Y-109864285D01*
X131462023Y-109673809D01*
X131462023Y-109530952D01*
X131414404Y-109340476D01*
X131366785Y-109245238D01*
X131271547Y-109150000D01*
X131128690Y-109102380D01*
X131033452Y-109102380D01*
X130890595Y-109150000D01*
X130842976Y-109197619D01*
X130271547Y-110102380D02*
X130366785Y-110054761D01*
X130414404Y-110007142D01*
X130462023Y-109911904D01*
X130462023Y-109626190D01*
X130414404Y-109530952D01*
X130366785Y-109483333D01*
X130271547Y-109435714D01*
X130128690Y-109435714D01*
X130033452Y-109483333D01*
X129985833Y-109530952D01*
X129938214Y-109626190D01*
X129938214Y-109911904D01*
X129985833Y-110007142D01*
X130033452Y-110054761D01*
X130128690Y-110102380D01*
X130271547Y-110102380D01*
X129509642Y-110102380D02*
X129509642Y-109435714D01*
X129509642Y-109530952D02*
X129462023Y-109483333D01*
X129366785Y-109435714D01*
X129223928Y-109435714D01*
X129128690Y-109483333D01*
X129081071Y-109578571D01*
X129081071Y-110102380D01*
X129081071Y-109578571D02*
X129033452Y-109483333D01*
X128938214Y-109435714D01*
X128795357Y-109435714D01*
X128700119Y-109483333D01*
X128652500Y-109578571D01*
X128652500Y-110102380D01*
X128176309Y-110102380D02*
X128176309Y-109435714D01*
X128176309Y-109530952D02*
X128128690Y-109483333D01*
X128033452Y-109435714D01*
X127890595Y-109435714D01*
X127795357Y-109483333D01*
X127747738Y-109578571D01*
X127747738Y-110102380D01*
X127747738Y-109578571D02*
X127700119Y-109483333D01*
X127604880Y-109435714D01*
X127462023Y-109435714D01*
X127366785Y-109483333D01*
X127319166Y-109578571D01*
X127319166Y-110102380D01*
X126842976Y-110102380D02*
X126842976Y-109435714D01*
X126842976Y-109102380D02*
X126890595Y-109150000D01*
X126842976Y-109197619D01*
X126795357Y-109150000D01*
X126842976Y-109102380D01*
X126842976Y-109197619D01*
X126509642Y-109435714D02*
X126128690Y-109435714D01*
X126366785Y-109102380D02*
X126366785Y-109959523D01*
X126319166Y-110054761D01*
X126223928Y-110102380D01*
X126128690Y-110102380D01*
X125795357Y-110007142D02*
X125747738Y-110054761D01*
X125795357Y-110102380D01*
X125842976Y-110054761D01*
X125795357Y-110007142D01*
X125795357Y-110102380D01*
X125795357Y-109483333D02*
X125747738Y-109530952D01*
X125795357Y-109578571D01*
X125842976Y-109530952D01*
X125795357Y-109483333D01*
X125795357Y-109578571D01*
X124604880Y-109435714D02*
X123890595Y-109435714D01*
X124319166Y-109007142D02*
X124604880Y-110292857D01*
X123985833Y-109864285D02*
X124700119Y-109864285D01*
X124271547Y-110292857D02*
X123985833Y-109007142D01*
X123081071Y-109102380D02*
X123557261Y-109102380D01*
X123604880Y-109578571D01*
X123557261Y-109530952D01*
X123462023Y-109483333D01*
X123223928Y-109483333D01*
X123128690Y-109530952D01*
X123081071Y-109578571D01*
X123033452Y-109673809D01*
X123033452Y-109911904D01*
X123081071Y-110007142D01*
X123128690Y-110054761D01*
X123223928Y-110102380D01*
X123462023Y-110102380D01*
X123557261Y-110054761D01*
X123604880Y-110007142D01*
X122128690Y-109102380D02*
X122604880Y-109102380D01*
X122652500Y-109578571D01*
X122604880Y-109530952D01*
X122509642Y-109483333D01*
X122271547Y-109483333D01*
X122176309Y-109530952D01*
X122128690Y-109578571D01*
X122081071Y-109673809D01*
X122081071Y-109911904D01*
X122128690Y-110007142D01*
X122176309Y-110054761D01*
X122271547Y-110102380D01*
X122509642Y-110102380D01*
X122604880Y-110054761D01*
X122652500Y-110007142D01*
X121747738Y-109102380D02*
X121081071Y-109102380D01*
X121509642Y-110102380D01*
X120795357Y-109102380D02*
X120128690Y-109102380D01*
X120557261Y-110102380D01*
X119747738Y-110102380D02*
X119747738Y-109102380D01*
X119747738Y-109483333D02*
X119652500Y-109435714D01*
X119462023Y-109435714D01*
X119366785Y-109483333D01*
X119319166Y-109530952D01*
X119271547Y-109626190D01*
X119271547Y-109911904D01*
X119319166Y-110007142D01*
X119366785Y-110054761D01*
X119462023Y-110102380D01*
X119652500Y-110102380D01*
X119747738Y-110054761D01*
X118414404Y-109102380D02*
X118604880Y-109102380D01*
X118700119Y-109150000D01*
X118747738Y-109197619D01*
X118842976Y-109340476D01*
X118890595Y-109530952D01*
X118890595Y-109911904D01*
X118842976Y-110007142D01*
X118795357Y-110054761D01*
X118700119Y-110102380D01*
X118509642Y-110102380D01*
X118414404Y-110054761D01*
X118366785Y-110007142D01*
X118319166Y-109911904D01*
X118319166Y-109673809D01*
X118366785Y-109578571D01*
X118414404Y-109530952D01*
X118509642Y-109483333D01*
X118700119Y-109483333D01*
X118795357Y-109530952D01*
X118842976Y-109578571D01*
X118890595Y-109673809D01*
X117462023Y-110102380D02*
X117462023Y-109578571D01*
X117509642Y-109483333D01*
X117604880Y-109435714D01*
X117795357Y-109435714D01*
X117890595Y-109483333D01*
X117462023Y-110054761D02*
X117557261Y-110102380D01*
X117795357Y-110102380D01*
X117890595Y-110054761D01*
X117938214Y-109959523D01*
X117938214Y-109864285D01*
X117890595Y-109769047D01*
X117795357Y-109721428D01*
X117557261Y-109721428D01*
X117462023Y-109673809D01*
D11*
X169658928Y-106002976D02*
X169361309Y-107252976D01*
X169123214Y-106360119D01*
X168885119Y-107252976D01*
X168587500Y-106002976D01*
X167575595Y-107252976D02*
X167575595Y-106598214D01*
X167635119Y-106479166D01*
X167754166Y-106419642D01*
X167992261Y-106419642D01*
X168111309Y-106479166D01*
X167575595Y-107193452D02*
X167694642Y-107252976D01*
X167992261Y-107252976D01*
X168111309Y-107193452D01*
X168170833Y-107074404D01*
X168170833Y-106955357D01*
X168111309Y-106836309D01*
X167992261Y-106776785D01*
X167694642Y-106776785D01*
X167575595Y-106717261D01*
X166801785Y-107252976D02*
X166920833Y-107193452D01*
X166980357Y-107074404D01*
X166980357Y-106002976D01*
X166325595Y-107252976D02*
X166325595Y-106002976D01*
X166206547Y-106776785D02*
X165849404Y-107252976D01*
X165849404Y-106419642D02*
X166325595Y-106895833D01*
X165313690Y-107252976D02*
X165313690Y-106419642D01*
X165313690Y-106002976D02*
X165373214Y-106062500D01*
X165313690Y-106122023D01*
X165254166Y-106062500D01*
X165313690Y-106002976D01*
X165313690Y-106122023D01*
X164718452Y-106419642D02*
X164718452Y-107252976D01*
X164718452Y-106538690D02*
X164658928Y-106479166D01*
X164539880Y-106419642D01*
X164361309Y-106419642D01*
X164242261Y-106479166D01*
X164182738Y-106598214D01*
X164182738Y-107252976D01*
X163051785Y-106419642D02*
X163051785Y-107431547D01*
X163111309Y-107550595D01*
X163170833Y-107610119D01*
X163289880Y-107669642D01*
X163468452Y-107669642D01*
X163587500Y-107610119D01*
X163051785Y-107193452D02*
X163170833Y-107252976D01*
X163408928Y-107252976D01*
X163527976Y-107193452D01*
X163587500Y-107133928D01*
X163647023Y-107014880D01*
X163647023Y-106657738D01*
X163587500Y-106538690D01*
X163527976Y-106479166D01*
X163408928Y-106419642D01*
X163170833Y-106419642D01*
X163051785Y-106479166D01*
X160789880Y-107252976D02*
X161206547Y-106657738D01*
X161504166Y-107252976D02*
X161504166Y-106002976D01*
X161027976Y-106002976D01*
X160908928Y-106062500D01*
X160849404Y-106122023D01*
X160789880Y-106241071D01*
X160789880Y-106419642D01*
X160849404Y-106538690D01*
X160908928Y-106598214D01*
X161027976Y-106657738D01*
X161504166Y-106657738D01*
X160075595Y-107252976D02*
X160194642Y-107193452D01*
X160254166Y-107133928D01*
X160313690Y-107014880D01*
X160313690Y-106657738D01*
X160254166Y-106538690D01*
X160194642Y-106479166D01*
X160075595Y-106419642D01*
X159897023Y-106419642D01*
X159777976Y-106479166D01*
X159718452Y-106538690D01*
X159658928Y-106657738D01*
X159658928Y-107014880D01*
X159718452Y-107133928D01*
X159777976Y-107193452D01*
X159897023Y-107252976D01*
X160075595Y-107252976D01*
X159123214Y-107252976D02*
X159123214Y-106002976D01*
X159123214Y-106479166D02*
X159004166Y-106419642D01*
X158766071Y-106419642D01*
X158647023Y-106479166D01*
X158587500Y-106538690D01*
X158527976Y-106657738D01*
X158527976Y-107014880D01*
X158587500Y-107133928D01*
X158647023Y-107193452D01*
X158766071Y-107252976D01*
X159004166Y-107252976D01*
X159123214Y-107193452D01*
X157813690Y-107252976D02*
X157932738Y-107193452D01*
X157992261Y-107133928D01*
X158051785Y-107014880D01*
X158051785Y-106657738D01*
X157992261Y-106538690D01*
X157932738Y-106479166D01*
X157813690Y-106419642D01*
X157635119Y-106419642D01*
X157516071Y-106479166D01*
X157456547Y-106538690D01*
X157397023Y-106657738D01*
X157397023Y-107014880D01*
X157456547Y-107133928D01*
X157516071Y-107193452D01*
X157635119Y-107252976D01*
X157813690Y-107252976D01*
X157039880Y-106419642D02*
X156563690Y-106419642D01*
X156861309Y-106002976D02*
X156861309Y-107074404D01*
X156801785Y-107193452D01*
X156682738Y-107252976D01*
X156563690Y-107252976D01*
X169539880Y-109377976D02*
X169539880Y-108127976D01*
X169123214Y-109020833D01*
X168706547Y-108127976D01*
X168706547Y-109377976D01*
X167932738Y-109377976D02*
X168051785Y-109318452D01*
X168111309Y-109258928D01*
X168170833Y-109139880D01*
X168170833Y-108782738D01*
X168111309Y-108663690D01*
X168051785Y-108604166D01*
X167932738Y-108544642D01*
X167754166Y-108544642D01*
X167635119Y-108604166D01*
X167575595Y-108663690D01*
X167516071Y-108782738D01*
X167516071Y-109139880D01*
X167575595Y-109258928D01*
X167635119Y-109318452D01*
X167754166Y-109377976D01*
X167932738Y-109377976D01*
X167158928Y-108544642D02*
X166682738Y-108544642D01*
X166980357Y-108127976D02*
X166980357Y-109199404D01*
X166920833Y-109318452D01*
X166801785Y-109377976D01*
X166682738Y-109377976D01*
X166087500Y-109377976D02*
X166206547Y-109318452D01*
X166266071Y-109258928D01*
X166325595Y-109139880D01*
X166325595Y-108782738D01*
X166266071Y-108663690D01*
X166206547Y-108604166D01*
X166087500Y-108544642D01*
X165908928Y-108544642D01*
X165789880Y-108604166D01*
X165730357Y-108663690D01*
X165670833Y-108782738D01*
X165670833Y-109139880D01*
X165730357Y-109258928D01*
X165789880Y-109318452D01*
X165908928Y-109377976D01*
X166087500Y-109377976D01*
X165135119Y-109377976D02*
X165135119Y-108544642D01*
X165135119Y-108782738D02*
X165075595Y-108663690D01*
X165016071Y-108604166D01*
X164897023Y-108544642D01*
X164777976Y-108544642D01*
X163408928Y-109377976D02*
X163408928Y-108127976D01*
X163111309Y-108127976D01*
X162932738Y-108187500D01*
X162813690Y-108306547D01*
X162754166Y-108425595D01*
X162694642Y-108663690D01*
X162694642Y-108842261D01*
X162754166Y-109080357D01*
X162813690Y-109199404D01*
X162932738Y-109318452D01*
X163111309Y-109377976D01*
X163408928Y-109377976D01*
X162158928Y-109377976D02*
X162158928Y-108544642D01*
X162158928Y-108782738D02*
X162099404Y-108663690D01*
X162039880Y-108604166D01*
X161920833Y-108544642D01*
X161801785Y-108544642D01*
X161385119Y-109377976D02*
X161385119Y-108544642D01*
X161385119Y-108127976D02*
X161444642Y-108187500D01*
X161385119Y-108247023D01*
X161325595Y-108187500D01*
X161385119Y-108127976D01*
X161385119Y-108247023D01*
X160908928Y-108544642D02*
X160611309Y-109377976D01*
X160313690Y-108544642D01*
X159361309Y-109318452D02*
X159480357Y-109377976D01*
X159718452Y-109377976D01*
X159837500Y-109318452D01*
X159897023Y-109199404D01*
X159897023Y-108723214D01*
X159837500Y-108604166D01*
X159718452Y-108544642D01*
X159480357Y-108544642D01*
X159361309Y-108604166D01*
X159301785Y-108723214D01*
X159301785Y-108842261D01*
X159897023Y-108961309D01*
X158766071Y-109377976D02*
X158766071Y-108544642D01*
X158766071Y-108782738D02*
X158706547Y-108663690D01*
X158647023Y-108604166D01*
X158527976Y-108544642D01*
X158408928Y-108544642D01*
D12*
%TO.C,J8*%
X158950000Y-63250000D02*
G75*
G03X158950000Y-63250000I-950000J0D01*
G01*
D13*
%TO.C,DRA1*%
G36*
X152204944Y-105059002D02*
G01*
X151940555Y-105059019D01*
X151699401Y-105059060D01*
X151480400Y-105059137D01*
X151282469Y-105059262D01*
X151104526Y-105059446D01*
X150945488Y-105059700D01*
X150804274Y-105060037D01*
X150679800Y-105060467D01*
X150570984Y-105061001D01*
X150476744Y-105061652D01*
X150395998Y-105062430D01*
X150327662Y-105063348D01*
X150270655Y-105064416D01*
X150223894Y-105065645D01*
X150186297Y-105067048D01*
X150156780Y-105068636D01*
X150134263Y-105070420D01*
X150117662Y-105072412D01*
X150105895Y-105074622D01*
X150097880Y-105077063D01*
X150092534Y-105079746D01*
X150088774Y-105082682D01*
X150087000Y-105084399D01*
X150083467Y-105088262D01*
X150080277Y-105093263D01*
X150077414Y-105100658D01*
X150074859Y-105111701D01*
X150072596Y-105127647D01*
X150070605Y-105149751D01*
X150068871Y-105179267D01*
X150067375Y-105217449D01*
X150066100Y-105265553D01*
X150065028Y-105324833D01*
X150064141Y-105396545D01*
X150063422Y-105481941D01*
X150062853Y-105582278D01*
X150062417Y-105698810D01*
X150062096Y-105832792D01*
X150061873Y-105985477D01*
X150061729Y-106158122D01*
X150061647Y-106351980D01*
X150061611Y-106568307D01*
X150061601Y-106808356D01*
X150061600Y-106894727D01*
X150061600Y-108679654D01*
X150093562Y-108711615D01*
X150123724Y-108734024D01*
X150151793Y-108735810D01*
X150153887Y-108735233D01*
X150166230Y-108725372D01*
X150195416Y-108698599D01*
X150240352Y-108655985D01*
X150299946Y-108598604D01*
X150373106Y-108527528D01*
X150458738Y-108443831D01*
X150555750Y-108348586D01*
X150663050Y-108242865D01*
X150779546Y-108127741D01*
X150904145Y-108004287D01*
X151035755Y-107873576D01*
X151173282Y-107736680D01*
X151315636Y-107594674D01*
X151337933Y-107572403D01*
X152493616Y-106417917D01*
X153649333Y-107572397D01*
X153792336Y-107715094D01*
X153930682Y-107852846D01*
X154063278Y-107984579D01*
X154189032Y-108109220D01*
X154306851Y-108225697D01*
X154415642Y-108332937D01*
X154514314Y-108429867D01*
X154601774Y-108515413D01*
X154676929Y-108588504D01*
X154738687Y-108648066D01*
X154785955Y-108693027D01*
X154817641Y-108722313D01*
X154832653Y-108734852D01*
X154833414Y-108735227D01*
X154861605Y-108734797D01*
X154891361Y-108713958D01*
X154893739Y-108711615D01*
X154925700Y-108679654D01*
X154925700Y-106894727D01*
X154925696Y-106646409D01*
X154925670Y-106422236D01*
X154925606Y-106220954D01*
X154925485Y-106041308D01*
X154925290Y-105882043D01*
X154925004Y-105741905D01*
X154924609Y-105619638D01*
X154924086Y-105513989D01*
X154923420Y-105423703D01*
X154922592Y-105347525D01*
X154921584Y-105284200D01*
X154920379Y-105232473D01*
X154918959Y-105191091D01*
X154917307Y-105158797D01*
X154915405Y-105134339D01*
X154913235Y-105116460D01*
X154910781Y-105103906D01*
X154908023Y-105095423D01*
X154904945Y-105089756D01*
X154901530Y-105085650D01*
X154900300Y-105084400D01*
X154896951Y-105081320D01*
X154892607Y-105078500D01*
X154886185Y-105075928D01*
X154876604Y-105073593D01*
X154862781Y-105071483D01*
X154843634Y-105069587D01*
X154818079Y-105067893D01*
X154785036Y-105066391D01*
X154743421Y-105065067D01*
X154692152Y-105063912D01*
X154630146Y-105062914D01*
X154556321Y-105062061D01*
X154469595Y-105061342D01*
X154368885Y-105060745D01*
X154253109Y-105060260D01*
X154121185Y-105059874D01*
X153972029Y-105059576D01*
X153804560Y-105059355D01*
X153617695Y-105059199D01*
X153410351Y-105059097D01*
X153181447Y-105059037D01*
X152929900Y-105059009D01*
X152654627Y-105059000D01*
X152493650Y-105059000D01*
X152204944Y-105059002D01*
G37*
X152204944Y-105059002D02*
X151940555Y-105059019D01*
X151699401Y-105059060D01*
X151480400Y-105059137D01*
X151282469Y-105059262D01*
X151104526Y-105059446D01*
X150945488Y-105059700D01*
X150804274Y-105060037D01*
X150679800Y-105060467D01*
X150570984Y-105061001D01*
X150476744Y-105061652D01*
X150395998Y-105062430D01*
X150327662Y-105063348D01*
X150270655Y-105064416D01*
X150223894Y-105065645D01*
X150186297Y-105067048D01*
X150156780Y-105068636D01*
X150134263Y-105070420D01*
X150117662Y-105072412D01*
X150105895Y-105074622D01*
X150097880Y-105077063D01*
X150092534Y-105079746D01*
X150088774Y-105082682D01*
X150087000Y-105084399D01*
X150083467Y-105088262D01*
X150080277Y-105093263D01*
X150077414Y-105100658D01*
X150074859Y-105111701D01*
X150072596Y-105127647D01*
X150070605Y-105149751D01*
X150068871Y-105179267D01*
X150067375Y-105217449D01*
X150066100Y-105265553D01*
X150065028Y-105324833D01*
X150064141Y-105396545D01*
X150063422Y-105481941D01*
X150062853Y-105582278D01*
X150062417Y-105698810D01*
X150062096Y-105832792D01*
X150061873Y-105985477D01*
X150061729Y-106158122D01*
X150061647Y-106351980D01*
X150061611Y-106568307D01*
X150061601Y-106808356D01*
X150061600Y-106894727D01*
X150061600Y-108679654D01*
X150093562Y-108711615D01*
X150123724Y-108734024D01*
X150151793Y-108735810D01*
X150153887Y-108735233D01*
X150166230Y-108725372D01*
X150195416Y-108698599D01*
X150240352Y-108655985D01*
X150299946Y-108598604D01*
X150373106Y-108527528D01*
X150458738Y-108443831D01*
X150555750Y-108348586D01*
X150663050Y-108242865D01*
X150779546Y-108127741D01*
X150904145Y-108004287D01*
X151035755Y-107873576D01*
X151173282Y-107736680D01*
X151315636Y-107594674D01*
X151337933Y-107572403D01*
X152493616Y-106417917D01*
X153649333Y-107572397D01*
X153792336Y-107715094D01*
X153930682Y-107852846D01*
X154063278Y-107984579D01*
X154189032Y-108109220D01*
X154306851Y-108225697D01*
X154415642Y-108332937D01*
X154514314Y-108429867D01*
X154601774Y-108515413D01*
X154676929Y-108588504D01*
X154738687Y-108648066D01*
X154785955Y-108693027D01*
X154817641Y-108722313D01*
X154832653Y-108734852D01*
X154833414Y-108735227D01*
X154861605Y-108734797D01*
X154891361Y-108713958D01*
X154893739Y-108711615D01*
X154925700Y-108679654D01*
X154925700Y-106894727D01*
X154925696Y-106646409D01*
X154925670Y-106422236D01*
X154925606Y-106220954D01*
X154925485Y-106041308D01*
X154925290Y-105882043D01*
X154925004Y-105741905D01*
X154924609Y-105619638D01*
X154924086Y-105513989D01*
X154923420Y-105423703D01*
X154922592Y-105347525D01*
X154921584Y-105284200D01*
X154920379Y-105232473D01*
X154918959Y-105191091D01*
X154917307Y-105158797D01*
X154915405Y-105134339D01*
X154913235Y-105116460D01*
X154910781Y-105103906D01*
X154908023Y-105095423D01*
X154904945Y-105089756D01*
X154901530Y-105085650D01*
X154900300Y-105084400D01*
X154896951Y-105081320D01*
X154892607Y-105078500D01*
X154886185Y-105075928D01*
X154876604Y-105073593D01*
X154862781Y-105071483D01*
X154843634Y-105069587D01*
X154818079Y-105067893D01*
X154785036Y-105066391D01*
X154743421Y-105065067D01*
X154692152Y-105063912D01*
X154630146Y-105062914D01*
X154556321Y-105062061D01*
X154469595Y-105061342D01*
X154368885Y-105060745D01*
X154253109Y-105060260D01*
X154121185Y-105059874D01*
X153972029Y-105059576D01*
X153804560Y-105059355D01*
X153617695Y-105059199D01*
X153410351Y-105059097D01*
X153181447Y-105059037D01*
X152929900Y-105059009D01*
X152654627Y-105059000D01*
X152493650Y-105059000D01*
X152204944Y-105059002D01*
G36*
X157189534Y-108593419D02*
G01*
X157173372Y-108605366D01*
X157148789Y-108626175D01*
X157115033Y-108656576D01*
X157071351Y-108697304D01*
X157016990Y-108749092D01*
X156951199Y-108812672D01*
X156873225Y-108888777D01*
X156782316Y-108978141D01*
X156677718Y-109081495D01*
X156558681Y-109199573D01*
X156424451Y-109333108D01*
X156274276Y-109482833D01*
X156107403Y-109649481D01*
X156008436Y-109748414D01*
X154849569Y-110907229D01*
X153690496Y-109748414D01*
X153520605Y-109578613D01*
X153367717Y-109425935D01*
X153230918Y-109289495D01*
X153109296Y-109168410D01*
X153001939Y-109061797D01*
X152907934Y-108968773D01*
X152826368Y-108888452D01*
X152756330Y-108819953D01*
X152696905Y-108762391D01*
X152647183Y-108714883D01*
X152606249Y-108676544D01*
X152573193Y-108646493D01*
X152547100Y-108623844D01*
X152527058Y-108607715D01*
X152512156Y-108597222D01*
X152501479Y-108591481D01*
X152494117Y-108589609D01*
X152493650Y-108589600D01*
X152486510Y-108591205D01*
X152476128Y-108596609D01*
X152461592Y-108606695D01*
X152441988Y-108622348D01*
X152416405Y-108644451D01*
X152383930Y-108673887D01*
X152343651Y-108711540D01*
X152294654Y-108758294D01*
X152236027Y-108815032D01*
X152166858Y-108882637D01*
X152086234Y-108961994D01*
X151993242Y-109053986D01*
X151886970Y-109159496D01*
X151766505Y-109279408D01*
X151630936Y-109414606D01*
X151479348Y-109565973D01*
X151310830Y-109734392D01*
X151296805Y-109748414D01*
X150137732Y-110907229D01*
X148978865Y-109748414D01*
X148808326Y-109577876D01*
X148654829Y-109424422D01*
X148517437Y-109287198D01*
X148395212Y-109165347D01*
X148287216Y-109058016D01*
X148192509Y-108964348D01*
X148110155Y-108883489D01*
X148039215Y-108814583D01*
X147978750Y-108756776D01*
X147927823Y-108709211D01*
X147885496Y-108671034D01*
X147850830Y-108641389D01*
X147822886Y-108619421D01*
X147800728Y-108604276D01*
X147783416Y-108595097D01*
X147770013Y-108591030D01*
X147759581Y-108591219D01*
X147751180Y-108594809D01*
X147743873Y-108600945D01*
X147736723Y-108608772D01*
X147733119Y-108612825D01*
X147729580Y-108618272D01*
X147726460Y-108627325D01*
X147723731Y-108641501D01*
X147721367Y-108662314D01*
X147719344Y-108691282D01*
X147717635Y-108729921D01*
X147716214Y-108779748D01*
X147715055Y-108842278D01*
X147714133Y-108919028D01*
X147713420Y-109011514D01*
X147712892Y-109121254D01*
X147712522Y-109249762D01*
X147712285Y-109398556D01*
X147712154Y-109569152D01*
X147712104Y-109763067D01*
X147712100Y-109841641D01*
X147712100Y-111047233D01*
X148909234Y-112244116D01*
X150106367Y-113441000D01*
X154880934Y-113441000D01*
X156078067Y-112244116D01*
X157275200Y-111047233D01*
X157275200Y-109839434D01*
X157275184Y-109637039D01*
X157275114Y-109458517D01*
X157274963Y-109302341D01*
X157274701Y-109166986D01*
X157274300Y-109050925D01*
X157273731Y-108952631D01*
X157272965Y-108870578D01*
X157271973Y-108803239D01*
X157270726Y-108749087D01*
X157269196Y-108706597D01*
X157267353Y-108674241D01*
X157265169Y-108650493D01*
X157262615Y-108633826D01*
X157259661Y-108622714D01*
X157256280Y-108615630D01*
X157252442Y-108611049D01*
X157251975Y-108610618D01*
X157220991Y-108593783D01*
X157198026Y-108589599D01*
X157189534Y-108593419D01*
G37*
X157189534Y-108593419D02*
X157173372Y-108605366D01*
X157148789Y-108626175D01*
X157115033Y-108656576D01*
X157071351Y-108697304D01*
X157016990Y-108749092D01*
X156951199Y-108812672D01*
X156873225Y-108888777D01*
X156782316Y-108978141D01*
X156677718Y-109081495D01*
X156558681Y-109199573D01*
X156424451Y-109333108D01*
X156274276Y-109482833D01*
X156107403Y-109649481D01*
X156008436Y-109748414D01*
X154849569Y-110907229D01*
X153690496Y-109748414D01*
X153520605Y-109578613D01*
X153367717Y-109425935D01*
X153230918Y-109289495D01*
X153109296Y-109168410D01*
X153001939Y-109061797D01*
X152907934Y-108968773D01*
X152826368Y-108888452D01*
X152756330Y-108819953D01*
X152696905Y-108762391D01*
X152647183Y-108714883D01*
X152606249Y-108676544D01*
X152573193Y-108646493D01*
X152547100Y-108623844D01*
X152527058Y-108607715D01*
X152512156Y-108597222D01*
X152501479Y-108591481D01*
X152494117Y-108589609D01*
X152493650Y-108589600D01*
X152486510Y-108591205D01*
X152476128Y-108596609D01*
X152461592Y-108606695D01*
X152441988Y-108622348D01*
X152416405Y-108644451D01*
X152383930Y-108673887D01*
X152343651Y-108711540D01*
X152294654Y-108758294D01*
X152236027Y-108815032D01*
X152166858Y-108882637D01*
X152086234Y-108961994D01*
X151993242Y-109053986D01*
X151886970Y-109159496D01*
X151766505Y-109279408D01*
X151630936Y-109414606D01*
X151479348Y-109565973D01*
X151310830Y-109734392D01*
X151296805Y-109748414D01*
X150137732Y-110907229D01*
X148978865Y-109748414D01*
X148808326Y-109577876D01*
X148654829Y-109424422D01*
X148517437Y-109287198D01*
X148395212Y-109165347D01*
X148287216Y-109058016D01*
X148192509Y-108964348D01*
X148110155Y-108883489D01*
X148039215Y-108814583D01*
X147978750Y-108756776D01*
X147927823Y-108709211D01*
X147885496Y-108671034D01*
X147850830Y-108641389D01*
X147822886Y-108619421D01*
X147800728Y-108604276D01*
X147783416Y-108595097D01*
X147770013Y-108591030D01*
X147759581Y-108591219D01*
X147751180Y-108594809D01*
X147743873Y-108600945D01*
X147736723Y-108608772D01*
X147733119Y-108612825D01*
X147729580Y-108618272D01*
X147726460Y-108627325D01*
X147723731Y-108641501D01*
X147721367Y-108662314D01*
X147719344Y-108691282D01*
X147717635Y-108729921D01*
X147716214Y-108779748D01*
X147715055Y-108842278D01*
X147714133Y-108919028D01*
X147713420Y-109011514D01*
X147712892Y-109121254D01*
X147712522Y-109249762D01*
X147712285Y-109398556D01*
X147712154Y-109569152D01*
X147712104Y-109763067D01*
X147712100Y-109841641D01*
X147712100Y-111047233D01*
X148909234Y-112244116D01*
X150106367Y-113441000D01*
X154880934Y-113441000D01*
X156078067Y-112244116D01*
X157275200Y-111047233D01*
X157275200Y-109839434D01*
X157275184Y-109637039D01*
X157275114Y-109458517D01*
X157274963Y-109302341D01*
X157274701Y-109166986D01*
X157274300Y-109050925D01*
X157273731Y-108952631D01*
X157272965Y-108870578D01*
X157271973Y-108803239D01*
X157270726Y-108749087D01*
X157269196Y-108706597D01*
X157267353Y-108674241D01*
X157265169Y-108650493D01*
X157262615Y-108633826D01*
X157259661Y-108622714D01*
X157256280Y-108615630D01*
X157252442Y-108611049D01*
X157251975Y-108610618D01*
X157220991Y-108593783D01*
X157198026Y-108589599D01*
X157189534Y-108593419D01*
D12*
%TO.C,C32*%
X118385000Y-100675000D02*
X117135000Y-100675000D01*
X117760000Y-101300000D02*
X117760000Y-100050000D01*
X110704437Y-99810000D02*
X109640000Y-98745563D01*
X119295563Y-99810000D02*
X120360000Y-98745563D01*
X119295563Y-99810000D02*
X116510000Y-99810000D01*
X110704437Y-99810000D02*
X113490000Y-99810000D01*
X109640000Y-98745563D02*
X109640000Y-89090000D01*
X120360000Y-98745563D02*
X120360000Y-89090000D01*
X120360000Y-89090000D02*
X116510000Y-89090000D01*
X109640000Y-89090000D02*
X113490000Y-89090000D01*
%TO.C,L1*%
X150740000Y-50171267D02*
X150740000Y-49828733D01*
X151760000Y-50171267D02*
X151760000Y-49828733D01*
%TO.C,C38*%
X149890000Y-53786252D02*
X149890000Y-53263748D01*
X151310000Y-53786252D02*
X151310000Y-53263748D01*
%TO.C,C2*%
X149360000Y-55211252D02*
X149360000Y-54688748D01*
X147940000Y-55211252D02*
X147940000Y-54688748D01*
%TO.C,R3*%
X155697936Y-47490000D02*
X156902064Y-47490000D01*
X155697936Y-49310000D02*
X156902064Y-49310000D01*
%TO.C,R6*%
X159790000Y-57502064D02*
X159790000Y-56297936D01*
X161610000Y-57502064D02*
X161610000Y-56297936D01*
%TO.C,R13*%
X105152064Y-96810000D02*
X101047936Y-96810000D01*
X105152064Y-93390000D02*
X101047936Y-93390000D01*
%TO.C,R19*%
X105152064Y-92910000D02*
X101047936Y-92910000D01*
X105152064Y-89490000D02*
X101047936Y-89490000D01*
%TO.C,R25*%
X105139564Y-100710000D02*
X101035436Y-100710000D01*
X105139564Y-97290000D02*
X101035436Y-97290000D01*
%TO.C,R32*%
X142552064Y-106760000D02*
X138447936Y-106760000D01*
X142552064Y-103340000D02*
X138447936Y-103340000D01*
%TO.C,R33*%
X142552064Y-110610000D02*
X138447936Y-110610000D01*
X142552064Y-107190000D02*
X138447936Y-107190000D01*
%TO.C,R34*%
X142552064Y-114460000D02*
X138447936Y-114460000D01*
X142552064Y-111040000D02*
X138447936Y-111040000D01*
%TO.C,C33*%
X131935000Y-100675000D02*
X130685000Y-100675000D01*
X131310000Y-101300000D02*
X131310000Y-100050000D01*
X124254437Y-99810000D02*
X123190000Y-98745563D01*
X132845563Y-99810000D02*
X133910000Y-98745563D01*
X132845563Y-99810000D02*
X130060000Y-99810000D01*
X124254437Y-99810000D02*
X127040000Y-99810000D01*
X123190000Y-98745563D02*
X123190000Y-89090000D01*
X133910000Y-98745563D02*
X133910000Y-89090000D01*
X133910000Y-89090000D02*
X130060000Y-89090000D01*
X123190000Y-89090000D02*
X127040000Y-89090000D01*
%TO.C,C34*%
X133575000Y-98185000D02*
X133575000Y-96935000D01*
X132950000Y-97560000D02*
X134200000Y-97560000D01*
X134440000Y-90504437D02*
X135504437Y-89440000D01*
X134440000Y-99095563D02*
X135504437Y-100160000D01*
X134440000Y-99095563D02*
X134440000Y-96310000D01*
X134440000Y-90504437D02*
X134440000Y-93290000D01*
X135504437Y-89440000D02*
X145160000Y-89440000D01*
X135504437Y-100160000D02*
X145160000Y-100160000D01*
X145160000Y-100160000D02*
X145160000Y-96310000D01*
X145160000Y-89440000D02*
X145160000Y-93290000D01*
%TO.C,C35*%
X179885000Y-100675000D02*
X178635000Y-100675000D01*
X179260000Y-101300000D02*
X179260000Y-100050000D01*
X172204437Y-99810000D02*
X171140000Y-98745563D01*
X180795563Y-99810000D02*
X181860000Y-98745563D01*
X180795563Y-99810000D02*
X178010000Y-99810000D01*
X172204437Y-99810000D02*
X174990000Y-99810000D01*
X171140000Y-98745563D02*
X171140000Y-89090000D01*
X181860000Y-98745563D02*
X181860000Y-89090000D01*
X181860000Y-89090000D02*
X178010000Y-89090000D01*
X171140000Y-89090000D02*
X174990000Y-89090000D01*
%TO.C,C36*%
X157325000Y-91415000D02*
X157325000Y-92665000D01*
X157950000Y-92040000D02*
X156700000Y-92040000D01*
X156460000Y-99095563D02*
X155395563Y-100160000D01*
X156460000Y-90504437D02*
X155395563Y-89440000D01*
X156460000Y-90504437D02*
X156460000Y-93290000D01*
X156460000Y-99095563D02*
X156460000Y-96310000D01*
X155395563Y-100160000D02*
X145740000Y-100160000D01*
X155395563Y-89440000D02*
X145740000Y-89440000D01*
X145740000Y-89440000D02*
X145740000Y-93290000D01*
X145740000Y-100160000D02*
X145740000Y-96310000D01*
%TO.C,C37*%
X165685000Y-100675000D02*
X164435000Y-100675000D01*
X165060000Y-101300000D02*
X165060000Y-100050000D01*
X158004437Y-99810000D02*
X156940000Y-98745563D01*
X166595563Y-99810000D02*
X167660000Y-98745563D01*
X166595563Y-99810000D02*
X163810000Y-99810000D01*
X158004437Y-99810000D02*
X160790000Y-99810000D01*
X156940000Y-98745563D02*
X156940000Y-89090000D01*
X167660000Y-98745563D02*
X167660000Y-89090000D01*
X167660000Y-89090000D02*
X163810000Y-89090000D01*
X156940000Y-89090000D02*
X160790000Y-89090000D01*
%TO.C,J8*%
D10*
X155702380Y-62916666D02*
X156416666Y-62916666D01*
X156559523Y-62869047D01*
X156654761Y-62773809D01*
X156702380Y-62630952D01*
X156702380Y-62535714D01*
X156130952Y-63535714D02*
X156083333Y-63440476D01*
X156035714Y-63392857D01*
X155940476Y-63345238D01*
X155892857Y-63345238D01*
X155797619Y-63392857D01*
X155750000Y-63440476D01*
X155702380Y-63535714D01*
X155702380Y-63726190D01*
X155750000Y-63821428D01*
X155797619Y-63869047D01*
X155892857Y-63916666D01*
X155940476Y-63916666D01*
X156035714Y-63869047D01*
X156083333Y-63821428D01*
X156130952Y-63726190D01*
X156130952Y-63535714D01*
X156178571Y-63440476D01*
X156226190Y-63392857D01*
X156321428Y-63345238D01*
X156511904Y-63345238D01*
X156607142Y-63392857D01*
X156654761Y-63440476D01*
X156702380Y-63535714D01*
X156702380Y-63726190D01*
X156654761Y-63821428D01*
X156607142Y-63869047D01*
X156511904Y-63916666D01*
X156321428Y-63916666D01*
X156226190Y-63869047D01*
X156178571Y-63821428D01*
X156130952Y-63726190D01*
%TO.C,C32*%
X110642857Y-101107142D02*
X110690476Y-101154761D01*
X110833333Y-101202380D01*
X110928571Y-101202380D01*
X111071428Y-101154761D01*
X111166666Y-101059523D01*
X111214285Y-100964285D01*
X111261904Y-100773809D01*
X111261904Y-100630952D01*
X111214285Y-100440476D01*
X111166666Y-100345238D01*
X111071428Y-100250000D01*
X110928571Y-100202380D01*
X110833333Y-100202380D01*
X110690476Y-100250000D01*
X110642857Y-100297619D01*
X110309523Y-100202380D02*
X109690476Y-100202380D01*
X110023809Y-100583333D01*
X109880952Y-100583333D01*
X109785714Y-100630952D01*
X109738095Y-100678571D01*
X109690476Y-100773809D01*
X109690476Y-101011904D01*
X109738095Y-101107142D01*
X109785714Y-101154761D01*
X109880952Y-101202380D01*
X110166666Y-101202380D01*
X110261904Y-101154761D01*
X110309523Y-101107142D01*
X109309523Y-100297619D02*
X109261904Y-100250000D01*
X109166666Y-100202380D01*
X108928571Y-100202380D01*
X108833333Y-100250000D01*
X108785714Y-100297619D01*
X108738095Y-100392857D01*
X108738095Y-100488095D01*
X108785714Y-100630952D01*
X109357142Y-101202380D01*
X108738095Y-101202380D01*
%TO.C,L1*%
X150352380Y-49833333D02*
X150352380Y-49357142D01*
X149352380Y-49357142D01*
X150352380Y-50690476D02*
X150352380Y-50119047D01*
X150352380Y-50404761D02*
X149352380Y-50404761D01*
X149495238Y-50309523D01*
X149590476Y-50214285D01*
X149638095Y-50119047D01*
%TO.C,C38*%
X152657142Y-52857142D02*
X152704761Y-52809523D01*
X152752380Y-52666666D01*
X152752380Y-52571428D01*
X152704761Y-52428571D01*
X152609523Y-52333333D01*
X152514285Y-52285714D01*
X152323809Y-52238095D01*
X152180952Y-52238095D01*
X151990476Y-52285714D01*
X151895238Y-52333333D01*
X151800000Y-52428571D01*
X151752380Y-52571428D01*
X151752380Y-52666666D01*
X151800000Y-52809523D01*
X151847619Y-52857142D01*
X151752380Y-53190476D02*
X151752380Y-53809523D01*
X152133333Y-53476190D01*
X152133333Y-53619047D01*
X152180952Y-53714285D01*
X152228571Y-53761904D01*
X152323809Y-53809523D01*
X152561904Y-53809523D01*
X152657142Y-53761904D01*
X152704761Y-53714285D01*
X152752380Y-53619047D01*
X152752380Y-53333333D01*
X152704761Y-53238095D01*
X152657142Y-53190476D01*
X152180952Y-54380952D02*
X152133333Y-54285714D01*
X152085714Y-54238095D01*
X151990476Y-54190476D01*
X151942857Y-54190476D01*
X151847619Y-54238095D01*
X151800000Y-54285714D01*
X151752380Y-54380952D01*
X151752380Y-54571428D01*
X151800000Y-54666666D01*
X151847619Y-54714285D01*
X151942857Y-54761904D01*
X151990476Y-54761904D01*
X152085714Y-54714285D01*
X152133333Y-54666666D01*
X152180952Y-54571428D01*
X152180952Y-54380952D01*
X152228571Y-54285714D01*
X152276190Y-54238095D01*
X152371428Y-54190476D01*
X152561904Y-54190476D01*
X152657142Y-54238095D01*
X152704761Y-54285714D01*
X152752380Y-54380952D01*
X152752380Y-54571428D01*
X152704761Y-54666666D01*
X152657142Y-54714285D01*
X152561904Y-54761904D01*
X152371428Y-54761904D01*
X152276190Y-54714285D01*
X152228571Y-54666666D01*
X152180952Y-54571428D01*
%TO.C,C2*%
X147457142Y-55433333D02*
X147504761Y-55385714D01*
X147552380Y-55242857D01*
X147552380Y-55147619D01*
X147504761Y-55004761D01*
X147409523Y-54909523D01*
X147314285Y-54861904D01*
X147123809Y-54814285D01*
X146980952Y-54814285D01*
X146790476Y-54861904D01*
X146695238Y-54909523D01*
X146600000Y-55004761D01*
X146552380Y-55147619D01*
X146552380Y-55242857D01*
X146600000Y-55385714D01*
X146647619Y-55433333D01*
X146647619Y-55814285D02*
X146600000Y-55861904D01*
X146552380Y-55957142D01*
X146552380Y-56195238D01*
X146600000Y-56290476D01*
X146647619Y-56338095D01*
X146742857Y-56385714D01*
X146838095Y-56385714D01*
X146980952Y-56338095D01*
X147552380Y-55766666D01*
X147552380Y-56385714D01*
%TO.C,R3*%
X156466666Y-50672380D02*
X156800000Y-50196190D01*
X157038095Y-50672380D02*
X157038095Y-49672380D01*
X156657142Y-49672380D01*
X156561904Y-49720000D01*
X156514285Y-49767619D01*
X156466666Y-49862857D01*
X156466666Y-50005714D01*
X156514285Y-50100952D01*
X156561904Y-50148571D01*
X156657142Y-50196190D01*
X157038095Y-50196190D01*
X156133333Y-49672380D02*
X155514285Y-49672380D01*
X155847619Y-50053333D01*
X155704761Y-50053333D01*
X155609523Y-50100952D01*
X155561904Y-50148571D01*
X155514285Y-50243809D01*
X155514285Y-50481904D01*
X155561904Y-50577142D01*
X155609523Y-50624761D01*
X155704761Y-50672380D01*
X155990476Y-50672380D01*
X156085714Y-50624761D01*
X156133333Y-50577142D01*
%TO.C,R6*%
X162972380Y-56733333D02*
X162496190Y-56400000D01*
X162972380Y-56161904D02*
X161972380Y-56161904D01*
X161972380Y-56542857D01*
X162020000Y-56638095D01*
X162067619Y-56685714D01*
X162162857Y-56733333D01*
X162305714Y-56733333D01*
X162400952Y-56685714D01*
X162448571Y-56638095D01*
X162496190Y-56542857D01*
X162496190Y-56161904D01*
X161972380Y-57590476D02*
X161972380Y-57400000D01*
X162020000Y-57304761D01*
X162067619Y-57257142D01*
X162210476Y-57161904D01*
X162400952Y-57114285D01*
X162781904Y-57114285D01*
X162877142Y-57161904D01*
X162924761Y-57209523D01*
X162972380Y-57304761D01*
X162972380Y-57495238D01*
X162924761Y-57590476D01*
X162877142Y-57638095D01*
X162781904Y-57685714D01*
X162543809Y-57685714D01*
X162448571Y-57638095D01*
X162400952Y-57590476D01*
X162353333Y-57495238D01*
X162353333Y-57304761D01*
X162400952Y-57209523D01*
X162448571Y-57161904D01*
X162543809Y-57114285D01*
%TO.C,R13*%
X98752380Y-94457142D02*
X98276190Y-94123809D01*
X98752380Y-93885714D02*
X97752380Y-93885714D01*
X97752380Y-94266666D01*
X97800000Y-94361904D01*
X97847619Y-94409523D01*
X97942857Y-94457142D01*
X98085714Y-94457142D01*
X98180952Y-94409523D01*
X98228571Y-94361904D01*
X98276190Y-94266666D01*
X98276190Y-93885714D01*
X98752380Y-95409523D02*
X98752380Y-94838095D01*
X98752380Y-95123809D02*
X97752380Y-95123809D01*
X97895238Y-95028571D01*
X97990476Y-94933333D01*
X98038095Y-94838095D01*
X97752380Y-95742857D02*
X97752380Y-96361904D01*
X98133333Y-96028571D01*
X98133333Y-96171428D01*
X98180952Y-96266666D01*
X98228571Y-96314285D01*
X98323809Y-96361904D01*
X98561904Y-96361904D01*
X98657142Y-96314285D01*
X98704761Y-96266666D01*
X98752380Y-96171428D01*
X98752380Y-95885714D01*
X98704761Y-95790476D01*
X98657142Y-95742857D01*
%TO.C,R19*%
X98752380Y-90657142D02*
X98276190Y-90323809D01*
X98752380Y-90085714D02*
X97752380Y-90085714D01*
X97752380Y-90466666D01*
X97800000Y-90561904D01*
X97847619Y-90609523D01*
X97942857Y-90657142D01*
X98085714Y-90657142D01*
X98180952Y-90609523D01*
X98228571Y-90561904D01*
X98276190Y-90466666D01*
X98276190Y-90085714D01*
X98752380Y-91609523D02*
X98752380Y-91038095D01*
X98752380Y-91323809D02*
X97752380Y-91323809D01*
X97895238Y-91228571D01*
X97990476Y-91133333D01*
X98038095Y-91038095D01*
X98752380Y-92085714D02*
X98752380Y-92276190D01*
X98704761Y-92371428D01*
X98657142Y-92419047D01*
X98514285Y-92514285D01*
X98323809Y-92561904D01*
X97942857Y-92561904D01*
X97847619Y-92514285D01*
X97800000Y-92466666D01*
X97752380Y-92371428D01*
X97752380Y-92180952D01*
X97800000Y-92085714D01*
X97847619Y-92038095D01*
X97942857Y-91990476D01*
X98180952Y-91990476D01*
X98276190Y-92038095D01*
X98323809Y-92085714D01*
X98371428Y-92180952D01*
X98371428Y-92371428D01*
X98323809Y-92466666D01*
X98276190Y-92514285D01*
X98180952Y-92561904D01*
%TO.C,R25*%
X98752380Y-98357142D02*
X98276190Y-98023809D01*
X98752380Y-97785714D02*
X97752380Y-97785714D01*
X97752380Y-98166666D01*
X97800000Y-98261904D01*
X97847619Y-98309523D01*
X97942857Y-98357142D01*
X98085714Y-98357142D01*
X98180952Y-98309523D01*
X98228571Y-98261904D01*
X98276190Y-98166666D01*
X98276190Y-97785714D01*
X97847619Y-98738095D02*
X97800000Y-98785714D01*
X97752380Y-98880952D01*
X97752380Y-99119047D01*
X97800000Y-99214285D01*
X97847619Y-99261904D01*
X97942857Y-99309523D01*
X98038095Y-99309523D01*
X98180952Y-99261904D01*
X98752380Y-98690476D01*
X98752380Y-99309523D01*
X97752380Y-100214285D02*
X97752380Y-99738095D01*
X98228571Y-99690476D01*
X98180952Y-99738095D01*
X98133333Y-99833333D01*
X98133333Y-100071428D01*
X98180952Y-100166666D01*
X98228571Y-100214285D01*
X98323809Y-100261904D01*
X98561904Y-100261904D01*
X98657142Y-100214285D01*
X98704761Y-100166666D01*
X98752380Y-100071428D01*
X98752380Y-99833333D01*
X98704761Y-99738095D01*
X98657142Y-99690476D01*
%TO.C,R32*%
X136202380Y-104657142D02*
X135726190Y-104323809D01*
X136202380Y-104085714D02*
X135202380Y-104085714D01*
X135202380Y-104466666D01*
X135250000Y-104561904D01*
X135297619Y-104609523D01*
X135392857Y-104657142D01*
X135535714Y-104657142D01*
X135630952Y-104609523D01*
X135678571Y-104561904D01*
X135726190Y-104466666D01*
X135726190Y-104085714D01*
X135202380Y-104990476D02*
X135202380Y-105609523D01*
X135583333Y-105276190D01*
X135583333Y-105419047D01*
X135630952Y-105514285D01*
X135678571Y-105561904D01*
X135773809Y-105609523D01*
X136011904Y-105609523D01*
X136107142Y-105561904D01*
X136154761Y-105514285D01*
X136202380Y-105419047D01*
X136202380Y-105133333D01*
X136154761Y-105038095D01*
X136107142Y-104990476D01*
X135297619Y-105990476D02*
X135250000Y-106038095D01*
X135202380Y-106133333D01*
X135202380Y-106371428D01*
X135250000Y-106466666D01*
X135297619Y-106514285D01*
X135392857Y-106561904D01*
X135488095Y-106561904D01*
X135630952Y-106514285D01*
X136202380Y-105942857D01*
X136202380Y-106561904D01*
%TO.C,R33*%
X136202380Y-108257142D02*
X135726190Y-107923809D01*
X136202380Y-107685714D02*
X135202380Y-107685714D01*
X135202380Y-108066666D01*
X135250000Y-108161904D01*
X135297619Y-108209523D01*
X135392857Y-108257142D01*
X135535714Y-108257142D01*
X135630952Y-108209523D01*
X135678571Y-108161904D01*
X135726190Y-108066666D01*
X135726190Y-107685714D01*
X135202380Y-108590476D02*
X135202380Y-109209523D01*
X135583333Y-108876190D01*
X135583333Y-109019047D01*
X135630952Y-109114285D01*
X135678571Y-109161904D01*
X135773809Y-109209523D01*
X136011904Y-109209523D01*
X136107142Y-109161904D01*
X136154761Y-109114285D01*
X136202380Y-109019047D01*
X136202380Y-108733333D01*
X136154761Y-108638095D01*
X136107142Y-108590476D01*
X135202380Y-109542857D02*
X135202380Y-110161904D01*
X135583333Y-109828571D01*
X135583333Y-109971428D01*
X135630952Y-110066666D01*
X135678571Y-110114285D01*
X135773809Y-110161904D01*
X136011904Y-110161904D01*
X136107142Y-110114285D01*
X136154761Y-110066666D01*
X136202380Y-109971428D01*
X136202380Y-109685714D01*
X136154761Y-109590476D01*
X136107142Y-109542857D01*
%TO.C,R34*%
X136202380Y-112107142D02*
X135726190Y-111773809D01*
X136202380Y-111535714D02*
X135202380Y-111535714D01*
X135202380Y-111916666D01*
X135250000Y-112011904D01*
X135297619Y-112059523D01*
X135392857Y-112107142D01*
X135535714Y-112107142D01*
X135630952Y-112059523D01*
X135678571Y-112011904D01*
X135726190Y-111916666D01*
X135726190Y-111535714D01*
X135202380Y-112440476D02*
X135202380Y-113059523D01*
X135583333Y-112726190D01*
X135583333Y-112869047D01*
X135630952Y-112964285D01*
X135678571Y-113011904D01*
X135773809Y-113059523D01*
X136011904Y-113059523D01*
X136107142Y-113011904D01*
X136154761Y-112964285D01*
X136202380Y-112869047D01*
X136202380Y-112583333D01*
X136154761Y-112488095D01*
X136107142Y-112440476D01*
X135535714Y-113916666D02*
X136202380Y-113916666D01*
X135154761Y-113678571D02*
X135869047Y-113440476D01*
X135869047Y-114059523D01*
%TO.C,C33*%
X123842857Y-101107142D02*
X123890476Y-101154761D01*
X124033333Y-101202380D01*
X124128571Y-101202380D01*
X124271428Y-101154761D01*
X124366666Y-101059523D01*
X124414285Y-100964285D01*
X124461904Y-100773809D01*
X124461904Y-100630952D01*
X124414285Y-100440476D01*
X124366666Y-100345238D01*
X124271428Y-100250000D01*
X124128571Y-100202380D01*
X124033333Y-100202380D01*
X123890476Y-100250000D01*
X123842857Y-100297619D01*
X123509523Y-100202380D02*
X122890476Y-100202380D01*
X123223809Y-100583333D01*
X123080952Y-100583333D01*
X122985714Y-100630952D01*
X122938095Y-100678571D01*
X122890476Y-100773809D01*
X122890476Y-101011904D01*
X122938095Y-101107142D01*
X122985714Y-101154761D01*
X123080952Y-101202380D01*
X123366666Y-101202380D01*
X123461904Y-101154761D01*
X123509523Y-101107142D01*
X122557142Y-100202380D02*
X121938095Y-100202380D01*
X122271428Y-100583333D01*
X122128571Y-100583333D01*
X122033333Y-100630952D01*
X121985714Y-100678571D01*
X121938095Y-100773809D01*
X121938095Y-101011904D01*
X121985714Y-101107142D01*
X122033333Y-101154761D01*
X122128571Y-101202380D01*
X122414285Y-101202380D01*
X122509523Y-101154761D01*
X122557142Y-101107142D01*
%TO.C,C34*%
X143042857Y-101607142D02*
X143090476Y-101654761D01*
X143233333Y-101702380D01*
X143328571Y-101702380D01*
X143471428Y-101654761D01*
X143566666Y-101559523D01*
X143614285Y-101464285D01*
X143661904Y-101273809D01*
X143661904Y-101130952D01*
X143614285Y-100940476D01*
X143566666Y-100845238D01*
X143471428Y-100750000D01*
X143328571Y-100702380D01*
X143233333Y-100702380D01*
X143090476Y-100750000D01*
X143042857Y-100797619D01*
X142709523Y-100702380D02*
X142090476Y-100702380D01*
X142423809Y-101083333D01*
X142280952Y-101083333D01*
X142185714Y-101130952D01*
X142138095Y-101178571D01*
X142090476Y-101273809D01*
X142090476Y-101511904D01*
X142138095Y-101607142D01*
X142185714Y-101654761D01*
X142280952Y-101702380D01*
X142566666Y-101702380D01*
X142661904Y-101654761D01*
X142709523Y-101607142D01*
X141233333Y-101035714D02*
X141233333Y-101702380D01*
X141471428Y-100654761D02*
X141709523Y-101369047D01*
X141090476Y-101369047D01*
%TO.C,C35*%
X174142857Y-101107142D02*
X174190476Y-101154761D01*
X174333333Y-101202380D01*
X174428571Y-101202380D01*
X174571428Y-101154761D01*
X174666666Y-101059523D01*
X174714285Y-100964285D01*
X174761904Y-100773809D01*
X174761904Y-100630952D01*
X174714285Y-100440476D01*
X174666666Y-100345238D01*
X174571428Y-100250000D01*
X174428571Y-100202380D01*
X174333333Y-100202380D01*
X174190476Y-100250000D01*
X174142857Y-100297619D01*
X173809523Y-100202380D02*
X173190476Y-100202380D01*
X173523809Y-100583333D01*
X173380952Y-100583333D01*
X173285714Y-100630952D01*
X173238095Y-100678571D01*
X173190476Y-100773809D01*
X173190476Y-101011904D01*
X173238095Y-101107142D01*
X173285714Y-101154761D01*
X173380952Y-101202380D01*
X173666666Y-101202380D01*
X173761904Y-101154761D01*
X173809523Y-101107142D01*
X172285714Y-100202380D02*
X172761904Y-100202380D01*
X172809523Y-100678571D01*
X172761904Y-100630952D01*
X172666666Y-100583333D01*
X172428571Y-100583333D01*
X172333333Y-100630952D01*
X172285714Y-100678571D01*
X172238095Y-100773809D01*
X172238095Y-101011904D01*
X172285714Y-101107142D01*
X172333333Y-101154761D01*
X172428571Y-101202380D01*
X172666666Y-101202380D01*
X172761904Y-101154761D01*
X172809523Y-101107142D01*
%TO.C,C36*%
X150292857Y-101607142D02*
X150340476Y-101654761D01*
X150483333Y-101702380D01*
X150578571Y-101702380D01*
X150721428Y-101654761D01*
X150816666Y-101559523D01*
X150864285Y-101464285D01*
X150911904Y-101273809D01*
X150911904Y-101130952D01*
X150864285Y-100940476D01*
X150816666Y-100845238D01*
X150721428Y-100750000D01*
X150578571Y-100702380D01*
X150483333Y-100702380D01*
X150340476Y-100750000D01*
X150292857Y-100797619D01*
X149959523Y-100702380D02*
X149340476Y-100702380D01*
X149673809Y-101083333D01*
X149530952Y-101083333D01*
X149435714Y-101130952D01*
X149388095Y-101178571D01*
X149340476Y-101273809D01*
X149340476Y-101511904D01*
X149388095Y-101607142D01*
X149435714Y-101654761D01*
X149530952Y-101702380D01*
X149816666Y-101702380D01*
X149911904Y-101654761D01*
X149959523Y-101607142D01*
X148483333Y-100702380D02*
X148673809Y-100702380D01*
X148769047Y-100750000D01*
X148816666Y-100797619D01*
X148911904Y-100940476D01*
X148959523Y-101130952D01*
X148959523Y-101511904D01*
X148911904Y-101607142D01*
X148864285Y-101654761D01*
X148769047Y-101702380D01*
X148578571Y-101702380D01*
X148483333Y-101654761D01*
X148435714Y-101607142D01*
X148388095Y-101511904D01*
X148388095Y-101273809D01*
X148435714Y-101178571D01*
X148483333Y-101130952D01*
X148578571Y-101083333D01*
X148769047Y-101083333D01*
X148864285Y-101130952D01*
X148911904Y-101178571D01*
X148959523Y-101273809D01*
%TO.C,C37*%
X159542857Y-101107142D02*
X159590476Y-101154761D01*
X159733333Y-101202380D01*
X159828571Y-101202380D01*
X159971428Y-101154761D01*
X160066666Y-101059523D01*
X160114285Y-100964285D01*
X160161904Y-100773809D01*
X160161904Y-100630952D01*
X160114285Y-100440476D01*
X160066666Y-100345238D01*
X159971428Y-100250000D01*
X159828571Y-100202380D01*
X159733333Y-100202380D01*
X159590476Y-100250000D01*
X159542857Y-100297619D01*
X159209523Y-100202380D02*
X158590476Y-100202380D01*
X158923809Y-100583333D01*
X158780952Y-100583333D01*
X158685714Y-100630952D01*
X158638095Y-100678571D01*
X158590476Y-100773809D01*
X158590476Y-101011904D01*
X158638095Y-101107142D01*
X158685714Y-101154761D01*
X158780952Y-101202380D01*
X159066666Y-101202380D01*
X159161904Y-101154761D01*
X159209523Y-101107142D01*
X158257142Y-100202380D02*
X157590476Y-100202380D01*
X158019047Y-101202380D01*
%TD*%
%LPC*%
D14*
G36*
X97000000Y-88700000D02*
G01*
X90600000Y-88700000D01*
X90600000Y-78700000D01*
X97000000Y-78700000D01*
X97000000Y-88700000D01*
G37*
X97000000Y-88700000D02*
X90600000Y-88700000D01*
X90600000Y-78700000D01*
X97000000Y-78700000D01*
X97000000Y-88700000D01*
G36*
X97000000Y-101250000D02*
G01*
X90600000Y-101250000D01*
X90600000Y-91250000D01*
X97000000Y-91250000D01*
X97000000Y-101250000D01*
G37*
X97000000Y-101250000D02*
X90600000Y-101250000D01*
X90600000Y-91250000D01*
X97000000Y-91250000D01*
X97000000Y-101250000D01*
D15*
%TO.C,D34*%
X180000200Y-77228400D03*
D16*
X180000200Y-87603400D03*
%TD*%
D15*
%TO.C,D33*%
X186875000Y-102650000D03*
D16*
X176500000Y-102650000D03*
%TD*%
D15*
%TO.C,D29*%
X165250200Y-77228400D03*
D16*
X165250200Y-87603400D03*
%TD*%
D15*
%TO.C,D28*%
X172100000Y-102650000D03*
D16*
X161725000Y-102650000D03*
%TD*%
D15*
%TO.C,D24*%
X150370200Y-77228400D03*
D16*
X150370200Y-87603400D03*
%TD*%
D15*
%TO.C,D23*%
X157225000Y-102650000D03*
D16*
X146850000Y-102650000D03*
%TD*%
D15*
%TO.C,D19*%
X133130000Y-77225000D03*
D16*
X133130000Y-87600000D03*
%TD*%
D15*
%TO.C,D18*%
X139975000Y-102650000D03*
D16*
X129600000Y-102650000D03*
%TD*%
D15*
%TO.C,D14*%
X118380000Y-77225000D03*
D16*
X118380000Y-87600000D03*
%TD*%
D15*
%TO.C,D13*%
X125275000Y-102650000D03*
D16*
X114900000Y-102650000D03*
%TD*%
D15*
%TO.C,D9*%
X103500000Y-77225000D03*
D16*
X103500000Y-87600000D03*
%TD*%
D15*
%TO.C,D8*%
X111850000Y-102650000D03*
D16*
X101475000Y-102650000D03*
%TD*%
D17*
%TO.C,J8*%
X158000000Y-63250000D03*
%TD*%
D18*
%TO.C,J2*%
X120250000Y-47200000D03*
D19*
X115250000Y-47200000D03*
%TD*%
D14*
%TO.C,C32*%
G36*
X116065484Y-88001252D02*
G01*
X116090723Y-88004996D01*
X116115474Y-88011196D01*
X116139498Y-88019791D01*
X116162563Y-88030700D01*
X116184448Y-88043818D01*
X116204942Y-88059017D01*
X116223848Y-88076152D01*
X116240983Y-88095058D01*
X116256182Y-88115552D01*
X116269300Y-88137437D01*
X116280209Y-88160502D01*
X116288804Y-88184526D01*
X116295004Y-88209277D01*
X116298748Y-88234516D01*
X116300000Y-88260000D01*
X116300000Y-92240000D01*
X116298748Y-92265484D01*
X116295004Y-92290723D01*
X116288804Y-92315474D01*
X116280209Y-92339498D01*
X116269300Y-92362563D01*
X116256182Y-92384448D01*
X116240983Y-92404942D01*
X116223848Y-92423848D01*
X116204942Y-92440983D01*
X116184448Y-92456182D01*
X116162563Y-92469300D01*
X116139498Y-92480209D01*
X116115474Y-92488804D01*
X116090723Y-92495004D01*
X116065484Y-92498748D01*
X116040000Y-92500000D01*
X113960000Y-92500000D01*
X113934516Y-92498748D01*
X113909277Y-92495004D01*
X113884526Y-92488804D01*
X113860502Y-92480209D01*
X113837437Y-92469300D01*
X113815552Y-92456182D01*
X113795058Y-92440983D01*
X113776152Y-92423848D01*
X113759017Y-92404942D01*
X113743818Y-92384448D01*
X113730700Y-92362563D01*
X113719791Y-92339498D01*
X113711196Y-92315474D01*
X113704996Y-92290723D01*
X113701252Y-92265484D01*
X113700000Y-92240000D01*
X113700000Y-88260000D01*
X113701252Y-88234516D01*
X113704996Y-88209277D01*
X113711196Y-88184526D01*
X113719791Y-88160502D01*
X113730700Y-88137437D01*
X113743818Y-88115552D01*
X113759017Y-88095058D01*
X113776152Y-88076152D01*
X113795058Y-88059017D01*
X113815552Y-88043818D01*
X113837437Y-88030700D01*
X113860502Y-88019791D01*
X113884526Y-88011196D01*
X113909277Y-88004996D01*
X113934516Y-88001252D01*
X113960000Y-88000000D01*
X116040000Y-88000000D01*
X116065484Y-88001252D01*
G37*
G36*
X116065484Y-96401252D02*
G01*
X116090723Y-96404996D01*
X116115474Y-96411196D01*
X116139498Y-96419791D01*
X116162563Y-96430700D01*
X116184448Y-96443818D01*
X116204942Y-96459017D01*
X116223848Y-96476152D01*
X116240983Y-96495058D01*
X116256182Y-96515552D01*
X116269300Y-96537437D01*
X116280209Y-96560502D01*
X116288804Y-96584526D01*
X116295004Y-96609277D01*
X116298748Y-96634516D01*
X116300000Y-96660000D01*
X116300000Y-100640000D01*
X116298748Y-100665484D01*
X116295004Y-100690723D01*
X116288804Y-100715474D01*
X116280209Y-100739498D01*
X116269300Y-100762563D01*
X116256182Y-100784448D01*
X116240983Y-100804942D01*
X116223848Y-100823848D01*
X116204942Y-100840983D01*
X116184448Y-100856182D01*
X116162563Y-100869300D01*
X116139498Y-100880209D01*
X116115474Y-100888804D01*
X116090723Y-100895004D01*
X116065484Y-100898748D01*
X116040000Y-100900000D01*
X113960000Y-100900000D01*
X113934516Y-100898748D01*
X113909277Y-100895004D01*
X113884526Y-100888804D01*
X113860502Y-100880209D01*
X113837437Y-100869300D01*
X113815552Y-100856182D01*
X113795058Y-100840983D01*
X113776152Y-100823848D01*
X113759017Y-100804942D01*
X113743818Y-100784448D01*
X113730700Y-100762563D01*
X113719791Y-100739498D01*
X113711196Y-100715474D01*
X113704996Y-100690723D01*
X113701252Y-100665484D01*
X113700000Y-100640000D01*
X113700000Y-96660000D01*
X113701252Y-96634516D01*
X113704996Y-96609277D01*
X113711196Y-96584526D01*
X113719791Y-96560502D01*
X113730700Y-96537437D01*
X113743818Y-96515552D01*
X113759017Y-96495058D01*
X113776152Y-96476152D01*
X113795058Y-96459017D01*
X113815552Y-96443818D01*
X113837437Y-96430700D01*
X113860502Y-96419791D01*
X113884526Y-96411196D01*
X113909277Y-96404996D01*
X113934516Y-96401252D01*
X113960000Y-96400000D01*
X116040000Y-96400000D01*
X116065484Y-96401252D01*
G37*
%TD*%
%TO.C,L1*%
G36*
X151538229Y-48551264D02*
G01*
X151563711Y-48555044D01*
X151588700Y-48561303D01*
X151612954Y-48569982D01*
X151636242Y-48580996D01*
X151658337Y-48594239D01*
X151679028Y-48609585D01*
X151698116Y-48626884D01*
X151715415Y-48645972D01*
X151730761Y-48666663D01*
X151744004Y-48688758D01*
X151755018Y-48712046D01*
X151763697Y-48736300D01*
X151769956Y-48761289D01*
X151773736Y-48786771D01*
X151775000Y-48812500D01*
X151775000Y-49437500D01*
X151773736Y-49463229D01*
X151769956Y-49488711D01*
X151763697Y-49513700D01*
X151755018Y-49537954D01*
X151744004Y-49561242D01*
X151730761Y-49583337D01*
X151715415Y-49604028D01*
X151698116Y-49623116D01*
X151679028Y-49640415D01*
X151658337Y-49655761D01*
X151636242Y-49669004D01*
X151612954Y-49680018D01*
X151588700Y-49688697D01*
X151563711Y-49694956D01*
X151538229Y-49698736D01*
X151512500Y-49700000D01*
X150987500Y-49700000D01*
X150961771Y-49698736D01*
X150936289Y-49694956D01*
X150911300Y-49688697D01*
X150887046Y-49680018D01*
X150863758Y-49669004D01*
X150841663Y-49655761D01*
X150820972Y-49640415D01*
X150801884Y-49623116D01*
X150784585Y-49604028D01*
X150769239Y-49583337D01*
X150755996Y-49561242D01*
X150744982Y-49537954D01*
X150736303Y-49513700D01*
X150730044Y-49488711D01*
X150726264Y-49463229D01*
X150725000Y-49437500D01*
X150725000Y-48812500D01*
X150726264Y-48786771D01*
X150730044Y-48761289D01*
X150736303Y-48736300D01*
X150744982Y-48712046D01*
X150755996Y-48688758D01*
X150769239Y-48666663D01*
X150784585Y-48645972D01*
X150801884Y-48626884D01*
X150820972Y-48609585D01*
X150841663Y-48594239D01*
X150863758Y-48580996D01*
X150887046Y-48569982D01*
X150911300Y-48561303D01*
X150936289Y-48555044D01*
X150961771Y-48551264D01*
X150987500Y-48550000D01*
X151512500Y-48550000D01*
X151538229Y-48551264D01*
G37*
G36*
X151538229Y-50301264D02*
G01*
X151563711Y-50305044D01*
X151588700Y-50311303D01*
X151612954Y-50319982D01*
X151636242Y-50330996D01*
X151658337Y-50344239D01*
X151679028Y-50359585D01*
X151698116Y-50376884D01*
X151715415Y-50395972D01*
X151730761Y-50416663D01*
X151744004Y-50438758D01*
X151755018Y-50462046D01*
X151763697Y-50486300D01*
X151769956Y-50511289D01*
X151773736Y-50536771D01*
X151775000Y-50562500D01*
X151775000Y-51187500D01*
X151773736Y-51213229D01*
X151769956Y-51238711D01*
X151763697Y-51263700D01*
X151755018Y-51287954D01*
X151744004Y-51311242D01*
X151730761Y-51333337D01*
X151715415Y-51354028D01*
X151698116Y-51373116D01*
X151679028Y-51390415D01*
X151658337Y-51405761D01*
X151636242Y-51419004D01*
X151612954Y-51430018D01*
X151588700Y-51438697D01*
X151563711Y-51444956D01*
X151538229Y-51448736D01*
X151512500Y-51450000D01*
X150987500Y-51450000D01*
X150961771Y-51448736D01*
X150936289Y-51444956D01*
X150911300Y-51438697D01*
X150887046Y-51430018D01*
X150863758Y-51419004D01*
X150841663Y-51405761D01*
X150820972Y-51390415D01*
X150801884Y-51373116D01*
X150784585Y-51354028D01*
X150769239Y-51333337D01*
X150755996Y-51311242D01*
X150744982Y-51287954D01*
X150736303Y-51263700D01*
X150730044Y-51238711D01*
X150726264Y-51213229D01*
X150725000Y-51187500D01*
X150725000Y-50562500D01*
X150726264Y-50536771D01*
X150730044Y-50511289D01*
X150736303Y-50486300D01*
X150744982Y-50462046D01*
X150755996Y-50438758D01*
X150769239Y-50416663D01*
X150784585Y-50395972D01*
X150801884Y-50376884D01*
X150820972Y-50359585D01*
X150841663Y-50344239D01*
X150863758Y-50330996D01*
X150887046Y-50319982D01*
X150911300Y-50311303D01*
X150936289Y-50305044D01*
X150961771Y-50301264D01*
X150987500Y-50300000D01*
X151512500Y-50300000D01*
X151538229Y-50301264D01*
G37*
%TD*%
%TO.C,C38*%
G36*
X151104897Y-51876308D02*
G01*
X151131275Y-51880221D01*
X151157143Y-51886701D01*
X151182252Y-51895685D01*
X151206358Y-51907086D01*
X151229232Y-51920796D01*
X151250651Y-51936682D01*
X151270410Y-51954590D01*
X151288318Y-51974349D01*
X151304204Y-51995768D01*
X151317914Y-52018642D01*
X151329315Y-52042748D01*
X151338299Y-52067857D01*
X151344779Y-52093725D01*
X151348692Y-52120103D01*
X151350000Y-52146738D01*
X151350000Y-52853262D01*
X151348692Y-52879897D01*
X151344779Y-52906275D01*
X151338299Y-52932143D01*
X151329315Y-52957252D01*
X151317914Y-52981358D01*
X151304204Y-53004232D01*
X151288318Y-53025651D01*
X151270410Y-53045410D01*
X151250651Y-53063318D01*
X151229232Y-53079204D01*
X151206358Y-53092914D01*
X151182252Y-53104315D01*
X151157143Y-53113299D01*
X151131275Y-53119779D01*
X151104897Y-53123692D01*
X151078262Y-53125000D01*
X150121738Y-53125000D01*
X150095103Y-53123692D01*
X150068725Y-53119779D01*
X150042857Y-53113299D01*
X150017748Y-53104315D01*
X149993642Y-53092914D01*
X149970768Y-53079204D01*
X149949349Y-53063318D01*
X149929590Y-53045410D01*
X149911682Y-53025651D01*
X149895796Y-53004232D01*
X149882086Y-52981358D01*
X149870685Y-52957252D01*
X149861701Y-52932143D01*
X149855221Y-52906275D01*
X149851308Y-52879897D01*
X149850000Y-52853262D01*
X149850000Y-52146738D01*
X149851308Y-52120103D01*
X149855221Y-52093725D01*
X149861701Y-52067857D01*
X149870685Y-52042748D01*
X149882086Y-52018642D01*
X149895796Y-51995768D01*
X149911682Y-51974349D01*
X149929590Y-51954590D01*
X149949349Y-51936682D01*
X149970768Y-51920796D01*
X149993642Y-51907086D01*
X150017748Y-51895685D01*
X150042857Y-51886701D01*
X150068725Y-51880221D01*
X150095103Y-51876308D01*
X150121738Y-51875000D01*
X151078262Y-51875000D01*
X151104897Y-51876308D01*
G37*
G36*
X151104897Y-53926308D02*
G01*
X151131275Y-53930221D01*
X151157143Y-53936701D01*
X151182252Y-53945685D01*
X151206358Y-53957086D01*
X151229232Y-53970796D01*
X151250651Y-53986682D01*
X151270410Y-54004590D01*
X151288318Y-54024349D01*
X151304204Y-54045768D01*
X151317914Y-54068642D01*
X151329315Y-54092748D01*
X151338299Y-54117857D01*
X151344779Y-54143725D01*
X151348692Y-54170103D01*
X151350000Y-54196738D01*
X151350000Y-54903262D01*
X151348692Y-54929897D01*
X151344779Y-54956275D01*
X151338299Y-54982143D01*
X151329315Y-55007252D01*
X151317914Y-55031358D01*
X151304204Y-55054232D01*
X151288318Y-55075651D01*
X151270410Y-55095410D01*
X151250651Y-55113318D01*
X151229232Y-55129204D01*
X151206358Y-55142914D01*
X151182252Y-55154315D01*
X151157143Y-55163299D01*
X151131275Y-55169779D01*
X151104897Y-55173692D01*
X151078262Y-55175000D01*
X150121738Y-55175000D01*
X150095103Y-55173692D01*
X150068725Y-55169779D01*
X150042857Y-55163299D01*
X150017748Y-55154315D01*
X149993642Y-55142914D01*
X149970768Y-55129204D01*
X149949349Y-55113318D01*
X149929590Y-55095410D01*
X149911682Y-55075651D01*
X149895796Y-55054232D01*
X149882086Y-55031358D01*
X149870685Y-55007252D01*
X149861701Y-54982143D01*
X149855221Y-54956275D01*
X149851308Y-54929897D01*
X149850000Y-54903262D01*
X149850000Y-54196738D01*
X149851308Y-54170103D01*
X149855221Y-54143725D01*
X149861701Y-54117857D01*
X149870685Y-54092748D01*
X149882086Y-54068642D01*
X149895796Y-54045768D01*
X149911682Y-54024349D01*
X149929590Y-54004590D01*
X149949349Y-53986682D01*
X149970768Y-53970796D01*
X149993642Y-53957086D01*
X150017748Y-53945685D01*
X150042857Y-53936701D01*
X150068725Y-53930221D01*
X150095103Y-53926308D01*
X150121738Y-53925000D01*
X151078262Y-53925000D01*
X151104897Y-53926308D01*
G37*
%TD*%
%TO.C,C2*%
G36*
X149154897Y-55351308D02*
G01*
X149181275Y-55355221D01*
X149207143Y-55361701D01*
X149232252Y-55370685D01*
X149256358Y-55382086D01*
X149279232Y-55395796D01*
X149300651Y-55411682D01*
X149320410Y-55429590D01*
X149338318Y-55449349D01*
X149354204Y-55470768D01*
X149367914Y-55493642D01*
X149379315Y-55517748D01*
X149388299Y-55542857D01*
X149394779Y-55568725D01*
X149398692Y-55595103D01*
X149400000Y-55621738D01*
X149400000Y-56328262D01*
X149398692Y-56354897D01*
X149394779Y-56381275D01*
X149388299Y-56407143D01*
X149379315Y-56432252D01*
X149367914Y-56456358D01*
X149354204Y-56479232D01*
X149338318Y-56500651D01*
X149320410Y-56520410D01*
X149300651Y-56538318D01*
X149279232Y-56554204D01*
X149256358Y-56567914D01*
X149232252Y-56579315D01*
X149207143Y-56588299D01*
X149181275Y-56594779D01*
X149154897Y-56598692D01*
X149128262Y-56600000D01*
X148171738Y-56600000D01*
X148145103Y-56598692D01*
X148118725Y-56594779D01*
X148092857Y-56588299D01*
X148067748Y-56579315D01*
X148043642Y-56567914D01*
X148020768Y-56554204D01*
X147999349Y-56538318D01*
X147979590Y-56520410D01*
X147961682Y-56500651D01*
X147945796Y-56479232D01*
X147932086Y-56456358D01*
X147920685Y-56432252D01*
X147911701Y-56407143D01*
X147905221Y-56381275D01*
X147901308Y-56354897D01*
X147900000Y-56328262D01*
X147900000Y-55621738D01*
X147901308Y-55595103D01*
X147905221Y-55568725D01*
X147911701Y-55542857D01*
X147920685Y-55517748D01*
X147932086Y-55493642D01*
X147945796Y-55470768D01*
X147961682Y-55449349D01*
X147979590Y-55429590D01*
X147999349Y-55411682D01*
X148020768Y-55395796D01*
X148043642Y-55382086D01*
X148067748Y-55370685D01*
X148092857Y-55361701D01*
X148118725Y-55355221D01*
X148145103Y-55351308D01*
X148171738Y-55350000D01*
X149128262Y-55350000D01*
X149154897Y-55351308D01*
G37*
G36*
X149154897Y-53301308D02*
G01*
X149181275Y-53305221D01*
X149207143Y-53311701D01*
X149232252Y-53320685D01*
X149256358Y-53332086D01*
X149279232Y-53345796D01*
X149300651Y-53361682D01*
X149320410Y-53379590D01*
X149338318Y-53399349D01*
X149354204Y-53420768D01*
X149367914Y-53443642D01*
X149379315Y-53467748D01*
X149388299Y-53492857D01*
X149394779Y-53518725D01*
X149398692Y-53545103D01*
X149400000Y-53571738D01*
X149400000Y-54278262D01*
X149398692Y-54304897D01*
X149394779Y-54331275D01*
X149388299Y-54357143D01*
X149379315Y-54382252D01*
X149367914Y-54406358D01*
X149354204Y-54429232D01*
X149338318Y-54450651D01*
X149320410Y-54470410D01*
X149300651Y-54488318D01*
X149279232Y-54504204D01*
X149256358Y-54517914D01*
X149232252Y-54529315D01*
X149207143Y-54538299D01*
X149181275Y-54544779D01*
X149154897Y-54548692D01*
X149128262Y-54550000D01*
X148171738Y-54550000D01*
X148145103Y-54548692D01*
X148118725Y-54544779D01*
X148092857Y-54538299D01*
X148067748Y-54529315D01*
X148043642Y-54517914D01*
X148020768Y-54504204D01*
X147999349Y-54488318D01*
X147979590Y-54470410D01*
X147961682Y-54450651D01*
X147945796Y-54429232D01*
X147932086Y-54406358D01*
X147920685Y-54382252D01*
X147911701Y-54357143D01*
X147905221Y-54331275D01*
X147901308Y-54304897D01*
X147900000Y-54278262D01*
X147900000Y-53571738D01*
X147901308Y-53545103D01*
X147905221Y-53518725D01*
X147911701Y-53492857D01*
X147920685Y-53467748D01*
X147932086Y-53443642D01*
X147945796Y-53420768D01*
X147961682Y-53399349D01*
X147979590Y-53379590D01*
X147999349Y-53361682D01*
X148020768Y-53345796D01*
X148043642Y-53332086D01*
X148067748Y-53320685D01*
X148092857Y-53311701D01*
X148118725Y-53305221D01*
X148145103Y-53301308D01*
X148171738Y-53300000D01*
X149128262Y-53300000D01*
X149154897Y-53301308D01*
G37*
%TD*%
D20*
%TO.C,H2*%
X186000000Y-49000000D03*
%TD*%
%TO.C,H3*%
X186000000Y-111000000D03*
%TD*%
%TO.C,H4*%
X94000000Y-111000000D03*
%TD*%
%TO.C,H1*%
X94000000Y-49000000D03*
%TD*%
D21*
%TO.C,D5*%
X100500000Y-71420000D03*
D22*
X100500000Y-76500000D03*
%TD*%
D21*
%TO.C,D6*%
X111000000Y-88080000D03*
D22*
X111000000Y-83000000D03*
%TD*%
D21*
%TO.C,D7*%
X107500000Y-88080000D03*
D22*
X107500000Y-83000000D03*
%TD*%
D21*
%TO.C,D10*%
X115380000Y-71420000D03*
D22*
X115380000Y-76500000D03*
%TD*%
D21*
%TO.C,D11*%
X125880000Y-88080000D03*
D22*
X125880000Y-83000000D03*
%TD*%
D21*
%TO.C,D12*%
X122380000Y-88080000D03*
D22*
X122380000Y-83000000D03*
%TD*%
D21*
%TO.C,D15*%
X130130000Y-71420000D03*
D22*
X130130000Y-76500000D03*
%TD*%
D21*
%TO.C,D16*%
X140630000Y-88080000D03*
D22*
X140630000Y-83000000D03*
%TD*%
D21*
%TO.C,D17*%
X137130000Y-88080000D03*
D22*
X137130000Y-83000000D03*
%TD*%
D23*
%TO.C,J4*%
X137330000Y-48500000D03*
X134790000Y-48500000D03*
X132250000Y-48500000D03*
D24*
X129710000Y-48500000D03*
%TD*%
D23*
%TO.C,J5*%
X168620000Y-48500000D03*
X166080000Y-48500000D03*
X163540000Y-48500000D03*
D24*
X161000000Y-48500000D03*
%TD*%
D23*
%TO.C,J9*%
X186750000Y-54740000D03*
X186750000Y-57280000D03*
X186750000Y-59820000D03*
X186750000Y-62360000D03*
D24*
X186750000Y-64900000D03*
%TD*%
D14*
%TO.C,R3*%
G36*
X158308680Y-47476288D02*
G01*
X158334651Y-47480141D01*
X158360120Y-47486520D01*
X158384841Y-47495366D01*
X158408575Y-47506591D01*
X158431095Y-47520089D01*
X158452184Y-47535730D01*
X158471638Y-47553362D01*
X158489270Y-47572816D01*
X158504911Y-47593905D01*
X158518409Y-47616425D01*
X158529634Y-47640159D01*
X158538480Y-47664880D01*
X158544859Y-47690349D01*
X158548712Y-47716320D01*
X158550000Y-47742544D01*
X158550000Y-49057456D01*
X158548712Y-49083680D01*
X158544859Y-49109651D01*
X158538480Y-49135120D01*
X158529634Y-49159841D01*
X158518409Y-49183575D01*
X158504911Y-49206095D01*
X158489270Y-49227184D01*
X158471638Y-49246638D01*
X158452184Y-49264270D01*
X158431095Y-49279911D01*
X158408575Y-49293409D01*
X158384841Y-49304634D01*
X158360120Y-49313480D01*
X158334651Y-49319859D01*
X158308680Y-49323712D01*
X158282456Y-49325000D01*
X157292544Y-49325000D01*
X157266320Y-49323712D01*
X157240349Y-49319859D01*
X157214880Y-49313480D01*
X157190159Y-49304634D01*
X157166425Y-49293409D01*
X157143905Y-49279911D01*
X157122816Y-49264270D01*
X157103362Y-49246638D01*
X157085730Y-49227184D01*
X157070089Y-49206095D01*
X157056591Y-49183575D01*
X157045366Y-49159841D01*
X157036520Y-49135120D01*
X157030141Y-49109651D01*
X157026288Y-49083680D01*
X157025000Y-49057456D01*
X157025000Y-47742544D01*
X157026288Y-47716320D01*
X157030141Y-47690349D01*
X157036520Y-47664880D01*
X157045366Y-47640159D01*
X157056591Y-47616425D01*
X157070089Y-47593905D01*
X157085730Y-47572816D01*
X157103362Y-47553362D01*
X157122816Y-47535730D01*
X157143905Y-47520089D01*
X157166425Y-47506591D01*
X157190159Y-47495366D01*
X157214880Y-47486520D01*
X157240349Y-47480141D01*
X157266320Y-47476288D01*
X157292544Y-47475000D01*
X158282456Y-47475000D01*
X158308680Y-47476288D01*
G37*
G36*
X155333680Y-47476288D02*
G01*
X155359651Y-47480141D01*
X155385120Y-47486520D01*
X155409841Y-47495366D01*
X155433575Y-47506591D01*
X155456095Y-47520089D01*
X155477184Y-47535730D01*
X155496638Y-47553362D01*
X155514270Y-47572816D01*
X155529911Y-47593905D01*
X155543409Y-47616425D01*
X155554634Y-47640159D01*
X155563480Y-47664880D01*
X155569859Y-47690349D01*
X155573712Y-47716320D01*
X155575000Y-47742544D01*
X155575000Y-49057456D01*
X155573712Y-49083680D01*
X155569859Y-49109651D01*
X155563480Y-49135120D01*
X155554634Y-49159841D01*
X155543409Y-49183575D01*
X155529911Y-49206095D01*
X155514270Y-49227184D01*
X155496638Y-49246638D01*
X155477184Y-49264270D01*
X155456095Y-49279911D01*
X155433575Y-49293409D01*
X155409841Y-49304634D01*
X155385120Y-49313480D01*
X155359651Y-49319859D01*
X155333680Y-49323712D01*
X155307456Y-49325000D01*
X154317544Y-49325000D01*
X154291320Y-49323712D01*
X154265349Y-49319859D01*
X154239880Y-49313480D01*
X154215159Y-49304634D01*
X154191425Y-49293409D01*
X154168905Y-49279911D01*
X154147816Y-49264270D01*
X154128362Y-49246638D01*
X154110730Y-49227184D01*
X154095089Y-49206095D01*
X154081591Y-49183575D01*
X154070366Y-49159841D01*
X154061520Y-49135120D01*
X154055141Y-49109651D01*
X154051288Y-49083680D01*
X154050000Y-49057456D01*
X154050000Y-47742544D01*
X154051288Y-47716320D01*
X154055141Y-47690349D01*
X154061520Y-47664880D01*
X154070366Y-47640159D01*
X154081591Y-47616425D01*
X154095089Y-47593905D01*
X154110730Y-47572816D01*
X154128362Y-47553362D01*
X154147816Y-47535730D01*
X154168905Y-47520089D01*
X154191425Y-47506591D01*
X154215159Y-47495366D01*
X154239880Y-47486520D01*
X154265349Y-47480141D01*
X154291320Y-47476288D01*
X154317544Y-47475000D01*
X155307456Y-47475000D01*
X155333680Y-47476288D01*
G37*
%TD*%
%TO.C,R6*%
G36*
X161383680Y-54651288D02*
G01*
X161409651Y-54655141D01*
X161435120Y-54661520D01*
X161459841Y-54670366D01*
X161483575Y-54681591D01*
X161506095Y-54695089D01*
X161527184Y-54710730D01*
X161546638Y-54728362D01*
X161564270Y-54747816D01*
X161579911Y-54768905D01*
X161593409Y-54791425D01*
X161604634Y-54815159D01*
X161613480Y-54839880D01*
X161619859Y-54865349D01*
X161623712Y-54891320D01*
X161625000Y-54917544D01*
X161625000Y-55907456D01*
X161623712Y-55933680D01*
X161619859Y-55959651D01*
X161613480Y-55985120D01*
X161604634Y-56009841D01*
X161593409Y-56033575D01*
X161579911Y-56056095D01*
X161564270Y-56077184D01*
X161546638Y-56096638D01*
X161527184Y-56114270D01*
X161506095Y-56129911D01*
X161483575Y-56143409D01*
X161459841Y-56154634D01*
X161435120Y-56163480D01*
X161409651Y-56169859D01*
X161383680Y-56173712D01*
X161357456Y-56175000D01*
X160042544Y-56175000D01*
X160016320Y-56173712D01*
X159990349Y-56169859D01*
X159964880Y-56163480D01*
X159940159Y-56154634D01*
X159916425Y-56143409D01*
X159893905Y-56129911D01*
X159872816Y-56114270D01*
X159853362Y-56096638D01*
X159835730Y-56077184D01*
X159820089Y-56056095D01*
X159806591Y-56033575D01*
X159795366Y-56009841D01*
X159786520Y-55985120D01*
X159780141Y-55959651D01*
X159776288Y-55933680D01*
X159775000Y-55907456D01*
X159775000Y-54917544D01*
X159776288Y-54891320D01*
X159780141Y-54865349D01*
X159786520Y-54839880D01*
X159795366Y-54815159D01*
X159806591Y-54791425D01*
X159820089Y-54768905D01*
X159835730Y-54747816D01*
X159853362Y-54728362D01*
X159872816Y-54710730D01*
X159893905Y-54695089D01*
X159916425Y-54681591D01*
X159940159Y-54670366D01*
X159964880Y-54661520D01*
X159990349Y-54655141D01*
X160016320Y-54651288D01*
X160042544Y-54650000D01*
X161357456Y-54650000D01*
X161383680Y-54651288D01*
G37*
G36*
X161383680Y-57626288D02*
G01*
X161409651Y-57630141D01*
X161435120Y-57636520D01*
X161459841Y-57645366D01*
X161483575Y-57656591D01*
X161506095Y-57670089D01*
X161527184Y-57685730D01*
X161546638Y-57703362D01*
X161564270Y-57722816D01*
X161579911Y-57743905D01*
X161593409Y-57766425D01*
X161604634Y-57790159D01*
X161613480Y-57814880D01*
X161619859Y-57840349D01*
X161623712Y-57866320D01*
X161625000Y-57892544D01*
X161625000Y-58882456D01*
X161623712Y-58908680D01*
X161619859Y-58934651D01*
X161613480Y-58960120D01*
X161604634Y-58984841D01*
X161593409Y-59008575D01*
X161579911Y-59031095D01*
X161564270Y-59052184D01*
X161546638Y-59071638D01*
X161527184Y-59089270D01*
X161506095Y-59104911D01*
X161483575Y-59118409D01*
X161459841Y-59129634D01*
X161435120Y-59138480D01*
X161409651Y-59144859D01*
X161383680Y-59148712D01*
X161357456Y-59150000D01*
X160042544Y-59150000D01*
X160016320Y-59148712D01*
X159990349Y-59144859D01*
X159964880Y-59138480D01*
X159940159Y-59129634D01*
X159916425Y-59118409D01*
X159893905Y-59104911D01*
X159872816Y-59089270D01*
X159853362Y-59071638D01*
X159835730Y-59052184D01*
X159820089Y-59031095D01*
X159806591Y-59008575D01*
X159795366Y-58984841D01*
X159786520Y-58960120D01*
X159780141Y-58934651D01*
X159776288Y-58908680D01*
X159775000Y-58882456D01*
X159775000Y-57892544D01*
X159776288Y-57866320D01*
X159780141Y-57840349D01*
X159786520Y-57814880D01*
X159795366Y-57790159D01*
X159806591Y-57766425D01*
X159820089Y-57743905D01*
X159835730Y-57722816D01*
X159853362Y-57703362D01*
X159872816Y-57685730D01*
X159893905Y-57670089D01*
X159916425Y-57656591D01*
X159940159Y-57645366D01*
X159964880Y-57636520D01*
X159990349Y-57630141D01*
X160016320Y-57626288D01*
X160042544Y-57625000D01*
X161357456Y-57625000D01*
X161383680Y-57626288D01*
G37*
%TD*%
D25*
%TO.C,Y1*%
X144500000Y-52850000D03*
X144500000Y-57750000D03*
%TD*%
D26*
%TO.C,J3*%
X94250000Y-83100000D03*
X95416726Y-83583274D03*
D27*
X94250000Y-84750000D03*
D26*
X92600000Y-84750000D03*
X93083274Y-83583274D03*
X95416726Y-85916726D03*
X95900000Y-84750000D03*
X94250000Y-96900000D03*
X95416726Y-94083274D03*
D27*
X94250000Y-95250000D03*
D26*
X93083274Y-96416726D03*
X92600000Y-95250000D03*
X95416726Y-96416726D03*
X95900000Y-95250000D03*
D18*
X93500000Y-87500000D03*
D19*
X93500000Y-92500000D03*
%TD*%
D18*
%TO.C,J12*%
X117500000Y-112550000D03*
D19*
X127500000Y-112550000D03*
D18*
X122500000Y-112550000D03*
%TD*%
D14*
%TO.C,R13*%
G36*
X100684719Y-93376283D02*
G01*
X100710579Y-93380119D01*
X100735938Y-93386471D01*
X100760552Y-93395278D01*
X100784184Y-93406455D01*
X100806607Y-93419895D01*
X100827605Y-93435468D01*
X100846976Y-93453024D01*
X100864532Y-93472395D01*
X100880105Y-93493393D01*
X100893545Y-93515816D01*
X100904722Y-93539448D01*
X100913529Y-93564062D01*
X100919881Y-93589421D01*
X100923717Y-93615281D01*
X100925000Y-93641392D01*
X100925000Y-96558608D01*
X100923717Y-96584719D01*
X100919881Y-96610579D01*
X100913529Y-96635938D01*
X100904722Y-96660552D01*
X100893545Y-96684184D01*
X100880105Y-96706607D01*
X100864532Y-96727605D01*
X100846976Y-96746976D01*
X100827605Y-96764532D01*
X100806607Y-96780105D01*
X100784184Y-96793545D01*
X100760552Y-96804722D01*
X100735938Y-96813529D01*
X100710579Y-96819881D01*
X100684719Y-96823717D01*
X100658608Y-96825000D01*
X99566392Y-96825000D01*
X99540281Y-96823717D01*
X99514421Y-96819881D01*
X99489062Y-96813529D01*
X99464448Y-96804722D01*
X99440816Y-96793545D01*
X99418393Y-96780105D01*
X99397395Y-96764532D01*
X99378024Y-96746976D01*
X99360468Y-96727605D01*
X99344895Y-96706607D01*
X99331455Y-96684184D01*
X99320278Y-96660552D01*
X99311471Y-96635938D01*
X99305119Y-96610579D01*
X99301283Y-96584719D01*
X99300000Y-96558608D01*
X99300000Y-93641392D01*
X99301283Y-93615281D01*
X99305119Y-93589421D01*
X99311471Y-93564062D01*
X99320278Y-93539448D01*
X99331455Y-93515816D01*
X99344895Y-93493393D01*
X99360468Y-93472395D01*
X99378024Y-93453024D01*
X99397395Y-93435468D01*
X99418393Y-93419895D01*
X99440816Y-93406455D01*
X99464448Y-93395278D01*
X99489062Y-93386471D01*
X99514421Y-93380119D01*
X99540281Y-93376283D01*
X99566392Y-93375000D01*
X100658608Y-93375000D01*
X100684719Y-93376283D01*
G37*
G36*
X106659719Y-93376283D02*
G01*
X106685579Y-93380119D01*
X106710938Y-93386471D01*
X106735552Y-93395278D01*
X106759184Y-93406455D01*
X106781607Y-93419895D01*
X106802605Y-93435468D01*
X106821976Y-93453024D01*
X106839532Y-93472395D01*
X106855105Y-93493393D01*
X106868545Y-93515816D01*
X106879722Y-93539448D01*
X106888529Y-93564062D01*
X106894881Y-93589421D01*
X106898717Y-93615281D01*
X106900000Y-93641392D01*
X106900000Y-96558608D01*
X106898717Y-96584719D01*
X106894881Y-96610579D01*
X106888529Y-96635938D01*
X106879722Y-96660552D01*
X106868545Y-96684184D01*
X106855105Y-96706607D01*
X106839532Y-96727605D01*
X106821976Y-96746976D01*
X106802605Y-96764532D01*
X106781607Y-96780105D01*
X106759184Y-96793545D01*
X106735552Y-96804722D01*
X106710938Y-96813529D01*
X106685579Y-96819881D01*
X106659719Y-96823717D01*
X106633608Y-96825000D01*
X105541392Y-96825000D01*
X105515281Y-96823717D01*
X105489421Y-96819881D01*
X105464062Y-96813529D01*
X105439448Y-96804722D01*
X105415816Y-96793545D01*
X105393393Y-96780105D01*
X105372395Y-96764532D01*
X105353024Y-96746976D01*
X105335468Y-96727605D01*
X105319895Y-96706607D01*
X105306455Y-96684184D01*
X105295278Y-96660552D01*
X105286471Y-96635938D01*
X105280119Y-96610579D01*
X105276283Y-96584719D01*
X105275000Y-96558608D01*
X105275000Y-93641392D01*
X105276283Y-93615281D01*
X105280119Y-93589421D01*
X105286471Y-93564062D01*
X105295278Y-93539448D01*
X105306455Y-93515816D01*
X105319895Y-93493393D01*
X105335468Y-93472395D01*
X105353024Y-93453024D01*
X105372395Y-93435468D01*
X105393393Y-93419895D01*
X105415816Y-93406455D01*
X105439448Y-93395278D01*
X105464062Y-93386471D01*
X105489421Y-93380119D01*
X105515281Y-93376283D01*
X105541392Y-93375000D01*
X106633608Y-93375000D01*
X106659719Y-93376283D01*
G37*
%TD*%
%TO.C,R19*%
G36*
X100684719Y-89476283D02*
G01*
X100710579Y-89480119D01*
X100735938Y-89486471D01*
X100760552Y-89495278D01*
X100784184Y-89506455D01*
X100806607Y-89519895D01*
X100827605Y-89535468D01*
X100846976Y-89553024D01*
X100864532Y-89572395D01*
X100880105Y-89593393D01*
X100893545Y-89615816D01*
X100904722Y-89639448D01*
X100913529Y-89664062D01*
X100919881Y-89689421D01*
X100923717Y-89715281D01*
X100925000Y-89741392D01*
X100925000Y-92658608D01*
X100923717Y-92684719D01*
X100919881Y-92710579D01*
X100913529Y-92735938D01*
X100904722Y-92760552D01*
X100893545Y-92784184D01*
X100880105Y-92806607D01*
X100864532Y-92827605D01*
X100846976Y-92846976D01*
X100827605Y-92864532D01*
X100806607Y-92880105D01*
X100784184Y-92893545D01*
X100760552Y-92904722D01*
X100735938Y-92913529D01*
X100710579Y-92919881D01*
X100684719Y-92923717D01*
X100658608Y-92925000D01*
X99566392Y-92925000D01*
X99540281Y-92923717D01*
X99514421Y-92919881D01*
X99489062Y-92913529D01*
X99464448Y-92904722D01*
X99440816Y-92893545D01*
X99418393Y-92880105D01*
X99397395Y-92864532D01*
X99378024Y-92846976D01*
X99360468Y-92827605D01*
X99344895Y-92806607D01*
X99331455Y-92784184D01*
X99320278Y-92760552D01*
X99311471Y-92735938D01*
X99305119Y-92710579D01*
X99301283Y-92684719D01*
X99300000Y-92658608D01*
X99300000Y-89741392D01*
X99301283Y-89715281D01*
X99305119Y-89689421D01*
X99311471Y-89664062D01*
X99320278Y-89639448D01*
X99331455Y-89615816D01*
X99344895Y-89593393D01*
X99360468Y-89572395D01*
X99378024Y-89553024D01*
X99397395Y-89535468D01*
X99418393Y-89519895D01*
X99440816Y-89506455D01*
X99464448Y-89495278D01*
X99489062Y-89486471D01*
X99514421Y-89480119D01*
X99540281Y-89476283D01*
X99566392Y-89475000D01*
X100658608Y-89475000D01*
X100684719Y-89476283D01*
G37*
G36*
X106659719Y-89476283D02*
G01*
X106685579Y-89480119D01*
X106710938Y-89486471D01*
X106735552Y-89495278D01*
X106759184Y-89506455D01*
X106781607Y-89519895D01*
X106802605Y-89535468D01*
X106821976Y-89553024D01*
X106839532Y-89572395D01*
X106855105Y-89593393D01*
X106868545Y-89615816D01*
X106879722Y-89639448D01*
X106888529Y-89664062D01*
X106894881Y-89689421D01*
X106898717Y-89715281D01*
X106900000Y-89741392D01*
X106900000Y-92658608D01*
X106898717Y-92684719D01*
X106894881Y-92710579D01*
X106888529Y-92735938D01*
X106879722Y-92760552D01*
X106868545Y-92784184D01*
X106855105Y-92806607D01*
X106839532Y-92827605D01*
X106821976Y-92846976D01*
X106802605Y-92864532D01*
X106781607Y-92880105D01*
X106759184Y-92893545D01*
X106735552Y-92904722D01*
X106710938Y-92913529D01*
X106685579Y-92919881D01*
X106659719Y-92923717D01*
X106633608Y-92925000D01*
X105541392Y-92925000D01*
X105515281Y-92923717D01*
X105489421Y-92919881D01*
X105464062Y-92913529D01*
X105439448Y-92904722D01*
X105415816Y-92893545D01*
X105393393Y-92880105D01*
X105372395Y-92864532D01*
X105353024Y-92846976D01*
X105335468Y-92827605D01*
X105319895Y-92806607D01*
X105306455Y-92784184D01*
X105295278Y-92760552D01*
X105286471Y-92735938D01*
X105280119Y-92710579D01*
X105276283Y-92684719D01*
X105275000Y-92658608D01*
X105275000Y-89741392D01*
X105276283Y-89715281D01*
X105280119Y-89689421D01*
X105286471Y-89664062D01*
X105295278Y-89639448D01*
X105306455Y-89615816D01*
X105319895Y-89593393D01*
X105335468Y-89572395D01*
X105353024Y-89553024D01*
X105372395Y-89535468D01*
X105393393Y-89519895D01*
X105415816Y-89506455D01*
X105439448Y-89495278D01*
X105464062Y-89486471D01*
X105489421Y-89480119D01*
X105515281Y-89476283D01*
X105541392Y-89475000D01*
X106633608Y-89475000D01*
X106659719Y-89476283D01*
G37*
%TD*%
%TO.C,R25*%
G36*
X100672219Y-97276283D02*
G01*
X100698079Y-97280119D01*
X100723438Y-97286471D01*
X100748052Y-97295278D01*
X100771684Y-97306455D01*
X100794107Y-97319895D01*
X100815105Y-97335468D01*
X100834476Y-97353024D01*
X100852032Y-97372395D01*
X100867605Y-97393393D01*
X100881045Y-97415816D01*
X100892222Y-97439448D01*
X100901029Y-97464062D01*
X100907381Y-97489421D01*
X100911217Y-97515281D01*
X100912500Y-97541392D01*
X100912500Y-100458608D01*
X100911217Y-100484719D01*
X100907381Y-100510579D01*
X100901029Y-100535938D01*
X100892222Y-100560552D01*
X100881045Y-100584184D01*
X100867605Y-100606607D01*
X100852032Y-100627605D01*
X100834476Y-100646976D01*
X100815105Y-100664532D01*
X100794107Y-100680105D01*
X100771684Y-100693545D01*
X100748052Y-100704722D01*
X100723438Y-100713529D01*
X100698079Y-100719881D01*
X100672219Y-100723717D01*
X100646108Y-100725000D01*
X99553892Y-100725000D01*
X99527781Y-100723717D01*
X99501921Y-100719881D01*
X99476562Y-100713529D01*
X99451948Y-100704722D01*
X99428316Y-100693545D01*
X99405893Y-100680105D01*
X99384895Y-100664532D01*
X99365524Y-100646976D01*
X99347968Y-100627605D01*
X99332395Y-100606607D01*
X99318955Y-100584184D01*
X99307778Y-100560552D01*
X99298971Y-100535938D01*
X99292619Y-100510579D01*
X99288783Y-100484719D01*
X99287500Y-100458608D01*
X99287500Y-97541392D01*
X99288783Y-97515281D01*
X99292619Y-97489421D01*
X99298971Y-97464062D01*
X99307778Y-97439448D01*
X99318955Y-97415816D01*
X99332395Y-97393393D01*
X99347968Y-97372395D01*
X99365524Y-97353024D01*
X99384895Y-97335468D01*
X99405893Y-97319895D01*
X99428316Y-97306455D01*
X99451948Y-97295278D01*
X99476562Y-97286471D01*
X99501921Y-97280119D01*
X99527781Y-97276283D01*
X99553892Y-97275000D01*
X100646108Y-97275000D01*
X100672219Y-97276283D01*
G37*
G36*
X106647219Y-97276283D02*
G01*
X106673079Y-97280119D01*
X106698438Y-97286471D01*
X106723052Y-97295278D01*
X106746684Y-97306455D01*
X106769107Y-97319895D01*
X106790105Y-97335468D01*
X106809476Y-97353024D01*
X106827032Y-97372395D01*
X106842605Y-97393393D01*
X106856045Y-97415816D01*
X106867222Y-97439448D01*
X106876029Y-97464062D01*
X106882381Y-97489421D01*
X106886217Y-97515281D01*
X106887500Y-97541392D01*
X106887500Y-100458608D01*
X106886217Y-100484719D01*
X106882381Y-100510579D01*
X106876029Y-100535938D01*
X106867222Y-100560552D01*
X106856045Y-100584184D01*
X106842605Y-100606607D01*
X106827032Y-100627605D01*
X106809476Y-100646976D01*
X106790105Y-100664532D01*
X106769107Y-100680105D01*
X106746684Y-100693545D01*
X106723052Y-100704722D01*
X106698438Y-100713529D01*
X106673079Y-100719881D01*
X106647219Y-100723717D01*
X106621108Y-100725000D01*
X105528892Y-100725000D01*
X105502781Y-100723717D01*
X105476921Y-100719881D01*
X105451562Y-100713529D01*
X105426948Y-100704722D01*
X105403316Y-100693545D01*
X105380893Y-100680105D01*
X105359895Y-100664532D01*
X105340524Y-100646976D01*
X105322968Y-100627605D01*
X105307395Y-100606607D01*
X105293955Y-100584184D01*
X105282778Y-100560552D01*
X105273971Y-100535938D01*
X105267619Y-100510579D01*
X105263783Y-100484719D01*
X105262500Y-100458608D01*
X105262500Y-97541392D01*
X105263783Y-97515281D01*
X105267619Y-97489421D01*
X105273971Y-97464062D01*
X105282778Y-97439448D01*
X105293955Y-97415816D01*
X105307395Y-97393393D01*
X105322968Y-97372395D01*
X105340524Y-97353024D01*
X105359895Y-97335468D01*
X105380893Y-97319895D01*
X105403316Y-97306455D01*
X105426948Y-97295278D01*
X105451562Y-97286471D01*
X105476921Y-97280119D01*
X105502781Y-97276283D01*
X105528892Y-97275000D01*
X106621108Y-97275000D01*
X106647219Y-97276283D01*
G37*
%TD*%
D21*
%TO.C,D20*%
X147370200Y-71423400D03*
D22*
X147370200Y-76503400D03*
%TD*%
D21*
%TO.C,D21*%
X157870200Y-88083400D03*
D22*
X157870200Y-83003400D03*
%TD*%
D21*
%TO.C,D22*%
X154370200Y-88083400D03*
D22*
X154370200Y-83003400D03*
%TD*%
D21*
%TO.C,D25*%
X162250200Y-71423400D03*
D22*
X162250200Y-76503400D03*
%TD*%
D21*
%TO.C,D26*%
X172750200Y-88083400D03*
D22*
X172750200Y-83003400D03*
%TD*%
D21*
%TO.C,D27*%
X169250200Y-88083400D03*
D22*
X169250200Y-83003400D03*
%TD*%
D21*
%TO.C,D30*%
X177000200Y-71423400D03*
D22*
X177000200Y-76503400D03*
%TD*%
D21*
%TO.C,D31*%
X187500200Y-88083400D03*
D22*
X187500200Y-83003400D03*
%TD*%
D21*
%TO.C,D32*%
X184000200Y-88083400D03*
D22*
X184000200Y-83003400D03*
%TD*%
D18*
%TO.C,J13*%
X164350000Y-112550000D03*
D19*
X174350000Y-112550000D03*
D18*
X169350000Y-112550000D03*
%TD*%
D14*
%TO.C,R32*%
G36*
X138084719Y-103326283D02*
G01*
X138110579Y-103330119D01*
X138135938Y-103336471D01*
X138160552Y-103345278D01*
X138184184Y-103356455D01*
X138206607Y-103369895D01*
X138227605Y-103385468D01*
X138246976Y-103403024D01*
X138264532Y-103422395D01*
X138280105Y-103443393D01*
X138293545Y-103465816D01*
X138304722Y-103489448D01*
X138313529Y-103514062D01*
X138319881Y-103539421D01*
X138323717Y-103565281D01*
X138325000Y-103591392D01*
X138325000Y-106508608D01*
X138323717Y-106534719D01*
X138319881Y-106560579D01*
X138313529Y-106585938D01*
X138304722Y-106610552D01*
X138293545Y-106634184D01*
X138280105Y-106656607D01*
X138264532Y-106677605D01*
X138246976Y-106696976D01*
X138227605Y-106714532D01*
X138206607Y-106730105D01*
X138184184Y-106743545D01*
X138160552Y-106754722D01*
X138135938Y-106763529D01*
X138110579Y-106769881D01*
X138084719Y-106773717D01*
X138058608Y-106775000D01*
X136966392Y-106775000D01*
X136940281Y-106773717D01*
X136914421Y-106769881D01*
X136889062Y-106763529D01*
X136864448Y-106754722D01*
X136840816Y-106743545D01*
X136818393Y-106730105D01*
X136797395Y-106714532D01*
X136778024Y-106696976D01*
X136760468Y-106677605D01*
X136744895Y-106656607D01*
X136731455Y-106634184D01*
X136720278Y-106610552D01*
X136711471Y-106585938D01*
X136705119Y-106560579D01*
X136701283Y-106534719D01*
X136700000Y-106508608D01*
X136700000Y-103591392D01*
X136701283Y-103565281D01*
X136705119Y-103539421D01*
X136711471Y-103514062D01*
X136720278Y-103489448D01*
X136731455Y-103465816D01*
X136744895Y-103443393D01*
X136760468Y-103422395D01*
X136778024Y-103403024D01*
X136797395Y-103385468D01*
X136818393Y-103369895D01*
X136840816Y-103356455D01*
X136864448Y-103345278D01*
X136889062Y-103336471D01*
X136914421Y-103330119D01*
X136940281Y-103326283D01*
X136966392Y-103325000D01*
X138058608Y-103325000D01*
X138084719Y-103326283D01*
G37*
G36*
X144059719Y-103326283D02*
G01*
X144085579Y-103330119D01*
X144110938Y-103336471D01*
X144135552Y-103345278D01*
X144159184Y-103356455D01*
X144181607Y-103369895D01*
X144202605Y-103385468D01*
X144221976Y-103403024D01*
X144239532Y-103422395D01*
X144255105Y-103443393D01*
X144268545Y-103465816D01*
X144279722Y-103489448D01*
X144288529Y-103514062D01*
X144294881Y-103539421D01*
X144298717Y-103565281D01*
X144300000Y-103591392D01*
X144300000Y-106508608D01*
X144298717Y-106534719D01*
X144294881Y-106560579D01*
X144288529Y-106585938D01*
X144279722Y-106610552D01*
X144268545Y-106634184D01*
X144255105Y-106656607D01*
X144239532Y-106677605D01*
X144221976Y-106696976D01*
X144202605Y-106714532D01*
X144181607Y-106730105D01*
X144159184Y-106743545D01*
X144135552Y-106754722D01*
X144110938Y-106763529D01*
X144085579Y-106769881D01*
X144059719Y-106773717D01*
X144033608Y-106775000D01*
X142941392Y-106775000D01*
X142915281Y-106773717D01*
X142889421Y-106769881D01*
X142864062Y-106763529D01*
X142839448Y-106754722D01*
X142815816Y-106743545D01*
X142793393Y-106730105D01*
X142772395Y-106714532D01*
X142753024Y-106696976D01*
X142735468Y-106677605D01*
X142719895Y-106656607D01*
X142706455Y-106634184D01*
X142695278Y-106610552D01*
X142686471Y-106585938D01*
X142680119Y-106560579D01*
X142676283Y-106534719D01*
X142675000Y-106508608D01*
X142675000Y-103591392D01*
X142676283Y-103565281D01*
X142680119Y-103539421D01*
X142686471Y-103514062D01*
X142695278Y-103489448D01*
X142706455Y-103465816D01*
X142719895Y-103443393D01*
X142735468Y-103422395D01*
X142753024Y-103403024D01*
X142772395Y-103385468D01*
X142793393Y-103369895D01*
X142815816Y-103356455D01*
X142839448Y-103345278D01*
X142864062Y-103336471D01*
X142889421Y-103330119D01*
X142915281Y-103326283D01*
X142941392Y-103325000D01*
X144033608Y-103325000D01*
X144059719Y-103326283D01*
G37*
%TD*%
%TO.C,R33*%
G36*
X138084719Y-107176283D02*
G01*
X138110579Y-107180119D01*
X138135938Y-107186471D01*
X138160552Y-107195278D01*
X138184184Y-107206455D01*
X138206607Y-107219895D01*
X138227605Y-107235468D01*
X138246976Y-107253024D01*
X138264532Y-107272395D01*
X138280105Y-107293393D01*
X138293545Y-107315816D01*
X138304722Y-107339448D01*
X138313529Y-107364062D01*
X138319881Y-107389421D01*
X138323717Y-107415281D01*
X138325000Y-107441392D01*
X138325000Y-110358608D01*
X138323717Y-110384719D01*
X138319881Y-110410579D01*
X138313529Y-110435938D01*
X138304722Y-110460552D01*
X138293545Y-110484184D01*
X138280105Y-110506607D01*
X138264532Y-110527605D01*
X138246976Y-110546976D01*
X138227605Y-110564532D01*
X138206607Y-110580105D01*
X138184184Y-110593545D01*
X138160552Y-110604722D01*
X138135938Y-110613529D01*
X138110579Y-110619881D01*
X138084719Y-110623717D01*
X138058608Y-110625000D01*
X136966392Y-110625000D01*
X136940281Y-110623717D01*
X136914421Y-110619881D01*
X136889062Y-110613529D01*
X136864448Y-110604722D01*
X136840816Y-110593545D01*
X136818393Y-110580105D01*
X136797395Y-110564532D01*
X136778024Y-110546976D01*
X136760468Y-110527605D01*
X136744895Y-110506607D01*
X136731455Y-110484184D01*
X136720278Y-110460552D01*
X136711471Y-110435938D01*
X136705119Y-110410579D01*
X136701283Y-110384719D01*
X136700000Y-110358608D01*
X136700000Y-107441392D01*
X136701283Y-107415281D01*
X136705119Y-107389421D01*
X136711471Y-107364062D01*
X136720278Y-107339448D01*
X136731455Y-107315816D01*
X136744895Y-107293393D01*
X136760468Y-107272395D01*
X136778024Y-107253024D01*
X136797395Y-107235468D01*
X136818393Y-107219895D01*
X136840816Y-107206455D01*
X136864448Y-107195278D01*
X136889062Y-107186471D01*
X136914421Y-107180119D01*
X136940281Y-107176283D01*
X136966392Y-107175000D01*
X138058608Y-107175000D01*
X138084719Y-107176283D01*
G37*
G36*
X144059719Y-107176283D02*
G01*
X144085579Y-107180119D01*
X144110938Y-107186471D01*
X144135552Y-107195278D01*
X144159184Y-107206455D01*
X144181607Y-107219895D01*
X144202605Y-107235468D01*
X144221976Y-107253024D01*
X144239532Y-107272395D01*
X144255105Y-107293393D01*
X144268545Y-107315816D01*
X144279722Y-107339448D01*
X144288529Y-107364062D01*
X144294881Y-107389421D01*
X144298717Y-107415281D01*
X144300000Y-107441392D01*
X144300000Y-110358608D01*
X144298717Y-110384719D01*
X144294881Y-110410579D01*
X144288529Y-110435938D01*
X144279722Y-110460552D01*
X144268545Y-110484184D01*
X144255105Y-110506607D01*
X144239532Y-110527605D01*
X144221976Y-110546976D01*
X144202605Y-110564532D01*
X144181607Y-110580105D01*
X144159184Y-110593545D01*
X144135552Y-110604722D01*
X144110938Y-110613529D01*
X144085579Y-110619881D01*
X144059719Y-110623717D01*
X144033608Y-110625000D01*
X142941392Y-110625000D01*
X142915281Y-110623717D01*
X142889421Y-110619881D01*
X142864062Y-110613529D01*
X142839448Y-110604722D01*
X142815816Y-110593545D01*
X142793393Y-110580105D01*
X142772395Y-110564532D01*
X142753024Y-110546976D01*
X142735468Y-110527605D01*
X142719895Y-110506607D01*
X142706455Y-110484184D01*
X142695278Y-110460552D01*
X142686471Y-110435938D01*
X142680119Y-110410579D01*
X142676283Y-110384719D01*
X142675000Y-110358608D01*
X142675000Y-107441392D01*
X142676283Y-107415281D01*
X142680119Y-107389421D01*
X142686471Y-107364062D01*
X142695278Y-107339448D01*
X142706455Y-107315816D01*
X142719895Y-107293393D01*
X142735468Y-107272395D01*
X142753024Y-107253024D01*
X142772395Y-107235468D01*
X142793393Y-107219895D01*
X142815816Y-107206455D01*
X142839448Y-107195278D01*
X142864062Y-107186471D01*
X142889421Y-107180119D01*
X142915281Y-107176283D01*
X142941392Y-107175000D01*
X144033608Y-107175000D01*
X144059719Y-107176283D01*
G37*
%TD*%
%TO.C,R34*%
G36*
X138084719Y-111026283D02*
G01*
X138110579Y-111030119D01*
X138135938Y-111036471D01*
X138160552Y-111045278D01*
X138184184Y-111056455D01*
X138206607Y-111069895D01*
X138227605Y-111085468D01*
X138246976Y-111103024D01*
X138264532Y-111122395D01*
X138280105Y-111143393D01*
X138293545Y-111165816D01*
X138304722Y-111189448D01*
X138313529Y-111214062D01*
X138319881Y-111239421D01*
X138323717Y-111265281D01*
X138325000Y-111291392D01*
X138325000Y-114208608D01*
X138323717Y-114234719D01*
X138319881Y-114260579D01*
X138313529Y-114285938D01*
X138304722Y-114310552D01*
X138293545Y-114334184D01*
X138280105Y-114356607D01*
X138264532Y-114377605D01*
X138246976Y-114396976D01*
X138227605Y-114414532D01*
X138206607Y-114430105D01*
X138184184Y-114443545D01*
X138160552Y-114454722D01*
X138135938Y-114463529D01*
X138110579Y-114469881D01*
X138084719Y-114473717D01*
X138058608Y-114475000D01*
X136966392Y-114475000D01*
X136940281Y-114473717D01*
X136914421Y-114469881D01*
X136889062Y-114463529D01*
X136864448Y-114454722D01*
X136840816Y-114443545D01*
X136818393Y-114430105D01*
X136797395Y-114414532D01*
X136778024Y-114396976D01*
X136760468Y-114377605D01*
X136744895Y-114356607D01*
X136731455Y-114334184D01*
X136720278Y-114310552D01*
X136711471Y-114285938D01*
X136705119Y-114260579D01*
X136701283Y-114234719D01*
X136700000Y-114208608D01*
X136700000Y-111291392D01*
X136701283Y-111265281D01*
X136705119Y-111239421D01*
X136711471Y-111214062D01*
X136720278Y-111189448D01*
X136731455Y-111165816D01*
X136744895Y-111143393D01*
X136760468Y-111122395D01*
X136778024Y-111103024D01*
X136797395Y-111085468D01*
X136818393Y-111069895D01*
X136840816Y-111056455D01*
X136864448Y-111045278D01*
X136889062Y-111036471D01*
X136914421Y-111030119D01*
X136940281Y-111026283D01*
X136966392Y-111025000D01*
X138058608Y-111025000D01*
X138084719Y-111026283D01*
G37*
G36*
X144059719Y-111026283D02*
G01*
X144085579Y-111030119D01*
X144110938Y-111036471D01*
X144135552Y-111045278D01*
X144159184Y-111056455D01*
X144181607Y-111069895D01*
X144202605Y-111085468D01*
X144221976Y-111103024D01*
X144239532Y-111122395D01*
X144255105Y-111143393D01*
X144268545Y-111165816D01*
X144279722Y-111189448D01*
X144288529Y-111214062D01*
X144294881Y-111239421D01*
X144298717Y-111265281D01*
X144300000Y-111291392D01*
X144300000Y-114208608D01*
X144298717Y-114234719D01*
X144294881Y-114260579D01*
X144288529Y-114285938D01*
X144279722Y-114310552D01*
X144268545Y-114334184D01*
X144255105Y-114356607D01*
X144239532Y-114377605D01*
X144221976Y-114396976D01*
X144202605Y-114414532D01*
X144181607Y-114430105D01*
X144159184Y-114443545D01*
X144135552Y-114454722D01*
X144110938Y-114463529D01*
X144085579Y-114469881D01*
X144059719Y-114473717D01*
X144033608Y-114475000D01*
X142941392Y-114475000D01*
X142915281Y-114473717D01*
X142889421Y-114469881D01*
X142864062Y-114463529D01*
X142839448Y-114454722D01*
X142815816Y-114443545D01*
X142793393Y-114430105D01*
X142772395Y-114414532D01*
X142753024Y-114396976D01*
X142735468Y-114377605D01*
X142719895Y-114356607D01*
X142706455Y-114334184D01*
X142695278Y-114310552D01*
X142686471Y-114285938D01*
X142680119Y-114260579D01*
X142676283Y-114234719D01*
X142675000Y-114208608D01*
X142675000Y-111291392D01*
X142676283Y-111265281D01*
X142680119Y-111239421D01*
X142686471Y-111214062D01*
X142695278Y-111189448D01*
X142706455Y-111165816D01*
X142719895Y-111143393D01*
X142735468Y-111122395D01*
X142753024Y-111103024D01*
X142772395Y-111085468D01*
X142793393Y-111069895D01*
X142815816Y-111056455D01*
X142839448Y-111045278D01*
X142864062Y-111036471D01*
X142889421Y-111030119D01*
X142915281Y-111026283D01*
X142941392Y-111025000D01*
X144033608Y-111025000D01*
X144059719Y-111026283D01*
G37*
%TD*%
D23*
%TO.C,J7*%
X182160000Y-58790000D03*
X182160000Y-56250000D03*
X179620000Y-58790000D03*
X179620000Y-56250000D03*
X177080000Y-58790000D03*
X177080000Y-56250000D03*
X174540000Y-58790000D03*
X174540000Y-56250000D03*
X172000000Y-58790000D03*
D24*
X172000000Y-56250000D03*
%TD*%
D28*
%TO.C,TH1*%
X147270000Y-78900000D03*
D29*
X146000000Y-78900000D03*
%TD*%
D23*
%TO.C,J11*%
X133080000Y-54660000D03*
X133080000Y-57200000D03*
X130540000Y-54660000D03*
X130540000Y-57200000D03*
X128000000Y-54660000D03*
D24*
X128000000Y-57200000D03*
%TD*%
D28*
%TO.C,J6*%
X120480000Y-60100000D03*
D29*
X121750000Y-60100000D03*
%TD*%
%TO.C,J1*%
X124750000Y-59250000D03*
D28*
X124750000Y-60520000D03*
%TD*%
D14*
%TO.C,C33*%
G36*
X129615484Y-88001252D02*
G01*
X129640723Y-88004996D01*
X129665474Y-88011196D01*
X129689498Y-88019791D01*
X129712563Y-88030700D01*
X129734448Y-88043818D01*
X129754942Y-88059017D01*
X129773848Y-88076152D01*
X129790983Y-88095058D01*
X129806182Y-88115552D01*
X129819300Y-88137437D01*
X129830209Y-88160502D01*
X129838804Y-88184526D01*
X129845004Y-88209277D01*
X129848748Y-88234516D01*
X129850000Y-88260000D01*
X129850000Y-92240000D01*
X129848748Y-92265484D01*
X129845004Y-92290723D01*
X129838804Y-92315474D01*
X129830209Y-92339498D01*
X129819300Y-92362563D01*
X129806182Y-92384448D01*
X129790983Y-92404942D01*
X129773848Y-92423848D01*
X129754942Y-92440983D01*
X129734448Y-92456182D01*
X129712563Y-92469300D01*
X129689498Y-92480209D01*
X129665474Y-92488804D01*
X129640723Y-92495004D01*
X129615484Y-92498748D01*
X129590000Y-92500000D01*
X127510000Y-92500000D01*
X127484516Y-92498748D01*
X127459277Y-92495004D01*
X127434526Y-92488804D01*
X127410502Y-92480209D01*
X127387437Y-92469300D01*
X127365552Y-92456182D01*
X127345058Y-92440983D01*
X127326152Y-92423848D01*
X127309017Y-92404942D01*
X127293818Y-92384448D01*
X127280700Y-92362563D01*
X127269791Y-92339498D01*
X127261196Y-92315474D01*
X127254996Y-92290723D01*
X127251252Y-92265484D01*
X127250000Y-92240000D01*
X127250000Y-88260000D01*
X127251252Y-88234516D01*
X127254996Y-88209277D01*
X127261196Y-88184526D01*
X127269791Y-88160502D01*
X127280700Y-88137437D01*
X127293818Y-88115552D01*
X127309017Y-88095058D01*
X127326152Y-88076152D01*
X127345058Y-88059017D01*
X127365552Y-88043818D01*
X127387437Y-88030700D01*
X127410502Y-88019791D01*
X127434526Y-88011196D01*
X127459277Y-88004996D01*
X127484516Y-88001252D01*
X127510000Y-88000000D01*
X129590000Y-88000000D01*
X129615484Y-88001252D01*
G37*
G36*
X129615484Y-96401252D02*
G01*
X129640723Y-96404996D01*
X129665474Y-96411196D01*
X129689498Y-96419791D01*
X129712563Y-96430700D01*
X129734448Y-96443818D01*
X129754942Y-96459017D01*
X129773848Y-96476152D01*
X129790983Y-96495058D01*
X129806182Y-96515552D01*
X129819300Y-96537437D01*
X129830209Y-96560502D01*
X129838804Y-96584526D01*
X129845004Y-96609277D01*
X129848748Y-96634516D01*
X129850000Y-96660000D01*
X129850000Y-100640000D01*
X129848748Y-100665484D01*
X129845004Y-100690723D01*
X129838804Y-100715474D01*
X129830209Y-100739498D01*
X129819300Y-100762563D01*
X129806182Y-100784448D01*
X129790983Y-100804942D01*
X129773848Y-100823848D01*
X129754942Y-100840983D01*
X129734448Y-100856182D01*
X129712563Y-100869300D01*
X129689498Y-100880209D01*
X129665474Y-100888804D01*
X129640723Y-100895004D01*
X129615484Y-100898748D01*
X129590000Y-100900000D01*
X127510000Y-100900000D01*
X127484516Y-100898748D01*
X127459277Y-100895004D01*
X127434526Y-100888804D01*
X127410502Y-100880209D01*
X127387437Y-100869300D01*
X127365552Y-100856182D01*
X127345058Y-100840983D01*
X127326152Y-100823848D01*
X127309017Y-100804942D01*
X127293818Y-100784448D01*
X127280700Y-100762563D01*
X127269791Y-100739498D01*
X127261196Y-100715474D01*
X127254996Y-100690723D01*
X127251252Y-100665484D01*
X127250000Y-100640000D01*
X127250000Y-96660000D01*
X127251252Y-96634516D01*
X127254996Y-96609277D01*
X127261196Y-96584526D01*
X127269791Y-96560502D01*
X127280700Y-96537437D01*
X127293818Y-96515552D01*
X127309017Y-96495058D01*
X127326152Y-96476152D01*
X127345058Y-96459017D01*
X127365552Y-96443818D01*
X127387437Y-96430700D01*
X127410502Y-96419791D01*
X127434526Y-96411196D01*
X127459277Y-96404996D01*
X127484516Y-96401252D01*
X127510000Y-96400000D01*
X129590000Y-96400000D01*
X129615484Y-96401252D01*
G37*
%TD*%
%TO.C,C34*%
G36*
X146015484Y-93501252D02*
G01*
X146040723Y-93504996D01*
X146065474Y-93511196D01*
X146089498Y-93519791D01*
X146112563Y-93530700D01*
X146134448Y-93543818D01*
X146154942Y-93559017D01*
X146173848Y-93576152D01*
X146190983Y-93595058D01*
X146206182Y-93615552D01*
X146219300Y-93637437D01*
X146230209Y-93660502D01*
X146238804Y-93684526D01*
X146245004Y-93709277D01*
X146248748Y-93734516D01*
X146250000Y-93760000D01*
X146250000Y-95840000D01*
X146248748Y-95865484D01*
X146245004Y-95890723D01*
X146238804Y-95915474D01*
X146230209Y-95939498D01*
X146219300Y-95962563D01*
X146206182Y-95984448D01*
X146190983Y-96004942D01*
X146173848Y-96023848D01*
X146154942Y-96040983D01*
X146134448Y-96056182D01*
X146112563Y-96069300D01*
X146089498Y-96080209D01*
X146065474Y-96088804D01*
X146040723Y-96095004D01*
X146015484Y-96098748D01*
X145990000Y-96100000D01*
X142010000Y-96100000D01*
X141984516Y-96098748D01*
X141959277Y-96095004D01*
X141934526Y-96088804D01*
X141910502Y-96080209D01*
X141887437Y-96069300D01*
X141865552Y-96056182D01*
X141845058Y-96040983D01*
X141826152Y-96023848D01*
X141809017Y-96004942D01*
X141793818Y-95984448D01*
X141780700Y-95962563D01*
X141769791Y-95939498D01*
X141761196Y-95915474D01*
X141754996Y-95890723D01*
X141751252Y-95865484D01*
X141750000Y-95840000D01*
X141750000Y-93760000D01*
X141751252Y-93734516D01*
X141754996Y-93709277D01*
X141761196Y-93684526D01*
X141769791Y-93660502D01*
X141780700Y-93637437D01*
X141793818Y-93615552D01*
X141809017Y-93595058D01*
X141826152Y-93576152D01*
X141845058Y-93559017D01*
X141865552Y-93543818D01*
X141887437Y-93530700D01*
X141910502Y-93519791D01*
X141934526Y-93511196D01*
X141959277Y-93504996D01*
X141984516Y-93501252D01*
X142010000Y-93500000D01*
X145990000Y-93500000D01*
X146015484Y-93501252D01*
G37*
G36*
X137615484Y-93501252D02*
G01*
X137640723Y-93504996D01*
X137665474Y-93511196D01*
X137689498Y-93519791D01*
X137712563Y-93530700D01*
X137734448Y-93543818D01*
X137754942Y-93559017D01*
X137773848Y-93576152D01*
X137790983Y-93595058D01*
X137806182Y-93615552D01*
X137819300Y-93637437D01*
X137830209Y-93660502D01*
X137838804Y-93684526D01*
X137845004Y-93709277D01*
X137848748Y-93734516D01*
X137850000Y-93760000D01*
X137850000Y-95840000D01*
X137848748Y-95865484D01*
X137845004Y-95890723D01*
X137838804Y-95915474D01*
X137830209Y-95939498D01*
X137819300Y-95962563D01*
X137806182Y-95984448D01*
X137790983Y-96004942D01*
X137773848Y-96023848D01*
X137754942Y-96040983D01*
X137734448Y-96056182D01*
X137712563Y-96069300D01*
X137689498Y-96080209D01*
X137665474Y-96088804D01*
X137640723Y-96095004D01*
X137615484Y-96098748D01*
X137590000Y-96100000D01*
X133610000Y-96100000D01*
X133584516Y-96098748D01*
X133559277Y-96095004D01*
X133534526Y-96088804D01*
X133510502Y-96080209D01*
X133487437Y-96069300D01*
X133465552Y-96056182D01*
X133445058Y-96040983D01*
X133426152Y-96023848D01*
X133409017Y-96004942D01*
X133393818Y-95984448D01*
X133380700Y-95962563D01*
X133369791Y-95939498D01*
X133361196Y-95915474D01*
X133354996Y-95890723D01*
X133351252Y-95865484D01*
X133350000Y-95840000D01*
X133350000Y-93760000D01*
X133351252Y-93734516D01*
X133354996Y-93709277D01*
X133361196Y-93684526D01*
X133369791Y-93660502D01*
X133380700Y-93637437D01*
X133393818Y-93615552D01*
X133409017Y-93595058D01*
X133426152Y-93576152D01*
X133445058Y-93559017D01*
X133465552Y-93543818D01*
X133487437Y-93530700D01*
X133510502Y-93519791D01*
X133534526Y-93511196D01*
X133559277Y-93504996D01*
X133584516Y-93501252D01*
X133610000Y-93500000D01*
X137590000Y-93500000D01*
X137615484Y-93501252D01*
G37*
%TD*%
%TO.C,C35*%
G36*
X177565484Y-88001252D02*
G01*
X177590723Y-88004996D01*
X177615474Y-88011196D01*
X177639498Y-88019791D01*
X177662563Y-88030700D01*
X177684448Y-88043818D01*
X177704942Y-88059017D01*
X177723848Y-88076152D01*
X177740983Y-88095058D01*
X177756182Y-88115552D01*
X177769300Y-88137437D01*
X177780209Y-88160502D01*
X177788804Y-88184526D01*
X177795004Y-88209277D01*
X177798748Y-88234516D01*
X177800000Y-88260000D01*
X177800000Y-92240000D01*
X177798748Y-92265484D01*
X177795004Y-92290723D01*
X177788804Y-92315474D01*
X177780209Y-92339498D01*
X177769300Y-92362563D01*
X177756182Y-92384448D01*
X177740983Y-92404942D01*
X177723848Y-92423848D01*
X177704942Y-92440983D01*
X177684448Y-92456182D01*
X177662563Y-92469300D01*
X177639498Y-92480209D01*
X177615474Y-92488804D01*
X177590723Y-92495004D01*
X177565484Y-92498748D01*
X177540000Y-92500000D01*
X175460000Y-92500000D01*
X175434516Y-92498748D01*
X175409277Y-92495004D01*
X175384526Y-92488804D01*
X175360502Y-92480209D01*
X175337437Y-92469300D01*
X175315552Y-92456182D01*
X175295058Y-92440983D01*
X175276152Y-92423848D01*
X175259017Y-92404942D01*
X175243818Y-92384448D01*
X175230700Y-92362563D01*
X175219791Y-92339498D01*
X175211196Y-92315474D01*
X175204996Y-92290723D01*
X175201252Y-92265484D01*
X175200000Y-92240000D01*
X175200000Y-88260000D01*
X175201252Y-88234516D01*
X175204996Y-88209277D01*
X175211196Y-88184526D01*
X175219791Y-88160502D01*
X175230700Y-88137437D01*
X175243818Y-88115552D01*
X175259017Y-88095058D01*
X175276152Y-88076152D01*
X175295058Y-88059017D01*
X175315552Y-88043818D01*
X175337437Y-88030700D01*
X175360502Y-88019791D01*
X175384526Y-88011196D01*
X175409277Y-88004996D01*
X175434516Y-88001252D01*
X175460000Y-88000000D01*
X177540000Y-88000000D01*
X177565484Y-88001252D01*
G37*
G36*
X177565484Y-96401252D02*
G01*
X177590723Y-96404996D01*
X177615474Y-96411196D01*
X177639498Y-96419791D01*
X177662563Y-96430700D01*
X177684448Y-96443818D01*
X177704942Y-96459017D01*
X177723848Y-96476152D01*
X177740983Y-96495058D01*
X177756182Y-96515552D01*
X177769300Y-96537437D01*
X177780209Y-96560502D01*
X177788804Y-96584526D01*
X177795004Y-96609277D01*
X177798748Y-96634516D01*
X177800000Y-96660000D01*
X177800000Y-100640000D01*
X177798748Y-100665484D01*
X177795004Y-100690723D01*
X177788804Y-100715474D01*
X177780209Y-100739498D01*
X177769300Y-100762563D01*
X177756182Y-100784448D01*
X177740983Y-100804942D01*
X177723848Y-100823848D01*
X177704942Y-100840983D01*
X177684448Y-100856182D01*
X177662563Y-100869300D01*
X177639498Y-100880209D01*
X177615474Y-100888804D01*
X177590723Y-100895004D01*
X177565484Y-100898748D01*
X177540000Y-100900000D01*
X175460000Y-100900000D01*
X175434516Y-100898748D01*
X175409277Y-100895004D01*
X175384526Y-100888804D01*
X175360502Y-100880209D01*
X175337437Y-100869300D01*
X175315552Y-100856182D01*
X175295058Y-100840983D01*
X175276152Y-100823848D01*
X175259017Y-100804942D01*
X175243818Y-100784448D01*
X175230700Y-100762563D01*
X175219791Y-100739498D01*
X175211196Y-100715474D01*
X175204996Y-100690723D01*
X175201252Y-100665484D01*
X175200000Y-100640000D01*
X175200000Y-96660000D01*
X175201252Y-96634516D01*
X175204996Y-96609277D01*
X175211196Y-96584526D01*
X175219791Y-96560502D01*
X175230700Y-96537437D01*
X175243818Y-96515552D01*
X175259017Y-96495058D01*
X175276152Y-96476152D01*
X175295058Y-96459017D01*
X175315552Y-96443818D01*
X175337437Y-96430700D01*
X175360502Y-96419791D01*
X175384526Y-96411196D01*
X175409277Y-96404996D01*
X175434516Y-96401252D01*
X175460000Y-96400000D01*
X177540000Y-96400000D01*
X177565484Y-96401252D01*
G37*
%TD*%
%TO.C,C36*%
G36*
X148915484Y-93501252D02*
G01*
X148940723Y-93504996D01*
X148965474Y-93511196D01*
X148989498Y-93519791D01*
X149012563Y-93530700D01*
X149034448Y-93543818D01*
X149054942Y-93559017D01*
X149073848Y-93576152D01*
X149090983Y-93595058D01*
X149106182Y-93615552D01*
X149119300Y-93637437D01*
X149130209Y-93660502D01*
X149138804Y-93684526D01*
X149145004Y-93709277D01*
X149148748Y-93734516D01*
X149150000Y-93760000D01*
X149150000Y-95840000D01*
X149148748Y-95865484D01*
X149145004Y-95890723D01*
X149138804Y-95915474D01*
X149130209Y-95939498D01*
X149119300Y-95962563D01*
X149106182Y-95984448D01*
X149090983Y-96004942D01*
X149073848Y-96023848D01*
X149054942Y-96040983D01*
X149034448Y-96056182D01*
X149012563Y-96069300D01*
X148989498Y-96080209D01*
X148965474Y-96088804D01*
X148940723Y-96095004D01*
X148915484Y-96098748D01*
X148890000Y-96100000D01*
X144910000Y-96100000D01*
X144884516Y-96098748D01*
X144859277Y-96095004D01*
X144834526Y-96088804D01*
X144810502Y-96080209D01*
X144787437Y-96069300D01*
X144765552Y-96056182D01*
X144745058Y-96040983D01*
X144726152Y-96023848D01*
X144709017Y-96004942D01*
X144693818Y-95984448D01*
X144680700Y-95962563D01*
X144669791Y-95939498D01*
X144661196Y-95915474D01*
X144654996Y-95890723D01*
X144651252Y-95865484D01*
X144650000Y-95840000D01*
X144650000Y-93760000D01*
X144651252Y-93734516D01*
X144654996Y-93709277D01*
X144661196Y-93684526D01*
X144669791Y-93660502D01*
X144680700Y-93637437D01*
X144693818Y-93615552D01*
X144709017Y-93595058D01*
X144726152Y-93576152D01*
X144745058Y-93559017D01*
X144765552Y-93543818D01*
X144787437Y-93530700D01*
X144810502Y-93519791D01*
X144834526Y-93511196D01*
X144859277Y-93504996D01*
X144884516Y-93501252D01*
X144910000Y-93500000D01*
X148890000Y-93500000D01*
X148915484Y-93501252D01*
G37*
G36*
X157315484Y-93501252D02*
G01*
X157340723Y-93504996D01*
X157365474Y-93511196D01*
X157389498Y-93519791D01*
X157412563Y-93530700D01*
X157434448Y-93543818D01*
X157454942Y-93559017D01*
X157473848Y-93576152D01*
X157490983Y-93595058D01*
X157506182Y-93615552D01*
X157519300Y-93637437D01*
X157530209Y-93660502D01*
X157538804Y-93684526D01*
X157545004Y-93709277D01*
X157548748Y-93734516D01*
X157550000Y-93760000D01*
X157550000Y-95840000D01*
X157548748Y-95865484D01*
X157545004Y-95890723D01*
X157538804Y-95915474D01*
X157530209Y-95939498D01*
X157519300Y-95962563D01*
X157506182Y-95984448D01*
X157490983Y-96004942D01*
X157473848Y-96023848D01*
X157454942Y-96040983D01*
X157434448Y-96056182D01*
X157412563Y-96069300D01*
X157389498Y-96080209D01*
X157365474Y-96088804D01*
X157340723Y-96095004D01*
X157315484Y-96098748D01*
X157290000Y-96100000D01*
X153310000Y-96100000D01*
X153284516Y-96098748D01*
X153259277Y-96095004D01*
X153234526Y-96088804D01*
X153210502Y-96080209D01*
X153187437Y-96069300D01*
X153165552Y-96056182D01*
X153145058Y-96040983D01*
X153126152Y-96023848D01*
X153109017Y-96004942D01*
X153093818Y-95984448D01*
X153080700Y-95962563D01*
X153069791Y-95939498D01*
X153061196Y-95915474D01*
X153054996Y-95890723D01*
X153051252Y-95865484D01*
X153050000Y-95840000D01*
X153050000Y-93760000D01*
X153051252Y-93734516D01*
X153054996Y-93709277D01*
X153061196Y-93684526D01*
X153069791Y-93660502D01*
X153080700Y-93637437D01*
X153093818Y-93615552D01*
X153109017Y-93595058D01*
X153126152Y-93576152D01*
X153145058Y-93559017D01*
X153165552Y-93543818D01*
X153187437Y-93530700D01*
X153210502Y-93519791D01*
X153234526Y-93511196D01*
X153259277Y-93504996D01*
X153284516Y-93501252D01*
X153310000Y-93500000D01*
X157290000Y-93500000D01*
X157315484Y-93501252D01*
G37*
%TD*%
%TO.C,C37*%
G36*
X163365484Y-88001252D02*
G01*
X163390723Y-88004996D01*
X163415474Y-88011196D01*
X163439498Y-88019791D01*
X163462563Y-88030700D01*
X163484448Y-88043818D01*
X163504942Y-88059017D01*
X163523848Y-88076152D01*
X163540983Y-88095058D01*
X163556182Y-88115552D01*
X163569300Y-88137437D01*
X163580209Y-88160502D01*
X163588804Y-88184526D01*
X163595004Y-88209277D01*
X163598748Y-88234516D01*
X163600000Y-88260000D01*
X163600000Y-92240000D01*
X163598748Y-92265484D01*
X163595004Y-92290723D01*
X163588804Y-92315474D01*
X163580209Y-92339498D01*
X163569300Y-92362563D01*
X163556182Y-92384448D01*
X163540983Y-92404942D01*
X163523848Y-92423848D01*
X163504942Y-92440983D01*
X163484448Y-92456182D01*
X163462563Y-92469300D01*
X163439498Y-92480209D01*
X163415474Y-92488804D01*
X163390723Y-92495004D01*
X163365484Y-92498748D01*
X163340000Y-92500000D01*
X161260000Y-92500000D01*
X161234516Y-92498748D01*
X161209277Y-92495004D01*
X161184526Y-92488804D01*
X161160502Y-92480209D01*
X161137437Y-92469300D01*
X161115552Y-92456182D01*
X161095058Y-92440983D01*
X161076152Y-92423848D01*
X161059017Y-92404942D01*
X161043818Y-92384448D01*
X161030700Y-92362563D01*
X161019791Y-92339498D01*
X161011196Y-92315474D01*
X161004996Y-92290723D01*
X161001252Y-92265484D01*
X161000000Y-92240000D01*
X161000000Y-88260000D01*
X161001252Y-88234516D01*
X161004996Y-88209277D01*
X161011196Y-88184526D01*
X161019791Y-88160502D01*
X161030700Y-88137437D01*
X161043818Y-88115552D01*
X161059017Y-88095058D01*
X161076152Y-88076152D01*
X161095058Y-88059017D01*
X161115552Y-88043818D01*
X161137437Y-88030700D01*
X161160502Y-88019791D01*
X161184526Y-88011196D01*
X161209277Y-88004996D01*
X161234516Y-88001252D01*
X161260000Y-88000000D01*
X163340000Y-88000000D01*
X163365484Y-88001252D01*
G37*
G36*
X163365484Y-96401252D02*
G01*
X163390723Y-96404996D01*
X163415474Y-96411196D01*
X163439498Y-96419791D01*
X163462563Y-96430700D01*
X163484448Y-96443818D01*
X163504942Y-96459017D01*
X163523848Y-96476152D01*
X163540983Y-96495058D01*
X163556182Y-96515552D01*
X163569300Y-96537437D01*
X163580209Y-96560502D01*
X163588804Y-96584526D01*
X163595004Y-96609277D01*
X163598748Y-96634516D01*
X163600000Y-96660000D01*
X163600000Y-100640000D01*
X163598748Y-100665484D01*
X163595004Y-100690723D01*
X163588804Y-100715474D01*
X163580209Y-100739498D01*
X163569300Y-100762563D01*
X163556182Y-100784448D01*
X163540983Y-100804942D01*
X163523848Y-100823848D01*
X163504942Y-100840983D01*
X163484448Y-100856182D01*
X163462563Y-100869300D01*
X163439498Y-100880209D01*
X163415474Y-100888804D01*
X163390723Y-100895004D01*
X163365484Y-100898748D01*
X163340000Y-100900000D01*
X161260000Y-100900000D01*
X161234516Y-100898748D01*
X161209277Y-100895004D01*
X161184526Y-100888804D01*
X161160502Y-100880209D01*
X161137437Y-100869300D01*
X161115552Y-100856182D01*
X161095058Y-100840983D01*
X161076152Y-100823848D01*
X161059017Y-100804942D01*
X161043818Y-100784448D01*
X161030700Y-100762563D01*
X161019791Y-100739498D01*
X161011196Y-100715474D01*
X161004996Y-100690723D01*
X161001252Y-100665484D01*
X161000000Y-100640000D01*
X161000000Y-96660000D01*
X161001252Y-96634516D01*
X161004996Y-96609277D01*
X161011196Y-96584526D01*
X161019791Y-96560502D01*
X161030700Y-96537437D01*
X161043818Y-96515552D01*
X161059017Y-96495058D01*
X161076152Y-96476152D01*
X161095058Y-96459017D01*
X161115552Y-96443818D01*
X161137437Y-96430700D01*
X161160502Y-96419791D01*
X161184526Y-96411196D01*
X161209277Y-96404996D01*
X161234516Y-96401252D01*
X161260000Y-96400000D01*
X163340000Y-96400000D01*
X163365484Y-96401252D01*
G37*
%TD*%
D30*
%TO.C,J10*%
X174100000Y-48850000D03*
X178100000Y-48850000D03*
D31*
X173275000Y-46500000D03*
X178925000Y-46500000D03*
%TD*%
D32*
X99500000Y-88000000D03*
X100750000Y-87500000D03*
X99500000Y-86750000D03*
X100750000Y-86250000D03*
X99500000Y-85500000D03*
X100750000Y-85000000D03*
X107000000Y-57500000D03*
X99500000Y-84250000D03*
X100750000Y-83750000D03*
X95000000Y-67000000D03*
X109499996Y-49500000D03*
X120000000Y-57250000D03*
X118250000Y-56750000D03*
X94750010Y-75000000D03*
X160350000Y-61400000D03*
X142400000Y-55400000D03*
X166402163Y-52625010D03*
X97750000Y-52250000D03*
X153900000Y-58600000D03*
X137400000Y-54700000D03*
X107700000Y-62600000D03*
X115700000Y-61400000D03*
X98000000Y-64800000D03*
X173800000Y-53300000D03*
X147000000Y-54250000D03*
X170500000Y-47900000D03*
X171000000Y-49500000D03*
X110600000Y-69100000D03*
X114380000Y-88000000D03*
X115630000Y-87500000D03*
X114380000Y-86750000D03*
X115630000Y-86250000D03*
X114380000Y-85500000D03*
X115630000Y-85000000D03*
X114380000Y-84250000D03*
X115630000Y-83750000D03*
X125480000Y-69100000D03*
X113780000Y-69800000D03*
X129130000Y-88000000D03*
X130380000Y-87500000D03*
X129130000Y-86750000D03*
X130380000Y-86250000D03*
X129130000Y-85500000D03*
X130380000Y-85000000D03*
X129130000Y-84250000D03*
X130380000Y-83750000D03*
X140230000Y-69100000D03*
X128530000Y-69800000D03*
X146370200Y-88003400D03*
X147620200Y-87503400D03*
X146370200Y-86753400D03*
X147620200Y-86253400D03*
X146370200Y-85503400D03*
X147620200Y-85003400D03*
X146370200Y-84253400D03*
X147620200Y-83753400D03*
X157470200Y-69103400D03*
X145770200Y-69803400D03*
X161250200Y-88003400D03*
X162500200Y-87503400D03*
X161250200Y-86753400D03*
X162500200Y-86253400D03*
X161250200Y-85503400D03*
X162500200Y-85003400D03*
X161250200Y-84253400D03*
X162500200Y-83753400D03*
X172350200Y-69103400D03*
X160650200Y-69803400D03*
X176000200Y-88003400D03*
X177250200Y-87503400D03*
X176000200Y-86753400D03*
X177250200Y-86253400D03*
X176000200Y-85503400D03*
X177250200Y-85003400D03*
X176000200Y-84253400D03*
X177250200Y-83753400D03*
X187100200Y-69103400D03*
X175400200Y-69803400D03*
X144000000Y-78750000D03*
X183700000Y-64100000D03*
X98200000Y-69500000D03*
X148500000Y-51250000D03*
X96500000Y-90750000D03*
X141250000Y-113500000D03*
X107000000Y-55000000D03*
X106500000Y-52000000D03*
X92500002Y-66750000D03*
X92475000Y-67775000D03*
X113000000Y-55000000D03*
X160371183Y-60400212D03*
X125500000Y-52250000D03*
X124250000Y-47750000D03*
X156500000Y-53750000D03*
X183100000Y-51100000D03*
X183300000Y-55000000D03*
X113000000Y-53750000D03*
X154500000Y-62600000D03*
X97500000Y-68500000D03*
X97600000Y-66800000D03*
X152900000Y-51799998D03*
X154300000Y-53500000D03*
X120500000Y-65750000D03*
X124500000Y-65750000D03*
X109750000Y-65750000D03*
X135250000Y-65750000D03*
X145250000Y-66250000D03*
X125500000Y-65750000D03*
X119500000Y-65750000D03*
X110750000Y-65750000D03*
X134250000Y-65750000D03*
X146250000Y-66250000D03*
X156500000Y-65750000D03*
X167250000Y-65750000D03*
X171500000Y-65750000D03*
X166250000Y-65750000D03*
X157500000Y-65750000D03*
X105700000Y-67600000D03*
X152750000Y-66249988D03*
X151500000Y-66250000D03*
X103000000Y-62800000D03*
X103000000Y-63800000D03*
X137800000Y-58200000D03*
X155300000Y-55100000D03*
X157500000Y-50600000D03*
X168700000Y-53300000D03*
X147500000Y-58100000D03*
X155200000Y-54100000D03*
X159100000Y-57200000D03*
X159162660Y-58262660D03*
X137800000Y-60900000D03*
X154500000Y-57700000D03*
X165519445Y-58094123D03*
X168500000Y-59800000D03*
X159000000Y-50700000D03*
X169700000Y-52300000D03*
X169748005Y-59830010D03*
X165324961Y-59075039D03*
X170800000Y-59800000D03*
X165325021Y-60117243D03*
X165400008Y-62400000D03*
X169675492Y-62125010D03*
X170600000Y-62725010D03*
X164505225Y-62852460D03*
X172200000Y-63500000D03*
X163993205Y-63711448D03*
X138750000Y-52300000D03*
X141200000Y-48600000D03*
X137500000Y-52300000D03*
X140200000Y-48700000D03*
X159200000Y-54600000D03*
X160600000Y-52150011D03*
X136500000Y-52200000D03*
X139200000Y-48700000D03*
X153900000Y-56000000D03*
X140250000Y-64250000D03*
X134500000Y-62750000D03*
X123200000Y-64500000D03*
X118700000Y-63800000D03*
X148200000Y-59600000D03*
X107600000Y-71450004D03*
X109500000Y-67150000D03*
X122480000Y-71450004D03*
X124380000Y-67150000D03*
X137230000Y-71450004D03*
X139130000Y-67150000D03*
X110500000Y-94250000D03*
X109000000Y-94250000D03*
X107500000Y-94250000D03*
X107500000Y-92500000D03*
X109000000Y-92500000D03*
X110500000Y-92500000D03*
X110500000Y-91000000D03*
X109000000Y-91000000D03*
X107500000Y-91000000D03*
X97613046Y-89571374D03*
X125380000Y-94250000D03*
X123880000Y-94250000D03*
X122380000Y-94250000D03*
X122380000Y-92500000D03*
X123880000Y-92500000D03*
X125380000Y-92500000D03*
X125380000Y-91000000D03*
X123880000Y-91000000D03*
X122380000Y-91000000D03*
X140130000Y-94250000D03*
X138630000Y-94250000D03*
X137130000Y-94250000D03*
X137130000Y-92500000D03*
X138630000Y-92500000D03*
X140130000Y-92500000D03*
X140130000Y-91000000D03*
X138630000Y-91000000D03*
X137130000Y-91000000D03*
X139000000Y-60900000D03*
X151750000Y-60750000D03*
X149000000Y-113000000D03*
X157370200Y-94253400D03*
X155870200Y-94253400D03*
X154370200Y-94253400D03*
X154370200Y-92503400D03*
X155870200Y-92503400D03*
X157370200Y-92503400D03*
X157370200Y-91003400D03*
X155870200Y-91003400D03*
X154370200Y-91003400D03*
X172250200Y-94253400D03*
X170750200Y-94253400D03*
X169250200Y-94253400D03*
X169250200Y-92503400D03*
X170750200Y-92503400D03*
X172250200Y-92503400D03*
X172250200Y-91003400D03*
X170750200Y-91003400D03*
X169250200Y-91003400D03*
X187000200Y-94253400D03*
X185500200Y-94253400D03*
X184000200Y-94253400D03*
X184000200Y-92503400D03*
X185500200Y-92503400D03*
X187000200Y-92503400D03*
X187000200Y-91003400D03*
X185500200Y-91003400D03*
X184000200Y-91003400D03*
X169900000Y-64500000D03*
X152200000Y-64500000D03*
X167400000Y-64525010D03*
X155069898Y-64850012D03*
X155250000Y-57000000D03*
X154470200Y-71453404D03*
X156370200Y-67153400D03*
X169350200Y-71453404D03*
X171250200Y-67153400D03*
X184100200Y-71453404D03*
X186000200Y-67153400D03*
X155200000Y-63400000D03*
X156400000Y-58900000D03*
X179500000Y-50700000D03*
X174300000Y-50424957D03*
X165003259Y-61402448D03*
X168700000Y-61800000D03*
X148300000Y-57300000D03*
X157800000Y-61800000D03*
M02*
