%TF.GenerationSoftware,KiCad,Pcbnew,5.1.5+dfsg1-2build2*%
%TF.CreationDate,2021-12-29T18:24:04+01:00*%
%TF.ProjectId,motorDriver,6d6f746f-7244-4726-9976-65722e6b6963,rev?*%
%TF.SameCoordinates,Original*%
%TF.FileFunction,Paste,Bot*%
%TF.FilePolarity,Positive*%
%FSLAX46Y46*%
G04 Gerber Fmt 4.6, Leading zero omitted, Abs format (unit mm)*
G04 Created by KiCad (PCBNEW 5.1.5+dfsg1-2build2) date 2021-12-29 18:24:04*
%MOMM*%
%LPD*%
G04 APERTURE LIST*
%ADD10C,0.100000*%
G04 APERTURE END LIST*
D10*
%TO.C,C32*%
G36*
X116024504Y-88051204D02*
G01*
X116048773Y-88054804D01*
X116072571Y-88060765D01*
X116095671Y-88069030D01*
X116117849Y-88079520D01*
X116138893Y-88092133D01*
X116158598Y-88106747D01*
X116176777Y-88123223D01*
X116193253Y-88141402D01*
X116207867Y-88161107D01*
X116220480Y-88182151D01*
X116230970Y-88204329D01*
X116239235Y-88227429D01*
X116245196Y-88251227D01*
X116248796Y-88275496D01*
X116250000Y-88300000D01*
X116250000Y-92200000D01*
X116248796Y-92224504D01*
X116245196Y-92248773D01*
X116239235Y-92272571D01*
X116230970Y-92295671D01*
X116220480Y-92317849D01*
X116207867Y-92338893D01*
X116193253Y-92358598D01*
X116176777Y-92376777D01*
X116158598Y-92393253D01*
X116138893Y-92407867D01*
X116117849Y-92420480D01*
X116095671Y-92430970D01*
X116072571Y-92439235D01*
X116048773Y-92445196D01*
X116024504Y-92448796D01*
X116000000Y-92450000D01*
X114000000Y-92450000D01*
X113975496Y-92448796D01*
X113951227Y-92445196D01*
X113927429Y-92439235D01*
X113904329Y-92430970D01*
X113882151Y-92420480D01*
X113861107Y-92407867D01*
X113841402Y-92393253D01*
X113823223Y-92376777D01*
X113806747Y-92358598D01*
X113792133Y-92338893D01*
X113779520Y-92317849D01*
X113769030Y-92295671D01*
X113760765Y-92272571D01*
X113754804Y-92248773D01*
X113751204Y-92224504D01*
X113750000Y-92200000D01*
X113750000Y-88300000D01*
X113751204Y-88275496D01*
X113754804Y-88251227D01*
X113760765Y-88227429D01*
X113769030Y-88204329D01*
X113779520Y-88182151D01*
X113792133Y-88161107D01*
X113806747Y-88141402D01*
X113823223Y-88123223D01*
X113841402Y-88106747D01*
X113861107Y-88092133D01*
X113882151Y-88079520D01*
X113904329Y-88069030D01*
X113927429Y-88060765D01*
X113951227Y-88054804D01*
X113975496Y-88051204D01*
X114000000Y-88050000D01*
X116000000Y-88050000D01*
X116024504Y-88051204D01*
G37*
G36*
X116024504Y-96451204D02*
G01*
X116048773Y-96454804D01*
X116072571Y-96460765D01*
X116095671Y-96469030D01*
X116117849Y-96479520D01*
X116138893Y-96492133D01*
X116158598Y-96506747D01*
X116176777Y-96523223D01*
X116193253Y-96541402D01*
X116207867Y-96561107D01*
X116220480Y-96582151D01*
X116230970Y-96604329D01*
X116239235Y-96627429D01*
X116245196Y-96651227D01*
X116248796Y-96675496D01*
X116250000Y-96700000D01*
X116250000Y-100600000D01*
X116248796Y-100624504D01*
X116245196Y-100648773D01*
X116239235Y-100672571D01*
X116230970Y-100695671D01*
X116220480Y-100717849D01*
X116207867Y-100738893D01*
X116193253Y-100758598D01*
X116176777Y-100776777D01*
X116158598Y-100793253D01*
X116138893Y-100807867D01*
X116117849Y-100820480D01*
X116095671Y-100830970D01*
X116072571Y-100839235D01*
X116048773Y-100845196D01*
X116024504Y-100848796D01*
X116000000Y-100850000D01*
X114000000Y-100850000D01*
X113975496Y-100848796D01*
X113951227Y-100845196D01*
X113927429Y-100839235D01*
X113904329Y-100830970D01*
X113882151Y-100820480D01*
X113861107Y-100807867D01*
X113841402Y-100793253D01*
X113823223Y-100776777D01*
X113806747Y-100758598D01*
X113792133Y-100738893D01*
X113779520Y-100717849D01*
X113769030Y-100695671D01*
X113760765Y-100672571D01*
X113754804Y-100648773D01*
X113751204Y-100624504D01*
X113750000Y-100600000D01*
X113750000Y-96700000D01*
X113751204Y-96675496D01*
X113754804Y-96651227D01*
X113760765Y-96627429D01*
X113769030Y-96604329D01*
X113779520Y-96582151D01*
X113792133Y-96561107D01*
X113806747Y-96541402D01*
X113823223Y-96523223D01*
X113841402Y-96506747D01*
X113861107Y-96492133D01*
X113882151Y-96479520D01*
X113904329Y-96469030D01*
X113927429Y-96460765D01*
X113951227Y-96454804D01*
X113975496Y-96451204D01*
X114000000Y-96450000D01*
X116000000Y-96450000D01*
X116024504Y-96451204D01*
G37*
%TD*%
%TO.C,L1*%
G36*
X151510779Y-48601144D02*
G01*
X151533834Y-48604563D01*
X151556443Y-48610227D01*
X151578387Y-48618079D01*
X151599457Y-48628044D01*
X151619448Y-48640026D01*
X151638168Y-48653910D01*
X151655438Y-48669562D01*
X151671090Y-48686832D01*
X151684974Y-48705552D01*
X151696956Y-48725543D01*
X151706921Y-48746613D01*
X151714773Y-48768557D01*
X151720437Y-48791166D01*
X151723856Y-48814221D01*
X151725000Y-48837500D01*
X151725000Y-49412500D01*
X151723856Y-49435779D01*
X151720437Y-49458834D01*
X151714773Y-49481443D01*
X151706921Y-49503387D01*
X151696956Y-49524457D01*
X151684974Y-49544448D01*
X151671090Y-49563168D01*
X151655438Y-49580438D01*
X151638168Y-49596090D01*
X151619448Y-49609974D01*
X151599457Y-49621956D01*
X151578387Y-49631921D01*
X151556443Y-49639773D01*
X151533834Y-49645437D01*
X151510779Y-49648856D01*
X151487500Y-49650000D01*
X151012500Y-49650000D01*
X150989221Y-49648856D01*
X150966166Y-49645437D01*
X150943557Y-49639773D01*
X150921613Y-49631921D01*
X150900543Y-49621956D01*
X150880552Y-49609974D01*
X150861832Y-49596090D01*
X150844562Y-49580438D01*
X150828910Y-49563168D01*
X150815026Y-49544448D01*
X150803044Y-49524457D01*
X150793079Y-49503387D01*
X150785227Y-49481443D01*
X150779563Y-49458834D01*
X150776144Y-49435779D01*
X150775000Y-49412500D01*
X150775000Y-48837500D01*
X150776144Y-48814221D01*
X150779563Y-48791166D01*
X150785227Y-48768557D01*
X150793079Y-48746613D01*
X150803044Y-48725543D01*
X150815026Y-48705552D01*
X150828910Y-48686832D01*
X150844562Y-48669562D01*
X150861832Y-48653910D01*
X150880552Y-48640026D01*
X150900543Y-48628044D01*
X150921613Y-48618079D01*
X150943557Y-48610227D01*
X150966166Y-48604563D01*
X150989221Y-48601144D01*
X151012500Y-48600000D01*
X151487500Y-48600000D01*
X151510779Y-48601144D01*
G37*
G36*
X151510779Y-50351144D02*
G01*
X151533834Y-50354563D01*
X151556443Y-50360227D01*
X151578387Y-50368079D01*
X151599457Y-50378044D01*
X151619448Y-50390026D01*
X151638168Y-50403910D01*
X151655438Y-50419562D01*
X151671090Y-50436832D01*
X151684974Y-50455552D01*
X151696956Y-50475543D01*
X151706921Y-50496613D01*
X151714773Y-50518557D01*
X151720437Y-50541166D01*
X151723856Y-50564221D01*
X151725000Y-50587500D01*
X151725000Y-51162500D01*
X151723856Y-51185779D01*
X151720437Y-51208834D01*
X151714773Y-51231443D01*
X151706921Y-51253387D01*
X151696956Y-51274457D01*
X151684974Y-51294448D01*
X151671090Y-51313168D01*
X151655438Y-51330438D01*
X151638168Y-51346090D01*
X151619448Y-51359974D01*
X151599457Y-51371956D01*
X151578387Y-51381921D01*
X151556443Y-51389773D01*
X151533834Y-51395437D01*
X151510779Y-51398856D01*
X151487500Y-51400000D01*
X151012500Y-51400000D01*
X150989221Y-51398856D01*
X150966166Y-51395437D01*
X150943557Y-51389773D01*
X150921613Y-51381921D01*
X150900543Y-51371956D01*
X150880552Y-51359974D01*
X150861832Y-51346090D01*
X150844562Y-51330438D01*
X150828910Y-51313168D01*
X150815026Y-51294448D01*
X150803044Y-51274457D01*
X150793079Y-51253387D01*
X150785227Y-51231443D01*
X150779563Y-51208834D01*
X150776144Y-51185779D01*
X150775000Y-51162500D01*
X150775000Y-50587500D01*
X150776144Y-50564221D01*
X150779563Y-50541166D01*
X150785227Y-50518557D01*
X150793079Y-50496613D01*
X150803044Y-50475543D01*
X150815026Y-50455552D01*
X150828910Y-50436832D01*
X150844562Y-50419562D01*
X150861832Y-50403910D01*
X150880552Y-50390026D01*
X150900543Y-50378044D01*
X150921613Y-50368079D01*
X150943557Y-50360227D01*
X150966166Y-50354563D01*
X150989221Y-50351144D01*
X151012500Y-50350000D01*
X151487500Y-50350000D01*
X151510779Y-50351144D01*
G37*
%TD*%
%TO.C,C38*%
G36*
X151074505Y-51926204D02*
G01*
X151098773Y-51929804D01*
X151122572Y-51935765D01*
X151145671Y-51944030D01*
X151167850Y-51954520D01*
X151188893Y-51967132D01*
X151208599Y-51981747D01*
X151226777Y-51998223D01*
X151243253Y-52016401D01*
X151257868Y-52036107D01*
X151270480Y-52057150D01*
X151280970Y-52079329D01*
X151289235Y-52102428D01*
X151295196Y-52126227D01*
X151298796Y-52150495D01*
X151300000Y-52174999D01*
X151300000Y-52825001D01*
X151298796Y-52849505D01*
X151295196Y-52873773D01*
X151289235Y-52897572D01*
X151280970Y-52920671D01*
X151270480Y-52942850D01*
X151257868Y-52963893D01*
X151243253Y-52983599D01*
X151226777Y-53001777D01*
X151208599Y-53018253D01*
X151188893Y-53032868D01*
X151167850Y-53045480D01*
X151145671Y-53055970D01*
X151122572Y-53064235D01*
X151098773Y-53070196D01*
X151074505Y-53073796D01*
X151050001Y-53075000D01*
X150149999Y-53075000D01*
X150125495Y-53073796D01*
X150101227Y-53070196D01*
X150077428Y-53064235D01*
X150054329Y-53055970D01*
X150032150Y-53045480D01*
X150011107Y-53032868D01*
X149991401Y-53018253D01*
X149973223Y-53001777D01*
X149956747Y-52983599D01*
X149942132Y-52963893D01*
X149929520Y-52942850D01*
X149919030Y-52920671D01*
X149910765Y-52897572D01*
X149904804Y-52873773D01*
X149901204Y-52849505D01*
X149900000Y-52825001D01*
X149900000Y-52174999D01*
X149901204Y-52150495D01*
X149904804Y-52126227D01*
X149910765Y-52102428D01*
X149919030Y-52079329D01*
X149929520Y-52057150D01*
X149942132Y-52036107D01*
X149956747Y-52016401D01*
X149973223Y-51998223D01*
X149991401Y-51981747D01*
X150011107Y-51967132D01*
X150032150Y-51954520D01*
X150054329Y-51944030D01*
X150077428Y-51935765D01*
X150101227Y-51929804D01*
X150125495Y-51926204D01*
X150149999Y-51925000D01*
X151050001Y-51925000D01*
X151074505Y-51926204D01*
G37*
G36*
X151074505Y-53976204D02*
G01*
X151098773Y-53979804D01*
X151122572Y-53985765D01*
X151145671Y-53994030D01*
X151167850Y-54004520D01*
X151188893Y-54017132D01*
X151208599Y-54031747D01*
X151226777Y-54048223D01*
X151243253Y-54066401D01*
X151257868Y-54086107D01*
X151270480Y-54107150D01*
X151280970Y-54129329D01*
X151289235Y-54152428D01*
X151295196Y-54176227D01*
X151298796Y-54200495D01*
X151300000Y-54224999D01*
X151300000Y-54875001D01*
X151298796Y-54899505D01*
X151295196Y-54923773D01*
X151289235Y-54947572D01*
X151280970Y-54970671D01*
X151270480Y-54992850D01*
X151257868Y-55013893D01*
X151243253Y-55033599D01*
X151226777Y-55051777D01*
X151208599Y-55068253D01*
X151188893Y-55082868D01*
X151167850Y-55095480D01*
X151145671Y-55105970D01*
X151122572Y-55114235D01*
X151098773Y-55120196D01*
X151074505Y-55123796D01*
X151050001Y-55125000D01*
X150149999Y-55125000D01*
X150125495Y-55123796D01*
X150101227Y-55120196D01*
X150077428Y-55114235D01*
X150054329Y-55105970D01*
X150032150Y-55095480D01*
X150011107Y-55082868D01*
X149991401Y-55068253D01*
X149973223Y-55051777D01*
X149956747Y-55033599D01*
X149942132Y-55013893D01*
X149929520Y-54992850D01*
X149919030Y-54970671D01*
X149910765Y-54947572D01*
X149904804Y-54923773D01*
X149901204Y-54899505D01*
X149900000Y-54875001D01*
X149900000Y-54224999D01*
X149901204Y-54200495D01*
X149904804Y-54176227D01*
X149910765Y-54152428D01*
X149919030Y-54129329D01*
X149929520Y-54107150D01*
X149942132Y-54086107D01*
X149956747Y-54066401D01*
X149973223Y-54048223D01*
X149991401Y-54031747D01*
X150011107Y-54017132D01*
X150032150Y-54004520D01*
X150054329Y-53994030D01*
X150077428Y-53985765D01*
X150101227Y-53979804D01*
X150125495Y-53976204D01*
X150149999Y-53975000D01*
X151050001Y-53975000D01*
X151074505Y-53976204D01*
G37*
%TD*%
%TO.C,C2*%
G36*
X149124505Y-55401204D02*
G01*
X149148773Y-55404804D01*
X149172572Y-55410765D01*
X149195671Y-55419030D01*
X149217850Y-55429520D01*
X149238893Y-55442132D01*
X149258599Y-55456747D01*
X149276777Y-55473223D01*
X149293253Y-55491401D01*
X149307868Y-55511107D01*
X149320480Y-55532150D01*
X149330970Y-55554329D01*
X149339235Y-55577428D01*
X149345196Y-55601227D01*
X149348796Y-55625495D01*
X149350000Y-55649999D01*
X149350000Y-56300001D01*
X149348796Y-56324505D01*
X149345196Y-56348773D01*
X149339235Y-56372572D01*
X149330970Y-56395671D01*
X149320480Y-56417850D01*
X149307868Y-56438893D01*
X149293253Y-56458599D01*
X149276777Y-56476777D01*
X149258599Y-56493253D01*
X149238893Y-56507868D01*
X149217850Y-56520480D01*
X149195671Y-56530970D01*
X149172572Y-56539235D01*
X149148773Y-56545196D01*
X149124505Y-56548796D01*
X149100001Y-56550000D01*
X148199999Y-56550000D01*
X148175495Y-56548796D01*
X148151227Y-56545196D01*
X148127428Y-56539235D01*
X148104329Y-56530970D01*
X148082150Y-56520480D01*
X148061107Y-56507868D01*
X148041401Y-56493253D01*
X148023223Y-56476777D01*
X148006747Y-56458599D01*
X147992132Y-56438893D01*
X147979520Y-56417850D01*
X147969030Y-56395671D01*
X147960765Y-56372572D01*
X147954804Y-56348773D01*
X147951204Y-56324505D01*
X147950000Y-56300001D01*
X147950000Y-55649999D01*
X147951204Y-55625495D01*
X147954804Y-55601227D01*
X147960765Y-55577428D01*
X147969030Y-55554329D01*
X147979520Y-55532150D01*
X147992132Y-55511107D01*
X148006747Y-55491401D01*
X148023223Y-55473223D01*
X148041401Y-55456747D01*
X148061107Y-55442132D01*
X148082150Y-55429520D01*
X148104329Y-55419030D01*
X148127428Y-55410765D01*
X148151227Y-55404804D01*
X148175495Y-55401204D01*
X148199999Y-55400000D01*
X149100001Y-55400000D01*
X149124505Y-55401204D01*
G37*
G36*
X149124505Y-53351204D02*
G01*
X149148773Y-53354804D01*
X149172572Y-53360765D01*
X149195671Y-53369030D01*
X149217850Y-53379520D01*
X149238893Y-53392132D01*
X149258599Y-53406747D01*
X149276777Y-53423223D01*
X149293253Y-53441401D01*
X149307868Y-53461107D01*
X149320480Y-53482150D01*
X149330970Y-53504329D01*
X149339235Y-53527428D01*
X149345196Y-53551227D01*
X149348796Y-53575495D01*
X149350000Y-53599999D01*
X149350000Y-54250001D01*
X149348796Y-54274505D01*
X149345196Y-54298773D01*
X149339235Y-54322572D01*
X149330970Y-54345671D01*
X149320480Y-54367850D01*
X149307868Y-54388893D01*
X149293253Y-54408599D01*
X149276777Y-54426777D01*
X149258599Y-54443253D01*
X149238893Y-54457868D01*
X149217850Y-54470480D01*
X149195671Y-54480970D01*
X149172572Y-54489235D01*
X149148773Y-54495196D01*
X149124505Y-54498796D01*
X149100001Y-54500000D01*
X148199999Y-54500000D01*
X148175495Y-54498796D01*
X148151227Y-54495196D01*
X148127428Y-54489235D01*
X148104329Y-54480970D01*
X148082150Y-54470480D01*
X148061107Y-54457868D01*
X148041401Y-54443253D01*
X148023223Y-54426777D01*
X148006747Y-54408599D01*
X147992132Y-54388893D01*
X147979520Y-54367850D01*
X147969030Y-54345671D01*
X147960765Y-54322572D01*
X147954804Y-54298773D01*
X147951204Y-54274505D01*
X147950000Y-54250001D01*
X147950000Y-53599999D01*
X147951204Y-53575495D01*
X147954804Y-53551227D01*
X147960765Y-53527428D01*
X147969030Y-53504329D01*
X147979520Y-53482150D01*
X147992132Y-53461107D01*
X148006747Y-53441401D01*
X148023223Y-53423223D01*
X148041401Y-53406747D01*
X148061107Y-53392132D01*
X148082150Y-53379520D01*
X148104329Y-53369030D01*
X148127428Y-53360765D01*
X148151227Y-53354804D01*
X148175495Y-53351204D01*
X148199999Y-53350000D01*
X149100001Y-53350000D01*
X149124505Y-53351204D01*
G37*
%TD*%
%TO.C,R3*%
G36*
X158274504Y-47526204D02*
G01*
X158298773Y-47529804D01*
X158322571Y-47535765D01*
X158345671Y-47544030D01*
X158367849Y-47554520D01*
X158388893Y-47567133D01*
X158408598Y-47581747D01*
X158426777Y-47598223D01*
X158443253Y-47616402D01*
X158457867Y-47636107D01*
X158470480Y-47657151D01*
X158480970Y-47679329D01*
X158489235Y-47702429D01*
X158495196Y-47726227D01*
X158498796Y-47750496D01*
X158500000Y-47775000D01*
X158500000Y-49025000D01*
X158498796Y-49049504D01*
X158495196Y-49073773D01*
X158489235Y-49097571D01*
X158480970Y-49120671D01*
X158470480Y-49142849D01*
X158457867Y-49163893D01*
X158443253Y-49183598D01*
X158426777Y-49201777D01*
X158408598Y-49218253D01*
X158388893Y-49232867D01*
X158367849Y-49245480D01*
X158345671Y-49255970D01*
X158322571Y-49264235D01*
X158298773Y-49270196D01*
X158274504Y-49273796D01*
X158250000Y-49275000D01*
X157325000Y-49275000D01*
X157300496Y-49273796D01*
X157276227Y-49270196D01*
X157252429Y-49264235D01*
X157229329Y-49255970D01*
X157207151Y-49245480D01*
X157186107Y-49232867D01*
X157166402Y-49218253D01*
X157148223Y-49201777D01*
X157131747Y-49183598D01*
X157117133Y-49163893D01*
X157104520Y-49142849D01*
X157094030Y-49120671D01*
X157085765Y-49097571D01*
X157079804Y-49073773D01*
X157076204Y-49049504D01*
X157075000Y-49025000D01*
X157075000Y-47775000D01*
X157076204Y-47750496D01*
X157079804Y-47726227D01*
X157085765Y-47702429D01*
X157094030Y-47679329D01*
X157104520Y-47657151D01*
X157117133Y-47636107D01*
X157131747Y-47616402D01*
X157148223Y-47598223D01*
X157166402Y-47581747D01*
X157186107Y-47567133D01*
X157207151Y-47554520D01*
X157229329Y-47544030D01*
X157252429Y-47535765D01*
X157276227Y-47529804D01*
X157300496Y-47526204D01*
X157325000Y-47525000D01*
X158250000Y-47525000D01*
X158274504Y-47526204D01*
G37*
G36*
X155299504Y-47526204D02*
G01*
X155323773Y-47529804D01*
X155347571Y-47535765D01*
X155370671Y-47544030D01*
X155392849Y-47554520D01*
X155413893Y-47567133D01*
X155433598Y-47581747D01*
X155451777Y-47598223D01*
X155468253Y-47616402D01*
X155482867Y-47636107D01*
X155495480Y-47657151D01*
X155505970Y-47679329D01*
X155514235Y-47702429D01*
X155520196Y-47726227D01*
X155523796Y-47750496D01*
X155525000Y-47775000D01*
X155525000Y-49025000D01*
X155523796Y-49049504D01*
X155520196Y-49073773D01*
X155514235Y-49097571D01*
X155505970Y-49120671D01*
X155495480Y-49142849D01*
X155482867Y-49163893D01*
X155468253Y-49183598D01*
X155451777Y-49201777D01*
X155433598Y-49218253D01*
X155413893Y-49232867D01*
X155392849Y-49245480D01*
X155370671Y-49255970D01*
X155347571Y-49264235D01*
X155323773Y-49270196D01*
X155299504Y-49273796D01*
X155275000Y-49275000D01*
X154350000Y-49275000D01*
X154325496Y-49273796D01*
X154301227Y-49270196D01*
X154277429Y-49264235D01*
X154254329Y-49255970D01*
X154232151Y-49245480D01*
X154211107Y-49232867D01*
X154191402Y-49218253D01*
X154173223Y-49201777D01*
X154156747Y-49183598D01*
X154142133Y-49163893D01*
X154129520Y-49142849D01*
X154119030Y-49120671D01*
X154110765Y-49097571D01*
X154104804Y-49073773D01*
X154101204Y-49049504D01*
X154100000Y-49025000D01*
X154100000Y-47775000D01*
X154101204Y-47750496D01*
X154104804Y-47726227D01*
X154110765Y-47702429D01*
X154119030Y-47679329D01*
X154129520Y-47657151D01*
X154142133Y-47636107D01*
X154156747Y-47616402D01*
X154173223Y-47598223D01*
X154191402Y-47581747D01*
X154211107Y-47567133D01*
X154232151Y-47554520D01*
X154254329Y-47544030D01*
X154277429Y-47535765D01*
X154301227Y-47529804D01*
X154325496Y-47526204D01*
X154350000Y-47525000D01*
X155275000Y-47525000D01*
X155299504Y-47526204D01*
G37*
%TD*%
%TO.C,R6*%
G36*
X161349504Y-54701204D02*
G01*
X161373773Y-54704804D01*
X161397571Y-54710765D01*
X161420671Y-54719030D01*
X161442849Y-54729520D01*
X161463893Y-54742133D01*
X161483598Y-54756747D01*
X161501777Y-54773223D01*
X161518253Y-54791402D01*
X161532867Y-54811107D01*
X161545480Y-54832151D01*
X161555970Y-54854329D01*
X161564235Y-54877429D01*
X161570196Y-54901227D01*
X161573796Y-54925496D01*
X161575000Y-54950000D01*
X161575000Y-55875000D01*
X161573796Y-55899504D01*
X161570196Y-55923773D01*
X161564235Y-55947571D01*
X161555970Y-55970671D01*
X161545480Y-55992849D01*
X161532867Y-56013893D01*
X161518253Y-56033598D01*
X161501777Y-56051777D01*
X161483598Y-56068253D01*
X161463893Y-56082867D01*
X161442849Y-56095480D01*
X161420671Y-56105970D01*
X161397571Y-56114235D01*
X161373773Y-56120196D01*
X161349504Y-56123796D01*
X161325000Y-56125000D01*
X160075000Y-56125000D01*
X160050496Y-56123796D01*
X160026227Y-56120196D01*
X160002429Y-56114235D01*
X159979329Y-56105970D01*
X159957151Y-56095480D01*
X159936107Y-56082867D01*
X159916402Y-56068253D01*
X159898223Y-56051777D01*
X159881747Y-56033598D01*
X159867133Y-56013893D01*
X159854520Y-55992849D01*
X159844030Y-55970671D01*
X159835765Y-55947571D01*
X159829804Y-55923773D01*
X159826204Y-55899504D01*
X159825000Y-55875000D01*
X159825000Y-54950000D01*
X159826204Y-54925496D01*
X159829804Y-54901227D01*
X159835765Y-54877429D01*
X159844030Y-54854329D01*
X159854520Y-54832151D01*
X159867133Y-54811107D01*
X159881747Y-54791402D01*
X159898223Y-54773223D01*
X159916402Y-54756747D01*
X159936107Y-54742133D01*
X159957151Y-54729520D01*
X159979329Y-54719030D01*
X160002429Y-54710765D01*
X160026227Y-54704804D01*
X160050496Y-54701204D01*
X160075000Y-54700000D01*
X161325000Y-54700000D01*
X161349504Y-54701204D01*
G37*
G36*
X161349504Y-57676204D02*
G01*
X161373773Y-57679804D01*
X161397571Y-57685765D01*
X161420671Y-57694030D01*
X161442849Y-57704520D01*
X161463893Y-57717133D01*
X161483598Y-57731747D01*
X161501777Y-57748223D01*
X161518253Y-57766402D01*
X161532867Y-57786107D01*
X161545480Y-57807151D01*
X161555970Y-57829329D01*
X161564235Y-57852429D01*
X161570196Y-57876227D01*
X161573796Y-57900496D01*
X161575000Y-57925000D01*
X161575000Y-58850000D01*
X161573796Y-58874504D01*
X161570196Y-58898773D01*
X161564235Y-58922571D01*
X161555970Y-58945671D01*
X161545480Y-58967849D01*
X161532867Y-58988893D01*
X161518253Y-59008598D01*
X161501777Y-59026777D01*
X161483598Y-59043253D01*
X161463893Y-59057867D01*
X161442849Y-59070480D01*
X161420671Y-59080970D01*
X161397571Y-59089235D01*
X161373773Y-59095196D01*
X161349504Y-59098796D01*
X161325000Y-59100000D01*
X160075000Y-59100000D01*
X160050496Y-59098796D01*
X160026227Y-59095196D01*
X160002429Y-59089235D01*
X159979329Y-59080970D01*
X159957151Y-59070480D01*
X159936107Y-59057867D01*
X159916402Y-59043253D01*
X159898223Y-59026777D01*
X159881747Y-59008598D01*
X159867133Y-58988893D01*
X159854520Y-58967849D01*
X159844030Y-58945671D01*
X159835765Y-58922571D01*
X159829804Y-58898773D01*
X159826204Y-58874504D01*
X159825000Y-58850000D01*
X159825000Y-57925000D01*
X159826204Y-57900496D01*
X159829804Y-57876227D01*
X159835765Y-57852429D01*
X159844030Y-57829329D01*
X159854520Y-57807151D01*
X159867133Y-57786107D01*
X159881747Y-57766402D01*
X159898223Y-57748223D01*
X159916402Y-57731747D01*
X159936107Y-57717133D01*
X159957151Y-57704520D01*
X159979329Y-57694030D01*
X160002429Y-57685765D01*
X160026227Y-57679804D01*
X160050496Y-57676204D01*
X160075000Y-57675000D01*
X161325000Y-57675000D01*
X161349504Y-57676204D01*
G37*
%TD*%
%TO.C,R13*%
G36*
X100649505Y-93426204D02*
G01*
X100673773Y-93429804D01*
X100697572Y-93435765D01*
X100720671Y-93444030D01*
X100742850Y-93454520D01*
X100763893Y-93467132D01*
X100783599Y-93481747D01*
X100801777Y-93498223D01*
X100818253Y-93516401D01*
X100832868Y-93536107D01*
X100845480Y-93557150D01*
X100855970Y-93579329D01*
X100864235Y-93602428D01*
X100870196Y-93626227D01*
X100873796Y-93650495D01*
X100875000Y-93674999D01*
X100875000Y-96525001D01*
X100873796Y-96549505D01*
X100870196Y-96573773D01*
X100864235Y-96597572D01*
X100855970Y-96620671D01*
X100845480Y-96642850D01*
X100832868Y-96663893D01*
X100818253Y-96683599D01*
X100801777Y-96701777D01*
X100783599Y-96718253D01*
X100763893Y-96732868D01*
X100742850Y-96745480D01*
X100720671Y-96755970D01*
X100697572Y-96764235D01*
X100673773Y-96770196D01*
X100649505Y-96773796D01*
X100625001Y-96775000D01*
X99599999Y-96775000D01*
X99575495Y-96773796D01*
X99551227Y-96770196D01*
X99527428Y-96764235D01*
X99504329Y-96755970D01*
X99482150Y-96745480D01*
X99461107Y-96732868D01*
X99441401Y-96718253D01*
X99423223Y-96701777D01*
X99406747Y-96683599D01*
X99392132Y-96663893D01*
X99379520Y-96642850D01*
X99369030Y-96620671D01*
X99360765Y-96597572D01*
X99354804Y-96573773D01*
X99351204Y-96549505D01*
X99350000Y-96525001D01*
X99350000Y-93674999D01*
X99351204Y-93650495D01*
X99354804Y-93626227D01*
X99360765Y-93602428D01*
X99369030Y-93579329D01*
X99379520Y-93557150D01*
X99392132Y-93536107D01*
X99406747Y-93516401D01*
X99423223Y-93498223D01*
X99441401Y-93481747D01*
X99461107Y-93467132D01*
X99482150Y-93454520D01*
X99504329Y-93444030D01*
X99527428Y-93435765D01*
X99551227Y-93429804D01*
X99575495Y-93426204D01*
X99599999Y-93425000D01*
X100625001Y-93425000D01*
X100649505Y-93426204D01*
G37*
G36*
X106624505Y-93426204D02*
G01*
X106648773Y-93429804D01*
X106672572Y-93435765D01*
X106695671Y-93444030D01*
X106717850Y-93454520D01*
X106738893Y-93467132D01*
X106758599Y-93481747D01*
X106776777Y-93498223D01*
X106793253Y-93516401D01*
X106807868Y-93536107D01*
X106820480Y-93557150D01*
X106830970Y-93579329D01*
X106839235Y-93602428D01*
X106845196Y-93626227D01*
X106848796Y-93650495D01*
X106850000Y-93674999D01*
X106850000Y-96525001D01*
X106848796Y-96549505D01*
X106845196Y-96573773D01*
X106839235Y-96597572D01*
X106830970Y-96620671D01*
X106820480Y-96642850D01*
X106807868Y-96663893D01*
X106793253Y-96683599D01*
X106776777Y-96701777D01*
X106758599Y-96718253D01*
X106738893Y-96732868D01*
X106717850Y-96745480D01*
X106695671Y-96755970D01*
X106672572Y-96764235D01*
X106648773Y-96770196D01*
X106624505Y-96773796D01*
X106600001Y-96775000D01*
X105574999Y-96775000D01*
X105550495Y-96773796D01*
X105526227Y-96770196D01*
X105502428Y-96764235D01*
X105479329Y-96755970D01*
X105457150Y-96745480D01*
X105436107Y-96732868D01*
X105416401Y-96718253D01*
X105398223Y-96701777D01*
X105381747Y-96683599D01*
X105367132Y-96663893D01*
X105354520Y-96642850D01*
X105344030Y-96620671D01*
X105335765Y-96597572D01*
X105329804Y-96573773D01*
X105326204Y-96549505D01*
X105325000Y-96525001D01*
X105325000Y-93674999D01*
X105326204Y-93650495D01*
X105329804Y-93626227D01*
X105335765Y-93602428D01*
X105344030Y-93579329D01*
X105354520Y-93557150D01*
X105367132Y-93536107D01*
X105381747Y-93516401D01*
X105398223Y-93498223D01*
X105416401Y-93481747D01*
X105436107Y-93467132D01*
X105457150Y-93454520D01*
X105479329Y-93444030D01*
X105502428Y-93435765D01*
X105526227Y-93429804D01*
X105550495Y-93426204D01*
X105574999Y-93425000D01*
X106600001Y-93425000D01*
X106624505Y-93426204D01*
G37*
%TD*%
%TO.C,R19*%
G36*
X100649505Y-89526204D02*
G01*
X100673773Y-89529804D01*
X100697572Y-89535765D01*
X100720671Y-89544030D01*
X100742850Y-89554520D01*
X100763893Y-89567132D01*
X100783599Y-89581747D01*
X100801777Y-89598223D01*
X100818253Y-89616401D01*
X100832868Y-89636107D01*
X100845480Y-89657150D01*
X100855970Y-89679329D01*
X100864235Y-89702428D01*
X100870196Y-89726227D01*
X100873796Y-89750495D01*
X100875000Y-89774999D01*
X100875000Y-92625001D01*
X100873796Y-92649505D01*
X100870196Y-92673773D01*
X100864235Y-92697572D01*
X100855970Y-92720671D01*
X100845480Y-92742850D01*
X100832868Y-92763893D01*
X100818253Y-92783599D01*
X100801777Y-92801777D01*
X100783599Y-92818253D01*
X100763893Y-92832868D01*
X100742850Y-92845480D01*
X100720671Y-92855970D01*
X100697572Y-92864235D01*
X100673773Y-92870196D01*
X100649505Y-92873796D01*
X100625001Y-92875000D01*
X99599999Y-92875000D01*
X99575495Y-92873796D01*
X99551227Y-92870196D01*
X99527428Y-92864235D01*
X99504329Y-92855970D01*
X99482150Y-92845480D01*
X99461107Y-92832868D01*
X99441401Y-92818253D01*
X99423223Y-92801777D01*
X99406747Y-92783599D01*
X99392132Y-92763893D01*
X99379520Y-92742850D01*
X99369030Y-92720671D01*
X99360765Y-92697572D01*
X99354804Y-92673773D01*
X99351204Y-92649505D01*
X99350000Y-92625001D01*
X99350000Y-89774999D01*
X99351204Y-89750495D01*
X99354804Y-89726227D01*
X99360765Y-89702428D01*
X99369030Y-89679329D01*
X99379520Y-89657150D01*
X99392132Y-89636107D01*
X99406747Y-89616401D01*
X99423223Y-89598223D01*
X99441401Y-89581747D01*
X99461107Y-89567132D01*
X99482150Y-89554520D01*
X99504329Y-89544030D01*
X99527428Y-89535765D01*
X99551227Y-89529804D01*
X99575495Y-89526204D01*
X99599999Y-89525000D01*
X100625001Y-89525000D01*
X100649505Y-89526204D01*
G37*
G36*
X106624505Y-89526204D02*
G01*
X106648773Y-89529804D01*
X106672572Y-89535765D01*
X106695671Y-89544030D01*
X106717850Y-89554520D01*
X106738893Y-89567132D01*
X106758599Y-89581747D01*
X106776777Y-89598223D01*
X106793253Y-89616401D01*
X106807868Y-89636107D01*
X106820480Y-89657150D01*
X106830970Y-89679329D01*
X106839235Y-89702428D01*
X106845196Y-89726227D01*
X106848796Y-89750495D01*
X106850000Y-89774999D01*
X106850000Y-92625001D01*
X106848796Y-92649505D01*
X106845196Y-92673773D01*
X106839235Y-92697572D01*
X106830970Y-92720671D01*
X106820480Y-92742850D01*
X106807868Y-92763893D01*
X106793253Y-92783599D01*
X106776777Y-92801777D01*
X106758599Y-92818253D01*
X106738893Y-92832868D01*
X106717850Y-92845480D01*
X106695671Y-92855970D01*
X106672572Y-92864235D01*
X106648773Y-92870196D01*
X106624505Y-92873796D01*
X106600001Y-92875000D01*
X105574999Y-92875000D01*
X105550495Y-92873796D01*
X105526227Y-92870196D01*
X105502428Y-92864235D01*
X105479329Y-92855970D01*
X105457150Y-92845480D01*
X105436107Y-92832868D01*
X105416401Y-92818253D01*
X105398223Y-92801777D01*
X105381747Y-92783599D01*
X105367132Y-92763893D01*
X105354520Y-92742850D01*
X105344030Y-92720671D01*
X105335765Y-92697572D01*
X105329804Y-92673773D01*
X105326204Y-92649505D01*
X105325000Y-92625001D01*
X105325000Y-89774999D01*
X105326204Y-89750495D01*
X105329804Y-89726227D01*
X105335765Y-89702428D01*
X105344030Y-89679329D01*
X105354520Y-89657150D01*
X105367132Y-89636107D01*
X105381747Y-89616401D01*
X105398223Y-89598223D01*
X105416401Y-89581747D01*
X105436107Y-89567132D01*
X105457150Y-89554520D01*
X105479329Y-89544030D01*
X105502428Y-89535765D01*
X105526227Y-89529804D01*
X105550495Y-89526204D01*
X105574999Y-89525000D01*
X106600001Y-89525000D01*
X106624505Y-89526204D01*
G37*
%TD*%
%TO.C,R25*%
G36*
X100637005Y-97326204D02*
G01*
X100661273Y-97329804D01*
X100685072Y-97335765D01*
X100708171Y-97344030D01*
X100730350Y-97354520D01*
X100751393Y-97367132D01*
X100771099Y-97381747D01*
X100789277Y-97398223D01*
X100805753Y-97416401D01*
X100820368Y-97436107D01*
X100832980Y-97457150D01*
X100843470Y-97479329D01*
X100851735Y-97502428D01*
X100857696Y-97526227D01*
X100861296Y-97550495D01*
X100862500Y-97574999D01*
X100862500Y-100425001D01*
X100861296Y-100449505D01*
X100857696Y-100473773D01*
X100851735Y-100497572D01*
X100843470Y-100520671D01*
X100832980Y-100542850D01*
X100820368Y-100563893D01*
X100805753Y-100583599D01*
X100789277Y-100601777D01*
X100771099Y-100618253D01*
X100751393Y-100632868D01*
X100730350Y-100645480D01*
X100708171Y-100655970D01*
X100685072Y-100664235D01*
X100661273Y-100670196D01*
X100637005Y-100673796D01*
X100612501Y-100675000D01*
X99587499Y-100675000D01*
X99562995Y-100673796D01*
X99538727Y-100670196D01*
X99514928Y-100664235D01*
X99491829Y-100655970D01*
X99469650Y-100645480D01*
X99448607Y-100632868D01*
X99428901Y-100618253D01*
X99410723Y-100601777D01*
X99394247Y-100583599D01*
X99379632Y-100563893D01*
X99367020Y-100542850D01*
X99356530Y-100520671D01*
X99348265Y-100497572D01*
X99342304Y-100473773D01*
X99338704Y-100449505D01*
X99337500Y-100425001D01*
X99337500Y-97574999D01*
X99338704Y-97550495D01*
X99342304Y-97526227D01*
X99348265Y-97502428D01*
X99356530Y-97479329D01*
X99367020Y-97457150D01*
X99379632Y-97436107D01*
X99394247Y-97416401D01*
X99410723Y-97398223D01*
X99428901Y-97381747D01*
X99448607Y-97367132D01*
X99469650Y-97354520D01*
X99491829Y-97344030D01*
X99514928Y-97335765D01*
X99538727Y-97329804D01*
X99562995Y-97326204D01*
X99587499Y-97325000D01*
X100612501Y-97325000D01*
X100637005Y-97326204D01*
G37*
G36*
X106612005Y-97326204D02*
G01*
X106636273Y-97329804D01*
X106660072Y-97335765D01*
X106683171Y-97344030D01*
X106705350Y-97354520D01*
X106726393Y-97367132D01*
X106746099Y-97381747D01*
X106764277Y-97398223D01*
X106780753Y-97416401D01*
X106795368Y-97436107D01*
X106807980Y-97457150D01*
X106818470Y-97479329D01*
X106826735Y-97502428D01*
X106832696Y-97526227D01*
X106836296Y-97550495D01*
X106837500Y-97574999D01*
X106837500Y-100425001D01*
X106836296Y-100449505D01*
X106832696Y-100473773D01*
X106826735Y-100497572D01*
X106818470Y-100520671D01*
X106807980Y-100542850D01*
X106795368Y-100563893D01*
X106780753Y-100583599D01*
X106764277Y-100601777D01*
X106746099Y-100618253D01*
X106726393Y-100632868D01*
X106705350Y-100645480D01*
X106683171Y-100655970D01*
X106660072Y-100664235D01*
X106636273Y-100670196D01*
X106612005Y-100673796D01*
X106587501Y-100675000D01*
X105562499Y-100675000D01*
X105537995Y-100673796D01*
X105513727Y-100670196D01*
X105489928Y-100664235D01*
X105466829Y-100655970D01*
X105444650Y-100645480D01*
X105423607Y-100632868D01*
X105403901Y-100618253D01*
X105385723Y-100601777D01*
X105369247Y-100583599D01*
X105354632Y-100563893D01*
X105342020Y-100542850D01*
X105331530Y-100520671D01*
X105323265Y-100497572D01*
X105317304Y-100473773D01*
X105313704Y-100449505D01*
X105312500Y-100425001D01*
X105312500Y-97574999D01*
X105313704Y-97550495D01*
X105317304Y-97526227D01*
X105323265Y-97502428D01*
X105331530Y-97479329D01*
X105342020Y-97457150D01*
X105354632Y-97436107D01*
X105369247Y-97416401D01*
X105385723Y-97398223D01*
X105403901Y-97381747D01*
X105423607Y-97367132D01*
X105444650Y-97354520D01*
X105466829Y-97344030D01*
X105489928Y-97335765D01*
X105513727Y-97329804D01*
X105537995Y-97326204D01*
X105562499Y-97325000D01*
X106587501Y-97325000D01*
X106612005Y-97326204D01*
G37*
%TD*%
%TO.C,R32*%
G36*
X138049505Y-103376204D02*
G01*
X138073773Y-103379804D01*
X138097572Y-103385765D01*
X138120671Y-103394030D01*
X138142850Y-103404520D01*
X138163893Y-103417132D01*
X138183599Y-103431747D01*
X138201777Y-103448223D01*
X138218253Y-103466401D01*
X138232868Y-103486107D01*
X138245480Y-103507150D01*
X138255970Y-103529329D01*
X138264235Y-103552428D01*
X138270196Y-103576227D01*
X138273796Y-103600495D01*
X138275000Y-103624999D01*
X138275000Y-106475001D01*
X138273796Y-106499505D01*
X138270196Y-106523773D01*
X138264235Y-106547572D01*
X138255970Y-106570671D01*
X138245480Y-106592850D01*
X138232868Y-106613893D01*
X138218253Y-106633599D01*
X138201777Y-106651777D01*
X138183599Y-106668253D01*
X138163893Y-106682868D01*
X138142850Y-106695480D01*
X138120671Y-106705970D01*
X138097572Y-106714235D01*
X138073773Y-106720196D01*
X138049505Y-106723796D01*
X138025001Y-106725000D01*
X136999999Y-106725000D01*
X136975495Y-106723796D01*
X136951227Y-106720196D01*
X136927428Y-106714235D01*
X136904329Y-106705970D01*
X136882150Y-106695480D01*
X136861107Y-106682868D01*
X136841401Y-106668253D01*
X136823223Y-106651777D01*
X136806747Y-106633599D01*
X136792132Y-106613893D01*
X136779520Y-106592850D01*
X136769030Y-106570671D01*
X136760765Y-106547572D01*
X136754804Y-106523773D01*
X136751204Y-106499505D01*
X136750000Y-106475001D01*
X136750000Y-103624999D01*
X136751204Y-103600495D01*
X136754804Y-103576227D01*
X136760765Y-103552428D01*
X136769030Y-103529329D01*
X136779520Y-103507150D01*
X136792132Y-103486107D01*
X136806747Y-103466401D01*
X136823223Y-103448223D01*
X136841401Y-103431747D01*
X136861107Y-103417132D01*
X136882150Y-103404520D01*
X136904329Y-103394030D01*
X136927428Y-103385765D01*
X136951227Y-103379804D01*
X136975495Y-103376204D01*
X136999999Y-103375000D01*
X138025001Y-103375000D01*
X138049505Y-103376204D01*
G37*
G36*
X144024505Y-103376204D02*
G01*
X144048773Y-103379804D01*
X144072572Y-103385765D01*
X144095671Y-103394030D01*
X144117850Y-103404520D01*
X144138893Y-103417132D01*
X144158599Y-103431747D01*
X144176777Y-103448223D01*
X144193253Y-103466401D01*
X144207868Y-103486107D01*
X144220480Y-103507150D01*
X144230970Y-103529329D01*
X144239235Y-103552428D01*
X144245196Y-103576227D01*
X144248796Y-103600495D01*
X144250000Y-103624999D01*
X144250000Y-106475001D01*
X144248796Y-106499505D01*
X144245196Y-106523773D01*
X144239235Y-106547572D01*
X144230970Y-106570671D01*
X144220480Y-106592850D01*
X144207868Y-106613893D01*
X144193253Y-106633599D01*
X144176777Y-106651777D01*
X144158599Y-106668253D01*
X144138893Y-106682868D01*
X144117850Y-106695480D01*
X144095671Y-106705970D01*
X144072572Y-106714235D01*
X144048773Y-106720196D01*
X144024505Y-106723796D01*
X144000001Y-106725000D01*
X142974999Y-106725000D01*
X142950495Y-106723796D01*
X142926227Y-106720196D01*
X142902428Y-106714235D01*
X142879329Y-106705970D01*
X142857150Y-106695480D01*
X142836107Y-106682868D01*
X142816401Y-106668253D01*
X142798223Y-106651777D01*
X142781747Y-106633599D01*
X142767132Y-106613893D01*
X142754520Y-106592850D01*
X142744030Y-106570671D01*
X142735765Y-106547572D01*
X142729804Y-106523773D01*
X142726204Y-106499505D01*
X142725000Y-106475001D01*
X142725000Y-103624999D01*
X142726204Y-103600495D01*
X142729804Y-103576227D01*
X142735765Y-103552428D01*
X142744030Y-103529329D01*
X142754520Y-103507150D01*
X142767132Y-103486107D01*
X142781747Y-103466401D01*
X142798223Y-103448223D01*
X142816401Y-103431747D01*
X142836107Y-103417132D01*
X142857150Y-103404520D01*
X142879329Y-103394030D01*
X142902428Y-103385765D01*
X142926227Y-103379804D01*
X142950495Y-103376204D01*
X142974999Y-103375000D01*
X144000001Y-103375000D01*
X144024505Y-103376204D01*
G37*
%TD*%
%TO.C,R33*%
G36*
X138049505Y-107226204D02*
G01*
X138073773Y-107229804D01*
X138097572Y-107235765D01*
X138120671Y-107244030D01*
X138142850Y-107254520D01*
X138163893Y-107267132D01*
X138183599Y-107281747D01*
X138201777Y-107298223D01*
X138218253Y-107316401D01*
X138232868Y-107336107D01*
X138245480Y-107357150D01*
X138255970Y-107379329D01*
X138264235Y-107402428D01*
X138270196Y-107426227D01*
X138273796Y-107450495D01*
X138275000Y-107474999D01*
X138275000Y-110325001D01*
X138273796Y-110349505D01*
X138270196Y-110373773D01*
X138264235Y-110397572D01*
X138255970Y-110420671D01*
X138245480Y-110442850D01*
X138232868Y-110463893D01*
X138218253Y-110483599D01*
X138201777Y-110501777D01*
X138183599Y-110518253D01*
X138163893Y-110532868D01*
X138142850Y-110545480D01*
X138120671Y-110555970D01*
X138097572Y-110564235D01*
X138073773Y-110570196D01*
X138049505Y-110573796D01*
X138025001Y-110575000D01*
X136999999Y-110575000D01*
X136975495Y-110573796D01*
X136951227Y-110570196D01*
X136927428Y-110564235D01*
X136904329Y-110555970D01*
X136882150Y-110545480D01*
X136861107Y-110532868D01*
X136841401Y-110518253D01*
X136823223Y-110501777D01*
X136806747Y-110483599D01*
X136792132Y-110463893D01*
X136779520Y-110442850D01*
X136769030Y-110420671D01*
X136760765Y-110397572D01*
X136754804Y-110373773D01*
X136751204Y-110349505D01*
X136750000Y-110325001D01*
X136750000Y-107474999D01*
X136751204Y-107450495D01*
X136754804Y-107426227D01*
X136760765Y-107402428D01*
X136769030Y-107379329D01*
X136779520Y-107357150D01*
X136792132Y-107336107D01*
X136806747Y-107316401D01*
X136823223Y-107298223D01*
X136841401Y-107281747D01*
X136861107Y-107267132D01*
X136882150Y-107254520D01*
X136904329Y-107244030D01*
X136927428Y-107235765D01*
X136951227Y-107229804D01*
X136975495Y-107226204D01*
X136999999Y-107225000D01*
X138025001Y-107225000D01*
X138049505Y-107226204D01*
G37*
G36*
X144024505Y-107226204D02*
G01*
X144048773Y-107229804D01*
X144072572Y-107235765D01*
X144095671Y-107244030D01*
X144117850Y-107254520D01*
X144138893Y-107267132D01*
X144158599Y-107281747D01*
X144176777Y-107298223D01*
X144193253Y-107316401D01*
X144207868Y-107336107D01*
X144220480Y-107357150D01*
X144230970Y-107379329D01*
X144239235Y-107402428D01*
X144245196Y-107426227D01*
X144248796Y-107450495D01*
X144250000Y-107474999D01*
X144250000Y-110325001D01*
X144248796Y-110349505D01*
X144245196Y-110373773D01*
X144239235Y-110397572D01*
X144230970Y-110420671D01*
X144220480Y-110442850D01*
X144207868Y-110463893D01*
X144193253Y-110483599D01*
X144176777Y-110501777D01*
X144158599Y-110518253D01*
X144138893Y-110532868D01*
X144117850Y-110545480D01*
X144095671Y-110555970D01*
X144072572Y-110564235D01*
X144048773Y-110570196D01*
X144024505Y-110573796D01*
X144000001Y-110575000D01*
X142974999Y-110575000D01*
X142950495Y-110573796D01*
X142926227Y-110570196D01*
X142902428Y-110564235D01*
X142879329Y-110555970D01*
X142857150Y-110545480D01*
X142836107Y-110532868D01*
X142816401Y-110518253D01*
X142798223Y-110501777D01*
X142781747Y-110483599D01*
X142767132Y-110463893D01*
X142754520Y-110442850D01*
X142744030Y-110420671D01*
X142735765Y-110397572D01*
X142729804Y-110373773D01*
X142726204Y-110349505D01*
X142725000Y-110325001D01*
X142725000Y-107474999D01*
X142726204Y-107450495D01*
X142729804Y-107426227D01*
X142735765Y-107402428D01*
X142744030Y-107379329D01*
X142754520Y-107357150D01*
X142767132Y-107336107D01*
X142781747Y-107316401D01*
X142798223Y-107298223D01*
X142816401Y-107281747D01*
X142836107Y-107267132D01*
X142857150Y-107254520D01*
X142879329Y-107244030D01*
X142902428Y-107235765D01*
X142926227Y-107229804D01*
X142950495Y-107226204D01*
X142974999Y-107225000D01*
X144000001Y-107225000D01*
X144024505Y-107226204D01*
G37*
%TD*%
%TO.C,R34*%
G36*
X138049505Y-111076204D02*
G01*
X138073773Y-111079804D01*
X138097572Y-111085765D01*
X138120671Y-111094030D01*
X138142850Y-111104520D01*
X138163893Y-111117132D01*
X138183599Y-111131747D01*
X138201777Y-111148223D01*
X138218253Y-111166401D01*
X138232868Y-111186107D01*
X138245480Y-111207150D01*
X138255970Y-111229329D01*
X138264235Y-111252428D01*
X138270196Y-111276227D01*
X138273796Y-111300495D01*
X138275000Y-111324999D01*
X138275000Y-114175001D01*
X138273796Y-114199505D01*
X138270196Y-114223773D01*
X138264235Y-114247572D01*
X138255970Y-114270671D01*
X138245480Y-114292850D01*
X138232868Y-114313893D01*
X138218253Y-114333599D01*
X138201777Y-114351777D01*
X138183599Y-114368253D01*
X138163893Y-114382868D01*
X138142850Y-114395480D01*
X138120671Y-114405970D01*
X138097572Y-114414235D01*
X138073773Y-114420196D01*
X138049505Y-114423796D01*
X138025001Y-114425000D01*
X136999999Y-114425000D01*
X136975495Y-114423796D01*
X136951227Y-114420196D01*
X136927428Y-114414235D01*
X136904329Y-114405970D01*
X136882150Y-114395480D01*
X136861107Y-114382868D01*
X136841401Y-114368253D01*
X136823223Y-114351777D01*
X136806747Y-114333599D01*
X136792132Y-114313893D01*
X136779520Y-114292850D01*
X136769030Y-114270671D01*
X136760765Y-114247572D01*
X136754804Y-114223773D01*
X136751204Y-114199505D01*
X136750000Y-114175001D01*
X136750000Y-111324999D01*
X136751204Y-111300495D01*
X136754804Y-111276227D01*
X136760765Y-111252428D01*
X136769030Y-111229329D01*
X136779520Y-111207150D01*
X136792132Y-111186107D01*
X136806747Y-111166401D01*
X136823223Y-111148223D01*
X136841401Y-111131747D01*
X136861107Y-111117132D01*
X136882150Y-111104520D01*
X136904329Y-111094030D01*
X136927428Y-111085765D01*
X136951227Y-111079804D01*
X136975495Y-111076204D01*
X136999999Y-111075000D01*
X138025001Y-111075000D01*
X138049505Y-111076204D01*
G37*
G36*
X144024505Y-111076204D02*
G01*
X144048773Y-111079804D01*
X144072572Y-111085765D01*
X144095671Y-111094030D01*
X144117850Y-111104520D01*
X144138893Y-111117132D01*
X144158599Y-111131747D01*
X144176777Y-111148223D01*
X144193253Y-111166401D01*
X144207868Y-111186107D01*
X144220480Y-111207150D01*
X144230970Y-111229329D01*
X144239235Y-111252428D01*
X144245196Y-111276227D01*
X144248796Y-111300495D01*
X144250000Y-111324999D01*
X144250000Y-114175001D01*
X144248796Y-114199505D01*
X144245196Y-114223773D01*
X144239235Y-114247572D01*
X144230970Y-114270671D01*
X144220480Y-114292850D01*
X144207868Y-114313893D01*
X144193253Y-114333599D01*
X144176777Y-114351777D01*
X144158599Y-114368253D01*
X144138893Y-114382868D01*
X144117850Y-114395480D01*
X144095671Y-114405970D01*
X144072572Y-114414235D01*
X144048773Y-114420196D01*
X144024505Y-114423796D01*
X144000001Y-114425000D01*
X142974999Y-114425000D01*
X142950495Y-114423796D01*
X142926227Y-114420196D01*
X142902428Y-114414235D01*
X142879329Y-114405970D01*
X142857150Y-114395480D01*
X142836107Y-114382868D01*
X142816401Y-114368253D01*
X142798223Y-114351777D01*
X142781747Y-114333599D01*
X142767132Y-114313893D01*
X142754520Y-114292850D01*
X142744030Y-114270671D01*
X142735765Y-114247572D01*
X142729804Y-114223773D01*
X142726204Y-114199505D01*
X142725000Y-114175001D01*
X142725000Y-111324999D01*
X142726204Y-111300495D01*
X142729804Y-111276227D01*
X142735765Y-111252428D01*
X142744030Y-111229329D01*
X142754520Y-111207150D01*
X142767132Y-111186107D01*
X142781747Y-111166401D01*
X142798223Y-111148223D01*
X142816401Y-111131747D01*
X142836107Y-111117132D01*
X142857150Y-111104520D01*
X142879329Y-111094030D01*
X142902428Y-111085765D01*
X142926227Y-111079804D01*
X142950495Y-111076204D01*
X142974999Y-111075000D01*
X144000001Y-111075000D01*
X144024505Y-111076204D01*
G37*
%TD*%
%TO.C,C33*%
G36*
X129574504Y-88051204D02*
G01*
X129598773Y-88054804D01*
X129622571Y-88060765D01*
X129645671Y-88069030D01*
X129667849Y-88079520D01*
X129688893Y-88092133D01*
X129708598Y-88106747D01*
X129726777Y-88123223D01*
X129743253Y-88141402D01*
X129757867Y-88161107D01*
X129770480Y-88182151D01*
X129780970Y-88204329D01*
X129789235Y-88227429D01*
X129795196Y-88251227D01*
X129798796Y-88275496D01*
X129800000Y-88300000D01*
X129800000Y-92200000D01*
X129798796Y-92224504D01*
X129795196Y-92248773D01*
X129789235Y-92272571D01*
X129780970Y-92295671D01*
X129770480Y-92317849D01*
X129757867Y-92338893D01*
X129743253Y-92358598D01*
X129726777Y-92376777D01*
X129708598Y-92393253D01*
X129688893Y-92407867D01*
X129667849Y-92420480D01*
X129645671Y-92430970D01*
X129622571Y-92439235D01*
X129598773Y-92445196D01*
X129574504Y-92448796D01*
X129550000Y-92450000D01*
X127550000Y-92450000D01*
X127525496Y-92448796D01*
X127501227Y-92445196D01*
X127477429Y-92439235D01*
X127454329Y-92430970D01*
X127432151Y-92420480D01*
X127411107Y-92407867D01*
X127391402Y-92393253D01*
X127373223Y-92376777D01*
X127356747Y-92358598D01*
X127342133Y-92338893D01*
X127329520Y-92317849D01*
X127319030Y-92295671D01*
X127310765Y-92272571D01*
X127304804Y-92248773D01*
X127301204Y-92224504D01*
X127300000Y-92200000D01*
X127300000Y-88300000D01*
X127301204Y-88275496D01*
X127304804Y-88251227D01*
X127310765Y-88227429D01*
X127319030Y-88204329D01*
X127329520Y-88182151D01*
X127342133Y-88161107D01*
X127356747Y-88141402D01*
X127373223Y-88123223D01*
X127391402Y-88106747D01*
X127411107Y-88092133D01*
X127432151Y-88079520D01*
X127454329Y-88069030D01*
X127477429Y-88060765D01*
X127501227Y-88054804D01*
X127525496Y-88051204D01*
X127550000Y-88050000D01*
X129550000Y-88050000D01*
X129574504Y-88051204D01*
G37*
G36*
X129574504Y-96451204D02*
G01*
X129598773Y-96454804D01*
X129622571Y-96460765D01*
X129645671Y-96469030D01*
X129667849Y-96479520D01*
X129688893Y-96492133D01*
X129708598Y-96506747D01*
X129726777Y-96523223D01*
X129743253Y-96541402D01*
X129757867Y-96561107D01*
X129770480Y-96582151D01*
X129780970Y-96604329D01*
X129789235Y-96627429D01*
X129795196Y-96651227D01*
X129798796Y-96675496D01*
X129800000Y-96700000D01*
X129800000Y-100600000D01*
X129798796Y-100624504D01*
X129795196Y-100648773D01*
X129789235Y-100672571D01*
X129780970Y-100695671D01*
X129770480Y-100717849D01*
X129757867Y-100738893D01*
X129743253Y-100758598D01*
X129726777Y-100776777D01*
X129708598Y-100793253D01*
X129688893Y-100807867D01*
X129667849Y-100820480D01*
X129645671Y-100830970D01*
X129622571Y-100839235D01*
X129598773Y-100845196D01*
X129574504Y-100848796D01*
X129550000Y-100850000D01*
X127550000Y-100850000D01*
X127525496Y-100848796D01*
X127501227Y-100845196D01*
X127477429Y-100839235D01*
X127454329Y-100830970D01*
X127432151Y-100820480D01*
X127411107Y-100807867D01*
X127391402Y-100793253D01*
X127373223Y-100776777D01*
X127356747Y-100758598D01*
X127342133Y-100738893D01*
X127329520Y-100717849D01*
X127319030Y-100695671D01*
X127310765Y-100672571D01*
X127304804Y-100648773D01*
X127301204Y-100624504D01*
X127300000Y-100600000D01*
X127300000Y-96700000D01*
X127301204Y-96675496D01*
X127304804Y-96651227D01*
X127310765Y-96627429D01*
X127319030Y-96604329D01*
X127329520Y-96582151D01*
X127342133Y-96561107D01*
X127356747Y-96541402D01*
X127373223Y-96523223D01*
X127391402Y-96506747D01*
X127411107Y-96492133D01*
X127432151Y-96479520D01*
X127454329Y-96469030D01*
X127477429Y-96460765D01*
X127501227Y-96454804D01*
X127525496Y-96451204D01*
X127550000Y-96450000D01*
X129550000Y-96450000D01*
X129574504Y-96451204D01*
G37*
%TD*%
%TO.C,C34*%
G36*
X145974504Y-93551204D02*
G01*
X145998773Y-93554804D01*
X146022571Y-93560765D01*
X146045671Y-93569030D01*
X146067849Y-93579520D01*
X146088893Y-93592133D01*
X146108598Y-93606747D01*
X146126777Y-93623223D01*
X146143253Y-93641402D01*
X146157867Y-93661107D01*
X146170480Y-93682151D01*
X146180970Y-93704329D01*
X146189235Y-93727429D01*
X146195196Y-93751227D01*
X146198796Y-93775496D01*
X146200000Y-93800000D01*
X146200000Y-95800000D01*
X146198796Y-95824504D01*
X146195196Y-95848773D01*
X146189235Y-95872571D01*
X146180970Y-95895671D01*
X146170480Y-95917849D01*
X146157867Y-95938893D01*
X146143253Y-95958598D01*
X146126777Y-95976777D01*
X146108598Y-95993253D01*
X146088893Y-96007867D01*
X146067849Y-96020480D01*
X146045671Y-96030970D01*
X146022571Y-96039235D01*
X145998773Y-96045196D01*
X145974504Y-96048796D01*
X145950000Y-96050000D01*
X142050000Y-96050000D01*
X142025496Y-96048796D01*
X142001227Y-96045196D01*
X141977429Y-96039235D01*
X141954329Y-96030970D01*
X141932151Y-96020480D01*
X141911107Y-96007867D01*
X141891402Y-95993253D01*
X141873223Y-95976777D01*
X141856747Y-95958598D01*
X141842133Y-95938893D01*
X141829520Y-95917849D01*
X141819030Y-95895671D01*
X141810765Y-95872571D01*
X141804804Y-95848773D01*
X141801204Y-95824504D01*
X141800000Y-95800000D01*
X141800000Y-93800000D01*
X141801204Y-93775496D01*
X141804804Y-93751227D01*
X141810765Y-93727429D01*
X141819030Y-93704329D01*
X141829520Y-93682151D01*
X141842133Y-93661107D01*
X141856747Y-93641402D01*
X141873223Y-93623223D01*
X141891402Y-93606747D01*
X141911107Y-93592133D01*
X141932151Y-93579520D01*
X141954329Y-93569030D01*
X141977429Y-93560765D01*
X142001227Y-93554804D01*
X142025496Y-93551204D01*
X142050000Y-93550000D01*
X145950000Y-93550000D01*
X145974504Y-93551204D01*
G37*
G36*
X137574504Y-93551204D02*
G01*
X137598773Y-93554804D01*
X137622571Y-93560765D01*
X137645671Y-93569030D01*
X137667849Y-93579520D01*
X137688893Y-93592133D01*
X137708598Y-93606747D01*
X137726777Y-93623223D01*
X137743253Y-93641402D01*
X137757867Y-93661107D01*
X137770480Y-93682151D01*
X137780970Y-93704329D01*
X137789235Y-93727429D01*
X137795196Y-93751227D01*
X137798796Y-93775496D01*
X137800000Y-93800000D01*
X137800000Y-95800000D01*
X137798796Y-95824504D01*
X137795196Y-95848773D01*
X137789235Y-95872571D01*
X137780970Y-95895671D01*
X137770480Y-95917849D01*
X137757867Y-95938893D01*
X137743253Y-95958598D01*
X137726777Y-95976777D01*
X137708598Y-95993253D01*
X137688893Y-96007867D01*
X137667849Y-96020480D01*
X137645671Y-96030970D01*
X137622571Y-96039235D01*
X137598773Y-96045196D01*
X137574504Y-96048796D01*
X137550000Y-96050000D01*
X133650000Y-96050000D01*
X133625496Y-96048796D01*
X133601227Y-96045196D01*
X133577429Y-96039235D01*
X133554329Y-96030970D01*
X133532151Y-96020480D01*
X133511107Y-96007867D01*
X133491402Y-95993253D01*
X133473223Y-95976777D01*
X133456747Y-95958598D01*
X133442133Y-95938893D01*
X133429520Y-95917849D01*
X133419030Y-95895671D01*
X133410765Y-95872571D01*
X133404804Y-95848773D01*
X133401204Y-95824504D01*
X133400000Y-95800000D01*
X133400000Y-93800000D01*
X133401204Y-93775496D01*
X133404804Y-93751227D01*
X133410765Y-93727429D01*
X133419030Y-93704329D01*
X133429520Y-93682151D01*
X133442133Y-93661107D01*
X133456747Y-93641402D01*
X133473223Y-93623223D01*
X133491402Y-93606747D01*
X133511107Y-93592133D01*
X133532151Y-93579520D01*
X133554329Y-93569030D01*
X133577429Y-93560765D01*
X133601227Y-93554804D01*
X133625496Y-93551204D01*
X133650000Y-93550000D01*
X137550000Y-93550000D01*
X137574504Y-93551204D01*
G37*
%TD*%
%TO.C,C35*%
G36*
X177524504Y-88051204D02*
G01*
X177548773Y-88054804D01*
X177572571Y-88060765D01*
X177595671Y-88069030D01*
X177617849Y-88079520D01*
X177638893Y-88092133D01*
X177658598Y-88106747D01*
X177676777Y-88123223D01*
X177693253Y-88141402D01*
X177707867Y-88161107D01*
X177720480Y-88182151D01*
X177730970Y-88204329D01*
X177739235Y-88227429D01*
X177745196Y-88251227D01*
X177748796Y-88275496D01*
X177750000Y-88300000D01*
X177750000Y-92200000D01*
X177748796Y-92224504D01*
X177745196Y-92248773D01*
X177739235Y-92272571D01*
X177730970Y-92295671D01*
X177720480Y-92317849D01*
X177707867Y-92338893D01*
X177693253Y-92358598D01*
X177676777Y-92376777D01*
X177658598Y-92393253D01*
X177638893Y-92407867D01*
X177617849Y-92420480D01*
X177595671Y-92430970D01*
X177572571Y-92439235D01*
X177548773Y-92445196D01*
X177524504Y-92448796D01*
X177500000Y-92450000D01*
X175500000Y-92450000D01*
X175475496Y-92448796D01*
X175451227Y-92445196D01*
X175427429Y-92439235D01*
X175404329Y-92430970D01*
X175382151Y-92420480D01*
X175361107Y-92407867D01*
X175341402Y-92393253D01*
X175323223Y-92376777D01*
X175306747Y-92358598D01*
X175292133Y-92338893D01*
X175279520Y-92317849D01*
X175269030Y-92295671D01*
X175260765Y-92272571D01*
X175254804Y-92248773D01*
X175251204Y-92224504D01*
X175250000Y-92200000D01*
X175250000Y-88300000D01*
X175251204Y-88275496D01*
X175254804Y-88251227D01*
X175260765Y-88227429D01*
X175269030Y-88204329D01*
X175279520Y-88182151D01*
X175292133Y-88161107D01*
X175306747Y-88141402D01*
X175323223Y-88123223D01*
X175341402Y-88106747D01*
X175361107Y-88092133D01*
X175382151Y-88079520D01*
X175404329Y-88069030D01*
X175427429Y-88060765D01*
X175451227Y-88054804D01*
X175475496Y-88051204D01*
X175500000Y-88050000D01*
X177500000Y-88050000D01*
X177524504Y-88051204D01*
G37*
G36*
X177524504Y-96451204D02*
G01*
X177548773Y-96454804D01*
X177572571Y-96460765D01*
X177595671Y-96469030D01*
X177617849Y-96479520D01*
X177638893Y-96492133D01*
X177658598Y-96506747D01*
X177676777Y-96523223D01*
X177693253Y-96541402D01*
X177707867Y-96561107D01*
X177720480Y-96582151D01*
X177730970Y-96604329D01*
X177739235Y-96627429D01*
X177745196Y-96651227D01*
X177748796Y-96675496D01*
X177750000Y-96700000D01*
X177750000Y-100600000D01*
X177748796Y-100624504D01*
X177745196Y-100648773D01*
X177739235Y-100672571D01*
X177730970Y-100695671D01*
X177720480Y-100717849D01*
X177707867Y-100738893D01*
X177693253Y-100758598D01*
X177676777Y-100776777D01*
X177658598Y-100793253D01*
X177638893Y-100807867D01*
X177617849Y-100820480D01*
X177595671Y-100830970D01*
X177572571Y-100839235D01*
X177548773Y-100845196D01*
X177524504Y-100848796D01*
X177500000Y-100850000D01*
X175500000Y-100850000D01*
X175475496Y-100848796D01*
X175451227Y-100845196D01*
X175427429Y-100839235D01*
X175404329Y-100830970D01*
X175382151Y-100820480D01*
X175361107Y-100807867D01*
X175341402Y-100793253D01*
X175323223Y-100776777D01*
X175306747Y-100758598D01*
X175292133Y-100738893D01*
X175279520Y-100717849D01*
X175269030Y-100695671D01*
X175260765Y-100672571D01*
X175254804Y-100648773D01*
X175251204Y-100624504D01*
X175250000Y-100600000D01*
X175250000Y-96700000D01*
X175251204Y-96675496D01*
X175254804Y-96651227D01*
X175260765Y-96627429D01*
X175269030Y-96604329D01*
X175279520Y-96582151D01*
X175292133Y-96561107D01*
X175306747Y-96541402D01*
X175323223Y-96523223D01*
X175341402Y-96506747D01*
X175361107Y-96492133D01*
X175382151Y-96479520D01*
X175404329Y-96469030D01*
X175427429Y-96460765D01*
X175451227Y-96454804D01*
X175475496Y-96451204D01*
X175500000Y-96450000D01*
X177500000Y-96450000D01*
X177524504Y-96451204D01*
G37*
%TD*%
%TO.C,C36*%
G36*
X148874504Y-93551204D02*
G01*
X148898773Y-93554804D01*
X148922571Y-93560765D01*
X148945671Y-93569030D01*
X148967849Y-93579520D01*
X148988893Y-93592133D01*
X149008598Y-93606747D01*
X149026777Y-93623223D01*
X149043253Y-93641402D01*
X149057867Y-93661107D01*
X149070480Y-93682151D01*
X149080970Y-93704329D01*
X149089235Y-93727429D01*
X149095196Y-93751227D01*
X149098796Y-93775496D01*
X149100000Y-93800000D01*
X149100000Y-95800000D01*
X149098796Y-95824504D01*
X149095196Y-95848773D01*
X149089235Y-95872571D01*
X149080970Y-95895671D01*
X149070480Y-95917849D01*
X149057867Y-95938893D01*
X149043253Y-95958598D01*
X149026777Y-95976777D01*
X149008598Y-95993253D01*
X148988893Y-96007867D01*
X148967849Y-96020480D01*
X148945671Y-96030970D01*
X148922571Y-96039235D01*
X148898773Y-96045196D01*
X148874504Y-96048796D01*
X148850000Y-96050000D01*
X144950000Y-96050000D01*
X144925496Y-96048796D01*
X144901227Y-96045196D01*
X144877429Y-96039235D01*
X144854329Y-96030970D01*
X144832151Y-96020480D01*
X144811107Y-96007867D01*
X144791402Y-95993253D01*
X144773223Y-95976777D01*
X144756747Y-95958598D01*
X144742133Y-95938893D01*
X144729520Y-95917849D01*
X144719030Y-95895671D01*
X144710765Y-95872571D01*
X144704804Y-95848773D01*
X144701204Y-95824504D01*
X144700000Y-95800000D01*
X144700000Y-93800000D01*
X144701204Y-93775496D01*
X144704804Y-93751227D01*
X144710765Y-93727429D01*
X144719030Y-93704329D01*
X144729520Y-93682151D01*
X144742133Y-93661107D01*
X144756747Y-93641402D01*
X144773223Y-93623223D01*
X144791402Y-93606747D01*
X144811107Y-93592133D01*
X144832151Y-93579520D01*
X144854329Y-93569030D01*
X144877429Y-93560765D01*
X144901227Y-93554804D01*
X144925496Y-93551204D01*
X144950000Y-93550000D01*
X148850000Y-93550000D01*
X148874504Y-93551204D01*
G37*
G36*
X157274504Y-93551204D02*
G01*
X157298773Y-93554804D01*
X157322571Y-93560765D01*
X157345671Y-93569030D01*
X157367849Y-93579520D01*
X157388893Y-93592133D01*
X157408598Y-93606747D01*
X157426777Y-93623223D01*
X157443253Y-93641402D01*
X157457867Y-93661107D01*
X157470480Y-93682151D01*
X157480970Y-93704329D01*
X157489235Y-93727429D01*
X157495196Y-93751227D01*
X157498796Y-93775496D01*
X157500000Y-93800000D01*
X157500000Y-95800000D01*
X157498796Y-95824504D01*
X157495196Y-95848773D01*
X157489235Y-95872571D01*
X157480970Y-95895671D01*
X157470480Y-95917849D01*
X157457867Y-95938893D01*
X157443253Y-95958598D01*
X157426777Y-95976777D01*
X157408598Y-95993253D01*
X157388893Y-96007867D01*
X157367849Y-96020480D01*
X157345671Y-96030970D01*
X157322571Y-96039235D01*
X157298773Y-96045196D01*
X157274504Y-96048796D01*
X157250000Y-96050000D01*
X153350000Y-96050000D01*
X153325496Y-96048796D01*
X153301227Y-96045196D01*
X153277429Y-96039235D01*
X153254329Y-96030970D01*
X153232151Y-96020480D01*
X153211107Y-96007867D01*
X153191402Y-95993253D01*
X153173223Y-95976777D01*
X153156747Y-95958598D01*
X153142133Y-95938893D01*
X153129520Y-95917849D01*
X153119030Y-95895671D01*
X153110765Y-95872571D01*
X153104804Y-95848773D01*
X153101204Y-95824504D01*
X153100000Y-95800000D01*
X153100000Y-93800000D01*
X153101204Y-93775496D01*
X153104804Y-93751227D01*
X153110765Y-93727429D01*
X153119030Y-93704329D01*
X153129520Y-93682151D01*
X153142133Y-93661107D01*
X153156747Y-93641402D01*
X153173223Y-93623223D01*
X153191402Y-93606747D01*
X153211107Y-93592133D01*
X153232151Y-93579520D01*
X153254329Y-93569030D01*
X153277429Y-93560765D01*
X153301227Y-93554804D01*
X153325496Y-93551204D01*
X153350000Y-93550000D01*
X157250000Y-93550000D01*
X157274504Y-93551204D01*
G37*
%TD*%
%TO.C,C37*%
G36*
X163324504Y-88051204D02*
G01*
X163348773Y-88054804D01*
X163372571Y-88060765D01*
X163395671Y-88069030D01*
X163417849Y-88079520D01*
X163438893Y-88092133D01*
X163458598Y-88106747D01*
X163476777Y-88123223D01*
X163493253Y-88141402D01*
X163507867Y-88161107D01*
X163520480Y-88182151D01*
X163530970Y-88204329D01*
X163539235Y-88227429D01*
X163545196Y-88251227D01*
X163548796Y-88275496D01*
X163550000Y-88300000D01*
X163550000Y-92200000D01*
X163548796Y-92224504D01*
X163545196Y-92248773D01*
X163539235Y-92272571D01*
X163530970Y-92295671D01*
X163520480Y-92317849D01*
X163507867Y-92338893D01*
X163493253Y-92358598D01*
X163476777Y-92376777D01*
X163458598Y-92393253D01*
X163438893Y-92407867D01*
X163417849Y-92420480D01*
X163395671Y-92430970D01*
X163372571Y-92439235D01*
X163348773Y-92445196D01*
X163324504Y-92448796D01*
X163300000Y-92450000D01*
X161300000Y-92450000D01*
X161275496Y-92448796D01*
X161251227Y-92445196D01*
X161227429Y-92439235D01*
X161204329Y-92430970D01*
X161182151Y-92420480D01*
X161161107Y-92407867D01*
X161141402Y-92393253D01*
X161123223Y-92376777D01*
X161106747Y-92358598D01*
X161092133Y-92338893D01*
X161079520Y-92317849D01*
X161069030Y-92295671D01*
X161060765Y-92272571D01*
X161054804Y-92248773D01*
X161051204Y-92224504D01*
X161050000Y-92200000D01*
X161050000Y-88300000D01*
X161051204Y-88275496D01*
X161054804Y-88251227D01*
X161060765Y-88227429D01*
X161069030Y-88204329D01*
X161079520Y-88182151D01*
X161092133Y-88161107D01*
X161106747Y-88141402D01*
X161123223Y-88123223D01*
X161141402Y-88106747D01*
X161161107Y-88092133D01*
X161182151Y-88079520D01*
X161204329Y-88069030D01*
X161227429Y-88060765D01*
X161251227Y-88054804D01*
X161275496Y-88051204D01*
X161300000Y-88050000D01*
X163300000Y-88050000D01*
X163324504Y-88051204D01*
G37*
G36*
X163324504Y-96451204D02*
G01*
X163348773Y-96454804D01*
X163372571Y-96460765D01*
X163395671Y-96469030D01*
X163417849Y-96479520D01*
X163438893Y-96492133D01*
X163458598Y-96506747D01*
X163476777Y-96523223D01*
X163493253Y-96541402D01*
X163507867Y-96561107D01*
X163520480Y-96582151D01*
X163530970Y-96604329D01*
X163539235Y-96627429D01*
X163545196Y-96651227D01*
X163548796Y-96675496D01*
X163550000Y-96700000D01*
X163550000Y-100600000D01*
X163548796Y-100624504D01*
X163545196Y-100648773D01*
X163539235Y-100672571D01*
X163530970Y-100695671D01*
X163520480Y-100717849D01*
X163507867Y-100738893D01*
X163493253Y-100758598D01*
X163476777Y-100776777D01*
X163458598Y-100793253D01*
X163438893Y-100807867D01*
X163417849Y-100820480D01*
X163395671Y-100830970D01*
X163372571Y-100839235D01*
X163348773Y-100845196D01*
X163324504Y-100848796D01*
X163300000Y-100850000D01*
X161300000Y-100850000D01*
X161275496Y-100848796D01*
X161251227Y-100845196D01*
X161227429Y-100839235D01*
X161204329Y-100830970D01*
X161182151Y-100820480D01*
X161161107Y-100807867D01*
X161141402Y-100793253D01*
X161123223Y-100776777D01*
X161106747Y-100758598D01*
X161092133Y-100738893D01*
X161079520Y-100717849D01*
X161069030Y-100695671D01*
X161060765Y-100672571D01*
X161054804Y-100648773D01*
X161051204Y-100624504D01*
X161050000Y-100600000D01*
X161050000Y-96700000D01*
X161051204Y-96675496D01*
X161054804Y-96651227D01*
X161060765Y-96627429D01*
X161069030Y-96604329D01*
X161079520Y-96582151D01*
X161092133Y-96561107D01*
X161106747Y-96541402D01*
X161123223Y-96523223D01*
X161141402Y-96506747D01*
X161161107Y-96492133D01*
X161182151Y-96479520D01*
X161204329Y-96469030D01*
X161227429Y-96460765D01*
X161251227Y-96454804D01*
X161275496Y-96451204D01*
X161300000Y-96450000D01*
X163300000Y-96450000D01*
X163324504Y-96451204D01*
G37*
%TD*%
M02*
