M48
; DRILL file {KiCad 5.1.5+dfsg1-2build2} date Wed 29 Dec 2021 18:24:50 CET
; FORMAT={-:-/ absolute / metric / decimal}
; #@! TF.CreationDate,2021-12-29T18:24:50+01:00
; #@! TF.GenerationSoftware,Kicad,Pcbnew,5.1.5+dfsg1-2build2
; #@! TF.FileFunction,Plated,1,2,PTH
FMAT,2
METRIC
T1C0.400
T2C0.500
T3C0.650
T4C1.000
T5C1.100
T6C1.400
T7C1.500
T8C2.200
T9C3.200
%
G90
G05
T1
X92.475Y-67.775
X92.5Y-66.75
X94.75Y-75.0
X95.0Y-67.0
X96.5Y-90.75
X97.5Y-68.5
X97.6Y-66.8
X97.613Y-89.571
X97.75Y-52.25
X98.0Y-64.8
X98.2Y-69.5
X99.5Y-84.25
X99.5Y-85.5
X99.5Y-86.75
X99.5Y-88.0
X100.75Y-83.75
X100.75Y-85.0
X100.75Y-86.25
X100.75Y-87.5
X103.0Y-62.8
X103.0Y-63.8
X105.7Y-67.6
X106.5Y-52.0
X107.0Y-55.0
X107.0Y-57.5
X107.5Y-91.0
X107.5Y-92.5
X107.5Y-94.25
X107.6Y-71.45
X107.7Y-62.6
X109.0Y-91.0
X109.0Y-92.5
X109.0Y-94.25
X109.5Y-49.5
X109.5Y-67.15
X109.75Y-65.75
X110.5Y-91.0
X110.5Y-92.5
X110.5Y-94.25
X110.6Y-69.1
X110.75Y-65.75
X113.0Y-53.75
X113.0Y-55.0
X113.78Y-69.8
X114.38Y-84.25
X114.38Y-85.5
X114.38Y-86.75
X114.38Y-88.0
X115.63Y-83.75
X115.63Y-85.0
X115.63Y-86.25
X115.63Y-87.5
X115.7Y-61.4
X118.25Y-56.75
X118.7Y-63.8
X119.5Y-65.75
X120.0Y-57.25
X120.5Y-65.75
X122.38Y-91.0
X122.38Y-92.5
X122.38Y-94.25
X122.48Y-71.45
X123.2Y-64.5
X123.88Y-91.0
X123.88Y-92.5
X123.88Y-94.25
X124.25Y-47.75
X124.38Y-67.15
X124.5Y-65.75
X125.38Y-91.0
X125.38Y-92.5
X125.38Y-94.25
X125.48Y-69.1
X125.5Y-52.25
X125.5Y-65.75
X128.53Y-69.8
X129.13Y-84.25
X129.13Y-85.5
X129.13Y-86.75
X129.13Y-88.0
X130.38Y-83.75
X130.38Y-85.0
X130.38Y-86.25
X130.38Y-87.5
X134.25Y-65.75
X134.5Y-62.75
X135.25Y-65.75
X136.5Y-52.2
X137.13Y-91.0
X137.13Y-92.5
X137.13Y-94.25
X137.23Y-71.45
X137.4Y-54.7
X137.5Y-52.3
X137.8Y-58.2
X137.8Y-60.9
X138.63Y-91.0
X138.63Y-92.5
X138.63Y-94.25
X138.75Y-52.3
X139.0Y-60.9
X139.13Y-67.15
X139.2Y-48.7
X140.13Y-91.0
X140.13Y-92.5
X140.13Y-94.25
X140.2Y-48.7
X140.23Y-69.1
X140.25Y-64.25
X141.2Y-48.6
X141.25Y-113.5
X142.4Y-55.4
X144.0Y-78.75
X145.25Y-66.25
X145.77Y-69.803
X146.25Y-66.25
X146.37Y-84.253
X146.37Y-85.503
X146.37Y-86.753
X146.37Y-88.003
X147.0Y-54.25
X147.5Y-58.1
X147.62Y-83.753
X147.62Y-85.003
X147.62Y-86.253
X147.62Y-87.503
X148.2Y-59.6
X148.3Y-57.3
X148.5Y-51.25
X149.0Y-113.0
X151.5Y-66.25
X151.75Y-60.75
X152.2Y-64.5
X152.75Y-66.25
X152.9Y-51.8
X153.9Y-56.0
X153.9Y-58.6
X154.3Y-53.5
X154.37Y-91.003
X154.37Y-92.503
X154.37Y-94.253
X154.47Y-71.453
X154.5Y-57.7
X154.5Y-62.6
X155.07Y-64.85
X155.2Y-54.1
X155.2Y-63.4
X155.25Y-57.0
X155.3Y-55.1
X155.87Y-91.003
X155.87Y-92.503
X155.87Y-94.253
X156.37Y-67.153
X156.4Y-58.9
X156.5Y-53.75
X156.5Y-65.75
X157.37Y-91.003
X157.37Y-92.503
X157.37Y-94.253
X157.47Y-69.103
X157.5Y-50.6
X157.5Y-65.75
X157.8Y-61.8
X159.0Y-50.7
X159.1Y-57.2
X159.163Y-58.263
X159.2Y-54.6
X160.35Y-61.4
X160.371Y-60.4
X160.6Y-52.15
X160.65Y-69.803
X161.25Y-84.253
X161.25Y-85.503
X161.25Y-86.753
X161.25Y-88.003
X162.5Y-83.753
X162.5Y-85.003
X162.5Y-86.253
X162.5Y-87.503
X163.993Y-63.711
X164.505Y-62.852
X165.003Y-61.402
X165.325Y-59.075
X165.325Y-60.117
X165.4Y-62.4
X165.519Y-58.094
X166.25Y-65.75
X166.402Y-52.625
X167.25Y-65.75
X167.4Y-64.525
X168.5Y-59.8
X168.7Y-53.3
X168.7Y-61.8
X169.25Y-91.003
X169.25Y-92.503
X169.25Y-94.253
X169.35Y-71.453
X169.675Y-62.125
X169.7Y-52.3
X169.748Y-59.83
X169.9Y-64.5
X170.5Y-47.9
X170.6Y-62.725
X170.75Y-91.003
X170.75Y-92.503
X170.75Y-94.253
X170.8Y-59.8
X171.0Y-49.5
X171.25Y-67.153
X171.5Y-65.75
X172.2Y-63.5
X172.25Y-91.003
X172.25Y-92.503
X172.25Y-94.253
X172.35Y-69.103
X173.8Y-53.3
X174.3Y-50.425
X175.4Y-69.803
X176.0Y-84.253
X176.0Y-85.503
X176.0Y-86.753
X176.0Y-88.003
X177.25Y-83.753
X177.25Y-85.003
X177.25Y-86.253
X177.25Y-87.503
X179.5Y-50.7
X183.1Y-51.1
X183.3Y-55.0
X183.7Y-64.1
X184.0Y-91.003
X184.0Y-92.503
X184.0Y-94.253
X184.1Y-71.453
X185.5Y-91.003
X185.5Y-92.503
X185.5Y-94.253
X186.0Y-67.153
X187.0Y-91.003
X187.0Y-92.503
X187.0Y-94.253
X187.1Y-69.103
X92.6Y-84.75
X92.6Y-95.25
X93.083Y-83.583
X93.083Y-96.417
X94.25Y-83.1
X94.25Y-96.9
X95.417Y-83.583
X95.417Y-85.917
X95.417Y-94.083
X95.417Y-96.417
X95.9Y-84.75
X95.9Y-95.25
T3
X120.48Y-60.1
X121.75Y-60.1
X124.75Y-59.25
X124.75Y-60.52
X146.0Y-78.9
X147.27Y-78.9
T4
X162.25Y-71.423
X162.25Y-76.503
X140.63Y-83.0
X140.63Y-88.08
X157.87Y-83.003
X157.87Y-88.083
X154.37Y-83.003
X154.37Y-88.083
X125.88Y-83.0
X125.88Y-88.08
X187.5Y-83.003
X187.5Y-88.083
X111.0Y-83.0
X111.0Y-88.08
X177.0Y-71.423
X177.0Y-76.503
X184.0Y-83.003
X184.0Y-88.083
X169.25Y-83.003
X169.25Y-88.083
X129.71Y-48.5
X132.25Y-48.5
X134.79Y-48.5
X137.33Y-48.5
X186.75Y-54.74
X186.75Y-57.28
X186.75Y-59.82
X186.75Y-62.36
X186.75Y-64.9
X147.37Y-71.423
X147.37Y-76.503
X107.5Y-83.0
X107.5Y-88.08
X172.0Y-56.25
X172.0Y-58.79
X174.54Y-56.25
X174.54Y-58.79
X177.08Y-56.25
X177.08Y-58.79
X179.62Y-56.25
X179.62Y-58.79
X182.16Y-56.25
X182.16Y-58.79
X137.13Y-83.0
X137.13Y-88.08
X122.38Y-83.0
X122.38Y-88.08
X128.0Y-54.66
X128.0Y-57.2
X130.54Y-54.66
X130.54Y-57.2
X133.08Y-54.66
X133.08Y-57.2
X100.5Y-71.42
X100.5Y-76.5
X130.13Y-71.42
X130.13Y-76.5
X161.0Y-48.5
X163.54Y-48.5
X166.08Y-48.5
X168.62Y-48.5
X172.75Y-83.003
X172.75Y-88.083
X115.38Y-71.42
X115.38Y-76.5
T5
X93.5Y-87.5
X93.5Y-92.5
X117.5Y-112.55
X122.5Y-112.55
X127.5Y-112.55
X115.25Y-47.2
X120.25Y-47.2
X164.35Y-112.55
X169.35Y-112.55
X174.35Y-112.55
T6
X176.5Y-102.65
X186.875Y-102.65
X161.725Y-102.65
X172.1Y-102.65
X129.6Y-102.65
X139.975Y-102.65
X103.5Y-77.225
X103.5Y-87.6
X133.13Y-77.225
X133.13Y-87.6
X118.38Y-77.225
X118.38Y-87.6
X165.25Y-77.228
X165.25Y-87.603
X180.0Y-77.228
X180.0Y-87.603
X101.475Y-102.65
X111.85Y-102.65
X114.9Y-102.65
X125.275Y-102.65
X146.85Y-102.65
X157.225Y-102.65
X150.37Y-77.228
X150.37Y-87.603
T7
X144.5Y-52.85
X144.5Y-57.75
T8
X94.25Y-84.75
X94.25Y-95.25
T9
X94.0Y-111.0
X186.0Y-49.0
X186.0Y-111.0
X94.0Y-49.0
T2
X173.275Y-46.85G85X173.275Y-46.15
G05
X178.925Y-46.85G85X178.925Y-46.15
G05
T0
M30
