%FSLAX45Y45*%
G04 Gerber Fmt 4.5, Leading zero omitted, Abs format (unit mm)*
G04 Created by KiCad (PCBNEW 5.1.5+dfsg1-2build2) date 2021-12-29 18:25:53*
%MOMM*%
%LPD*%
G04 APERTURE LIST*
%TA.AperFunction,Profile*%
%ADD10C,0.050000*%
%TD*%
%ADD11C,0.200000*%
%ADD12C,0.300000*%
G04 APERTURE END LIST*
D10*
X9000000Y-4900000D02*
G75*
G02X9400000Y-4500000I400000J0D01*
G01*
X18600000Y-4500000D02*
G75*
G02X19000000Y-4900000I0J-400000D01*
G01*
X19000000Y-11100000D02*
X19000000Y-4900000D01*
X19000000Y-11100000D02*
G75*
G02X18600000Y-11500000I-400000J0D01*
G01*
X9400000Y-11500000D02*
X18600000Y-11500000D01*
X9400000Y-4500000D02*
X18600000Y-4500000D01*
X9400000Y-11500000D02*
G75*
G02X9000000Y-11100000I0J400000D01*
G01*
X9000000Y-4900000D02*
X9000000Y-11100000D01*
D11*
X9227500Y-6757500D02*
X9267500Y-6797500D01*
X9267500Y-6757500D02*
X9227500Y-6797500D01*
X9230000Y-6655000D02*
X9270000Y-6695000D01*
X9270000Y-6655000D02*
X9230000Y-6695000D01*
X9455001Y-7480000D02*
X9495001Y-7520000D01*
X9495001Y-7480000D02*
X9455001Y-7520000D01*
X9480000Y-6680000D02*
X9520000Y-6720000D01*
X9520000Y-6680000D02*
X9480000Y-6720000D01*
X9630000Y-9055000D02*
X9670000Y-9095000D01*
X9670000Y-9055000D02*
X9630000Y-9095000D01*
X9730000Y-6830000D02*
X9770000Y-6870000D01*
X9770000Y-6830000D02*
X9730000Y-6870000D01*
X9740000Y-6660000D02*
X9780000Y-6700000D01*
X9780000Y-6660000D02*
X9740000Y-6700000D01*
X9741305Y-8937137D02*
X9781305Y-8977137D01*
X9781305Y-8937137D02*
X9741305Y-8977137D01*
X9755000Y-5205000D02*
X9795000Y-5245000D01*
X9795000Y-5205000D02*
X9755000Y-5245000D01*
X9780000Y-6460000D02*
X9820000Y-6500000D01*
X9820000Y-6460000D02*
X9780000Y-6500000D01*
X9800000Y-6930000D02*
X9840000Y-6970000D01*
X9840000Y-6930000D02*
X9800000Y-6970000D01*
X9930000Y-8405000D02*
X9970000Y-8445000D01*
X9970000Y-8405000D02*
X9930000Y-8445000D01*
X9930000Y-8530000D02*
X9970000Y-8570000D01*
X9970000Y-8530000D02*
X9930000Y-8570000D01*
X9930000Y-8655000D02*
X9970000Y-8695000D01*
X9970000Y-8655000D02*
X9930000Y-8695000D01*
X9930000Y-8780000D02*
X9970000Y-8820000D01*
X9970000Y-8780000D02*
X9930000Y-8820000D01*
X10055000Y-8355000D02*
X10095000Y-8395000D01*
X10095000Y-8355000D02*
X10055000Y-8395000D01*
X10055000Y-8480000D02*
X10095000Y-8520000D01*
X10095000Y-8480000D02*
X10055000Y-8520000D01*
X10055000Y-8605000D02*
X10095000Y-8645000D01*
X10095000Y-8605000D02*
X10055000Y-8645000D01*
X10055000Y-8730000D02*
X10095000Y-8770000D01*
X10095000Y-8730000D02*
X10055000Y-8770000D01*
X10280000Y-6260000D02*
X10320000Y-6300000D01*
X10320000Y-6260000D02*
X10280000Y-6300000D01*
X10280000Y-6360000D02*
X10320000Y-6400000D01*
X10320000Y-6360000D02*
X10280000Y-6400000D01*
X10550000Y-6740000D02*
X10590000Y-6780000D01*
X10590000Y-6740000D02*
X10550000Y-6780000D01*
X10630000Y-5180000D02*
X10670000Y-5220000D01*
X10670000Y-5180000D02*
X10630000Y-5220000D01*
X10680000Y-5480000D02*
X10720000Y-5520000D01*
X10720000Y-5480000D02*
X10680000Y-5520000D01*
X10680000Y-5730000D02*
X10720000Y-5770000D01*
X10720000Y-5730000D02*
X10680000Y-5770000D01*
X10730000Y-9080000D02*
X10770000Y-9120000D01*
X10770000Y-9080000D02*
X10730000Y-9120000D01*
X10730000Y-9230000D02*
X10770000Y-9270000D01*
X10770000Y-9230000D02*
X10730000Y-9270000D01*
X10730000Y-9405000D02*
X10770000Y-9445000D01*
X10770000Y-9405000D02*
X10730000Y-9445000D01*
X10740000Y-7125000D02*
X10780000Y-7165000D01*
X10780000Y-7125000D02*
X10740000Y-7165000D01*
X10750000Y-6240000D02*
X10790000Y-6280000D01*
X10790000Y-6240000D02*
X10750000Y-6280000D01*
X10880000Y-9080000D02*
X10920000Y-9120000D01*
X10920000Y-9080000D02*
X10880000Y-9120000D01*
X10880000Y-9230000D02*
X10920000Y-9270000D01*
X10920000Y-9230000D02*
X10880000Y-9270000D01*
X10880000Y-9405000D02*
X10920000Y-9445000D01*
X10920000Y-9405000D02*
X10880000Y-9445000D01*
X10930000Y-4930000D02*
X10970000Y-4970000D01*
X10970000Y-4930000D02*
X10930000Y-4970000D01*
X10930000Y-6695000D02*
X10970000Y-6735000D01*
X10970000Y-6695000D02*
X10930000Y-6735000D01*
X10955000Y-6555000D02*
X10995000Y-6595000D01*
X10995000Y-6555000D02*
X10955000Y-6595000D01*
X11030000Y-9080000D02*
X11070000Y-9120000D01*
X11070000Y-9080000D02*
X11030000Y-9120000D01*
X11030000Y-9230000D02*
X11070000Y-9270000D01*
X11070000Y-9230000D02*
X11030000Y-9270000D01*
X11030000Y-9405000D02*
X11070000Y-9445000D01*
X11070000Y-9405000D02*
X11030000Y-9445000D01*
X11040000Y-6890000D02*
X11080000Y-6930000D01*
X11080000Y-6890000D02*
X11040000Y-6930000D01*
X11055000Y-6555000D02*
X11095000Y-6595000D01*
X11095000Y-6555000D02*
X11055000Y-6595000D01*
X11280000Y-5355000D02*
X11320000Y-5395000D01*
X11320000Y-5355000D02*
X11280000Y-5395000D01*
X11280000Y-5480000D02*
X11320000Y-5520000D01*
X11320000Y-5480000D02*
X11280000Y-5520000D01*
X11358000Y-6960000D02*
X11398000Y-7000000D01*
X11398000Y-6960000D02*
X11358000Y-7000000D01*
X11418000Y-8405000D02*
X11458000Y-8445000D01*
X11458000Y-8405000D02*
X11418000Y-8445000D01*
X11418000Y-8530000D02*
X11458000Y-8570000D01*
X11458000Y-8530000D02*
X11418000Y-8570000D01*
X11418000Y-8655000D02*
X11458000Y-8695000D01*
X11458000Y-8655000D02*
X11418000Y-8695000D01*
X11418000Y-8780000D02*
X11458000Y-8820000D01*
X11458000Y-8780000D02*
X11418000Y-8820000D01*
X11543000Y-8355000D02*
X11583000Y-8395000D01*
X11583000Y-8355000D02*
X11543000Y-8395000D01*
X11543000Y-8480000D02*
X11583000Y-8520000D01*
X11583000Y-8480000D02*
X11543000Y-8520000D01*
X11543000Y-8605000D02*
X11583000Y-8645000D01*
X11583000Y-8605000D02*
X11543000Y-8645000D01*
X11543000Y-8730000D02*
X11583000Y-8770000D01*
X11583000Y-8730000D02*
X11543000Y-8770000D01*
X11550000Y-6120000D02*
X11590000Y-6160000D01*
X11590000Y-6120000D02*
X11550000Y-6160000D01*
X11805000Y-5655000D02*
X11845000Y-5695000D01*
X11845000Y-5655000D02*
X11805000Y-5695000D01*
X11850000Y-6360000D02*
X11890000Y-6400000D01*
X11890000Y-6360000D02*
X11850000Y-6400000D01*
X11930000Y-6555000D02*
X11970000Y-6595000D01*
X11970000Y-6555000D02*
X11930000Y-6595000D01*
X11980000Y-5705000D02*
X12020000Y-5745000D01*
X12020000Y-5705000D02*
X11980000Y-5745000D01*
X12030000Y-6555000D02*
X12070000Y-6595000D01*
X12070000Y-6555000D02*
X12030000Y-6595000D01*
X12218000Y-9080000D02*
X12258000Y-9120000D01*
X12258000Y-9080000D02*
X12218000Y-9120000D01*
X12218000Y-9230000D02*
X12258000Y-9270000D01*
X12258000Y-9230000D02*
X12218000Y-9270000D01*
X12218000Y-9405000D02*
X12258000Y-9445000D01*
X12258000Y-9405000D02*
X12218000Y-9445000D01*
X12228000Y-7125000D02*
X12268000Y-7165000D01*
X12268000Y-7125000D02*
X12228000Y-7165000D01*
X12300000Y-6430000D02*
X12340000Y-6470000D01*
X12340000Y-6430000D02*
X12300000Y-6470000D01*
X12368000Y-9080000D02*
X12408000Y-9120000D01*
X12408000Y-9080000D02*
X12368000Y-9120000D01*
X12368000Y-9230000D02*
X12408000Y-9270000D01*
X12408000Y-9230000D02*
X12368000Y-9270000D01*
X12368000Y-9405000D02*
X12408000Y-9445000D01*
X12408000Y-9405000D02*
X12368000Y-9445000D01*
X12405000Y-4755000D02*
X12445000Y-4795000D01*
X12445000Y-4755000D02*
X12405000Y-4795000D01*
X12418000Y-6695000D02*
X12458000Y-6735000D01*
X12458000Y-6695000D02*
X12418000Y-6735000D01*
X12430000Y-6555000D02*
X12470000Y-6595000D01*
X12470000Y-6555000D02*
X12430000Y-6595000D01*
X12518000Y-9080000D02*
X12558000Y-9120000D01*
X12558000Y-9080000D02*
X12518000Y-9120000D01*
X12518000Y-9230000D02*
X12558000Y-9270000D01*
X12558000Y-9230000D02*
X12518000Y-9270000D01*
X12518000Y-9405000D02*
X12558000Y-9445000D01*
X12558000Y-9405000D02*
X12518000Y-9445000D01*
X12528000Y-6890000D02*
X12568000Y-6930000D01*
X12568000Y-6890000D02*
X12528000Y-6930000D01*
X12530000Y-5205000D02*
X12570000Y-5245000D01*
X12570000Y-5205000D02*
X12530000Y-5245000D01*
X12530000Y-6555000D02*
X12570000Y-6595000D01*
X12570000Y-6555000D02*
X12530000Y-6595000D01*
X12833000Y-6960000D02*
X12873000Y-7000000D01*
X12873000Y-6960000D02*
X12833000Y-7000000D01*
X12893000Y-8405000D02*
X12933000Y-8445000D01*
X12933000Y-8405000D02*
X12893000Y-8445000D01*
X12893000Y-8530000D02*
X12933000Y-8570000D01*
X12933000Y-8530000D02*
X12893000Y-8570000D01*
X12893000Y-8655000D02*
X12933000Y-8695000D01*
X12933000Y-8655000D02*
X12893000Y-8695000D01*
X12893000Y-8780000D02*
X12933000Y-8820000D01*
X12933000Y-8780000D02*
X12893000Y-8820000D01*
X13018000Y-8355000D02*
X13058000Y-8395000D01*
X13058000Y-8355000D02*
X13018000Y-8395000D01*
X13018000Y-8480000D02*
X13058000Y-8520000D01*
X13058000Y-8480000D02*
X13018000Y-8520000D01*
X13018000Y-8605000D02*
X13058000Y-8645000D01*
X13058000Y-8605000D02*
X13018000Y-8645000D01*
X13018000Y-8730000D02*
X13058000Y-8770000D01*
X13058000Y-8730000D02*
X13018000Y-8770000D01*
X13405000Y-6555000D02*
X13445000Y-6595000D01*
X13445000Y-6555000D02*
X13405000Y-6595000D01*
X13430000Y-6255000D02*
X13470000Y-6295000D01*
X13470000Y-6255000D02*
X13430000Y-6295000D01*
X13505000Y-6555000D02*
X13545000Y-6595000D01*
X13545000Y-6555000D02*
X13505000Y-6595000D01*
X13630000Y-5200000D02*
X13670000Y-5240000D01*
X13670000Y-5200000D02*
X13630000Y-5240000D01*
X13693000Y-9080000D02*
X13733000Y-9120000D01*
X13733000Y-9080000D02*
X13693000Y-9120000D01*
X13693000Y-9230000D02*
X13733000Y-9270000D01*
X13733000Y-9230000D02*
X13693000Y-9270000D01*
X13693000Y-9405000D02*
X13733000Y-9445000D01*
X13733000Y-9405000D02*
X13693000Y-9445000D01*
X13703000Y-7125000D02*
X13743000Y-7165000D01*
X13743000Y-7125000D02*
X13703000Y-7165000D01*
X13720000Y-5450000D02*
X13760000Y-5490000D01*
X13760000Y-5450000D02*
X13720000Y-5490000D01*
X13730000Y-5210000D02*
X13770000Y-5250000D01*
X13770000Y-5210000D02*
X13730000Y-5250000D01*
X13760000Y-5800000D02*
X13800000Y-5840000D01*
X13800000Y-5800000D02*
X13760000Y-5840000D01*
X13760000Y-6070000D02*
X13800000Y-6110000D01*
X13800000Y-6070000D02*
X13760000Y-6110000D01*
X13843000Y-9080000D02*
X13883000Y-9120000D01*
X13883000Y-9080000D02*
X13843000Y-9120000D01*
X13843000Y-9230000D02*
X13883000Y-9270000D01*
X13883000Y-9230000D02*
X13843000Y-9270000D01*
X13843000Y-9405000D02*
X13883000Y-9445000D01*
X13883000Y-9405000D02*
X13843000Y-9445000D01*
X13855000Y-5210000D02*
X13895000Y-5250000D01*
X13895000Y-5210000D02*
X13855000Y-5250000D01*
X13880000Y-6070000D02*
X13920000Y-6110000D01*
X13920000Y-6070000D02*
X13880000Y-6110000D01*
X13893000Y-6695000D02*
X13933000Y-6735000D01*
X13933000Y-6695000D02*
X13893000Y-6735000D01*
X13900000Y-4850000D02*
X13940000Y-4890000D01*
X13940000Y-4850000D02*
X13900000Y-4890000D01*
X13993000Y-9080000D02*
X14033000Y-9120000D01*
X14033000Y-9080000D02*
X13993000Y-9120000D01*
X13993000Y-9230000D02*
X14033000Y-9270000D01*
X14033000Y-9230000D02*
X13993000Y-9270000D01*
X13993000Y-9405000D02*
X14033000Y-9445000D01*
X14033000Y-9405000D02*
X13993000Y-9445000D01*
X14000000Y-4850000D02*
X14040000Y-4890000D01*
X14040000Y-4850000D02*
X14000000Y-4890000D01*
X14003000Y-6890000D02*
X14043000Y-6930000D01*
X14043000Y-6890000D02*
X14003000Y-6930000D01*
X14005000Y-6405000D02*
X14045000Y-6445000D01*
X14045000Y-6405000D02*
X14005000Y-6445000D01*
X14100000Y-4840000D02*
X14140000Y-4880000D01*
X14140000Y-4840000D02*
X14100000Y-4880000D01*
X14105000Y-11330000D02*
X14145000Y-11370000D01*
X14145000Y-11330000D02*
X14105000Y-11370000D01*
X14220000Y-5520000D02*
X14260000Y-5560000D01*
X14260000Y-5520000D02*
X14220000Y-5560000D01*
X14380000Y-7855000D02*
X14420000Y-7895000D01*
X14420000Y-7855000D02*
X14380000Y-7895000D01*
X14505000Y-6605000D02*
X14545000Y-6645000D01*
X14545000Y-6605000D02*
X14505000Y-6645000D01*
X14557020Y-6960340D02*
X14597020Y-7000340D01*
X14597020Y-6960340D02*
X14557020Y-7000340D01*
X14605000Y-6605000D02*
X14645000Y-6645000D01*
X14645000Y-6605000D02*
X14605000Y-6645000D01*
X14617020Y-8405340D02*
X14657020Y-8445340D01*
X14657020Y-8405340D02*
X14617020Y-8445340D01*
X14617020Y-8530340D02*
X14657020Y-8570340D01*
X14657020Y-8530340D02*
X14617020Y-8570340D01*
X14617020Y-8655340D02*
X14657020Y-8695340D01*
X14657020Y-8655340D02*
X14617020Y-8695340D01*
X14617020Y-8780340D02*
X14657020Y-8820340D01*
X14657020Y-8780340D02*
X14617020Y-8820340D01*
X14680000Y-5405000D02*
X14720000Y-5445000D01*
X14720000Y-5405000D02*
X14680000Y-5445000D01*
X14730000Y-5790000D02*
X14770000Y-5830000D01*
X14770000Y-5790000D02*
X14730000Y-5830000D01*
X14742020Y-8355340D02*
X14782020Y-8395340D01*
X14782020Y-8355340D02*
X14742020Y-8395340D01*
X14742020Y-8480340D02*
X14782020Y-8520340D01*
X14782020Y-8480340D02*
X14742020Y-8520340D01*
X14742020Y-8605340D02*
X14782020Y-8645340D01*
X14782020Y-8605340D02*
X14742020Y-8645340D01*
X14742020Y-8730340D02*
X14782020Y-8770340D01*
X14782020Y-8730340D02*
X14742020Y-8770340D01*
X14800000Y-5940000D02*
X14840000Y-5980000D01*
X14840000Y-5940000D02*
X14800000Y-5980000D01*
X14810000Y-5710000D02*
X14850000Y-5750000D01*
X14850000Y-5710000D02*
X14810000Y-5750000D01*
X14830000Y-5105000D02*
X14870000Y-5145000D01*
X14870000Y-5105000D02*
X14830000Y-5145000D01*
X14880000Y-11280000D02*
X14920000Y-11320000D01*
X14920000Y-11280000D02*
X14880000Y-11320000D01*
X15130000Y-6605000D02*
X15170000Y-6645000D01*
X15170000Y-6605000D02*
X15130000Y-6645000D01*
X15155000Y-6055000D02*
X15195000Y-6095000D01*
X15195000Y-6055000D02*
X15155000Y-6095000D01*
X15200000Y-6430000D02*
X15240000Y-6470000D01*
X15240000Y-6430000D02*
X15200000Y-6470000D01*
X15255000Y-6604999D02*
X15295000Y-6644999D01*
X15295000Y-6604999D02*
X15255000Y-6644999D01*
X15270000Y-5160000D02*
X15310000Y-5200000D01*
X15310000Y-5160000D02*
X15270000Y-5200000D01*
X15370000Y-5580000D02*
X15410000Y-5620000D01*
X15410000Y-5580000D02*
X15370000Y-5620000D01*
X15370000Y-5840000D02*
X15410000Y-5880000D01*
X15410000Y-5840000D02*
X15370000Y-5880000D01*
X15410000Y-5330000D02*
X15450000Y-5370000D01*
X15450000Y-5330000D02*
X15410000Y-5370000D01*
X15417020Y-9080340D02*
X15457020Y-9120340D01*
X15457020Y-9080340D02*
X15417020Y-9120340D01*
X15417020Y-9230340D02*
X15457020Y-9270340D01*
X15457020Y-9230340D02*
X15417020Y-9270340D01*
X15417020Y-9405340D02*
X15457020Y-9445340D01*
X15457020Y-9405340D02*
X15417020Y-9445340D01*
X15427020Y-7125340D02*
X15467020Y-7165340D01*
X15467020Y-7125340D02*
X15427020Y-7165340D01*
X15430000Y-5750000D02*
X15470000Y-5790000D01*
X15470000Y-5750000D02*
X15430000Y-5790000D01*
X15430000Y-6240000D02*
X15470000Y-6280000D01*
X15470000Y-6240000D02*
X15430000Y-6280000D01*
X15486990Y-6465001D02*
X15526990Y-6505001D01*
X15526990Y-6465001D02*
X15486990Y-6505001D01*
X15500000Y-5390000D02*
X15540000Y-5430000D01*
X15540000Y-5390000D02*
X15500000Y-5430000D01*
X15500000Y-6320000D02*
X15540000Y-6360000D01*
X15540000Y-6320000D02*
X15500000Y-6360000D01*
X15505000Y-5680000D02*
X15545000Y-5720000D01*
X15545000Y-5680000D02*
X15505000Y-5720000D01*
X15510000Y-5490000D02*
X15550000Y-5530000D01*
X15550000Y-5490000D02*
X15510000Y-5530000D01*
X15567020Y-9080340D02*
X15607020Y-9120340D01*
X15607020Y-9080340D02*
X15567020Y-9120340D01*
X15567020Y-9230340D02*
X15607020Y-9270340D01*
X15607020Y-9230340D02*
X15567020Y-9270340D01*
X15567020Y-9405340D02*
X15607020Y-9445340D01*
X15607020Y-9405340D02*
X15567020Y-9445340D01*
X15617020Y-6695340D02*
X15657020Y-6735340D01*
X15657020Y-6695340D02*
X15617020Y-6735340D01*
X15620000Y-5870000D02*
X15660000Y-5910000D01*
X15660000Y-5870000D02*
X15620000Y-5910000D01*
X15630000Y-5355000D02*
X15670000Y-5395000D01*
X15670000Y-5355000D02*
X15630000Y-5395000D01*
X15630000Y-6555000D02*
X15670000Y-6595000D01*
X15670000Y-6555000D02*
X15630000Y-6595000D01*
X15717020Y-9080340D02*
X15757020Y-9120340D01*
X15757020Y-9080340D02*
X15717020Y-9120340D01*
X15717020Y-9230340D02*
X15757020Y-9270340D01*
X15757020Y-9230340D02*
X15717020Y-9270340D01*
X15717020Y-9405340D02*
X15757020Y-9445340D01*
X15757020Y-9405340D02*
X15717020Y-9445340D01*
X15727020Y-6890340D02*
X15767020Y-6930340D01*
X15767020Y-6890340D02*
X15727020Y-6930340D01*
X15730000Y-5040000D02*
X15770000Y-5080000D01*
X15770000Y-5040000D02*
X15730000Y-5080000D01*
X15730000Y-6555000D02*
X15770000Y-6595000D01*
X15770000Y-6555000D02*
X15730000Y-6595000D01*
X15760000Y-6160000D02*
X15800000Y-6200000D01*
X15800000Y-6160000D02*
X15760000Y-6200000D01*
X15880000Y-5050000D02*
X15920000Y-5090000D01*
X15920000Y-5050000D02*
X15880000Y-5090000D01*
X15890000Y-5700000D02*
X15930000Y-5740000D01*
X15930000Y-5700000D02*
X15890000Y-5740000D01*
X15896266Y-5806266D02*
X15936266Y-5846266D01*
X15936266Y-5806266D02*
X15896266Y-5846266D01*
X15900000Y-5440000D02*
X15940000Y-5480000D01*
X15940000Y-5440000D02*
X15900000Y-5480000D01*
X16015000Y-6120000D02*
X16055000Y-6160000D01*
X16055000Y-6120000D02*
X16015000Y-6160000D01*
X16017118Y-6020021D02*
X16057118Y-6060021D01*
X16057118Y-6020021D02*
X16017118Y-6060021D01*
X16040000Y-5195001D02*
X16080000Y-5235001D01*
X16080000Y-5195001D02*
X16040000Y-5235001D01*
X16045020Y-6960340D02*
X16085020Y-7000340D01*
X16085020Y-6960340D02*
X16045020Y-7000340D01*
X16105020Y-8405340D02*
X16145020Y-8445340D01*
X16145020Y-8405340D02*
X16105020Y-8445340D01*
X16105020Y-8530340D02*
X16145020Y-8570340D01*
X16145020Y-8530340D02*
X16105020Y-8570340D01*
X16105020Y-8655340D02*
X16145020Y-8695340D01*
X16145020Y-8655340D02*
X16105020Y-8695340D01*
X16105020Y-8780340D02*
X16145020Y-8820340D01*
X16145020Y-8780340D02*
X16105020Y-8820340D01*
X16230020Y-8355340D02*
X16270020Y-8395340D01*
X16270020Y-8355340D02*
X16230020Y-8395340D01*
X16230020Y-8480340D02*
X16270020Y-8520340D01*
X16270020Y-8480340D02*
X16230020Y-8520340D01*
X16230020Y-8605340D02*
X16270020Y-8645340D01*
X16270020Y-8605340D02*
X16230020Y-8645340D01*
X16230020Y-8730340D02*
X16270020Y-8770340D01*
X16270020Y-8730340D02*
X16230020Y-8770340D01*
X16379320Y-6351145D02*
X16419320Y-6391145D01*
X16419320Y-6351145D02*
X16379320Y-6391145D01*
X16430522Y-6265246D02*
X16470522Y-6305246D01*
X16470522Y-6265246D02*
X16430522Y-6305246D01*
X16480326Y-6120245D02*
X16520326Y-6160245D01*
X16520326Y-6120245D02*
X16480326Y-6160245D01*
X16512496Y-5887504D02*
X16552496Y-5927504D01*
X16552496Y-5887504D02*
X16512496Y-5927504D01*
X16512502Y-5991724D02*
X16552502Y-6031724D01*
X16552502Y-5991724D02*
X16512502Y-6031724D01*
X16520001Y-6220000D02*
X16560001Y-6260000D01*
X16560001Y-6220000D02*
X16520001Y-6260000D01*
X16531944Y-5789412D02*
X16571944Y-5829412D01*
X16571944Y-5789412D02*
X16531944Y-5829412D01*
X16605000Y-6555000D02*
X16645000Y-6595000D01*
X16645000Y-6555000D02*
X16605000Y-6595000D01*
X16620216Y-5242501D02*
X16660216Y-5282501D01*
X16660216Y-5242501D02*
X16620216Y-5282501D01*
X16705000Y-6555000D02*
X16745000Y-6595000D01*
X16745000Y-6555000D02*
X16705000Y-6595000D01*
X16720000Y-6432501D02*
X16760000Y-6472501D01*
X16760000Y-6432501D02*
X16720000Y-6472501D01*
X16830000Y-5960000D02*
X16870000Y-6000000D01*
X16870000Y-5960000D02*
X16830000Y-6000000D01*
X16850000Y-5310000D02*
X16890000Y-5350000D01*
X16890000Y-5310000D02*
X16850000Y-5350000D01*
X16850000Y-6160000D02*
X16890000Y-6200000D01*
X16890000Y-6160000D02*
X16850000Y-6200000D01*
X16905020Y-9080340D02*
X16945020Y-9120340D01*
X16945020Y-9080340D02*
X16905020Y-9120340D01*
X16905020Y-9230340D02*
X16945020Y-9270340D01*
X16945020Y-9230340D02*
X16905020Y-9270340D01*
X16905020Y-9405340D02*
X16945020Y-9445340D01*
X16945020Y-9405340D02*
X16905020Y-9445340D01*
X16915020Y-7125340D02*
X16955020Y-7165340D01*
X16955020Y-7125340D02*
X16915020Y-7165340D01*
X16947549Y-6192501D02*
X16987549Y-6232501D01*
X16987549Y-6192501D02*
X16947549Y-6232501D01*
X16950000Y-5210000D02*
X16990000Y-5250000D01*
X16990000Y-5210000D02*
X16950000Y-5250000D01*
X16954801Y-5963001D02*
X16994801Y-6003001D01*
X16994801Y-5963001D02*
X16954801Y-6003001D01*
X16970000Y-6430000D02*
X17010000Y-6470000D01*
X17010000Y-6430000D02*
X16970000Y-6470000D01*
X17030000Y-4770000D02*
X17070000Y-4810000D01*
X17070000Y-4770000D02*
X17030000Y-4810000D01*
X17040000Y-6252501D02*
X17080000Y-6292501D01*
X17080000Y-6252501D02*
X17040000Y-6292501D01*
X17055020Y-9080340D02*
X17095020Y-9120340D01*
X17095020Y-9080340D02*
X17055020Y-9120340D01*
X17055020Y-9230340D02*
X17095020Y-9270340D01*
X17095020Y-9230340D02*
X17055020Y-9270340D01*
X17055020Y-9405340D02*
X17095020Y-9445340D01*
X17095020Y-9405340D02*
X17055020Y-9445340D01*
X17060000Y-5960000D02*
X17100000Y-6000000D01*
X17100000Y-5960000D02*
X17060000Y-6000000D01*
X17080000Y-4930000D02*
X17120000Y-4970000D01*
X17120000Y-4930000D02*
X17080000Y-4970000D01*
X17105020Y-6695340D02*
X17145020Y-6735340D01*
X17145020Y-6695340D02*
X17105020Y-6735340D01*
X17130000Y-6555000D02*
X17170000Y-6595000D01*
X17170000Y-6555000D02*
X17130000Y-6595000D01*
X17200000Y-6330000D02*
X17240000Y-6370000D01*
X17240000Y-6330000D02*
X17200000Y-6370000D01*
X17205020Y-9080340D02*
X17245020Y-9120340D01*
X17245020Y-9080340D02*
X17205020Y-9120340D01*
X17205020Y-9230340D02*
X17245020Y-9270340D01*
X17245020Y-9230340D02*
X17205020Y-9270340D01*
X17205020Y-9405340D02*
X17245020Y-9445340D01*
X17245020Y-9405340D02*
X17205020Y-9445340D01*
X17215020Y-6890340D02*
X17255020Y-6930340D01*
X17255020Y-6890340D02*
X17215020Y-6930340D01*
X17360000Y-5310000D02*
X17400000Y-5350000D01*
X17400000Y-5310000D02*
X17360000Y-5350000D01*
X17410000Y-5022496D02*
X17450000Y-5062496D01*
X17450000Y-5022496D02*
X17410000Y-5062496D01*
X17520020Y-6960340D02*
X17560020Y-7000340D01*
X17560020Y-6960340D02*
X17520020Y-7000340D01*
X17580020Y-8405340D02*
X17620020Y-8445340D01*
X17620020Y-8405340D02*
X17580020Y-8445340D01*
X17580020Y-8530340D02*
X17620020Y-8570340D01*
X17620020Y-8530340D02*
X17580020Y-8570340D01*
X17580020Y-8655340D02*
X17620020Y-8695340D01*
X17620020Y-8655340D02*
X17580020Y-8695340D01*
X17580020Y-8780340D02*
X17620020Y-8820340D01*
X17620020Y-8780340D02*
X17580020Y-8820340D01*
X17705020Y-8355340D02*
X17745020Y-8395340D01*
X17745020Y-8355340D02*
X17705020Y-8395340D01*
X17705020Y-8480340D02*
X17745020Y-8520340D01*
X17745020Y-8480340D02*
X17705020Y-8520340D01*
X17705020Y-8605340D02*
X17745020Y-8645340D01*
X17745020Y-8605340D02*
X17705020Y-8645340D01*
X17705020Y-8730340D02*
X17745020Y-8770340D01*
X17745020Y-8730340D02*
X17705020Y-8770340D01*
X17930000Y-5050000D02*
X17970000Y-5090000D01*
X17970000Y-5050000D02*
X17930000Y-5090000D01*
X18290000Y-5090000D02*
X18330000Y-5130000D01*
X18330000Y-5090000D02*
X18290000Y-5130000D01*
X18310000Y-5480000D02*
X18350000Y-5520000D01*
X18350000Y-5480000D02*
X18310000Y-5520000D01*
X18350000Y-6390000D02*
X18390000Y-6430000D01*
X18390000Y-6390000D02*
X18350000Y-6430000D01*
X18380020Y-9080340D02*
X18420020Y-9120340D01*
X18420020Y-9080340D02*
X18380020Y-9120340D01*
X18380020Y-9230340D02*
X18420020Y-9270340D01*
X18420020Y-9230340D02*
X18380020Y-9270340D01*
X18380020Y-9405340D02*
X18420020Y-9445340D01*
X18420020Y-9405340D02*
X18380020Y-9445340D01*
X18390020Y-7125340D02*
X18430020Y-7165340D01*
X18430020Y-7125340D02*
X18390020Y-7165340D01*
X18530020Y-9080340D02*
X18570020Y-9120340D01*
X18570020Y-9080340D02*
X18530020Y-9120340D01*
X18530020Y-9230340D02*
X18570020Y-9270340D01*
X18570020Y-9230340D02*
X18530020Y-9270340D01*
X18530020Y-9405340D02*
X18570020Y-9445340D01*
X18570020Y-9405340D02*
X18530020Y-9445340D01*
X18580020Y-6695340D02*
X18620020Y-6735340D01*
X18620020Y-6695340D02*
X18580020Y-6735340D01*
X18680020Y-9080340D02*
X18720020Y-9120340D01*
X18720020Y-9080340D02*
X18680020Y-9120340D01*
X18680020Y-9230340D02*
X18720020Y-9270340D01*
X18720020Y-9230340D02*
X18680020Y-9270340D01*
X18680020Y-9405340D02*
X18720020Y-9445340D01*
X18720020Y-9405340D02*
X18680020Y-9445340D01*
X18690020Y-6890340D02*
X18730020Y-6930340D01*
X18730020Y-6890340D02*
X18690020Y-6930340D01*
X9240000Y-8455000D02*
X9280000Y-8495000D01*
X9280000Y-8455000D02*
X9240000Y-8495000D01*
X9240000Y-9505000D02*
X9280000Y-9545000D01*
X9280000Y-9505000D02*
X9240000Y-9545000D01*
X9288327Y-8338327D02*
X9328327Y-8378327D01*
X9328327Y-8338327D02*
X9288327Y-8378327D01*
X9288327Y-9621673D02*
X9328327Y-9661673D01*
X9328327Y-9621673D02*
X9288327Y-9661673D01*
X9405000Y-8290000D02*
X9445000Y-8330000D01*
X9445000Y-8290000D02*
X9405000Y-8330000D01*
X9405000Y-9670000D02*
X9445000Y-9710000D01*
X9445000Y-9670000D02*
X9405000Y-9710000D01*
X9521673Y-8338327D02*
X9561673Y-8378327D01*
X9561673Y-8338327D02*
X9521673Y-8378327D01*
X9521673Y-8571673D02*
X9561673Y-8611673D01*
X9561673Y-8571673D02*
X9521673Y-8611673D01*
X9521673Y-9388327D02*
X9561673Y-9428327D01*
X9561673Y-9388327D02*
X9521673Y-9428327D01*
X9521673Y-9621673D02*
X9561673Y-9661673D01*
X9561673Y-9621673D02*
X9521673Y-9661673D01*
X9570000Y-8455000D02*
X9610000Y-8495000D01*
X9610000Y-8455000D02*
X9570000Y-8495000D01*
X9570000Y-9505000D02*
X9610000Y-9545000D01*
X9610000Y-9505000D02*
X9570000Y-9545000D01*
X17352500Y-4650000D02*
G75*
G03X17352500Y-4650000I-25000J0D01*
G01*
X17342500Y-4685000D02*
X17342500Y-4615000D01*
X17312500Y-4685000D02*
X17312500Y-4615000D01*
X17342500Y-4615000D02*
G75*
G03X17312500Y-4615000I-15000J0D01*
G01*
X17312500Y-4685000D02*
G75*
G03X17342500Y-4685000I15000J0D01*
G01*
X17917500Y-4650000D02*
G75*
G03X17917500Y-4650000I-25000J0D01*
G01*
X17907500Y-4685000D02*
X17907500Y-4615000D01*
X17877500Y-4685000D02*
X17877500Y-4615000D01*
X17907500Y-4615000D02*
G75*
G03X17877500Y-4615000I-15000J0D01*
G01*
X17877500Y-4685000D02*
G75*
G03X17907500Y-4685000I15000J0D01*
G01*
X12048000Y-5977500D02*
X12048000Y-6042500D01*
X12015500Y-6010000D02*
X12080500Y-6010000D01*
X12175000Y-5977500D02*
X12175000Y-6042500D01*
X12142500Y-6010000D02*
X12207500Y-6010000D01*
X12475000Y-5892500D02*
X12475000Y-5957500D01*
X12442500Y-5925000D02*
X12507500Y-5925000D01*
X12475000Y-6019500D02*
X12475000Y-6084500D01*
X12442500Y-6052000D02*
X12507500Y-6052000D01*
X14600000Y-7857500D02*
X14600000Y-7922500D01*
X14567500Y-7890000D02*
X14632500Y-7890000D01*
X14727000Y-7857500D02*
X14727000Y-7922500D01*
X14694500Y-7890000D02*
X14759500Y-7890000D01*
X16260376Y-7177696D02*
X16260376Y-7106984D01*
X16189664Y-7106984D01*
X16189664Y-7177696D01*
X16260376Y-7177696D01*
X16260376Y-7685696D02*
X16260376Y-7614984D01*
X16189664Y-7614984D01*
X16189664Y-7685696D01*
X16260376Y-7685696D01*
X14098356Y-8335356D02*
X14098356Y-8264644D01*
X14027644Y-8264644D01*
X14027644Y-8335356D01*
X14098356Y-8335356D01*
X14098356Y-8843356D02*
X14098356Y-8772644D01*
X14027644Y-8772644D01*
X14027644Y-8843356D01*
X14098356Y-8843356D01*
X15822376Y-8335696D02*
X15822376Y-8264984D01*
X15751664Y-8264984D01*
X15751664Y-8335696D01*
X15822376Y-8335696D01*
X15822376Y-8843696D02*
X15822376Y-8772984D01*
X15751664Y-8772984D01*
X15751664Y-8843696D01*
X15822376Y-8843696D01*
X15472376Y-8335696D02*
X15472376Y-8264984D01*
X15401664Y-8264984D01*
X15401664Y-8335696D01*
X15472376Y-8335696D01*
X15472376Y-8843696D02*
X15472376Y-8772984D01*
X15401664Y-8772984D01*
X15401664Y-8843696D01*
X15472376Y-8843696D01*
X12623356Y-8335356D02*
X12623356Y-8264644D01*
X12552644Y-8264644D01*
X12552644Y-8335356D01*
X12623356Y-8335356D01*
X12623356Y-8843356D02*
X12623356Y-8772644D01*
X12552644Y-8772644D01*
X12552644Y-8843356D01*
X12623356Y-8843356D01*
X18785376Y-8335696D02*
X18785376Y-8264984D01*
X18714664Y-8264984D01*
X18714664Y-8335696D01*
X18785376Y-8335696D01*
X18785376Y-8843696D02*
X18785376Y-8772984D01*
X18714664Y-8772984D01*
X18714664Y-8843696D01*
X18785376Y-8843696D01*
X11135356Y-8335356D02*
X11135356Y-8264644D01*
X11064644Y-8264644D01*
X11064644Y-8335356D01*
X11135356Y-8335356D01*
X11135356Y-8843356D02*
X11135356Y-8772644D01*
X11064644Y-8772644D01*
X11064644Y-8843356D01*
X11135356Y-8843356D01*
X17735376Y-7177696D02*
X17735376Y-7106984D01*
X17664664Y-7106984D01*
X17664664Y-7177696D01*
X17735376Y-7177696D01*
X17735376Y-7685696D02*
X17735376Y-7614984D01*
X17664664Y-7614984D01*
X17664664Y-7685696D01*
X17735376Y-7685696D01*
X18435376Y-8335696D02*
X18435376Y-8264984D01*
X18364664Y-8264984D01*
X18364664Y-8335696D01*
X18435376Y-8335696D01*
X18435376Y-8843696D02*
X18435376Y-8772984D01*
X18364664Y-8772984D01*
X18364664Y-8843696D01*
X18435376Y-8843696D01*
X16960376Y-8335696D02*
X16960376Y-8264984D01*
X16889664Y-8264984D01*
X16889664Y-8335696D01*
X16960376Y-8335696D01*
X16960376Y-8843696D02*
X16960376Y-8772984D01*
X16889664Y-8772984D01*
X16889664Y-8843696D01*
X16960376Y-8843696D01*
X13006356Y-4885356D02*
X13006356Y-4814644D01*
X12935644Y-4814644D01*
X12935644Y-4885356D01*
X13006356Y-4885356D01*
X13260356Y-4885356D02*
X13260356Y-4814644D01*
X13189644Y-4814644D01*
X13189644Y-4885356D01*
X13260356Y-4885356D01*
X13514356Y-4885356D02*
X13514356Y-4814644D01*
X13443644Y-4814644D01*
X13443644Y-4885356D01*
X13514356Y-4885356D01*
X13768356Y-4885356D02*
X13768356Y-4814644D01*
X13697644Y-4814644D01*
X13697644Y-4885356D01*
X13768356Y-4885356D01*
X18710356Y-5509356D02*
X18710356Y-5438644D01*
X18639644Y-5438644D01*
X18639644Y-5509356D01*
X18710356Y-5509356D01*
X18710356Y-5763356D02*
X18710356Y-5692644D01*
X18639644Y-5692644D01*
X18639644Y-5763356D01*
X18710356Y-5763356D01*
X18710356Y-6017356D02*
X18710356Y-5946644D01*
X18639644Y-5946644D01*
X18639644Y-6017356D01*
X18710356Y-6017356D01*
X18710356Y-6271356D02*
X18710356Y-6200644D01*
X18639644Y-6200644D01*
X18639644Y-6271356D01*
X18710356Y-6271356D01*
X18710356Y-6525356D02*
X18710356Y-6454644D01*
X18639644Y-6454644D01*
X18639644Y-6525356D01*
X18710356Y-6525356D01*
X14772376Y-7177696D02*
X14772376Y-7106984D01*
X14701664Y-7106984D01*
X14701664Y-7177696D01*
X14772376Y-7177696D01*
X14772376Y-7685696D02*
X14772376Y-7614984D01*
X14701664Y-7614984D01*
X14701664Y-7685696D01*
X14772376Y-7685696D01*
X10785356Y-8335356D02*
X10785356Y-8264644D01*
X10714644Y-8264644D01*
X10714644Y-8335356D01*
X10785356Y-8335356D01*
X10785356Y-8843356D02*
X10785356Y-8772644D01*
X10714644Y-8772644D01*
X10714644Y-8843356D01*
X10785356Y-8843356D01*
X17235356Y-5660356D02*
X17235356Y-5589644D01*
X17164644Y-5589644D01*
X17164644Y-5660356D01*
X17235356Y-5660356D01*
X17235356Y-5914356D02*
X17235356Y-5843644D01*
X17164644Y-5843644D01*
X17164644Y-5914356D01*
X17235356Y-5914356D01*
X17489356Y-5660356D02*
X17489356Y-5589644D01*
X17418644Y-5589644D01*
X17418644Y-5660356D01*
X17489356Y-5660356D01*
X17489356Y-5914356D02*
X17489356Y-5843644D01*
X17418644Y-5843644D01*
X17418644Y-5914356D01*
X17489356Y-5914356D01*
X17743356Y-5660356D02*
X17743356Y-5589644D01*
X17672644Y-5589644D01*
X17672644Y-5660356D01*
X17743356Y-5660356D01*
X17743356Y-5914356D02*
X17743356Y-5843644D01*
X17672644Y-5843644D01*
X17672644Y-5914356D01*
X17743356Y-5914356D01*
X17997356Y-5660356D02*
X17997356Y-5589644D01*
X17926644Y-5589644D01*
X17926644Y-5660356D01*
X17997356Y-5660356D01*
X17997356Y-5914356D02*
X17997356Y-5843644D01*
X17926644Y-5843644D01*
X17926644Y-5914356D01*
X17997356Y-5914356D01*
X18251356Y-5660356D02*
X18251356Y-5589644D01*
X18180644Y-5589644D01*
X18180644Y-5660356D01*
X18251356Y-5660356D01*
X18251356Y-5914356D02*
X18251356Y-5843644D01*
X18180644Y-5843644D01*
X18180644Y-5914356D01*
X18251356Y-5914356D01*
X13748356Y-8335356D02*
X13748356Y-8264644D01*
X13677644Y-8264644D01*
X13677644Y-8335356D01*
X13748356Y-8335356D01*
X13748356Y-8843356D02*
X13748356Y-8772644D01*
X13677644Y-8772644D01*
X13677644Y-8843356D01*
X13748356Y-8843356D01*
X12273356Y-8335356D02*
X12273356Y-8264644D01*
X12202644Y-8264644D01*
X12202644Y-8335356D01*
X12273356Y-8335356D01*
X12273356Y-8843356D02*
X12273356Y-8772644D01*
X12202644Y-8772644D01*
X12202644Y-8843356D01*
X12273356Y-8843356D01*
X12835356Y-5501356D02*
X12835356Y-5430644D01*
X12764644Y-5430644D01*
X12764644Y-5501356D01*
X12835356Y-5501356D01*
X12835356Y-5755356D02*
X12835356Y-5684644D01*
X12764644Y-5684644D01*
X12764644Y-5755356D01*
X12835356Y-5755356D01*
X13089356Y-5501356D02*
X13089356Y-5430644D01*
X13018644Y-5430644D01*
X13018644Y-5501356D01*
X13089356Y-5501356D01*
X13089356Y-5755356D02*
X13089356Y-5684644D01*
X13018644Y-5684644D01*
X13018644Y-5755356D01*
X13089356Y-5755356D01*
X13343356Y-5501356D02*
X13343356Y-5430644D01*
X13272644Y-5430644D01*
X13272644Y-5501356D01*
X13343356Y-5501356D01*
X13343356Y-5755356D02*
X13343356Y-5684644D01*
X13272644Y-5684644D01*
X13272644Y-5755356D01*
X13343356Y-5755356D01*
X10085356Y-7177356D02*
X10085356Y-7106644D01*
X10014644Y-7106644D01*
X10014644Y-7177356D01*
X10085356Y-7177356D01*
X10085356Y-7685356D02*
X10085356Y-7614644D01*
X10014644Y-7614644D01*
X10014644Y-7685356D01*
X10085356Y-7685356D01*
X13048356Y-7177356D02*
X13048356Y-7106644D01*
X12977644Y-7106644D01*
X12977644Y-7177356D01*
X13048356Y-7177356D01*
X13048356Y-7685356D02*
X13048356Y-7614644D01*
X12977644Y-7614644D01*
X12977644Y-7685356D01*
X13048356Y-7685356D01*
X16135356Y-4885356D02*
X16135356Y-4814644D01*
X16064644Y-4814644D01*
X16064644Y-4885356D01*
X16135356Y-4885356D01*
X16389356Y-4885356D02*
X16389356Y-4814644D01*
X16318644Y-4814644D01*
X16318644Y-4885356D01*
X16389356Y-4885356D01*
X16643356Y-4885356D02*
X16643356Y-4814644D01*
X16572644Y-4814644D01*
X16572644Y-4885356D01*
X16643356Y-4885356D01*
X16897356Y-4885356D02*
X16897356Y-4814644D01*
X16826644Y-4814644D01*
X16826644Y-4885356D01*
X16897356Y-4885356D01*
X17310376Y-8335696D02*
X17310376Y-8264984D01*
X17239664Y-8264984D01*
X17239664Y-8335696D01*
X17310376Y-8335696D01*
X17310376Y-8843696D02*
X17310376Y-8772984D01*
X17239664Y-8772984D01*
X17239664Y-8843696D01*
X17310376Y-8843696D01*
X11573356Y-7177356D02*
X11573356Y-7106644D01*
X11502644Y-7106644D01*
X11502644Y-7177356D01*
X11573356Y-7177356D01*
X11573356Y-7685356D02*
X11573356Y-7614644D01*
X11502644Y-7614644D01*
X11502644Y-7685356D01*
X11573356Y-7685356D01*
X9350000Y-8805000D02*
X9405000Y-8750000D01*
X9350000Y-8695000D01*
X9295000Y-8750000D01*
X9350000Y-8805000D01*
X9350000Y-9305000D02*
X9405000Y-9250000D01*
X9350000Y-9195000D01*
X9295000Y-9250000D01*
X9350000Y-9305000D01*
X11750000Y-11310000D02*
X11805000Y-11255000D01*
X11750000Y-11200000D01*
X11695000Y-11255000D01*
X11750000Y-11310000D01*
X12250000Y-11310000D02*
X12305000Y-11255000D01*
X12250000Y-11200000D01*
X12195000Y-11255000D01*
X12250000Y-11310000D01*
X12750000Y-11310000D02*
X12805000Y-11255000D01*
X12750000Y-11200000D01*
X12695000Y-11255000D01*
X12750000Y-11310000D01*
X11525000Y-4775000D02*
X11580000Y-4720000D01*
X11525000Y-4665000D01*
X11470000Y-4720000D01*
X11525000Y-4775000D01*
X12025000Y-4775000D02*
X12080000Y-4720000D01*
X12025000Y-4665000D01*
X11970000Y-4720000D01*
X12025000Y-4775000D01*
X16435000Y-11310000D02*
X16490000Y-11255000D01*
X16435000Y-11200000D01*
X16380000Y-11255000D01*
X16435000Y-11310000D01*
X16935000Y-11310000D02*
X16990000Y-11255000D01*
X16935000Y-11200000D01*
X16880000Y-11255000D01*
X16935000Y-11310000D01*
X17435000Y-11310000D02*
X17490000Y-11255000D01*
X17435000Y-11200000D01*
X17380000Y-11255000D01*
X17435000Y-11310000D01*
X17580000Y-10195000D02*
X17720000Y-10335000D01*
X17720000Y-10195000D02*
X17580000Y-10335000D01*
X17720000Y-10265000D02*
G75*
G03X17720000Y-10265000I-70000J0D01*
G01*
X18617500Y-10195000D02*
X18757500Y-10335000D01*
X18757500Y-10195000D02*
X18617500Y-10335000D01*
X18757500Y-10265000D02*
G75*
G03X18757500Y-10265000I-70000J0D01*
G01*
X16102500Y-10195000D02*
X16242500Y-10335000D01*
X16242500Y-10195000D02*
X16102500Y-10335000D01*
X16242500Y-10265000D02*
G75*
G03X16242500Y-10265000I-70000J0D01*
G01*
X17140000Y-10195000D02*
X17280000Y-10335000D01*
X17280000Y-10195000D02*
X17140000Y-10335000D01*
X17280000Y-10265000D02*
G75*
G03X17280000Y-10265000I-70000J0D01*
G01*
X12890000Y-10195000D02*
X13030000Y-10335000D01*
X13030000Y-10195000D02*
X12890000Y-10335000D01*
X13030000Y-10265000D02*
G75*
G03X13030000Y-10265000I-70000J0D01*
G01*
X13927500Y-10195000D02*
X14067500Y-10335000D01*
X14067500Y-10195000D02*
X13927500Y-10335000D01*
X14067500Y-10265000D02*
G75*
G03X14067500Y-10265000I-70000J0D01*
G01*
X10280000Y-7652500D02*
X10420000Y-7792500D01*
X10420000Y-7652500D02*
X10280000Y-7792500D01*
X10420000Y-7722500D02*
G75*
G03X10420000Y-7722500I-70000J0D01*
G01*
X10280000Y-8690000D02*
X10420000Y-8830000D01*
X10420000Y-8690000D02*
X10280000Y-8830000D01*
X10420000Y-8760000D02*
G75*
G03X10420000Y-8760000I-70000J0D01*
G01*
X13243000Y-7652500D02*
X13383000Y-7792500D01*
X13383000Y-7652500D02*
X13243000Y-7792500D01*
X13383000Y-7722500D02*
G75*
G03X13383000Y-7722500I-70000J0D01*
G01*
X13243000Y-8690000D02*
X13383000Y-8830000D01*
X13383000Y-8690000D02*
X13243000Y-8830000D01*
X13383000Y-8760000D02*
G75*
G03X13383000Y-8760000I-70000J0D01*
G01*
X11768000Y-7652500D02*
X11908000Y-7792500D01*
X11908000Y-7652500D02*
X11768000Y-7792500D01*
X11908000Y-7722500D02*
G75*
G03X11908000Y-7722500I-70000J0D01*
G01*
X11768000Y-8690000D02*
X11908000Y-8830000D01*
X11908000Y-8690000D02*
X11768000Y-8830000D01*
X11908000Y-8760000D02*
G75*
G03X11908000Y-8760000I-70000J0D01*
G01*
X16455020Y-7652840D02*
X16595020Y-7792840D01*
X16595020Y-7652840D02*
X16455020Y-7792840D01*
X16595020Y-7722840D02*
G75*
G03X16595020Y-7722840I-70000J0D01*
G01*
X16455020Y-8690340D02*
X16595020Y-8830340D01*
X16595020Y-8690340D02*
X16455020Y-8830340D01*
X16595020Y-8760340D02*
G75*
G03X16595020Y-8760340I-70000J0D01*
G01*
X17930020Y-7652840D02*
X18070020Y-7792840D01*
X18070020Y-7652840D02*
X17930020Y-7792840D01*
X18070020Y-7722840D02*
G75*
G03X18070020Y-7722840I-70000J0D01*
G01*
X17930020Y-8690340D02*
X18070020Y-8830340D01*
X18070020Y-8690340D02*
X17930020Y-8830340D01*
X18070020Y-8760340D02*
G75*
G03X18070020Y-8760340I-70000J0D01*
G01*
X10077500Y-10195000D02*
X10217500Y-10335000D01*
X10217500Y-10195000D02*
X10077500Y-10335000D01*
X10217500Y-10265000D02*
G75*
G03X10217500Y-10265000I-70000J0D01*
G01*
X11115000Y-10195000D02*
X11255000Y-10335000D01*
X11255000Y-10195000D02*
X11115000Y-10335000D01*
X11255000Y-10265000D02*
G75*
G03X11255000Y-10265000I-70000J0D01*
G01*
X11420000Y-10195000D02*
X11560000Y-10335000D01*
X11560000Y-10195000D02*
X11420000Y-10335000D01*
X11560000Y-10265000D02*
G75*
G03X11560000Y-10265000I-70000J0D01*
G01*
X12457500Y-10195000D02*
X12597500Y-10335000D01*
X12597500Y-10195000D02*
X12457500Y-10335000D01*
X12597500Y-10265000D02*
G75*
G03X12597500Y-10265000I-70000J0D01*
G01*
X14615000Y-10195000D02*
X14755000Y-10335000D01*
X14755000Y-10195000D02*
X14615000Y-10335000D01*
X14755000Y-10265000D02*
G75*
G03X14755000Y-10265000I-70000J0D01*
G01*
X15652500Y-10195000D02*
X15792500Y-10335000D01*
X15792500Y-10195000D02*
X15652500Y-10335000D01*
X15792500Y-10265000D02*
G75*
G03X15792500Y-10265000I-70000J0D01*
G01*
X14967020Y-7652840D02*
X15107020Y-7792840D01*
X15107020Y-7652840D02*
X14967020Y-7792840D01*
X15107020Y-7722840D02*
G75*
G03X15107020Y-7722840I-70000J0D01*
G01*
X14967020Y-8690340D02*
X15107020Y-8830340D01*
X15107020Y-8690340D02*
X14967020Y-8830340D01*
X15107020Y-8760340D02*
G75*
G03X15107020Y-8760340I-70000J0D01*
G01*
X14375000Y-5210000D02*
X14525000Y-5360000D01*
X14525000Y-5210000D02*
X14375000Y-5360000D01*
X14450000Y-5210000D02*
X14450000Y-5360000D01*
X14375000Y-5285000D02*
X14525000Y-5285000D01*
X14375000Y-5700000D02*
X14525000Y-5850000D01*
X14525000Y-5700000D02*
X14375000Y-5850000D01*
X14450000Y-5700000D02*
X14450000Y-5850000D01*
X14375000Y-5775000D02*
X14525000Y-5775000D01*
X9315000Y-8365000D02*
X9535000Y-8585000D01*
X9535000Y-8365000D02*
X9315000Y-8585000D01*
X9502783Y-8552783D02*
X9502783Y-8397218D01*
X9347218Y-8397218D01*
X9347218Y-8552783D01*
X9502783Y-8552783D01*
X9315000Y-9415000D02*
X9535000Y-9635000D01*
X9535000Y-9415000D02*
X9315000Y-9635000D01*
X9502783Y-9602783D02*
X9502783Y-9447218D01*
X9347218Y-9447218D01*
X9347218Y-9602783D01*
X9502783Y-9602783D01*
X9240000Y-10940000D02*
X9560000Y-11260000D01*
X9560000Y-10940000D02*
X9240000Y-11260000D01*
X9400000Y-11260000D02*
X9560000Y-11100000D01*
X9400000Y-10940000D01*
X9240000Y-11100000D01*
X9400000Y-11260000D01*
X18440000Y-4740000D02*
X18760000Y-5060000D01*
X18760000Y-4740000D02*
X18440000Y-5060000D01*
X18600000Y-5060000D02*
X18760000Y-4900000D01*
X18600000Y-4740000D01*
X18440000Y-4900000D01*
X18600000Y-5060000D01*
X18440000Y-10940000D02*
X18760000Y-11260000D01*
X18760000Y-10940000D02*
X18440000Y-11260000D01*
X18600000Y-11260000D02*
X18760000Y-11100000D01*
X18600000Y-10940000D01*
X18440000Y-11100000D01*
X18600000Y-11260000D01*
X9240000Y-4740000D02*
X9560000Y-5060000D01*
X9560000Y-4740000D02*
X9240000Y-5060000D01*
X9400000Y-5060000D02*
X9560000Y-4900000D01*
X9400000Y-4740000D01*
X9240000Y-4900000D01*
X9400000Y-5060000D01*
D12*
X9283928Y-11968214D02*
X9283928Y-11668214D01*
X9355357Y-11668214D01*
X9398214Y-11682500D01*
X9426786Y-11711071D01*
X9441071Y-11739643D01*
X9455357Y-11796786D01*
X9455357Y-11839643D01*
X9441071Y-11896786D01*
X9426786Y-11925357D01*
X9398214Y-11953929D01*
X9355357Y-11968214D01*
X9283928Y-11968214D01*
X9583928Y-11968214D02*
X9583928Y-11768214D01*
X9583928Y-11825357D02*
X9598214Y-11796786D01*
X9612500Y-11782500D01*
X9641071Y-11768214D01*
X9669643Y-11768214D01*
X9769643Y-11968214D02*
X9769643Y-11768214D01*
X9769643Y-11668214D02*
X9755357Y-11682500D01*
X9769643Y-11696786D01*
X9783928Y-11682500D01*
X9769643Y-11668214D01*
X9769643Y-11696786D01*
X9955357Y-11968214D02*
X9926786Y-11953929D01*
X9912500Y-11925357D01*
X9912500Y-11668214D01*
X10112500Y-11968214D02*
X10083928Y-11953929D01*
X10069643Y-11925357D01*
X10069643Y-11668214D01*
X10455357Y-11968214D02*
X10455357Y-11668214D01*
X10555357Y-11882500D01*
X10655357Y-11668214D01*
X10655357Y-11968214D01*
X10926786Y-11968214D02*
X10926786Y-11811071D01*
X10912500Y-11782500D01*
X10883928Y-11768214D01*
X10826786Y-11768214D01*
X10798214Y-11782500D01*
X10926786Y-11953929D02*
X10898214Y-11968214D01*
X10826786Y-11968214D01*
X10798214Y-11953929D01*
X10783928Y-11925357D01*
X10783928Y-11896786D01*
X10798214Y-11868214D01*
X10826786Y-11853929D01*
X10898214Y-11853929D01*
X10926786Y-11839643D01*
X11069643Y-11768214D02*
X11069643Y-12068214D01*
X11069643Y-11782500D02*
X11098214Y-11768214D01*
X11155357Y-11768214D01*
X11183928Y-11782500D01*
X11198214Y-11796786D01*
X11212500Y-11825357D01*
X11212500Y-11911071D01*
X11198214Y-11939643D01*
X11183928Y-11953929D01*
X11155357Y-11968214D01*
X11098214Y-11968214D01*
X11069643Y-11953929D01*
X11341071Y-11939643D02*
X11355357Y-11953929D01*
X11341071Y-11968214D01*
X11326786Y-11953929D01*
X11341071Y-11939643D01*
X11341071Y-11968214D01*
X11341071Y-11782500D02*
X11355357Y-11796786D01*
X11341071Y-11811071D01*
X11326786Y-11796786D01*
X11341071Y-11782500D01*
X11341071Y-11811071D01*
X8957500Y-12442500D02*
X8997500Y-12482500D01*
X8997500Y-12442500D02*
X8957500Y-12482500D01*
X9341071Y-12298214D02*
X9369643Y-12298214D01*
X9398214Y-12312500D01*
X9412500Y-12326786D01*
X9426786Y-12355357D01*
X9441071Y-12412500D01*
X9441071Y-12483929D01*
X9426786Y-12541071D01*
X9412500Y-12569643D01*
X9398214Y-12583929D01*
X9369643Y-12598214D01*
X9341071Y-12598214D01*
X9312500Y-12583929D01*
X9298214Y-12569643D01*
X9283928Y-12541071D01*
X9269643Y-12483929D01*
X9269643Y-12412500D01*
X9283928Y-12355357D01*
X9298214Y-12326786D01*
X9312500Y-12312500D01*
X9341071Y-12298214D01*
X9569643Y-12569643D02*
X9583928Y-12583929D01*
X9569643Y-12598214D01*
X9555357Y-12583929D01*
X9569643Y-12569643D01*
X9569643Y-12598214D01*
X9841071Y-12398214D02*
X9841071Y-12598214D01*
X9769643Y-12283929D02*
X9698214Y-12498214D01*
X9883928Y-12498214D01*
X10055357Y-12298214D02*
X10083928Y-12298214D01*
X10112500Y-12312500D01*
X10126786Y-12326786D01*
X10141071Y-12355357D01*
X10155357Y-12412500D01*
X10155357Y-12483929D01*
X10141071Y-12541071D01*
X10126786Y-12569643D01*
X10112500Y-12583929D01*
X10083928Y-12598214D01*
X10055357Y-12598214D01*
X10026786Y-12583929D01*
X10012500Y-12569643D01*
X9998214Y-12541071D01*
X9983928Y-12483929D01*
X9983928Y-12412500D01*
X9998214Y-12355357D01*
X10012500Y-12326786D01*
X10026786Y-12312500D01*
X10055357Y-12298214D01*
X10283928Y-12598214D02*
X10283928Y-12398214D01*
X10283928Y-12426786D02*
X10298214Y-12412500D01*
X10326786Y-12398214D01*
X10369643Y-12398214D01*
X10398214Y-12412500D01*
X10412500Y-12441071D01*
X10412500Y-12598214D01*
X10412500Y-12441071D02*
X10426786Y-12412500D01*
X10455357Y-12398214D01*
X10498214Y-12398214D01*
X10526786Y-12412500D01*
X10541071Y-12441071D01*
X10541071Y-12598214D01*
X10683928Y-12598214D02*
X10683928Y-12398214D01*
X10683928Y-12426786D02*
X10698214Y-12412500D01*
X10726786Y-12398214D01*
X10769643Y-12398214D01*
X10798214Y-12412500D01*
X10812500Y-12441071D01*
X10812500Y-12598214D01*
X10812500Y-12441071D02*
X10826786Y-12412500D01*
X10855357Y-12398214D01*
X10898214Y-12398214D01*
X10926786Y-12412500D01*
X10941071Y-12441071D01*
X10941071Y-12598214D01*
X11526786Y-12283929D02*
X11269643Y-12669643D01*
X11912500Y-12298214D02*
X11941071Y-12298214D01*
X11969643Y-12312500D01*
X11983928Y-12326786D01*
X11998214Y-12355357D01*
X12012500Y-12412500D01*
X12012500Y-12483929D01*
X11998214Y-12541071D01*
X11983928Y-12569643D01*
X11969643Y-12583929D01*
X11941071Y-12598214D01*
X11912500Y-12598214D01*
X11883928Y-12583929D01*
X11869643Y-12569643D01*
X11855357Y-12541071D01*
X11841071Y-12483929D01*
X11841071Y-12412500D01*
X11855357Y-12355357D01*
X11869643Y-12326786D01*
X11883928Y-12312500D01*
X11912500Y-12298214D01*
X12141071Y-12569643D02*
X12155357Y-12583929D01*
X12141071Y-12598214D01*
X12126786Y-12583929D01*
X12141071Y-12569643D01*
X12141071Y-12598214D01*
X12341071Y-12298214D02*
X12369643Y-12298214D01*
X12398214Y-12312500D01*
X12412500Y-12326786D01*
X12426786Y-12355357D01*
X12441071Y-12412500D01*
X12441071Y-12483929D01*
X12426786Y-12541071D01*
X12412500Y-12569643D01*
X12398214Y-12583929D01*
X12369643Y-12598214D01*
X12341071Y-12598214D01*
X12312500Y-12583929D01*
X12298214Y-12569643D01*
X12283928Y-12541071D01*
X12269643Y-12483929D01*
X12269643Y-12412500D01*
X12283928Y-12355357D01*
X12298214Y-12326786D01*
X12312500Y-12312500D01*
X12341071Y-12298214D01*
X12726786Y-12598214D02*
X12555357Y-12598214D01*
X12641071Y-12598214D02*
X12641071Y-12298214D01*
X12612500Y-12341071D01*
X12583928Y-12369643D01*
X12555357Y-12383929D01*
X12983928Y-12298214D02*
X12926786Y-12298214D01*
X12898214Y-12312500D01*
X12883928Y-12326786D01*
X12855357Y-12369643D01*
X12841071Y-12426786D01*
X12841071Y-12541071D01*
X12855357Y-12569643D01*
X12869643Y-12583929D01*
X12898214Y-12598214D01*
X12955357Y-12598214D01*
X12983928Y-12583929D01*
X12998214Y-12569643D01*
X13012500Y-12541071D01*
X13012500Y-12469643D01*
X12998214Y-12441071D01*
X12983928Y-12426786D01*
X12955357Y-12412500D01*
X12898214Y-12412500D01*
X12869643Y-12426786D01*
X12855357Y-12441071D01*
X12841071Y-12469643D01*
X13126786Y-12298214D02*
X13126786Y-12355357D01*
X13241071Y-12298214D02*
X13241071Y-12355357D01*
X13683928Y-12712500D02*
X13669643Y-12698214D01*
X13641071Y-12655357D01*
X13626786Y-12626786D01*
X13612500Y-12583929D01*
X13598214Y-12512500D01*
X13598214Y-12455357D01*
X13612500Y-12383929D01*
X13626786Y-12341071D01*
X13641071Y-12312500D01*
X13669643Y-12269643D01*
X13683928Y-12255357D01*
X13783928Y-12326786D02*
X13798214Y-12312500D01*
X13826786Y-12298214D01*
X13898214Y-12298214D01*
X13926786Y-12312500D01*
X13941071Y-12326786D01*
X13955357Y-12355357D01*
X13955357Y-12383929D01*
X13941071Y-12426786D01*
X13769643Y-12598214D01*
X13955357Y-12598214D01*
X14226786Y-12298214D02*
X14083928Y-12298214D01*
X14069643Y-12441071D01*
X14083928Y-12426786D01*
X14112500Y-12412500D01*
X14183928Y-12412500D01*
X14212500Y-12426786D01*
X14226786Y-12441071D01*
X14241071Y-12469643D01*
X14241071Y-12541071D01*
X14226786Y-12569643D01*
X14212500Y-12583929D01*
X14183928Y-12598214D01*
X14112500Y-12598214D01*
X14083928Y-12583929D01*
X14069643Y-12569643D01*
X14498214Y-12398214D02*
X14498214Y-12598214D01*
X14426786Y-12283929D02*
X14355357Y-12498214D01*
X14541071Y-12498214D01*
X14883928Y-12598214D02*
X14883928Y-12298214D01*
X15012500Y-12598214D02*
X15012500Y-12441071D01*
X14998214Y-12412500D01*
X14969643Y-12398214D01*
X14926786Y-12398214D01*
X14898214Y-12412500D01*
X14883928Y-12426786D01*
X15198214Y-12598214D02*
X15169643Y-12583929D01*
X15155357Y-12569643D01*
X15141071Y-12541071D01*
X15141071Y-12455357D01*
X15155357Y-12426786D01*
X15169643Y-12412500D01*
X15198214Y-12398214D01*
X15241071Y-12398214D01*
X15269643Y-12412500D01*
X15283928Y-12426786D01*
X15298214Y-12455357D01*
X15298214Y-12541071D01*
X15283928Y-12569643D01*
X15269643Y-12583929D01*
X15241071Y-12598214D01*
X15198214Y-12598214D01*
X15469643Y-12598214D02*
X15441071Y-12583929D01*
X15426786Y-12555357D01*
X15426786Y-12298214D01*
X15698214Y-12583929D02*
X15669643Y-12598214D01*
X15612500Y-12598214D01*
X15583928Y-12583929D01*
X15569643Y-12555357D01*
X15569643Y-12441071D01*
X15583928Y-12412500D01*
X15612500Y-12398214D01*
X15669643Y-12398214D01*
X15698214Y-12412500D01*
X15712500Y-12441071D01*
X15712500Y-12469643D01*
X15569643Y-12498214D01*
X15826786Y-12583929D02*
X15855357Y-12598214D01*
X15912500Y-12598214D01*
X15941071Y-12583929D01*
X15955357Y-12555357D01*
X15955357Y-12541071D01*
X15941071Y-12512500D01*
X15912500Y-12498214D01*
X15869643Y-12498214D01*
X15841071Y-12483929D01*
X15826786Y-12455357D01*
X15826786Y-12441071D01*
X15841071Y-12412500D01*
X15869643Y-12398214D01*
X15912500Y-12398214D01*
X15941071Y-12412500D01*
X16055357Y-12712500D02*
X16069643Y-12698214D01*
X16098214Y-12655357D01*
X16112500Y-12626786D01*
X16126786Y-12583929D01*
X16141071Y-12512500D01*
X16141071Y-12455357D01*
X16126786Y-12383929D01*
X16112500Y-12341071D01*
X16098214Y-12312500D01*
X16069643Y-12269643D01*
X16055357Y-12255357D01*
X8997500Y-12858500D02*
G75*
G03X8997500Y-12858500I-25000J0D01*
G01*
X9341071Y-12694214D02*
X9369643Y-12694214D01*
X9398214Y-12708500D01*
X9412500Y-12722786D01*
X9426786Y-12751357D01*
X9441071Y-12808500D01*
X9441071Y-12879929D01*
X9426786Y-12937071D01*
X9412500Y-12965643D01*
X9398214Y-12979929D01*
X9369643Y-12994214D01*
X9341071Y-12994214D01*
X9312500Y-12979929D01*
X9298214Y-12965643D01*
X9283928Y-12937071D01*
X9269643Y-12879929D01*
X9269643Y-12808500D01*
X9283928Y-12751357D01*
X9298214Y-12722786D01*
X9312500Y-12708500D01*
X9341071Y-12694214D01*
X9569643Y-12965643D02*
X9583928Y-12979929D01*
X9569643Y-12994214D01*
X9555357Y-12979929D01*
X9569643Y-12965643D01*
X9569643Y-12994214D01*
X9855357Y-12694214D02*
X9712500Y-12694214D01*
X9698214Y-12837071D01*
X9712500Y-12822786D01*
X9741071Y-12808500D01*
X9812500Y-12808500D01*
X9841071Y-12822786D01*
X9855357Y-12837071D01*
X9869643Y-12865643D01*
X9869643Y-12937071D01*
X9855357Y-12965643D01*
X9841071Y-12979929D01*
X9812500Y-12994214D01*
X9741071Y-12994214D01*
X9712500Y-12979929D01*
X9698214Y-12965643D01*
X10055357Y-12694214D02*
X10083928Y-12694214D01*
X10112500Y-12708500D01*
X10126786Y-12722786D01*
X10141071Y-12751357D01*
X10155357Y-12808500D01*
X10155357Y-12879929D01*
X10141071Y-12937071D01*
X10126786Y-12965643D01*
X10112500Y-12979929D01*
X10083928Y-12994214D01*
X10055357Y-12994214D01*
X10026786Y-12979929D01*
X10012500Y-12965643D01*
X9998214Y-12937071D01*
X9983928Y-12879929D01*
X9983928Y-12808500D01*
X9998214Y-12751357D01*
X10012500Y-12722786D01*
X10026786Y-12708500D01*
X10055357Y-12694214D01*
X10283928Y-12994214D02*
X10283928Y-12794214D01*
X10283928Y-12822786D02*
X10298214Y-12808500D01*
X10326786Y-12794214D01*
X10369643Y-12794214D01*
X10398214Y-12808500D01*
X10412500Y-12837071D01*
X10412500Y-12994214D01*
X10412500Y-12837071D02*
X10426786Y-12808500D01*
X10455357Y-12794214D01*
X10498214Y-12794214D01*
X10526786Y-12808500D01*
X10541071Y-12837071D01*
X10541071Y-12994214D01*
X10683928Y-12994214D02*
X10683928Y-12794214D01*
X10683928Y-12822786D02*
X10698214Y-12808500D01*
X10726786Y-12794214D01*
X10769643Y-12794214D01*
X10798214Y-12808500D01*
X10812500Y-12837071D01*
X10812500Y-12994214D01*
X10812500Y-12837071D02*
X10826786Y-12808500D01*
X10855357Y-12794214D01*
X10898214Y-12794214D01*
X10926786Y-12808500D01*
X10941071Y-12837071D01*
X10941071Y-12994214D01*
X11526786Y-12679929D02*
X11269643Y-13065643D01*
X11912500Y-12694214D02*
X11941071Y-12694214D01*
X11969643Y-12708500D01*
X11983928Y-12722786D01*
X11998214Y-12751357D01*
X12012500Y-12808500D01*
X12012500Y-12879929D01*
X11998214Y-12937071D01*
X11983928Y-12965643D01*
X11969643Y-12979929D01*
X11941071Y-12994214D01*
X11912500Y-12994214D01*
X11883928Y-12979929D01*
X11869643Y-12965643D01*
X11855357Y-12937071D01*
X11841071Y-12879929D01*
X11841071Y-12808500D01*
X11855357Y-12751357D01*
X11869643Y-12722786D01*
X11883928Y-12708500D01*
X11912500Y-12694214D01*
X12141071Y-12965643D02*
X12155357Y-12979929D01*
X12141071Y-12994214D01*
X12126786Y-12979929D01*
X12141071Y-12965643D01*
X12141071Y-12994214D01*
X12341071Y-12694214D02*
X12369643Y-12694214D01*
X12398214Y-12708500D01*
X12412500Y-12722786D01*
X12426786Y-12751357D01*
X12441071Y-12808500D01*
X12441071Y-12879929D01*
X12426786Y-12937071D01*
X12412500Y-12965643D01*
X12398214Y-12979929D01*
X12369643Y-12994214D01*
X12341071Y-12994214D01*
X12312500Y-12979929D01*
X12298214Y-12965643D01*
X12283928Y-12937071D01*
X12269643Y-12879929D01*
X12269643Y-12808500D01*
X12283928Y-12751357D01*
X12298214Y-12722786D01*
X12312500Y-12708500D01*
X12341071Y-12694214D01*
X12555357Y-12722786D02*
X12569643Y-12708500D01*
X12598214Y-12694214D01*
X12669643Y-12694214D01*
X12698214Y-12708500D01*
X12712500Y-12722786D01*
X12726786Y-12751357D01*
X12726786Y-12779929D01*
X12712500Y-12822786D01*
X12541071Y-12994214D01*
X12726786Y-12994214D01*
X12912500Y-12694214D02*
X12941071Y-12694214D01*
X12969643Y-12708500D01*
X12983928Y-12722786D01*
X12998214Y-12751357D01*
X13012500Y-12808500D01*
X13012500Y-12879929D01*
X12998214Y-12937071D01*
X12983928Y-12965643D01*
X12969643Y-12979929D01*
X12941071Y-12994214D01*
X12912500Y-12994214D01*
X12883928Y-12979929D01*
X12869643Y-12965643D01*
X12855357Y-12937071D01*
X12841071Y-12879929D01*
X12841071Y-12808500D01*
X12855357Y-12751357D01*
X12869643Y-12722786D01*
X12883928Y-12708500D01*
X12912500Y-12694214D01*
X13126786Y-12694214D02*
X13126786Y-12751357D01*
X13241071Y-12694214D02*
X13241071Y-12751357D01*
X13683928Y-13108500D02*
X13669643Y-13094214D01*
X13641071Y-13051357D01*
X13626786Y-13022786D01*
X13612500Y-12979929D01*
X13598214Y-12908500D01*
X13598214Y-12851357D01*
X13612500Y-12779929D01*
X13626786Y-12737071D01*
X13641071Y-12708500D01*
X13669643Y-12665643D01*
X13683928Y-12651357D01*
X13855357Y-12694214D02*
X13883928Y-12694214D01*
X13912500Y-12708500D01*
X13926786Y-12722786D01*
X13941071Y-12751357D01*
X13955357Y-12808500D01*
X13955357Y-12879929D01*
X13941071Y-12937071D01*
X13926786Y-12965643D01*
X13912500Y-12979929D01*
X13883928Y-12994214D01*
X13855357Y-12994214D01*
X13826786Y-12979929D01*
X13812500Y-12965643D01*
X13798214Y-12937071D01*
X13783928Y-12879929D01*
X13783928Y-12808500D01*
X13798214Y-12751357D01*
X13812500Y-12722786D01*
X13826786Y-12708500D01*
X13855357Y-12694214D01*
X14312500Y-12994214D02*
X14312500Y-12694214D01*
X14441071Y-12994214D02*
X14441071Y-12837071D01*
X14426786Y-12808500D01*
X14398214Y-12794214D01*
X14355357Y-12794214D01*
X14326786Y-12808500D01*
X14312500Y-12822786D01*
X14626786Y-12994214D02*
X14598214Y-12979929D01*
X14583928Y-12965643D01*
X14569643Y-12937071D01*
X14569643Y-12851357D01*
X14583928Y-12822786D01*
X14598214Y-12808500D01*
X14626786Y-12794214D01*
X14669643Y-12794214D01*
X14698214Y-12808500D01*
X14712500Y-12822786D01*
X14726786Y-12851357D01*
X14726786Y-12937071D01*
X14712500Y-12965643D01*
X14698214Y-12979929D01*
X14669643Y-12994214D01*
X14626786Y-12994214D01*
X14898214Y-12994214D02*
X14869643Y-12979929D01*
X14855357Y-12951357D01*
X14855357Y-12694214D01*
X15126786Y-12979929D02*
X15098214Y-12994214D01*
X15041071Y-12994214D01*
X15012500Y-12979929D01*
X14998214Y-12951357D01*
X14998214Y-12837071D01*
X15012500Y-12808500D01*
X15041071Y-12794214D01*
X15098214Y-12794214D01*
X15126786Y-12808500D01*
X15141071Y-12837071D01*
X15141071Y-12865643D01*
X14998214Y-12894214D01*
X15255357Y-12979929D02*
X15283928Y-12994214D01*
X15341071Y-12994214D01*
X15369643Y-12979929D01*
X15383928Y-12951357D01*
X15383928Y-12937071D01*
X15369643Y-12908500D01*
X15341071Y-12894214D01*
X15298214Y-12894214D01*
X15269643Y-12879929D01*
X15255357Y-12851357D01*
X15255357Y-12837071D01*
X15269643Y-12808500D01*
X15298214Y-12794214D01*
X15341071Y-12794214D01*
X15369643Y-12808500D01*
X15741071Y-12879929D02*
X15969643Y-12879929D01*
X15855357Y-12994214D02*
X15855357Y-12765643D01*
X16326786Y-12722786D02*
X16341071Y-12708500D01*
X16369643Y-12694214D01*
X16441071Y-12694214D01*
X16469643Y-12708500D01*
X16483928Y-12722786D01*
X16498214Y-12751357D01*
X16498214Y-12779929D01*
X16483928Y-12822786D01*
X16312500Y-12994214D01*
X16498214Y-12994214D01*
X16841071Y-12979929D02*
X16869643Y-12994214D01*
X16926786Y-12994214D01*
X16955357Y-12979929D01*
X16969643Y-12951357D01*
X16969643Y-12937071D01*
X16955357Y-12908500D01*
X16926786Y-12894214D01*
X16883928Y-12894214D01*
X16855357Y-12879929D01*
X16841071Y-12851357D01*
X16841071Y-12837071D01*
X16855357Y-12808500D01*
X16883928Y-12794214D01*
X16926786Y-12794214D01*
X16955357Y-12808500D01*
X17141071Y-12994214D02*
X17112500Y-12979929D01*
X17098214Y-12951357D01*
X17098214Y-12694214D01*
X17298214Y-12994214D02*
X17269643Y-12979929D01*
X17255357Y-12965643D01*
X17241071Y-12937071D01*
X17241071Y-12851357D01*
X17255357Y-12822786D01*
X17269643Y-12808500D01*
X17298214Y-12794214D01*
X17341071Y-12794214D01*
X17369643Y-12808500D01*
X17383928Y-12822786D01*
X17398214Y-12851357D01*
X17398214Y-12937071D01*
X17383928Y-12965643D01*
X17369643Y-12979929D01*
X17341071Y-12994214D01*
X17298214Y-12994214D01*
X17483928Y-12794214D02*
X17598214Y-12794214D01*
X17526786Y-12694214D02*
X17526786Y-12951357D01*
X17541071Y-12979929D01*
X17569643Y-12994214D01*
X17598214Y-12994214D01*
X17683928Y-12979929D02*
X17712500Y-12994214D01*
X17769643Y-12994214D01*
X17798214Y-12979929D01*
X17812500Y-12951357D01*
X17812500Y-12937071D01*
X17798214Y-12908500D01*
X17769643Y-12894214D01*
X17726786Y-12894214D01*
X17698214Y-12879929D01*
X17683928Y-12851357D01*
X17683928Y-12837071D01*
X17698214Y-12808500D01*
X17726786Y-12794214D01*
X17769643Y-12794214D01*
X17798214Y-12808500D01*
X17912500Y-13108500D02*
X17926786Y-13094214D01*
X17955357Y-13051357D01*
X17969643Y-13022786D01*
X17983928Y-12979929D01*
X17998214Y-12908500D01*
X17998214Y-12851357D01*
X17983928Y-12779929D01*
X17969643Y-12737071D01*
X17955357Y-12708500D01*
X17926786Y-12665643D01*
X17912500Y-12651357D01*
X8965000Y-13222000D02*
X8965000Y-13287000D01*
X8932500Y-13254500D02*
X8997500Y-13254500D01*
X9341071Y-13090214D02*
X9369643Y-13090214D01*
X9398214Y-13104500D01*
X9412500Y-13118786D01*
X9426786Y-13147357D01*
X9441071Y-13204500D01*
X9441071Y-13275929D01*
X9426786Y-13333071D01*
X9412500Y-13361643D01*
X9398214Y-13375929D01*
X9369643Y-13390214D01*
X9341071Y-13390214D01*
X9312500Y-13375929D01*
X9298214Y-13361643D01*
X9283928Y-13333071D01*
X9269643Y-13275929D01*
X9269643Y-13204500D01*
X9283928Y-13147357D01*
X9298214Y-13118786D01*
X9312500Y-13104500D01*
X9341071Y-13090214D01*
X9569643Y-13361643D02*
X9583928Y-13375929D01*
X9569643Y-13390214D01*
X9555357Y-13375929D01*
X9569643Y-13361643D01*
X9569643Y-13390214D01*
X9841071Y-13090214D02*
X9783928Y-13090214D01*
X9755357Y-13104500D01*
X9741071Y-13118786D01*
X9712500Y-13161643D01*
X9698214Y-13218786D01*
X9698214Y-13333071D01*
X9712500Y-13361643D01*
X9726786Y-13375929D01*
X9755357Y-13390214D01*
X9812500Y-13390214D01*
X9841071Y-13375929D01*
X9855357Y-13361643D01*
X9869643Y-13333071D01*
X9869643Y-13261643D01*
X9855357Y-13233071D01*
X9841071Y-13218786D01*
X9812500Y-13204500D01*
X9755357Y-13204500D01*
X9726786Y-13218786D01*
X9712500Y-13233071D01*
X9698214Y-13261643D01*
X10141071Y-13090214D02*
X9998214Y-13090214D01*
X9983928Y-13233071D01*
X9998214Y-13218786D01*
X10026786Y-13204500D01*
X10098214Y-13204500D01*
X10126786Y-13218786D01*
X10141071Y-13233071D01*
X10155357Y-13261643D01*
X10155357Y-13333071D01*
X10141071Y-13361643D01*
X10126786Y-13375929D01*
X10098214Y-13390214D01*
X10026786Y-13390214D01*
X9998214Y-13375929D01*
X9983928Y-13361643D01*
X10283928Y-13390214D02*
X10283928Y-13190214D01*
X10283928Y-13218786D02*
X10298214Y-13204500D01*
X10326786Y-13190214D01*
X10369643Y-13190214D01*
X10398214Y-13204500D01*
X10412500Y-13233071D01*
X10412500Y-13390214D01*
X10412500Y-13233071D02*
X10426786Y-13204500D01*
X10455357Y-13190214D01*
X10498214Y-13190214D01*
X10526786Y-13204500D01*
X10541071Y-13233071D01*
X10541071Y-13390214D01*
X10683928Y-13390214D02*
X10683928Y-13190214D01*
X10683928Y-13218786D02*
X10698214Y-13204500D01*
X10726786Y-13190214D01*
X10769643Y-13190214D01*
X10798214Y-13204500D01*
X10812500Y-13233071D01*
X10812500Y-13390214D01*
X10812500Y-13233071D02*
X10826786Y-13204500D01*
X10855357Y-13190214D01*
X10898214Y-13190214D01*
X10926786Y-13204500D01*
X10941071Y-13233071D01*
X10941071Y-13390214D01*
X11526786Y-13075929D02*
X11269643Y-13461643D01*
X11912500Y-13090214D02*
X11941071Y-13090214D01*
X11969643Y-13104500D01*
X11983928Y-13118786D01*
X11998214Y-13147357D01*
X12012500Y-13204500D01*
X12012500Y-13275929D01*
X11998214Y-13333071D01*
X11983928Y-13361643D01*
X11969643Y-13375929D01*
X11941071Y-13390214D01*
X11912500Y-13390214D01*
X11883928Y-13375929D01*
X11869643Y-13361643D01*
X11855357Y-13333071D01*
X11841071Y-13275929D01*
X11841071Y-13204500D01*
X11855357Y-13147357D01*
X11869643Y-13118786D01*
X11883928Y-13104500D01*
X11912500Y-13090214D01*
X12141071Y-13361643D02*
X12155357Y-13375929D01*
X12141071Y-13390214D01*
X12126786Y-13375929D01*
X12141071Y-13361643D01*
X12141071Y-13390214D01*
X12341071Y-13090214D02*
X12369643Y-13090214D01*
X12398214Y-13104500D01*
X12412500Y-13118786D01*
X12426786Y-13147357D01*
X12441071Y-13204500D01*
X12441071Y-13275929D01*
X12426786Y-13333071D01*
X12412500Y-13361643D01*
X12398214Y-13375929D01*
X12369643Y-13390214D01*
X12341071Y-13390214D01*
X12312500Y-13375929D01*
X12298214Y-13361643D01*
X12283928Y-13333071D01*
X12269643Y-13275929D01*
X12269643Y-13204500D01*
X12283928Y-13147357D01*
X12298214Y-13118786D01*
X12312500Y-13104500D01*
X12341071Y-13090214D01*
X12555357Y-13118786D02*
X12569643Y-13104500D01*
X12598214Y-13090214D01*
X12669643Y-13090214D01*
X12698214Y-13104500D01*
X12712500Y-13118786D01*
X12726786Y-13147357D01*
X12726786Y-13175929D01*
X12712500Y-13218786D01*
X12541071Y-13390214D01*
X12726786Y-13390214D01*
X12983928Y-13090214D02*
X12926786Y-13090214D01*
X12898214Y-13104500D01*
X12883928Y-13118786D01*
X12855357Y-13161643D01*
X12841071Y-13218786D01*
X12841071Y-13333071D01*
X12855357Y-13361643D01*
X12869643Y-13375929D01*
X12898214Y-13390214D01*
X12955357Y-13390214D01*
X12983928Y-13375929D01*
X12998214Y-13361643D01*
X13012500Y-13333071D01*
X13012500Y-13261643D01*
X12998214Y-13233071D01*
X12983928Y-13218786D01*
X12955357Y-13204500D01*
X12898214Y-13204500D01*
X12869643Y-13218786D01*
X12855357Y-13233071D01*
X12841071Y-13261643D01*
X13126786Y-13090214D02*
X13126786Y-13147357D01*
X13241071Y-13090214D02*
X13241071Y-13147357D01*
X13683928Y-13504500D02*
X13669643Y-13490214D01*
X13641071Y-13447357D01*
X13626786Y-13418786D01*
X13612500Y-13375929D01*
X13598214Y-13304500D01*
X13598214Y-13247357D01*
X13612500Y-13175929D01*
X13626786Y-13133071D01*
X13641071Y-13104500D01*
X13669643Y-13061643D01*
X13683928Y-13047357D01*
X13926786Y-13090214D02*
X13869643Y-13090214D01*
X13841071Y-13104500D01*
X13826786Y-13118786D01*
X13798214Y-13161643D01*
X13783928Y-13218786D01*
X13783928Y-13333071D01*
X13798214Y-13361643D01*
X13812500Y-13375929D01*
X13841071Y-13390214D01*
X13898214Y-13390214D01*
X13926786Y-13375929D01*
X13941071Y-13361643D01*
X13955357Y-13333071D01*
X13955357Y-13261643D01*
X13941071Y-13233071D01*
X13926786Y-13218786D01*
X13898214Y-13204500D01*
X13841071Y-13204500D01*
X13812500Y-13218786D01*
X13798214Y-13233071D01*
X13783928Y-13261643D01*
X14312500Y-13390214D02*
X14312500Y-13090214D01*
X14441071Y-13390214D02*
X14441071Y-13233071D01*
X14426786Y-13204500D01*
X14398214Y-13190214D01*
X14355357Y-13190214D01*
X14326786Y-13204500D01*
X14312500Y-13218786D01*
X14626786Y-13390214D02*
X14598214Y-13375929D01*
X14583928Y-13361643D01*
X14569643Y-13333071D01*
X14569643Y-13247357D01*
X14583928Y-13218786D01*
X14598214Y-13204500D01*
X14626786Y-13190214D01*
X14669643Y-13190214D01*
X14698214Y-13204500D01*
X14712500Y-13218786D01*
X14726786Y-13247357D01*
X14726786Y-13333071D01*
X14712500Y-13361643D01*
X14698214Y-13375929D01*
X14669643Y-13390214D01*
X14626786Y-13390214D01*
X14898214Y-13390214D02*
X14869643Y-13375929D01*
X14855357Y-13347357D01*
X14855357Y-13090214D01*
X15126786Y-13375929D02*
X15098214Y-13390214D01*
X15041071Y-13390214D01*
X15012500Y-13375929D01*
X14998214Y-13347357D01*
X14998214Y-13233071D01*
X15012500Y-13204500D01*
X15041071Y-13190214D01*
X15098214Y-13190214D01*
X15126786Y-13204500D01*
X15141071Y-13233071D01*
X15141071Y-13261643D01*
X14998214Y-13290214D01*
X15255357Y-13375929D02*
X15283928Y-13390214D01*
X15341071Y-13390214D01*
X15369643Y-13375929D01*
X15383928Y-13347357D01*
X15383928Y-13333071D01*
X15369643Y-13304500D01*
X15341071Y-13290214D01*
X15298214Y-13290214D01*
X15269643Y-13275929D01*
X15255357Y-13247357D01*
X15255357Y-13233071D01*
X15269643Y-13204500D01*
X15298214Y-13190214D01*
X15341071Y-13190214D01*
X15369643Y-13204500D01*
X15483928Y-13504500D02*
X15498214Y-13490214D01*
X15526786Y-13447357D01*
X15541071Y-13418786D01*
X15555357Y-13375929D01*
X15569643Y-13304500D01*
X15569643Y-13247357D01*
X15555357Y-13175929D01*
X15541071Y-13133071D01*
X15526786Y-13104500D01*
X15498214Y-13061643D01*
X15483928Y-13047357D01*
X8982856Y-13685856D02*
X8982856Y-13615144D01*
X8912144Y-13615144D01*
X8912144Y-13685856D01*
X8982856Y-13685856D01*
X9441071Y-13786214D02*
X9269643Y-13786214D01*
X9355357Y-13786214D02*
X9355357Y-13486214D01*
X9326786Y-13529071D01*
X9298214Y-13557643D01*
X9269643Y-13571929D01*
X9569643Y-13757643D02*
X9583928Y-13771929D01*
X9569643Y-13786214D01*
X9555357Y-13771929D01*
X9569643Y-13757643D01*
X9569643Y-13786214D01*
X9769643Y-13486214D02*
X9798214Y-13486214D01*
X9826786Y-13500500D01*
X9841071Y-13514786D01*
X9855357Y-13543357D01*
X9869643Y-13600500D01*
X9869643Y-13671929D01*
X9855357Y-13729071D01*
X9841071Y-13757643D01*
X9826786Y-13771929D01*
X9798214Y-13786214D01*
X9769643Y-13786214D01*
X9741071Y-13771929D01*
X9726786Y-13757643D01*
X9712500Y-13729071D01*
X9698214Y-13671929D01*
X9698214Y-13600500D01*
X9712500Y-13543357D01*
X9726786Y-13514786D01*
X9741071Y-13500500D01*
X9769643Y-13486214D01*
X10055357Y-13486214D02*
X10083928Y-13486214D01*
X10112500Y-13500500D01*
X10126786Y-13514786D01*
X10141071Y-13543357D01*
X10155357Y-13600500D01*
X10155357Y-13671929D01*
X10141071Y-13729071D01*
X10126786Y-13757643D01*
X10112500Y-13771929D01*
X10083928Y-13786214D01*
X10055357Y-13786214D01*
X10026786Y-13771929D01*
X10012500Y-13757643D01*
X9998214Y-13729071D01*
X9983928Y-13671929D01*
X9983928Y-13600500D01*
X9998214Y-13543357D01*
X10012500Y-13514786D01*
X10026786Y-13500500D01*
X10055357Y-13486214D01*
X10283928Y-13786214D02*
X10283928Y-13586214D01*
X10283928Y-13614786D02*
X10298214Y-13600500D01*
X10326786Y-13586214D01*
X10369643Y-13586214D01*
X10398214Y-13600500D01*
X10412500Y-13629071D01*
X10412500Y-13786214D01*
X10412500Y-13629071D02*
X10426786Y-13600500D01*
X10455357Y-13586214D01*
X10498214Y-13586214D01*
X10526786Y-13600500D01*
X10541071Y-13629071D01*
X10541071Y-13786214D01*
X10683928Y-13786214D02*
X10683928Y-13586214D01*
X10683928Y-13614786D02*
X10698214Y-13600500D01*
X10726786Y-13586214D01*
X10769643Y-13586214D01*
X10798214Y-13600500D01*
X10812500Y-13629071D01*
X10812500Y-13786214D01*
X10812500Y-13629071D02*
X10826786Y-13600500D01*
X10855357Y-13586214D01*
X10898214Y-13586214D01*
X10926786Y-13600500D01*
X10941071Y-13629071D01*
X10941071Y-13786214D01*
X11526786Y-13471929D02*
X11269643Y-13857643D01*
X11912500Y-13486214D02*
X11941071Y-13486214D01*
X11969643Y-13500500D01*
X11983928Y-13514786D01*
X11998214Y-13543357D01*
X12012500Y-13600500D01*
X12012500Y-13671929D01*
X11998214Y-13729071D01*
X11983928Y-13757643D01*
X11969643Y-13771929D01*
X11941071Y-13786214D01*
X11912500Y-13786214D01*
X11883928Y-13771929D01*
X11869643Y-13757643D01*
X11855357Y-13729071D01*
X11841071Y-13671929D01*
X11841071Y-13600500D01*
X11855357Y-13543357D01*
X11869643Y-13514786D01*
X11883928Y-13500500D01*
X11912500Y-13486214D01*
X12141071Y-13757643D02*
X12155357Y-13771929D01*
X12141071Y-13786214D01*
X12126786Y-13771929D01*
X12141071Y-13757643D01*
X12141071Y-13786214D01*
X12341071Y-13486214D02*
X12369643Y-13486214D01*
X12398214Y-13500500D01*
X12412500Y-13514786D01*
X12426786Y-13543357D01*
X12441071Y-13600500D01*
X12441071Y-13671929D01*
X12426786Y-13729071D01*
X12412500Y-13757643D01*
X12398214Y-13771929D01*
X12369643Y-13786214D01*
X12341071Y-13786214D01*
X12312500Y-13771929D01*
X12298214Y-13757643D01*
X12283928Y-13729071D01*
X12269643Y-13671929D01*
X12269643Y-13600500D01*
X12283928Y-13543357D01*
X12298214Y-13514786D01*
X12312500Y-13500500D01*
X12341071Y-13486214D01*
X12541071Y-13486214D02*
X12726786Y-13486214D01*
X12626786Y-13600500D01*
X12669643Y-13600500D01*
X12698214Y-13614786D01*
X12712500Y-13629071D01*
X12726786Y-13657643D01*
X12726786Y-13729071D01*
X12712500Y-13757643D01*
X12698214Y-13771929D01*
X12669643Y-13786214D01*
X12583928Y-13786214D01*
X12555357Y-13771929D01*
X12541071Y-13757643D01*
X12869643Y-13786214D02*
X12926786Y-13786214D01*
X12955357Y-13771929D01*
X12969643Y-13757643D01*
X12998214Y-13714786D01*
X13012500Y-13657643D01*
X13012500Y-13543357D01*
X12998214Y-13514786D01*
X12983928Y-13500500D01*
X12955357Y-13486214D01*
X12898214Y-13486214D01*
X12869643Y-13500500D01*
X12855357Y-13514786D01*
X12841071Y-13543357D01*
X12841071Y-13614786D01*
X12855357Y-13643357D01*
X12869643Y-13657643D01*
X12898214Y-13671929D01*
X12955357Y-13671929D01*
X12983928Y-13657643D01*
X12998214Y-13643357D01*
X13012500Y-13614786D01*
X13126786Y-13486214D02*
X13126786Y-13543357D01*
X13241071Y-13486214D02*
X13241071Y-13543357D01*
X13683928Y-13900500D02*
X13669643Y-13886214D01*
X13641071Y-13843357D01*
X13626786Y-13814786D01*
X13612500Y-13771929D01*
X13598214Y-13700500D01*
X13598214Y-13643357D01*
X13612500Y-13571929D01*
X13626786Y-13529071D01*
X13641071Y-13500500D01*
X13669643Y-13457643D01*
X13683928Y-13443357D01*
X13926786Y-13486214D02*
X13869643Y-13486214D01*
X13841071Y-13500500D01*
X13826786Y-13514786D01*
X13798214Y-13557643D01*
X13783928Y-13614786D01*
X13783928Y-13729071D01*
X13798214Y-13757643D01*
X13812500Y-13771929D01*
X13841071Y-13786214D01*
X13898214Y-13786214D01*
X13926786Y-13771929D01*
X13941071Y-13757643D01*
X13955357Y-13729071D01*
X13955357Y-13657643D01*
X13941071Y-13629071D01*
X13926786Y-13614786D01*
X13898214Y-13600500D01*
X13841071Y-13600500D01*
X13812500Y-13614786D01*
X13798214Y-13629071D01*
X13783928Y-13657643D01*
X14226786Y-13486214D02*
X14083928Y-13486214D01*
X14069643Y-13629071D01*
X14083928Y-13614786D01*
X14112500Y-13600500D01*
X14183928Y-13600500D01*
X14212500Y-13614786D01*
X14226786Y-13629071D01*
X14241071Y-13657643D01*
X14241071Y-13729071D01*
X14226786Y-13757643D01*
X14212500Y-13771929D01*
X14183928Y-13786214D01*
X14112500Y-13786214D01*
X14083928Y-13771929D01*
X14069643Y-13757643D01*
X14598214Y-13786214D02*
X14598214Y-13486214D01*
X14726786Y-13786214D02*
X14726786Y-13629071D01*
X14712500Y-13600500D01*
X14683928Y-13586214D01*
X14641071Y-13586214D01*
X14612500Y-13600500D01*
X14598214Y-13614786D01*
X14912500Y-13786214D02*
X14883928Y-13771929D01*
X14869643Y-13757643D01*
X14855357Y-13729071D01*
X14855357Y-13643357D01*
X14869643Y-13614786D01*
X14883928Y-13600500D01*
X14912500Y-13586214D01*
X14955357Y-13586214D01*
X14983928Y-13600500D01*
X14998214Y-13614786D01*
X15012500Y-13643357D01*
X15012500Y-13729071D01*
X14998214Y-13757643D01*
X14983928Y-13771929D01*
X14955357Y-13786214D01*
X14912500Y-13786214D01*
X15183928Y-13786214D02*
X15155357Y-13771929D01*
X15141071Y-13743357D01*
X15141071Y-13486214D01*
X15412500Y-13771929D02*
X15383928Y-13786214D01*
X15326786Y-13786214D01*
X15298214Y-13771929D01*
X15283928Y-13743357D01*
X15283928Y-13629071D01*
X15298214Y-13600500D01*
X15326786Y-13586214D01*
X15383928Y-13586214D01*
X15412500Y-13600500D01*
X15426786Y-13629071D01*
X15426786Y-13657643D01*
X15283928Y-13686214D01*
X15541071Y-13771929D02*
X15569643Y-13786214D01*
X15626786Y-13786214D01*
X15655357Y-13771929D01*
X15669643Y-13743357D01*
X15669643Y-13729071D01*
X15655357Y-13700500D01*
X15626786Y-13686214D01*
X15583928Y-13686214D01*
X15555357Y-13671929D01*
X15541071Y-13643357D01*
X15541071Y-13629071D01*
X15555357Y-13600500D01*
X15583928Y-13586214D01*
X15626786Y-13586214D01*
X15655357Y-13600500D01*
X15769643Y-13900500D02*
X15783928Y-13886214D01*
X15812500Y-13843357D01*
X15826786Y-13814786D01*
X15841071Y-13771929D01*
X15855357Y-13700500D01*
X15855357Y-13643357D01*
X15841071Y-13571929D01*
X15826786Y-13529071D01*
X15812500Y-13500500D01*
X15783928Y-13457643D01*
X15769643Y-13443357D01*
X8942500Y-14101500D02*
X8997500Y-14046500D01*
X8942500Y-13991500D01*
X8887500Y-14046500D01*
X8942500Y-14101500D01*
X9441071Y-14182214D02*
X9269643Y-14182214D01*
X9355357Y-14182214D02*
X9355357Y-13882214D01*
X9326786Y-13925071D01*
X9298214Y-13953643D01*
X9269643Y-13967929D01*
X9569643Y-14153643D02*
X9583928Y-14167929D01*
X9569643Y-14182214D01*
X9555357Y-14167929D01*
X9569643Y-14153643D01*
X9569643Y-14182214D01*
X9869643Y-14182214D02*
X9698214Y-14182214D01*
X9783928Y-14182214D02*
X9783928Y-13882214D01*
X9755357Y-13925071D01*
X9726786Y-13953643D01*
X9698214Y-13967929D01*
X10055357Y-13882214D02*
X10083928Y-13882214D01*
X10112500Y-13896500D01*
X10126786Y-13910786D01*
X10141071Y-13939357D01*
X10155357Y-13996500D01*
X10155357Y-14067929D01*
X10141071Y-14125071D01*
X10126786Y-14153643D01*
X10112500Y-14167929D01*
X10083928Y-14182214D01*
X10055357Y-14182214D01*
X10026786Y-14167929D01*
X10012500Y-14153643D01*
X9998214Y-14125071D01*
X9983928Y-14067929D01*
X9983928Y-13996500D01*
X9998214Y-13939357D01*
X10012500Y-13910786D01*
X10026786Y-13896500D01*
X10055357Y-13882214D01*
X10283928Y-14182214D02*
X10283928Y-13982214D01*
X10283928Y-14010786D02*
X10298214Y-13996500D01*
X10326786Y-13982214D01*
X10369643Y-13982214D01*
X10398214Y-13996500D01*
X10412500Y-14025071D01*
X10412500Y-14182214D01*
X10412500Y-14025071D02*
X10426786Y-13996500D01*
X10455357Y-13982214D01*
X10498214Y-13982214D01*
X10526786Y-13996500D01*
X10541071Y-14025071D01*
X10541071Y-14182214D01*
X10683928Y-14182214D02*
X10683928Y-13982214D01*
X10683928Y-14010786D02*
X10698214Y-13996500D01*
X10726786Y-13982214D01*
X10769643Y-13982214D01*
X10798214Y-13996500D01*
X10812500Y-14025071D01*
X10812500Y-14182214D01*
X10812500Y-14025071D02*
X10826786Y-13996500D01*
X10855357Y-13982214D01*
X10898214Y-13982214D01*
X10926786Y-13996500D01*
X10941071Y-14025071D01*
X10941071Y-14182214D01*
X11526786Y-13867929D02*
X11269643Y-14253643D01*
X11912500Y-13882214D02*
X11941071Y-13882214D01*
X11969643Y-13896500D01*
X11983928Y-13910786D01*
X11998214Y-13939357D01*
X12012500Y-13996500D01*
X12012500Y-14067929D01*
X11998214Y-14125071D01*
X11983928Y-14153643D01*
X11969643Y-14167929D01*
X11941071Y-14182214D01*
X11912500Y-14182214D01*
X11883928Y-14167929D01*
X11869643Y-14153643D01*
X11855357Y-14125071D01*
X11841071Y-14067929D01*
X11841071Y-13996500D01*
X11855357Y-13939357D01*
X11869643Y-13910786D01*
X11883928Y-13896500D01*
X11912500Y-13882214D01*
X12141071Y-14153643D02*
X12155357Y-14167929D01*
X12141071Y-14182214D01*
X12126786Y-14167929D01*
X12141071Y-14153643D01*
X12141071Y-14182214D01*
X12341071Y-13882214D02*
X12369643Y-13882214D01*
X12398214Y-13896500D01*
X12412500Y-13910786D01*
X12426786Y-13939357D01*
X12441071Y-13996500D01*
X12441071Y-14067929D01*
X12426786Y-14125071D01*
X12412500Y-14153643D01*
X12398214Y-14167929D01*
X12369643Y-14182214D01*
X12341071Y-14182214D01*
X12312500Y-14167929D01*
X12298214Y-14153643D01*
X12283928Y-14125071D01*
X12269643Y-14067929D01*
X12269643Y-13996500D01*
X12283928Y-13939357D01*
X12298214Y-13910786D01*
X12312500Y-13896500D01*
X12341071Y-13882214D01*
X12698214Y-13982214D02*
X12698214Y-14182214D01*
X12626786Y-13867929D02*
X12555357Y-14082214D01*
X12741071Y-14082214D01*
X12826786Y-13882214D02*
X13012500Y-13882214D01*
X12912500Y-13996500D01*
X12955357Y-13996500D01*
X12983928Y-14010786D01*
X12998214Y-14025071D01*
X13012500Y-14053643D01*
X13012500Y-14125071D01*
X12998214Y-14153643D01*
X12983928Y-14167929D01*
X12955357Y-14182214D01*
X12869643Y-14182214D01*
X12841071Y-14167929D01*
X12826786Y-14153643D01*
X13126786Y-13882214D02*
X13126786Y-13939357D01*
X13241071Y-13882214D02*
X13241071Y-13939357D01*
X13683928Y-14296500D02*
X13669643Y-14282214D01*
X13641071Y-14239357D01*
X13626786Y-14210786D01*
X13612500Y-14167929D01*
X13598214Y-14096500D01*
X13598214Y-14039357D01*
X13612500Y-13967929D01*
X13626786Y-13925071D01*
X13641071Y-13896500D01*
X13669643Y-13853643D01*
X13683928Y-13839357D01*
X13955357Y-14182214D02*
X13783928Y-14182214D01*
X13869643Y-14182214D02*
X13869643Y-13882214D01*
X13841071Y-13925071D01*
X13812500Y-13953643D01*
X13783928Y-13967929D01*
X14141071Y-13882214D02*
X14169643Y-13882214D01*
X14198214Y-13896500D01*
X14212500Y-13910786D01*
X14226786Y-13939357D01*
X14241071Y-13996500D01*
X14241071Y-14067929D01*
X14226786Y-14125071D01*
X14212500Y-14153643D01*
X14198214Y-14167929D01*
X14169643Y-14182214D01*
X14141071Y-14182214D01*
X14112500Y-14167929D01*
X14098214Y-14153643D01*
X14083928Y-14125071D01*
X14069643Y-14067929D01*
X14069643Y-13996500D01*
X14083928Y-13939357D01*
X14098214Y-13910786D01*
X14112500Y-13896500D01*
X14141071Y-13882214D01*
X14598214Y-14182214D02*
X14598214Y-13882214D01*
X14726786Y-14182214D02*
X14726786Y-14025071D01*
X14712500Y-13996500D01*
X14683928Y-13982214D01*
X14641071Y-13982214D01*
X14612500Y-13996500D01*
X14598214Y-14010786D01*
X14912500Y-14182214D02*
X14883928Y-14167929D01*
X14869643Y-14153643D01*
X14855357Y-14125071D01*
X14855357Y-14039357D01*
X14869643Y-14010786D01*
X14883928Y-13996500D01*
X14912500Y-13982214D01*
X14955357Y-13982214D01*
X14983928Y-13996500D01*
X14998214Y-14010786D01*
X15012500Y-14039357D01*
X15012500Y-14125071D01*
X14998214Y-14153643D01*
X14983928Y-14167929D01*
X14955357Y-14182214D01*
X14912500Y-14182214D01*
X15183928Y-14182214D02*
X15155357Y-14167929D01*
X15141071Y-14139357D01*
X15141071Y-13882214D01*
X15412500Y-14167929D02*
X15383928Y-14182214D01*
X15326786Y-14182214D01*
X15298214Y-14167929D01*
X15283928Y-14139357D01*
X15283928Y-14025071D01*
X15298214Y-13996500D01*
X15326786Y-13982214D01*
X15383928Y-13982214D01*
X15412500Y-13996500D01*
X15426786Y-14025071D01*
X15426786Y-14053643D01*
X15283928Y-14082214D01*
X15541071Y-14167929D02*
X15569643Y-14182214D01*
X15626786Y-14182214D01*
X15655357Y-14167929D01*
X15669643Y-14139357D01*
X15669643Y-14125071D01*
X15655357Y-14096500D01*
X15626786Y-14082214D01*
X15583928Y-14082214D01*
X15555357Y-14067929D01*
X15541071Y-14039357D01*
X15541071Y-14025071D01*
X15555357Y-13996500D01*
X15583928Y-13982214D01*
X15626786Y-13982214D01*
X15655357Y-13996500D01*
X15769643Y-14296500D02*
X15783928Y-14282214D01*
X15812500Y-14239357D01*
X15826786Y-14210786D01*
X15841071Y-14167929D01*
X15855357Y-14096500D01*
X15855357Y-14039357D01*
X15841071Y-13967929D01*
X15826786Y-13925071D01*
X15812500Y-13896500D01*
X15783928Y-13853643D01*
X15769643Y-13839357D01*
X8857500Y-14372500D02*
X8997500Y-14512500D01*
X8997500Y-14372500D02*
X8857500Y-14512500D01*
X8997500Y-14442500D02*
G75*
G03X8997500Y-14442500I-70000J0D01*
G01*
X9441071Y-14578214D02*
X9269643Y-14578214D01*
X9355357Y-14578214D02*
X9355357Y-14278214D01*
X9326786Y-14321071D01*
X9298214Y-14349643D01*
X9269643Y-14363929D01*
X9569643Y-14549643D02*
X9583928Y-14563929D01*
X9569643Y-14578214D01*
X9555357Y-14563929D01*
X9569643Y-14549643D01*
X9569643Y-14578214D01*
X9841071Y-14378214D02*
X9841071Y-14578214D01*
X9769643Y-14263929D02*
X9698214Y-14478214D01*
X9883928Y-14478214D01*
X10055357Y-14278214D02*
X10083928Y-14278214D01*
X10112500Y-14292500D01*
X10126786Y-14306786D01*
X10141071Y-14335357D01*
X10155357Y-14392500D01*
X10155357Y-14463929D01*
X10141071Y-14521071D01*
X10126786Y-14549643D01*
X10112500Y-14563929D01*
X10083928Y-14578214D01*
X10055357Y-14578214D01*
X10026786Y-14563929D01*
X10012500Y-14549643D01*
X9998214Y-14521071D01*
X9983928Y-14463929D01*
X9983928Y-14392500D01*
X9998214Y-14335357D01*
X10012500Y-14306786D01*
X10026786Y-14292500D01*
X10055357Y-14278214D01*
X10283928Y-14578214D02*
X10283928Y-14378214D01*
X10283928Y-14406786D02*
X10298214Y-14392500D01*
X10326786Y-14378214D01*
X10369643Y-14378214D01*
X10398214Y-14392500D01*
X10412500Y-14421071D01*
X10412500Y-14578214D01*
X10412500Y-14421071D02*
X10426786Y-14392500D01*
X10455357Y-14378214D01*
X10498214Y-14378214D01*
X10526786Y-14392500D01*
X10541071Y-14421071D01*
X10541071Y-14578214D01*
X10683928Y-14578214D02*
X10683928Y-14378214D01*
X10683928Y-14406786D02*
X10698214Y-14392500D01*
X10726786Y-14378214D01*
X10769643Y-14378214D01*
X10798214Y-14392500D01*
X10812500Y-14421071D01*
X10812500Y-14578214D01*
X10812500Y-14421071D02*
X10826786Y-14392500D01*
X10855357Y-14378214D01*
X10898214Y-14378214D01*
X10926786Y-14392500D01*
X10941071Y-14421071D01*
X10941071Y-14578214D01*
X11526786Y-14263929D02*
X11269643Y-14649643D01*
X11912500Y-14278214D02*
X11941071Y-14278214D01*
X11969643Y-14292500D01*
X11983928Y-14306786D01*
X11998214Y-14335357D01*
X12012500Y-14392500D01*
X12012500Y-14463929D01*
X11998214Y-14521071D01*
X11983928Y-14549643D01*
X11969643Y-14563929D01*
X11941071Y-14578214D01*
X11912500Y-14578214D01*
X11883928Y-14563929D01*
X11869643Y-14549643D01*
X11855357Y-14521071D01*
X11841071Y-14463929D01*
X11841071Y-14392500D01*
X11855357Y-14335357D01*
X11869643Y-14306786D01*
X11883928Y-14292500D01*
X11912500Y-14278214D01*
X12141071Y-14549643D02*
X12155357Y-14563929D01*
X12141071Y-14578214D01*
X12126786Y-14563929D01*
X12141071Y-14549643D01*
X12141071Y-14578214D01*
X12341071Y-14278214D02*
X12369643Y-14278214D01*
X12398214Y-14292500D01*
X12412500Y-14306786D01*
X12426786Y-14335357D01*
X12441071Y-14392500D01*
X12441071Y-14463929D01*
X12426786Y-14521071D01*
X12412500Y-14549643D01*
X12398214Y-14563929D01*
X12369643Y-14578214D01*
X12341071Y-14578214D01*
X12312500Y-14563929D01*
X12298214Y-14549643D01*
X12283928Y-14521071D01*
X12269643Y-14463929D01*
X12269643Y-14392500D01*
X12283928Y-14335357D01*
X12298214Y-14306786D01*
X12312500Y-14292500D01*
X12341071Y-14278214D01*
X12712500Y-14278214D02*
X12569643Y-14278214D01*
X12555357Y-14421071D01*
X12569643Y-14406786D01*
X12598214Y-14392500D01*
X12669643Y-14392500D01*
X12698214Y-14406786D01*
X12712500Y-14421071D01*
X12726786Y-14449643D01*
X12726786Y-14521071D01*
X12712500Y-14549643D01*
X12698214Y-14563929D01*
X12669643Y-14578214D01*
X12598214Y-14578214D01*
X12569643Y-14563929D01*
X12555357Y-14549643D01*
X12998214Y-14278214D02*
X12855357Y-14278214D01*
X12841071Y-14421071D01*
X12855357Y-14406786D01*
X12883928Y-14392500D01*
X12955357Y-14392500D01*
X12983928Y-14406786D01*
X12998214Y-14421071D01*
X13012500Y-14449643D01*
X13012500Y-14521071D01*
X12998214Y-14549643D01*
X12983928Y-14563929D01*
X12955357Y-14578214D01*
X12883928Y-14578214D01*
X12855357Y-14563929D01*
X12841071Y-14549643D01*
X13126786Y-14278214D02*
X13126786Y-14335357D01*
X13241071Y-14278214D02*
X13241071Y-14335357D01*
X13683928Y-14692500D02*
X13669643Y-14678214D01*
X13641071Y-14635357D01*
X13626786Y-14606786D01*
X13612500Y-14563929D01*
X13598214Y-14492500D01*
X13598214Y-14435357D01*
X13612500Y-14363929D01*
X13626786Y-14321071D01*
X13641071Y-14292500D01*
X13669643Y-14249643D01*
X13683928Y-14235357D01*
X13783928Y-14306786D02*
X13798214Y-14292500D01*
X13826786Y-14278214D01*
X13898214Y-14278214D01*
X13926786Y-14292500D01*
X13941071Y-14306786D01*
X13955357Y-14335357D01*
X13955357Y-14363929D01*
X13941071Y-14406786D01*
X13769643Y-14578214D01*
X13955357Y-14578214D01*
X14212500Y-14378214D02*
X14212500Y-14578214D01*
X14141071Y-14263929D02*
X14069643Y-14478214D01*
X14255357Y-14478214D01*
X14598214Y-14578214D02*
X14598214Y-14278214D01*
X14726786Y-14578214D02*
X14726786Y-14421071D01*
X14712500Y-14392500D01*
X14683928Y-14378214D01*
X14641071Y-14378214D01*
X14612500Y-14392500D01*
X14598214Y-14406786D01*
X14912500Y-14578214D02*
X14883928Y-14563929D01*
X14869643Y-14549643D01*
X14855357Y-14521071D01*
X14855357Y-14435357D01*
X14869643Y-14406786D01*
X14883928Y-14392500D01*
X14912500Y-14378214D01*
X14955357Y-14378214D01*
X14983928Y-14392500D01*
X14998214Y-14406786D01*
X15012500Y-14435357D01*
X15012500Y-14521071D01*
X14998214Y-14549643D01*
X14983928Y-14563929D01*
X14955357Y-14578214D01*
X14912500Y-14578214D01*
X15183928Y-14578214D02*
X15155357Y-14563929D01*
X15141071Y-14535357D01*
X15141071Y-14278214D01*
X15412500Y-14563929D02*
X15383928Y-14578214D01*
X15326786Y-14578214D01*
X15298214Y-14563929D01*
X15283928Y-14535357D01*
X15283928Y-14421071D01*
X15298214Y-14392500D01*
X15326786Y-14378214D01*
X15383928Y-14378214D01*
X15412500Y-14392500D01*
X15426786Y-14421071D01*
X15426786Y-14449643D01*
X15283928Y-14478214D01*
X15541071Y-14563929D02*
X15569643Y-14578214D01*
X15626786Y-14578214D01*
X15655357Y-14563929D01*
X15669643Y-14535357D01*
X15669643Y-14521071D01*
X15655357Y-14492500D01*
X15626786Y-14478214D01*
X15583928Y-14478214D01*
X15555357Y-14463929D01*
X15541071Y-14435357D01*
X15541071Y-14421071D01*
X15555357Y-14392500D01*
X15583928Y-14378214D01*
X15626786Y-14378214D01*
X15655357Y-14392500D01*
X15769643Y-14692500D02*
X15783928Y-14678214D01*
X15812500Y-14635357D01*
X15826786Y-14606786D01*
X15841071Y-14563929D01*
X15855357Y-14492500D01*
X15855357Y-14435357D01*
X15841071Y-14363929D01*
X15826786Y-14321071D01*
X15812500Y-14292500D01*
X15783928Y-14249643D01*
X15769643Y-14235357D01*
X8847500Y-14763500D02*
X8997500Y-14913500D01*
X8997500Y-14763500D02*
X8847500Y-14913500D01*
X8922500Y-14763500D02*
X8922500Y-14913500D01*
X8847500Y-14838500D02*
X8997500Y-14838500D01*
X9441071Y-14974214D02*
X9269643Y-14974214D01*
X9355357Y-14974214D02*
X9355357Y-14674214D01*
X9326786Y-14717071D01*
X9298214Y-14745643D01*
X9269643Y-14759929D01*
X9569643Y-14945643D02*
X9583928Y-14959929D01*
X9569643Y-14974214D01*
X9555357Y-14959929D01*
X9569643Y-14945643D01*
X9569643Y-14974214D01*
X9855357Y-14674214D02*
X9712500Y-14674214D01*
X9698214Y-14817071D01*
X9712500Y-14802786D01*
X9741071Y-14788500D01*
X9812500Y-14788500D01*
X9841071Y-14802786D01*
X9855357Y-14817071D01*
X9869643Y-14845643D01*
X9869643Y-14917071D01*
X9855357Y-14945643D01*
X9841071Y-14959929D01*
X9812500Y-14974214D01*
X9741071Y-14974214D01*
X9712500Y-14959929D01*
X9698214Y-14945643D01*
X10055357Y-14674214D02*
X10083928Y-14674214D01*
X10112500Y-14688500D01*
X10126786Y-14702786D01*
X10141071Y-14731357D01*
X10155357Y-14788500D01*
X10155357Y-14859929D01*
X10141071Y-14917071D01*
X10126786Y-14945643D01*
X10112500Y-14959929D01*
X10083928Y-14974214D01*
X10055357Y-14974214D01*
X10026786Y-14959929D01*
X10012500Y-14945643D01*
X9998214Y-14917071D01*
X9983928Y-14859929D01*
X9983928Y-14788500D01*
X9998214Y-14731357D01*
X10012500Y-14702786D01*
X10026786Y-14688500D01*
X10055357Y-14674214D01*
X10283928Y-14974214D02*
X10283928Y-14774214D01*
X10283928Y-14802786D02*
X10298214Y-14788500D01*
X10326786Y-14774214D01*
X10369643Y-14774214D01*
X10398214Y-14788500D01*
X10412500Y-14817071D01*
X10412500Y-14974214D01*
X10412500Y-14817071D02*
X10426786Y-14788500D01*
X10455357Y-14774214D01*
X10498214Y-14774214D01*
X10526786Y-14788500D01*
X10541071Y-14817071D01*
X10541071Y-14974214D01*
X10683928Y-14974214D02*
X10683928Y-14774214D01*
X10683928Y-14802786D02*
X10698214Y-14788500D01*
X10726786Y-14774214D01*
X10769643Y-14774214D01*
X10798214Y-14788500D01*
X10812500Y-14817071D01*
X10812500Y-14974214D01*
X10812500Y-14817071D02*
X10826786Y-14788500D01*
X10855357Y-14774214D01*
X10898214Y-14774214D01*
X10926786Y-14788500D01*
X10941071Y-14817071D01*
X10941071Y-14974214D01*
X11526786Y-14659929D02*
X11269643Y-15045643D01*
X11912500Y-14674214D02*
X11941071Y-14674214D01*
X11969643Y-14688500D01*
X11983928Y-14702786D01*
X11998214Y-14731357D01*
X12012500Y-14788500D01*
X12012500Y-14859929D01*
X11998214Y-14917071D01*
X11983928Y-14945643D01*
X11969643Y-14959929D01*
X11941071Y-14974214D01*
X11912500Y-14974214D01*
X11883928Y-14959929D01*
X11869643Y-14945643D01*
X11855357Y-14917071D01*
X11841071Y-14859929D01*
X11841071Y-14788500D01*
X11855357Y-14731357D01*
X11869643Y-14702786D01*
X11883928Y-14688500D01*
X11912500Y-14674214D01*
X12141071Y-14945643D02*
X12155357Y-14959929D01*
X12141071Y-14974214D01*
X12126786Y-14959929D01*
X12141071Y-14945643D01*
X12141071Y-14974214D01*
X12341071Y-14674214D02*
X12369643Y-14674214D01*
X12398214Y-14688500D01*
X12412500Y-14702786D01*
X12426786Y-14731357D01*
X12441071Y-14788500D01*
X12441071Y-14859929D01*
X12426786Y-14917071D01*
X12412500Y-14945643D01*
X12398214Y-14959929D01*
X12369643Y-14974214D01*
X12341071Y-14974214D01*
X12312500Y-14959929D01*
X12298214Y-14945643D01*
X12283928Y-14917071D01*
X12269643Y-14859929D01*
X12269643Y-14788500D01*
X12283928Y-14731357D01*
X12298214Y-14702786D01*
X12312500Y-14688500D01*
X12341071Y-14674214D01*
X12712500Y-14674214D02*
X12569643Y-14674214D01*
X12555357Y-14817071D01*
X12569643Y-14802786D01*
X12598214Y-14788500D01*
X12669643Y-14788500D01*
X12698214Y-14802786D01*
X12712500Y-14817071D01*
X12726786Y-14845643D01*
X12726786Y-14917071D01*
X12712500Y-14945643D01*
X12698214Y-14959929D01*
X12669643Y-14974214D01*
X12598214Y-14974214D01*
X12569643Y-14959929D01*
X12555357Y-14945643D01*
X12869643Y-14974214D02*
X12926786Y-14974214D01*
X12955357Y-14959929D01*
X12969643Y-14945643D01*
X12998214Y-14902786D01*
X13012500Y-14845643D01*
X13012500Y-14731357D01*
X12998214Y-14702786D01*
X12983928Y-14688500D01*
X12955357Y-14674214D01*
X12898214Y-14674214D01*
X12869643Y-14688500D01*
X12855357Y-14702786D01*
X12841071Y-14731357D01*
X12841071Y-14802786D01*
X12855357Y-14831357D01*
X12869643Y-14845643D01*
X12898214Y-14859929D01*
X12955357Y-14859929D01*
X12983928Y-14845643D01*
X12998214Y-14831357D01*
X13012500Y-14802786D01*
X13126786Y-14674214D02*
X13126786Y-14731357D01*
X13241071Y-14674214D02*
X13241071Y-14731357D01*
X13683928Y-15088500D02*
X13669643Y-15074214D01*
X13641071Y-15031357D01*
X13626786Y-15002786D01*
X13612500Y-14959929D01*
X13598214Y-14888500D01*
X13598214Y-14831357D01*
X13612500Y-14759929D01*
X13626786Y-14717071D01*
X13641071Y-14688500D01*
X13669643Y-14645643D01*
X13683928Y-14631357D01*
X13783928Y-14702786D02*
X13798214Y-14688500D01*
X13826786Y-14674214D01*
X13898214Y-14674214D01*
X13926786Y-14688500D01*
X13941071Y-14702786D01*
X13955357Y-14731357D01*
X13955357Y-14759929D01*
X13941071Y-14802786D01*
X13769643Y-14974214D01*
X13955357Y-14974214D01*
X14312500Y-14974214D02*
X14312500Y-14674214D01*
X14441071Y-14974214D02*
X14441071Y-14817071D01*
X14426786Y-14788500D01*
X14398214Y-14774214D01*
X14355357Y-14774214D01*
X14326786Y-14788500D01*
X14312500Y-14802786D01*
X14626786Y-14974214D02*
X14598214Y-14959929D01*
X14583928Y-14945643D01*
X14569643Y-14917071D01*
X14569643Y-14831357D01*
X14583928Y-14802786D01*
X14598214Y-14788500D01*
X14626786Y-14774214D01*
X14669643Y-14774214D01*
X14698214Y-14788500D01*
X14712500Y-14802786D01*
X14726786Y-14831357D01*
X14726786Y-14917071D01*
X14712500Y-14945643D01*
X14698214Y-14959929D01*
X14669643Y-14974214D01*
X14626786Y-14974214D01*
X14898214Y-14974214D02*
X14869643Y-14959929D01*
X14855357Y-14931357D01*
X14855357Y-14674214D01*
X15126786Y-14959929D02*
X15098214Y-14974214D01*
X15041071Y-14974214D01*
X15012500Y-14959929D01*
X14998214Y-14931357D01*
X14998214Y-14817071D01*
X15012500Y-14788500D01*
X15041071Y-14774214D01*
X15098214Y-14774214D01*
X15126786Y-14788500D01*
X15141071Y-14817071D01*
X15141071Y-14845643D01*
X14998214Y-14874214D01*
X15255357Y-14959929D02*
X15283928Y-14974214D01*
X15341071Y-14974214D01*
X15369643Y-14959929D01*
X15383928Y-14931357D01*
X15383928Y-14917071D01*
X15369643Y-14888500D01*
X15341071Y-14874214D01*
X15298214Y-14874214D01*
X15269643Y-14859929D01*
X15255357Y-14831357D01*
X15255357Y-14817071D01*
X15269643Y-14788500D01*
X15298214Y-14774214D01*
X15341071Y-14774214D01*
X15369643Y-14788500D01*
X15483928Y-15088500D02*
X15498214Y-15074214D01*
X15526786Y-15031357D01*
X15541071Y-15002786D01*
X15555357Y-14959929D01*
X15569643Y-14888500D01*
X15569643Y-14831357D01*
X15555357Y-14759929D01*
X15541071Y-14717071D01*
X15526786Y-14688500D01*
X15498214Y-14645643D01*
X15483928Y-14631357D01*
X8777500Y-15124500D02*
X8997500Y-15344500D01*
X8997500Y-15124500D02*
X8777500Y-15344500D01*
X8965282Y-15312283D02*
X8965282Y-15156718D01*
X8809717Y-15156718D01*
X8809717Y-15312283D01*
X8965282Y-15312283D01*
X9269643Y-15098786D02*
X9283928Y-15084500D01*
X9312500Y-15070214D01*
X9383928Y-15070214D01*
X9412500Y-15084500D01*
X9426786Y-15098786D01*
X9441071Y-15127357D01*
X9441071Y-15155929D01*
X9426786Y-15198786D01*
X9255357Y-15370214D01*
X9441071Y-15370214D01*
X9569643Y-15341643D02*
X9583928Y-15355929D01*
X9569643Y-15370214D01*
X9555357Y-15355929D01*
X9569643Y-15341643D01*
X9569643Y-15370214D01*
X9698214Y-15098786D02*
X9712500Y-15084500D01*
X9741071Y-15070214D01*
X9812500Y-15070214D01*
X9841071Y-15084500D01*
X9855357Y-15098786D01*
X9869643Y-15127357D01*
X9869643Y-15155929D01*
X9855357Y-15198786D01*
X9683928Y-15370214D01*
X9869643Y-15370214D01*
X10055357Y-15070214D02*
X10083928Y-15070214D01*
X10112500Y-15084500D01*
X10126786Y-15098786D01*
X10141071Y-15127357D01*
X10155357Y-15184500D01*
X10155357Y-15255929D01*
X10141071Y-15313071D01*
X10126786Y-15341643D01*
X10112500Y-15355929D01*
X10083928Y-15370214D01*
X10055357Y-15370214D01*
X10026786Y-15355929D01*
X10012500Y-15341643D01*
X9998214Y-15313071D01*
X9983928Y-15255929D01*
X9983928Y-15184500D01*
X9998214Y-15127357D01*
X10012500Y-15098786D01*
X10026786Y-15084500D01*
X10055357Y-15070214D01*
X10283928Y-15370214D02*
X10283928Y-15170214D01*
X10283928Y-15198786D02*
X10298214Y-15184500D01*
X10326786Y-15170214D01*
X10369643Y-15170214D01*
X10398214Y-15184500D01*
X10412500Y-15213071D01*
X10412500Y-15370214D01*
X10412500Y-15213071D02*
X10426786Y-15184500D01*
X10455357Y-15170214D01*
X10498214Y-15170214D01*
X10526786Y-15184500D01*
X10541071Y-15213071D01*
X10541071Y-15370214D01*
X10683928Y-15370214D02*
X10683928Y-15170214D01*
X10683928Y-15198786D02*
X10698214Y-15184500D01*
X10726786Y-15170214D01*
X10769643Y-15170214D01*
X10798214Y-15184500D01*
X10812500Y-15213071D01*
X10812500Y-15370214D01*
X10812500Y-15213071D02*
X10826786Y-15184500D01*
X10855357Y-15170214D01*
X10898214Y-15170214D01*
X10926786Y-15184500D01*
X10941071Y-15213071D01*
X10941071Y-15370214D01*
X11526786Y-15055929D02*
X11269643Y-15441643D01*
X11912500Y-15070214D02*
X11941071Y-15070214D01*
X11969643Y-15084500D01*
X11983928Y-15098786D01*
X11998214Y-15127357D01*
X12012500Y-15184500D01*
X12012500Y-15255929D01*
X11998214Y-15313071D01*
X11983928Y-15341643D01*
X11969643Y-15355929D01*
X11941071Y-15370214D01*
X11912500Y-15370214D01*
X11883928Y-15355929D01*
X11869643Y-15341643D01*
X11855357Y-15313071D01*
X11841071Y-15255929D01*
X11841071Y-15184500D01*
X11855357Y-15127357D01*
X11869643Y-15098786D01*
X11883928Y-15084500D01*
X11912500Y-15070214D01*
X12141071Y-15341643D02*
X12155357Y-15355929D01*
X12141071Y-15370214D01*
X12126786Y-15355929D01*
X12141071Y-15341643D01*
X12141071Y-15370214D01*
X12341071Y-15070214D02*
X12369643Y-15070214D01*
X12398214Y-15084500D01*
X12412500Y-15098786D01*
X12426786Y-15127357D01*
X12441071Y-15184500D01*
X12441071Y-15255929D01*
X12426786Y-15313071D01*
X12412500Y-15341643D01*
X12398214Y-15355929D01*
X12369643Y-15370214D01*
X12341071Y-15370214D01*
X12312500Y-15355929D01*
X12298214Y-15341643D01*
X12283928Y-15313071D01*
X12269643Y-15255929D01*
X12269643Y-15184500D01*
X12283928Y-15127357D01*
X12298214Y-15098786D01*
X12312500Y-15084500D01*
X12341071Y-15070214D01*
X12612500Y-15198786D02*
X12583928Y-15184500D01*
X12569643Y-15170214D01*
X12555357Y-15141643D01*
X12555357Y-15127357D01*
X12569643Y-15098786D01*
X12583928Y-15084500D01*
X12612500Y-15070214D01*
X12669643Y-15070214D01*
X12698214Y-15084500D01*
X12712500Y-15098786D01*
X12726786Y-15127357D01*
X12726786Y-15141643D01*
X12712500Y-15170214D01*
X12698214Y-15184500D01*
X12669643Y-15198786D01*
X12612500Y-15198786D01*
X12583928Y-15213071D01*
X12569643Y-15227357D01*
X12555357Y-15255929D01*
X12555357Y-15313071D01*
X12569643Y-15341643D01*
X12583928Y-15355929D01*
X12612500Y-15370214D01*
X12669643Y-15370214D01*
X12698214Y-15355929D01*
X12712500Y-15341643D01*
X12726786Y-15313071D01*
X12726786Y-15255929D01*
X12712500Y-15227357D01*
X12698214Y-15213071D01*
X12669643Y-15198786D01*
X12826786Y-15070214D02*
X13026786Y-15070214D01*
X12898214Y-15370214D01*
X13126786Y-15070214D02*
X13126786Y-15127357D01*
X13241071Y-15070214D02*
X13241071Y-15127357D01*
X13683928Y-15484500D02*
X13669643Y-15470214D01*
X13641071Y-15427357D01*
X13626786Y-15398786D01*
X13612500Y-15355929D01*
X13598214Y-15284500D01*
X13598214Y-15227357D01*
X13612500Y-15155929D01*
X13626786Y-15113071D01*
X13641071Y-15084500D01*
X13669643Y-15041643D01*
X13683928Y-15027357D01*
X13783928Y-15098786D02*
X13798214Y-15084500D01*
X13826786Y-15070214D01*
X13898214Y-15070214D01*
X13926786Y-15084500D01*
X13941071Y-15098786D01*
X13955357Y-15127357D01*
X13955357Y-15155929D01*
X13941071Y-15198786D01*
X13769643Y-15370214D01*
X13955357Y-15370214D01*
X14312500Y-15370214D02*
X14312500Y-15070214D01*
X14441071Y-15370214D02*
X14441071Y-15213071D01*
X14426786Y-15184500D01*
X14398214Y-15170214D01*
X14355357Y-15170214D01*
X14326786Y-15184500D01*
X14312500Y-15198786D01*
X14626786Y-15370214D02*
X14598214Y-15355929D01*
X14583928Y-15341643D01*
X14569643Y-15313071D01*
X14569643Y-15227357D01*
X14583928Y-15198786D01*
X14598214Y-15184500D01*
X14626786Y-15170214D01*
X14669643Y-15170214D01*
X14698214Y-15184500D01*
X14712500Y-15198786D01*
X14726786Y-15227357D01*
X14726786Y-15313071D01*
X14712500Y-15341643D01*
X14698214Y-15355929D01*
X14669643Y-15370214D01*
X14626786Y-15370214D01*
X14898214Y-15370214D02*
X14869643Y-15355929D01*
X14855357Y-15327357D01*
X14855357Y-15070214D01*
X15126786Y-15355929D02*
X15098214Y-15370214D01*
X15041071Y-15370214D01*
X15012500Y-15355929D01*
X14998214Y-15327357D01*
X14998214Y-15213071D01*
X15012500Y-15184500D01*
X15041071Y-15170214D01*
X15098214Y-15170214D01*
X15126786Y-15184500D01*
X15141071Y-15213071D01*
X15141071Y-15241643D01*
X14998214Y-15270214D01*
X15255357Y-15355929D02*
X15283928Y-15370214D01*
X15341071Y-15370214D01*
X15369643Y-15355929D01*
X15383928Y-15327357D01*
X15383928Y-15313071D01*
X15369643Y-15284500D01*
X15341071Y-15270214D01*
X15298214Y-15270214D01*
X15269643Y-15255929D01*
X15255357Y-15227357D01*
X15255357Y-15213071D01*
X15269643Y-15184500D01*
X15298214Y-15170214D01*
X15341071Y-15170214D01*
X15369643Y-15184500D01*
X15483928Y-15484500D02*
X15498214Y-15470214D01*
X15526786Y-15427357D01*
X15541071Y-15398786D01*
X15555357Y-15355929D01*
X15569643Y-15284500D01*
X15569643Y-15227357D01*
X15555357Y-15155929D01*
X15541071Y-15113071D01*
X15526786Y-15084500D01*
X15498214Y-15041643D01*
X15483928Y-15027357D01*
X8677500Y-15470500D02*
X8997500Y-15790500D01*
X8997500Y-15470500D02*
X8677500Y-15790500D01*
X8837500Y-15790500D02*
X8997500Y-15630500D01*
X8837500Y-15470500D01*
X8677500Y-15630500D01*
X8837500Y-15790500D01*
X9255357Y-15466214D02*
X9441071Y-15466214D01*
X9341071Y-15580500D01*
X9383928Y-15580500D01*
X9412500Y-15594786D01*
X9426786Y-15609071D01*
X9441071Y-15637643D01*
X9441071Y-15709071D01*
X9426786Y-15737643D01*
X9412500Y-15751929D01*
X9383928Y-15766214D01*
X9298214Y-15766214D01*
X9269643Y-15751929D01*
X9255357Y-15737643D01*
X9569643Y-15737643D02*
X9583928Y-15751929D01*
X9569643Y-15766214D01*
X9555357Y-15751929D01*
X9569643Y-15737643D01*
X9569643Y-15766214D01*
X9698214Y-15494786D02*
X9712500Y-15480500D01*
X9741071Y-15466214D01*
X9812500Y-15466214D01*
X9841071Y-15480500D01*
X9855357Y-15494786D01*
X9869643Y-15523357D01*
X9869643Y-15551929D01*
X9855357Y-15594786D01*
X9683928Y-15766214D01*
X9869643Y-15766214D01*
X10055357Y-15466214D02*
X10083928Y-15466214D01*
X10112500Y-15480500D01*
X10126786Y-15494786D01*
X10141071Y-15523357D01*
X10155357Y-15580500D01*
X10155357Y-15651929D01*
X10141071Y-15709071D01*
X10126786Y-15737643D01*
X10112500Y-15751929D01*
X10083928Y-15766214D01*
X10055357Y-15766214D01*
X10026786Y-15751929D01*
X10012500Y-15737643D01*
X9998214Y-15709071D01*
X9983928Y-15651929D01*
X9983928Y-15580500D01*
X9998214Y-15523357D01*
X10012500Y-15494786D01*
X10026786Y-15480500D01*
X10055357Y-15466214D01*
X10283928Y-15766214D02*
X10283928Y-15566214D01*
X10283928Y-15594786D02*
X10298214Y-15580500D01*
X10326786Y-15566214D01*
X10369643Y-15566214D01*
X10398214Y-15580500D01*
X10412500Y-15609071D01*
X10412500Y-15766214D01*
X10412500Y-15609071D02*
X10426786Y-15580500D01*
X10455357Y-15566214D01*
X10498214Y-15566214D01*
X10526786Y-15580500D01*
X10541071Y-15609071D01*
X10541071Y-15766214D01*
X10683928Y-15766214D02*
X10683928Y-15566214D01*
X10683928Y-15594786D02*
X10698214Y-15580500D01*
X10726786Y-15566214D01*
X10769643Y-15566214D01*
X10798214Y-15580500D01*
X10812500Y-15609071D01*
X10812500Y-15766214D01*
X10812500Y-15609071D02*
X10826786Y-15580500D01*
X10855357Y-15566214D01*
X10898214Y-15566214D01*
X10926786Y-15580500D01*
X10941071Y-15609071D01*
X10941071Y-15766214D01*
X11526786Y-15451929D02*
X11269643Y-15837643D01*
X11912500Y-15466214D02*
X11941071Y-15466214D01*
X11969643Y-15480500D01*
X11983928Y-15494786D01*
X11998214Y-15523357D01*
X12012500Y-15580500D01*
X12012500Y-15651929D01*
X11998214Y-15709071D01*
X11983928Y-15737643D01*
X11969643Y-15751929D01*
X11941071Y-15766214D01*
X11912500Y-15766214D01*
X11883928Y-15751929D01*
X11869643Y-15737643D01*
X11855357Y-15709071D01*
X11841071Y-15651929D01*
X11841071Y-15580500D01*
X11855357Y-15523357D01*
X11869643Y-15494786D01*
X11883928Y-15480500D01*
X11912500Y-15466214D01*
X12141071Y-15737643D02*
X12155357Y-15751929D01*
X12141071Y-15766214D01*
X12126786Y-15751929D01*
X12141071Y-15737643D01*
X12141071Y-15766214D01*
X12441071Y-15766214D02*
X12269643Y-15766214D01*
X12355357Y-15766214D02*
X12355357Y-15466214D01*
X12326786Y-15509071D01*
X12298214Y-15537643D01*
X12269643Y-15551929D01*
X12555357Y-15494786D02*
X12569643Y-15480500D01*
X12598214Y-15466214D01*
X12669643Y-15466214D01*
X12698214Y-15480500D01*
X12712500Y-15494786D01*
X12726786Y-15523357D01*
X12726786Y-15551929D01*
X12712500Y-15594786D01*
X12541071Y-15766214D01*
X12726786Y-15766214D01*
X12983928Y-15466214D02*
X12926786Y-15466214D01*
X12898214Y-15480500D01*
X12883928Y-15494786D01*
X12855357Y-15537643D01*
X12841071Y-15594786D01*
X12841071Y-15709071D01*
X12855357Y-15737643D01*
X12869643Y-15751929D01*
X12898214Y-15766214D01*
X12955357Y-15766214D01*
X12983928Y-15751929D01*
X12998214Y-15737643D01*
X13012500Y-15709071D01*
X13012500Y-15637643D01*
X12998214Y-15609071D01*
X12983928Y-15594786D01*
X12955357Y-15580500D01*
X12898214Y-15580500D01*
X12869643Y-15594786D01*
X12855357Y-15609071D01*
X12841071Y-15637643D01*
X13126786Y-15466214D02*
X13126786Y-15523357D01*
X13241071Y-15466214D02*
X13241071Y-15523357D01*
X13683928Y-15880500D02*
X13669643Y-15866214D01*
X13641071Y-15823357D01*
X13626786Y-15794786D01*
X13612500Y-15751929D01*
X13598214Y-15680500D01*
X13598214Y-15623357D01*
X13612500Y-15551929D01*
X13626786Y-15509071D01*
X13641071Y-15480500D01*
X13669643Y-15437643D01*
X13683928Y-15423357D01*
X13926786Y-15566214D02*
X13926786Y-15766214D01*
X13855357Y-15451929D02*
X13783928Y-15666214D01*
X13969643Y-15666214D01*
X14312500Y-15766214D02*
X14312500Y-15466214D01*
X14441071Y-15766214D02*
X14441071Y-15609071D01*
X14426786Y-15580500D01*
X14398214Y-15566214D01*
X14355357Y-15566214D01*
X14326786Y-15580500D01*
X14312500Y-15594786D01*
X14626786Y-15766214D02*
X14598214Y-15751929D01*
X14583928Y-15737643D01*
X14569643Y-15709071D01*
X14569643Y-15623357D01*
X14583928Y-15594786D01*
X14598214Y-15580500D01*
X14626786Y-15566214D01*
X14669643Y-15566214D01*
X14698214Y-15580500D01*
X14712500Y-15594786D01*
X14726786Y-15623357D01*
X14726786Y-15709071D01*
X14712500Y-15737643D01*
X14698214Y-15751929D01*
X14669643Y-15766214D01*
X14626786Y-15766214D01*
X14898214Y-15766214D02*
X14869643Y-15751929D01*
X14855357Y-15723357D01*
X14855357Y-15466214D01*
X15126786Y-15751929D02*
X15098214Y-15766214D01*
X15041071Y-15766214D01*
X15012500Y-15751929D01*
X14998214Y-15723357D01*
X14998214Y-15609071D01*
X15012500Y-15580500D01*
X15041071Y-15566214D01*
X15098214Y-15566214D01*
X15126786Y-15580500D01*
X15141071Y-15609071D01*
X15141071Y-15637643D01*
X14998214Y-15666214D01*
X15255357Y-15751929D02*
X15283928Y-15766214D01*
X15341071Y-15766214D01*
X15369643Y-15751929D01*
X15383928Y-15723357D01*
X15383928Y-15709071D01*
X15369643Y-15680500D01*
X15341071Y-15666214D01*
X15298214Y-15666214D01*
X15269643Y-15651929D01*
X15255357Y-15623357D01*
X15255357Y-15609071D01*
X15269643Y-15580500D01*
X15298214Y-15566214D01*
X15341071Y-15566214D01*
X15369643Y-15580500D01*
X15483928Y-15880500D02*
X15498214Y-15866214D01*
X15526786Y-15823357D01*
X15541071Y-15794786D01*
X15555357Y-15751929D01*
X15569643Y-15680500D01*
X15569643Y-15623357D01*
X15555357Y-15551929D01*
X15541071Y-15509071D01*
X15526786Y-15480500D01*
X15498214Y-15437643D01*
X15483928Y-15423357D01*
M02*
