%TF.GenerationSoftware,KiCad,Pcbnew,5.1.5+dfsg1-2build2*%
%TF.CreationDate,2021-12-29T18:24:04+01:00*%
%TF.ProjectId,motorDriver,6d6f746f-7244-4726-9976-65722e6b6963,rev?*%
%TF.SameCoordinates,Original*%
%TF.FileFunction,Soldermask,Bot*%
%TF.FilePolarity,Negative*%
%FSLAX46Y46*%
G04 Gerber Fmt 4.6, Leading zero omitted, Abs format (unit mm)*
G04 Created by KiCad (PCBNEW 5.1.5+dfsg1-2build2) date 2021-12-29 18:24:04*
%MOMM*%
%LPD*%
G04 APERTURE LIST*
%ADD10C,0.100000*%
%ADD11O,2.700000X2.700000*%
%ADD12R,2.700000X2.700000*%
%ADD13C,1.600000*%
%ADD14C,2.200000*%
%ADD15R,2.200000X2.200000*%
%ADD16C,5.700000*%
%ADD17O,2.100000X2.100000*%
%ADD18R,2.100000X2.100000*%
%ADD19O,1.800000X1.800000*%
%ADD20R,1.800000X1.800000*%
%ADD21C,2.400000*%
%ADD22C,0.800000*%
%ADD23C,4.500000*%
%ADD24O,1.100000X1.100000*%
%ADD25R,1.100000X1.100000*%
%ADD26C,0.700000*%
%ADD27O,0.950000X1.800000*%
%ADD28C,0.900000*%
G04 APERTURE END LIST*
D10*
G36*
X97000000Y-88700000D02*
G01*
X90600000Y-88700000D01*
X90600000Y-78700000D01*
X97000000Y-78700000D01*
X97000000Y-88700000D01*
G37*
X97000000Y-88700000D02*
X90600000Y-88700000D01*
X90600000Y-78700000D01*
X97000000Y-78700000D01*
X97000000Y-88700000D01*
G36*
X97000000Y-101250000D02*
G01*
X90600000Y-101250000D01*
X90600000Y-91250000D01*
X97000000Y-91250000D01*
X97000000Y-101250000D01*
G37*
X97000000Y-101250000D02*
X90600000Y-101250000D01*
X90600000Y-91250000D01*
X97000000Y-91250000D01*
X97000000Y-101250000D01*
D11*
%TO.C,D34*%
X180000200Y-77228400D03*
D12*
X180000200Y-87603400D03*
%TD*%
D11*
%TO.C,D33*%
X186875000Y-102650000D03*
D12*
X176500000Y-102650000D03*
%TD*%
D11*
%TO.C,D29*%
X165250200Y-77228400D03*
D12*
X165250200Y-87603400D03*
%TD*%
D11*
%TO.C,D28*%
X172100000Y-102650000D03*
D12*
X161725000Y-102650000D03*
%TD*%
D11*
%TO.C,D24*%
X150370200Y-77228400D03*
D12*
X150370200Y-87603400D03*
%TD*%
D11*
%TO.C,D23*%
X157225000Y-102650000D03*
D12*
X146850000Y-102650000D03*
%TD*%
D11*
%TO.C,D19*%
X133130000Y-77225000D03*
D12*
X133130000Y-87600000D03*
%TD*%
D11*
%TO.C,D18*%
X139975000Y-102650000D03*
D12*
X129600000Y-102650000D03*
%TD*%
D11*
%TO.C,D14*%
X118380000Y-77225000D03*
D12*
X118380000Y-87600000D03*
%TD*%
D11*
%TO.C,D13*%
X125275000Y-102650000D03*
D12*
X114900000Y-102650000D03*
%TD*%
D11*
%TO.C,D9*%
X103500000Y-77225000D03*
D12*
X103500000Y-87600000D03*
%TD*%
D11*
%TO.C,D8*%
X111850000Y-102650000D03*
D12*
X101475000Y-102650000D03*
%TD*%
D13*
%TO.C,J8*%
X158000000Y-63250000D03*
%TD*%
D14*
%TO.C,J2*%
X120250000Y-47200000D03*
D15*
X115250000Y-47200000D03*
%TD*%
D10*
%TO.C,C32*%
G36*
X116065484Y-88001252D02*
G01*
X116090723Y-88004996D01*
X116115474Y-88011196D01*
X116139498Y-88019791D01*
X116162563Y-88030700D01*
X116184448Y-88043818D01*
X116204942Y-88059017D01*
X116223848Y-88076152D01*
X116240983Y-88095058D01*
X116256182Y-88115552D01*
X116269300Y-88137437D01*
X116280209Y-88160502D01*
X116288804Y-88184526D01*
X116295004Y-88209277D01*
X116298748Y-88234516D01*
X116300000Y-88260000D01*
X116300000Y-92240000D01*
X116298748Y-92265484D01*
X116295004Y-92290723D01*
X116288804Y-92315474D01*
X116280209Y-92339498D01*
X116269300Y-92362563D01*
X116256182Y-92384448D01*
X116240983Y-92404942D01*
X116223848Y-92423848D01*
X116204942Y-92440983D01*
X116184448Y-92456182D01*
X116162563Y-92469300D01*
X116139498Y-92480209D01*
X116115474Y-92488804D01*
X116090723Y-92495004D01*
X116065484Y-92498748D01*
X116040000Y-92500000D01*
X113960000Y-92500000D01*
X113934516Y-92498748D01*
X113909277Y-92495004D01*
X113884526Y-92488804D01*
X113860502Y-92480209D01*
X113837437Y-92469300D01*
X113815552Y-92456182D01*
X113795058Y-92440983D01*
X113776152Y-92423848D01*
X113759017Y-92404942D01*
X113743818Y-92384448D01*
X113730700Y-92362563D01*
X113719791Y-92339498D01*
X113711196Y-92315474D01*
X113704996Y-92290723D01*
X113701252Y-92265484D01*
X113700000Y-92240000D01*
X113700000Y-88260000D01*
X113701252Y-88234516D01*
X113704996Y-88209277D01*
X113711196Y-88184526D01*
X113719791Y-88160502D01*
X113730700Y-88137437D01*
X113743818Y-88115552D01*
X113759017Y-88095058D01*
X113776152Y-88076152D01*
X113795058Y-88059017D01*
X113815552Y-88043818D01*
X113837437Y-88030700D01*
X113860502Y-88019791D01*
X113884526Y-88011196D01*
X113909277Y-88004996D01*
X113934516Y-88001252D01*
X113960000Y-88000000D01*
X116040000Y-88000000D01*
X116065484Y-88001252D01*
G37*
G36*
X116065484Y-96401252D02*
G01*
X116090723Y-96404996D01*
X116115474Y-96411196D01*
X116139498Y-96419791D01*
X116162563Y-96430700D01*
X116184448Y-96443818D01*
X116204942Y-96459017D01*
X116223848Y-96476152D01*
X116240983Y-96495058D01*
X116256182Y-96515552D01*
X116269300Y-96537437D01*
X116280209Y-96560502D01*
X116288804Y-96584526D01*
X116295004Y-96609277D01*
X116298748Y-96634516D01*
X116300000Y-96660000D01*
X116300000Y-100640000D01*
X116298748Y-100665484D01*
X116295004Y-100690723D01*
X116288804Y-100715474D01*
X116280209Y-100739498D01*
X116269300Y-100762563D01*
X116256182Y-100784448D01*
X116240983Y-100804942D01*
X116223848Y-100823848D01*
X116204942Y-100840983D01*
X116184448Y-100856182D01*
X116162563Y-100869300D01*
X116139498Y-100880209D01*
X116115474Y-100888804D01*
X116090723Y-100895004D01*
X116065484Y-100898748D01*
X116040000Y-100900000D01*
X113960000Y-100900000D01*
X113934516Y-100898748D01*
X113909277Y-100895004D01*
X113884526Y-100888804D01*
X113860502Y-100880209D01*
X113837437Y-100869300D01*
X113815552Y-100856182D01*
X113795058Y-100840983D01*
X113776152Y-100823848D01*
X113759017Y-100804942D01*
X113743818Y-100784448D01*
X113730700Y-100762563D01*
X113719791Y-100739498D01*
X113711196Y-100715474D01*
X113704996Y-100690723D01*
X113701252Y-100665484D01*
X113700000Y-100640000D01*
X113700000Y-96660000D01*
X113701252Y-96634516D01*
X113704996Y-96609277D01*
X113711196Y-96584526D01*
X113719791Y-96560502D01*
X113730700Y-96537437D01*
X113743818Y-96515552D01*
X113759017Y-96495058D01*
X113776152Y-96476152D01*
X113795058Y-96459017D01*
X113815552Y-96443818D01*
X113837437Y-96430700D01*
X113860502Y-96419791D01*
X113884526Y-96411196D01*
X113909277Y-96404996D01*
X113934516Y-96401252D01*
X113960000Y-96400000D01*
X116040000Y-96400000D01*
X116065484Y-96401252D01*
G37*
%TD*%
%TO.C,L1*%
G36*
X151538229Y-48551264D02*
G01*
X151563711Y-48555044D01*
X151588700Y-48561303D01*
X151612954Y-48569982D01*
X151636242Y-48580996D01*
X151658337Y-48594239D01*
X151679028Y-48609585D01*
X151698116Y-48626884D01*
X151715415Y-48645972D01*
X151730761Y-48666663D01*
X151744004Y-48688758D01*
X151755018Y-48712046D01*
X151763697Y-48736300D01*
X151769956Y-48761289D01*
X151773736Y-48786771D01*
X151775000Y-48812500D01*
X151775000Y-49437500D01*
X151773736Y-49463229D01*
X151769956Y-49488711D01*
X151763697Y-49513700D01*
X151755018Y-49537954D01*
X151744004Y-49561242D01*
X151730761Y-49583337D01*
X151715415Y-49604028D01*
X151698116Y-49623116D01*
X151679028Y-49640415D01*
X151658337Y-49655761D01*
X151636242Y-49669004D01*
X151612954Y-49680018D01*
X151588700Y-49688697D01*
X151563711Y-49694956D01*
X151538229Y-49698736D01*
X151512500Y-49700000D01*
X150987500Y-49700000D01*
X150961771Y-49698736D01*
X150936289Y-49694956D01*
X150911300Y-49688697D01*
X150887046Y-49680018D01*
X150863758Y-49669004D01*
X150841663Y-49655761D01*
X150820972Y-49640415D01*
X150801884Y-49623116D01*
X150784585Y-49604028D01*
X150769239Y-49583337D01*
X150755996Y-49561242D01*
X150744982Y-49537954D01*
X150736303Y-49513700D01*
X150730044Y-49488711D01*
X150726264Y-49463229D01*
X150725000Y-49437500D01*
X150725000Y-48812500D01*
X150726264Y-48786771D01*
X150730044Y-48761289D01*
X150736303Y-48736300D01*
X150744982Y-48712046D01*
X150755996Y-48688758D01*
X150769239Y-48666663D01*
X150784585Y-48645972D01*
X150801884Y-48626884D01*
X150820972Y-48609585D01*
X150841663Y-48594239D01*
X150863758Y-48580996D01*
X150887046Y-48569982D01*
X150911300Y-48561303D01*
X150936289Y-48555044D01*
X150961771Y-48551264D01*
X150987500Y-48550000D01*
X151512500Y-48550000D01*
X151538229Y-48551264D01*
G37*
G36*
X151538229Y-50301264D02*
G01*
X151563711Y-50305044D01*
X151588700Y-50311303D01*
X151612954Y-50319982D01*
X151636242Y-50330996D01*
X151658337Y-50344239D01*
X151679028Y-50359585D01*
X151698116Y-50376884D01*
X151715415Y-50395972D01*
X151730761Y-50416663D01*
X151744004Y-50438758D01*
X151755018Y-50462046D01*
X151763697Y-50486300D01*
X151769956Y-50511289D01*
X151773736Y-50536771D01*
X151775000Y-50562500D01*
X151775000Y-51187500D01*
X151773736Y-51213229D01*
X151769956Y-51238711D01*
X151763697Y-51263700D01*
X151755018Y-51287954D01*
X151744004Y-51311242D01*
X151730761Y-51333337D01*
X151715415Y-51354028D01*
X151698116Y-51373116D01*
X151679028Y-51390415D01*
X151658337Y-51405761D01*
X151636242Y-51419004D01*
X151612954Y-51430018D01*
X151588700Y-51438697D01*
X151563711Y-51444956D01*
X151538229Y-51448736D01*
X151512500Y-51450000D01*
X150987500Y-51450000D01*
X150961771Y-51448736D01*
X150936289Y-51444956D01*
X150911300Y-51438697D01*
X150887046Y-51430018D01*
X150863758Y-51419004D01*
X150841663Y-51405761D01*
X150820972Y-51390415D01*
X150801884Y-51373116D01*
X150784585Y-51354028D01*
X150769239Y-51333337D01*
X150755996Y-51311242D01*
X150744982Y-51287954D01*
X150736303Y-51263700D01*
X150730044Y-51238711D01*
X150726264Y-51213229D01*
X150725000Y-51187500D01*
X150725000Y-50562500D01*
X150726264Y-50536771D01*
X150730044Y-50511289D01*
X150736303Y-50486300D01*
X150744982Y-50462046D01*
X150755996Y-50438758D01*
X150769239Y-50416663D01*
X150784585Y-50395972D01*
X150801884Y-50376884D01*
X150820972Y-50359585D01*
X150841663Y-50344239D01*
X150863758Y-50330996D01*
X150887046Y-50319982D01*
X150911300Y-50311303D01*
X150936289Y-50305044D01*
X150961771Y-50301264D01*
X150987500Y-50300000D01*
X151512500Y-50300000D01*
X151538229Y-50301264D01*
G37*
%TD*%
%TO.C,C38*%
G36*
X151104897Y-51876308D02*
G01*
X151131275Y-51880221D01*
X151157143Y-51886701D01*
X151182252Y-51895685D01*
X151206358Y-51907086D01*
X151229232Y-51920796D01*
X151250651Y-51936682D01*
X151270410Y-51954590D01*
X151288318Y-51974349D01*
X151304204Y-51995768D01*
X151317914Y-52018642D01*
X151329315Y-52042748D01*
X151338299Y-52067857D01*
X151344779Y-52093725D01*
X151348692Y-52120103D01*
X151350000Y-52146738D01*
X151350000Y-52853262D01*
X151348692Y-52879897D01*
X151344779Y-52906275D01*
X151338299Y-52932143D01*
X151329315Y-52957252D01*
X151317914Y-52981358D01*
X151304204Y-53004232D01*
X151288318Y-53025651D01*
X151270410Y-53045410D01*
X151250651Y-53063318D01*
X151229232Y-53079204D01*
X151206358Y-53092914D01*
X151182252Y-53104315D01*
X151157143Y-53113299D01*
X151131275Y-53119779D01*
X151104897Y-53123692D01*
X151078262Y-53125000D01*
X150121738Y-53125000D01*
X150095103Y-53123692D01*
X150068725Y-53119779D01*
X150042857Y-53113299D01*
X150017748Y-53104315D01*
X149993642Y-53092914D01*
X149970768Y-53079204D01*
X149949349Y-53063318D01*
X149929590Y-53045410D01*
X149911682Y-53025651D01*
X149895796Y-53004232D01*
X149882086Y-52981358D01*
X149870685Y-52957252D01*
X149861701Y-52932143D01*
X149855221Y-52906275D01*
X149851308Y-52879897D01*
X149850000Y-52853262D01*
X149850000Y-52146738D01*
X149851308Y-52120103D01*
X149855221Y-52093725D01*
X149861701Y-52067857D01*
X149870685Y-52042748D01*
X149882086Y-52018642D01*
X149895796Y-51995768D01*
X149911682Y-51974349D01*
X149929590Y-51954590D01*
X149949349Y-51936682D01*
X149970768Y-51920796D01*
X149993642Y-51907086D01*
X150017748Y-51895685D01*
X150042857Y-51886701D01*
X150068725Y-51880221D01*
X150095103Y-51876308D01*
X150121738Y-51875000D01*
X151078262Y-51875000D01*
X151104897Y-51876308D01*
G37*
G36*
X151104897Y-53926308D02*
G01*
X151131275Y-53930221D01*
X151157143Y-53936701D01*
X151182252Y-53945685D01*
X151206358Y-53957086D01*
X151229232Y-53970796D01*
X151250651Y-53986682D01*
X151270410Y-54004590D01*
X151288318Y-54024349D01*
X151304204Y-54045768D01*
X151317914Y-54068642D01*
X151329315Y-54092748D01*
X151338299Y-54117857D01*
X151344779Y-54143725D01*
X151348692Y-54170103D01*
X151350000Y-54196738D01*
X151350000Y-54903262D01*
X151348692Y-54929897D01*
X151344779Y-54956275D01*
X151338299Y-54982143D01*
X151329315Y-55007252D01*
X151317914Y-55031358D01*
X151304204Y-55054232D01*
X151288318Y-55075651D01*
X151270410Y-55095410D01*
X151250651Y-55113318D01*
X151229232Y-55129204D01*
X151206358Y-55142914D01*
X151182252Y-55154315D01*
X151157143Y-55163299D01*
X151131275Y-55169779D01*
X151104897Y-55173692D01*
X151078262Y-55175000D01*
X150121738Y-55175000D01*
X150095103Y-55173692D01*
X150068725Y-55169779D01*
X150042857Y-55163299D01*
X150017748Y-55154315D01*
X149993642Y-55142914D01*
X149970768Y-55129204D01*
X149949349Y-55113318D01*
X149929590Y-55095410D01*
X149911682Y-55075651D01*
X149895796Y-55054232D01*
X149882086Y-55031358D01*
X149870685Y-55007252D01*
X149861701Y-54982143D01*
X149855221Y-54956275D01*
X149851308Y-54929897D01*
X149850000Y-54903262D01*
X149850000Y-54196738D01*
X149851308Y-54170103D01*
X149855221Y-54143725D01*
X149861701Y-54117857D01*
X149870685Y-54092748D01*
X149882086Y-54068642D01*
X149895796Y-54045768D01*
X149911682Y-54024349D01*
X149929590Y-54004590D01*
X149949349Y-53986682D01*
X149970768Y-53970796D01*
X149993642Y-53957086D01*
X150017748Y-53945685D01*
X150042857Y-53936701D01*
X150068725Y-53930221D01*
X150095103Y-53926308D01*
X150121738Y-53925000D01*
X151078262Y-53925000D01*
X151104897Y-53926308D01*
G37*
%TD*%
%TO.C,C2*%
G36*
X149154897Y-55351308D02*
G01*
X149181275Y-55355221D01*
X149207143Y-55361701D01*
X149232252Y-55370685D01*
X149256358Y-55382086D01*
X149279232Y-55395796D01*
X149300651Y-55411682D01*
X149320410Y-55429590D01*
X149338318Y-55449349D01*
X149354204Y-55470768D01*
X149367914Y-55493642D01*
X149379315Y-55517748D01*
X149388299Y-55542857D01*
X149394779Y-55568725D01*
X149398692Y-55595103D01*
X149400000Y-55621738D01*
X149400000Y-56328262D01*
X149398692Y-56354897D01*
X149394779Y-56381275D01*
X149388299Y-56407143D01*
X149379315Y-56432252D01*
X149367914Y-56456358D01*
X149354204Y-56479232D01*
X149338318Y-56500651D01*
X149320410Y-56520410D01*
X149300651Y-56538318D01*
X149279232Y-56554204D01*
X149256358Y-56567914D01*
X149232252Y-56579315D01*
X149207143Y-56588299D01*
X149181275Y-56594779D01*
X149154897Y-56598692D01*
X149128262Y-56600000D01*
X148171738Y-56600000D01*
X148145103Y-56598692D01*
X148118725Y-56594779D01*
X148092857Y-56588299D01*
X148067748Y-56579315D01*
X148043642Y-56567914D01*
X148020768Y-56554204D01*
X147999349Y-56538318D01*
X147979590Y-56520410D01*
X147961682Y-56500651D01*
X147945796Y-56479232D01*
X147932086Y-56456358D01*
X147920685Y-56432252D01*
X147911701Y-56407143D01*
X147905221Y-56381275D01*
X147901308Y-56354897D01*
X147900000Y-56328262D01*
X147900000Y-55621738D01*
X147901308Y-55595103D01*
X147905221Y-55568725D01*
X147911701Y-55542857D01*
X147920685Y-55517748D01*
X147932086Y-55493642D01*
X147945796Y-55470768D01*
X147961682Y-55449349D01*
X147979590Y-55429590D01*
X147999349Y-55411682D01*
X148020768Y-55395796D01*
X148043642Y-55382086D01*
X148067748Y-55370685D01*
X148092857Y-55361701D01*
X148118725Y-55355221D01*
X148145103Y-55351308D01*
X148171738Y-55350000D01*
X149128262Y-55350000D01*
X149154897Y-55351308D01*
G37*
G36*
X149154897Y-53301308D02*
G01*
X149181275Y-53305221D01*
X149207143Y-53311701D01*
X149232252Y-53320685D01*
X149256358Y-53332086D01*
X149279232Y-53345796D01*
X149300651Y-53361682D01*
X149320410Y-53379590D01*
X149338318Y-53399349D01*
X149354204Y-53420768D01*
X149367914Y-53443642D01*
X149379315Y-53467748D01*
X149388299Y-53492857D01*
X149394779Y-53518725D01*
X149398692Y-53545103D01*
X149400000Y-53571738D01*
X149400000Y-54278262D01*
X149398692Y-54304897D01*
X149394779Y-54331275D01*
X149388299Y-54357143D01*
X149379315Y-54382252D01*
X149367914Y-54406358D01*
X149354204Y-54429232D01*
X149338318Y-54450651D01*
X149320410Y-54470410D01*
X149300651Y-54488318D01*
X149279232Y-54504204D01*
X149256358Y-54517914D01*
X149232252Y-54529315D01*
X149207143Y-54538299D01*
X149181275Y-54544779D01*
X149154897Y-54548692D01*
X149128262Y-54550000D01*
X148171738Y-54550000D01*
X148145103Y-54548692D01*
X148118725Y-54544779D01*
X148092857Y-54538299D01*
X148067748Y-54529315D01*
X148043642Y-54517914D01*
X148020768Y-54504204D01*
X147999349Y-54488318D01*
X147979590Y-54470410D01*
X147961682Y-54450651D01*
X147945796Y-54429232D01*
X147932086Y-54406358D01*
X147920685Y-54382252D01*
X147911701Y-54357143D01*
X147905221Y-54331275D01*
X147901308Y-54304897D01*
X147900000Y-54278262D01*
X147900000Y-53571738D01*
X147901308Y-53545103D01*
X147905221Y-53518725D01*
X147911701Y-53492857D01*
X147920685Y-53467748D01*
X147932086Y-53443642D01*
X147945796Y-53420768D01*
X147961682Y-53399349D01*
X147979590Y-53379590D01*
X147999349Y-53361682D01*
X148020768Y-53345796D01*
X148043642Y-53332086D01*
X148067748Y-53320685D01*
X148092857Y-53311701D01*
X148118725Y-53305221D01*
X148145103Y-53301308D01*
X148171738Y-53300000D01*
X149128262Y-53300000D01*
X149154897Y-53301308D01*
G37*
%TD*%
D16*
%TO.C,H2*%
X186000000Y-49000000D03*
%TD*%
%TO.C,H3*%
X186000000Y-111000000D03*
%TD*%
%TO.C,H4*%
X94000000Y-111000000D03*
%TD*%
%TO.C,H1*%
X94000000Y-49000000D03*
%TD*%
D17*
%TO.C,D5*%
X100500000Y-71420000D03*
D18*
X100500000Y-76500000D03*
%TD*%
D17*
%TO.C,D6*%
X111000000Y-88080000D03*
D18*
X111000000Y-83000000D03*
%TD*%
D17*
%TO.C,D7*%
X107500000Y-88080000D03*
D18*
X107500000Y-83000000D03*
%TD*%
D17*
%TO.C,D10*%
X115380000Y-71420000D03*
D18*
X115380000Y-76500000D03*
%TD*%
D17*
%TO.C,D11*%
X125880000Y-88080000D03*
D18*
X125880000Y-83000000D03*
%TD*%
D17*
%TO.C,D12*%
X122380000Y-88080000D03*
D18*
X122380000Y-83000000D03*
%TD*%
D17*
%TO.C,D15*%
X130130000Y-71420000D03*
D18*
X130130000Y-76500000D03*
%TD*%
D17*
%TO.C,D16*%
X140630000Y-88080000D03*
D18*
X140630000Y-83000000D03*
%TD*%
D17*
%TO.C,D17*%
X137130000Y-88080000D03*
D18*
X137130000Y-83000000D03*
%TD*%
D19*
%TO.C,J4*%
X137330000Y-48500000D03*
X134790000Y-48500000D03*
X132250000Y-48500000D03*
D20*
X129710000Y-48500000D03*
%TD*%
D19*
%TO.C,J5*%
X168620000Y-48500000D03*
X166080000Y-48500000D03*
X163540000Y-48500000D03*
D20*
X161000000Y-48500000D03*
%TD*%
D19*
%TO.C,J9*%
X186750000Y-54740000D03*
X186750000Y-57280000D03*
X186750000Y-59820000D03*
X186750000Y-62360000D03*
D20*
X186750000Y-64900000D03*
%TD*%
D10*
%TO.C,R3*%
G36*
X158308680Y-47476288D02*
G01*
X158334651Y-47480141D01*
X158360120Y-47486520D01*
X158384841Y-47495366D01*
X158408575Y-47506591D01*
X158431095Y-47520089D01*
X158452184Y-47535730D01*
X158471638Y-47553362D01*
X158489270Y-47572816D01*
X158504911Y-47593905D01*
X158518409Y-47616425D01*
X158529634Y-47640159D01*
X158538480Y-47664880D01*
X158544859Y-47690349D01*
X158548712Y-47716320D01*
X158550000Y-47742544D01*
X158550000Y-49057456D01*
X158548712Y-49083680D01*
X158544859Y-49109651D01*
X158538480Y-49135120D01*
X158529634Y-49159841D01*
X158518409Y-49183575D01*
X158504911Y-49206095D01*
X158489270Y-49227184D01*
X158471638Y-49246638D01*
X158452184Y-49264270D01*
X158431095Y-49279911D01*
X158408575Y-49293409D01*
X158384841Y-49304634D01*
X158360120Y-49313480D01*
X158334651Y-49319859D01*
X158308680Y-49323712D01*
X158282456Y-49325000D01*
X157292544Y-49325000D01*
X157266320Y-49323712D01*
X157240349Y-49319859D01*
X157214880Y-49313480D01*
X157190159Y-49304634D01*
X157166425Y-49293409D01*
X157143905Y-49279911D01*
X157122816Y-49264270D01*
X157103362Y-49246638D01*
X157085730Y-49227184D01*
X157070089Y-49206095D01*
X157056591Y-49183575D01*
X157045366Y-49159841D01*
X157036520Y-49135120D01*
X157030141Y-49109651D01*
X157026288Y-49083680D01*
X157025000Y-49057456D01*
X157025000Y-47742544D01*
X157026288Y-47716320D01*
X157030141Y-47690349D01*
X157036520Y-47664880D01*
X157045366Y-47640159D01*
X157056591Y-47616425D01*
X157070089Y-47593905D01*
X157085730Y-47572816D01*
X157103362Y-47553362D01*
X157122816Y-47535730D01*
X157143905Y-47520089D01*
X157166425Y-47506591D01*
X157190159Y-47495366D01*
X157214880Y-47486520D01*
X157240349Y-47480141D01*
X157266320Y-47476288D01*
X157292544Y-47475000D01*
X158282456Y-47475000D01*
X158308680Y-47476288D01*
G37*
G36*
X155333680Y-47476288D02*
G01*
X155359651Y-47480141D01*
X155385120Y-47486520D01*
X155409841Y-47495366D01*
X155433575Y-47506591D01*
X155456095Y-47520089D01*
X155477184Y-47535730D01*
X155496638Y-47553362D01*
X155514270Y-47572816D01*
X155529911Y-47593905D01*
X155543409Y-47616425D01*
X155554634Y-47640159D01*
X155563480Y-47664880D01*
X155569859Y-47690349D01*
X155573712Y-47716320D01*
X155575000Y-47742544D01*
X155575000Y-49057456D01*
X155573712Y-49083680D01*
X155569859Y-49109651D01*
X155563480Y-49135120D01*
X155554634Y-49159841D01*
X155543409Y-49183575D01*
X155529911Y-49206095D01*
X155514270Y-49227184D01*
X155496638Y-49246638D01*
X155477184Y-49264270D01*
X155456095Y-49279911D01*
X155433575Y-49293409D01*
X155409841Y-49304634D01*
X155385120Y-49313480D01*
X155359651Y-49319859D01*
X155333680Y-49323712D01*
X155307456Y-49325000D01*
X154317544Y-49325000D01*
X154291320Y-49323712D01*
X154265349Y-49319859D01*
X154239880Y-49313480D01*
X154215159Y-49304634D01*
X154191425Y-49293409D01*
X154168905Y-49279911D01*
X154147816Y-49264270D01*
X154128362Y-49246638D01*
X154110730Y-49227184D01*
X154095089Y-49206095D01*
X154081591Y-49183575D01*
X154070366Y-49159841D01*
X154061520Y-49135120D01*
X154055141Y-49109651D01*
X154051288Y-49083680D01*
X154050000Y-49057456D01*
X154050000Y-47742544D01*
X154051288Y-47716320D01*
X154055141Y-47690349D01*
X154061520Y-47664880D01*
X154070366Y-47640159D01*
X154081591Y-47616425D01*
X154095089Y-47593905D01*
X154110730Y-47572816D01*
X154128362Y-47553362D01*
X154147816Y-47535730D01*
X154168905Y-47520089D01*
X154191425Y-47506591D01*
X154215159Y-47495366D01*
X154239880Y-47486520D01*
X154265349Y-47480141D01*
X154291320Y-47476288D01*
X154317544Y-47475000D01*
X155307456Y-47475000D01*
X155333680Y-47476288D01*
G37*
%TD*%
%TO.C,R6*%
G36*
X161383680Y-54651288D02*
G01*
X161409651Y-54655141D01*
X161435120Y-54661520D01*
X161459841Y-54670366D01*
X161483575Y-54681591D01*
X161506095Y-54695089D01*
X161527184Y-54710730D01*
X161546638Y-54728362D01*
X161564270Y-54747816D01*
X161579911Y-54768905D01*
X161593409Y-54791425D01*
X161604634Y-54815159D01*
X161613480Y-54839880D01*
X161619859Y-54865349D01*
X161623712Y-54891320D01*
X161625000Y-54917544D01*
X161625000Y-55907456D01*
X161623712Y-55933680D01*
X161619859Y-55959651D01*
X161613480Y-55985120D01*
X161604634Y-56009841D01*
X161593409Y-56033575D01*
X161579911Y-56056095D01*
X161564270Y-56077184D01*
X161546638Y-56096638D01*
X161527184Y-56114270D01*
X161506095Y-56129911D01*
X161483575Y-56143409D01*
X161459841Y-56154634D01*
X161435120Y-56163480D01*
X161409651Y-56169859D01*
X161383680Y-56173712D01*
X161357456Y-56175000D01*
X160042544Y-56175000D01*
X160016320Y-56173712D01*
X159990349Y-56169859D01*
X159964880Y-56163480D01*
X159940159Y-56154634D01*
X159916425Y-56143409D01*
X159893905Y-56129911D01*
X159872816Y-56114270D01*
X159853362Y-56096638D01*
X159835730Y-56077184D01*
X159820089Y-56056095D01*
X159806591Y-56033575D01*
X159795366Y-56009841D01*
X159786520Y-55985120D01*
X159780141Y-55959651D01*
X159776288Y-55933680D01*
X159775000Y-55907456D01*
X159775000Y-54917544D01*
X159776288Y-54891320D01*
X159780141Y-54865349D01*
X159786520Y-54839880D01*
X159795366Y-54815159D01*
X159806591Y-54791425D01*
X159820089Y-54768905D01*
X159835730Y-54747816D01*
X159853362Y-54728362D01*
X159872816Y-54710730D01*
X159893905Y-54695089D01*
X159916425Y-54681591D01*
X159940159Y-54670366D01*
X159964880Y-54661520D01*
X159990349Y-54655141D01*
X160016320Y-54651288D01*
X160042544Y-54650000D01*
X161357456Y-54650000D01*
X161383680Y-54651288D01*
G37*
G36*
X161383680Y-57626288D02*
G01*
X161409651Y-57630141D01*
X161435120Y-57636520D01*
X161459841Y-57645366D01*
X161483575Y-57656591D01*
X161506095Y-57670089D01*
X161527184Y-57685730D01*
X161546638Y-57703362D01*
X161564270Y-57722816D01*
X161579911Y-57743905D01*
X161593409Y-57766425D01*
X161604634Y-57790159D01*
X161613480Y-57814880D01*
X161619859Y-57840349D01*
X161623712Y-57866320D01*
X161625000Y-57892544D01*
X161625000Y-58882456D01*
X161623712Y-58908680D01*
X161619859Y-58934651D01*
X161613480Y-58960120D01*
X161604634Y-58984841D01*
X161593409Y-59008575D01*
X161579911Y-59031095D01*
X161564270Y-59052184D01*
X161546638Y-59071638D01*
X161527184Y-59089270D01*
X161506095Y-59104911D01*
X161483575Y-59118409D01*
X161459841Y-59129634D01*
X161435120Y-59138480D01*
X161409651Y-59144859D01*
X161383680Y-59148712D01*
X161357456Y-59150000D01*
X160042544Y-59150000D01*
X160016320Y-59148712D01*
X159990349Y-59144859D01*
X159964880Y-59138480D01*
X159940159Y-59129634D01*
X159916425Y-59118409D01*
X159893905Y-59104911D01*
X159872816Y-59089270D01*
X159853362Y-59071638D01*
X159835730Y-59052184D01*
X159820089Y-59031095D01*
X159806591Y-59008575D01*
X159795366Y-58984841D01*
X159786520Y-58960120D01*
X159780141Y-58934651D01*
X159776288Y-58908680D01*
X159775000Y-58882456D01*
X159775000Y-57892544D01*
X159776288Y-57866320D01*
X159780141Y-57840349D01*
X159786520Y-57814880D01*
X159795366Y-57790159D01*
X159806591Y-57766425D01*
X159820089Y-57743905D01*
X159835730Y-57722816D01*
X159853362Y-57703362D01*
X159872816Y-57685730D01*
X159893905Y-57670089D01*
X159916425Y-57656591D01*
X159940159Y-57645366D01*
X159964880Y-57636520D01*
X159990349Y-57630141D01*
X160016320Y-57626288D01*
X160042544Y-57625000D01*
X161357456Y-57625000D01*
X161383680Y-57626288D01*
G37*
%TD*%
D21*
%TO.C,Y1*%
X144500000Y-52850000D03*
X144500000Y-57750000D03*
%TD*%
D22*
%TO.C,J3*%
X94250000Y-83100000D03*
X95416726Y-83583274D03*
D23*
X94250000Y-84750000D03*
D22*
X92600000Y-84750000D03*
X93083274Y-83583274D03*
X95416726Y-85916726D03*
X95900000Y-84750000D03*
X94250000Y-96900000D03*
X95416726Y-94083274D03*
D23*
X94250000Y-95250000D03*
D22*
X93083274Y-96416726D03*
X92600000Y-95250000D03*
X95416726Y-96416726D03*
X95900000Y-95250000D03*
D14*
X93500000Y-87500000D03*
D15*
X93500000Y-92500000D03*
%TD*%
D14*
%TO.C,J12*%
X117500000Y-112550000D03*
D15*
X127500000Y-112550000D03*
D14*
X122500000Y-112550000D03*
%TD*%
D10*
%TO.C,R13*%
G36*
X100684719Y-93376283D02*
G01*
X100710579Y-93380119D01*
X100735938Y-93386471D01*
X100760552Y-93395278D01*
X100784184Y-93406455D01*
X100806607Y-93419895D01*
X100827605Y-93435468D01*
X100846976Y-93453024D01*
X100864532Y-93472395D01*
X100880105Y-93493393D01*
X100893545Y-93515816D01*
X100904722Y-93539448D01*
X100913529Y-93564062D01*
X100919881Y-93589421D01*
X100923717Y-93615281D01*
X100925000Y-93641392D01*
X100925000Y-96558608D01*
X100923717Y-96584719D01*
X100919881Y-96610579D01*
X100913529Y-96635938D01*
X100904722Y-96660552D01*
X100893545Y-96684184D01*
X100880105Y-96706607D01*
X100864532Y-96727605D01*
X100846976Y-96746976D01*
X100827605Y-96764532D01*
X100806607Y-96780105D01*
X100784184Y-96793545D01*
X100760552Y-96804722D01*
X100735938Y-96813529D01*
X100710579Y-96819881D01*
X100684719Y-96823717D01*
X100658608Y-96825000D01*
X99566392Y-96825000D01*
X99540281Y-96823717D01*
X99514421Y-96819881D01*
X99489062Y-96813529D01*
X99464448Y-96804722D01*
X99440816Y-96793545D01*
X99418393Y-96780105D01*
X99397395Y-96764532D01*
X99378024Y-96746976D01*
X99360468Y-96727605D01*
X99344895Y-96706607D01*
X99331455Y-96684184D01*
X99320278Y-96660552D01*
X99311471Y-96635938D01*
X99305119Y-96610579D01*
X99301283Y-96584719D01*
X99300000Y-96558608D01*
X99300000Y-93641392D01*
X99301283Y-93615281D01*
X99305119Y-93589421D01*
X99311471Y-93564062D01*
X99320278Y-93539448D01*
X99331455Y-93515816D01*
X99344895Y-93493393D01*
X99360468Y-93472395D01*
X99378024Y-93453024D01*
X99397395Y-93435468D01*
X99418393Y-93419895D01*
X99440816Y-93406455D01*
X99464448Y-93395278D01*
X99489062Y-93386471D01*
X99514421Y-93380119D01*
X99540281Y-93376283D01*
X99566392Y-93375000D01*
X100658608Y-93375000D01*
X100684719Y-93376283D01*
G37*
G36*
X106659719Y-93376283D02*
G01*
X106685579Y-93380119D01*
X106710938Y-93386471D01*
X106735552Y-93395278D01*
X106759184Y-93406455D01*
X106781607Y-93419895D01*
X106802605Y-93435468D01*
X106821976Y-93453024D01*
X106839532Y-93472395D01*
X106855105Y-93493393D01*
X106868545Y-93515816D01*
X106879722Y-93539448D01*
X106888529Y-93564062D01*
X106894881Y-93589421D01*
X106898717Y-93615281D01*
X106900000Y-93641392D01*
X106900000Y-96558608D01*
X106898717Y-96584719D01*
X106894881Y-96610579D01*
X106888529Y-96635938D01*
X106879722Y-96660552D01*
X106868545Y-96684184D01*
X106855105Y-96706607D01*
X106839532Y-96727605D01*
X106821976Y-96746976D01*
X106802605Y-96764532D01*
X106781607Y-96780105D01*
X106759184Y-96793545D01*
X106735552Y-96804722D01*
X106710938Y-96813529D01*
X106685579Y-96819881D01*
X106659719Y-96823717D01*
X106633608Y-96825000D01*
X105541392Y-96825000D01*
X105515281Y-96823717D01*
X105489421Y-96819881D01*
X105464062Y-96813529D01*
X105439448Y-96804722D01*
X105415816Y-96793545D01*
X105393393Y-96780105D01*
X105372395Y-96764532D01*
X105353024Y-96746976D01*
X105335468Y-96727605D01*
X105319895Y-96706607D01*
X105306455Y-96684184D01*
X105295278Y-96660552D01*
X105286471Y-96635938D01*
X105280119Y-96610579D01*
X105276283Y-96584719D01*
X105275000Y-96558608D01*
X105275000Y-93641392D01*
X105276283Y-93615281D01*
X105280119Y-93589421D01*
X105286471Y-93564062D01*
X105295278Y-93539448D01*
X105306455Y-93515816D01*
X105319895Y-93493393D01*
X105335468Y-93472395D01*
X105353024Y-93453024D01*
X105372395Y-93435468D01*
X105393393Y-93419895D01*
X105415816Y-93406455D01*
X105439448Y-93395278D01*
X105464062Y-93386471D01*
X105489421Y-93380119D01*
X105515281Y-93376283D01*
X105541392Y-93375000D01*
X106633608Y-93375000D01*
X106659719Y-93376283D01*
G37*
%TD*%
%TO.C,R19*%
G36*
X100684719Y-89476283D02*
G01*
X100710579Y-89480119D01*
X100735938Y-89486471D01*
X100760552Y-89495278D01*
X100784184Y-89506455D01*
X100806607Y-89519895D01*
X100827605Y-89535468D01*
X100846976Y-89553024D01*
X100864532Y-89572395D01*
X100880105Y-89593393D01*
X100893545Y-89615816D01*
X100904722Y-89639448D01*
X100913529Y-89664062D01*
X100919881Y-89689421D01*
X100923717Y-89715281D01*
X100925000Y-89741392D01*
X100925000Y-92658608D01*
X100923717Y-92684719D01*
X100919881Y-92710579D01*
X100913529Y-92735938D01*
X100904722Y-92760552D01*
X100893545Y-92784184D01*
X100880105Y-92806607D01*
X100864532Y-92827605D01*
X100846976Y-92846976D01*
X100827605Y-92864532D01*
X100806607Y-92880105D01*
X100784184Y-92893545D01*
X100760552Y-92904722D01*
X100735938Y-92913529D01*
X100710579Y-92919881D01*
X100684719Y-92923717D01*
X100658608Y-92925000D01*
X99566392Y-92925000D01*
X99540281Y-92923717D01*
X99514421Y-92919881D01*
X99489062Y-92913529D01*
X99464448Y-92904722D01*
X99440816Y-92893545D01*
X99418393Y-92880105D01*
X99397395Y-92864532D01*
X99378024Y-92846976D01*
X99360468Y-92827605D01*
X99344895Y-92806607D01*
X99331455Y-92784184D01*
X99320278Y-92760552D01*
X99311471Y-92735938D01*
X99305119Y-92710579D01*
X99301283Y-92684719D01*
X99300000Y-92658608D01*
X99300000Y-89741392D01*
X99301283Y-89715281D01*
X99305119Y-89689421D01*
X99311471Y-89664062D01*
X99320278Y-89639448D01*
X99331455Y-89615816D01*
X99344895Y-89593393D01*
X99360468Y-89572395D01*
X99378024Y-89553024D01*
X99397395Y-89535468D01*
X99418393Y-89519895D01*
X99440816Y-89506455D01*
X99464448Y-89495278D01*
X99489062Y-89486471D01*
X99514421Y-89480119D01*
X99540281Y-89476283D01*
X99566392Y-89475000D01*
X100658608Y-89475000D01*
X100684719Y-89476283D01*
G37*
G36*
X106659719Y-89476283D02*
G01*
X106685579Y-89480119D01*
X106710938Y-89486471D01*
X106735552Y-89495278D01*
X106759184Y-89506455D01*
X106781607Y-89519895D01*
X106802605Y-89535468D01*
X106821976Y-89553024D01*
X106839532Y-89572395D01*
X106855105Y-89593393D01*
X106868545Y-89615816D01*
X106879722Y-89639448D01*
X106888529Y-89664062D01*
X106894881Y-89689421D01*
X106898717Y-89715281D01*
X106900000Y-89741392D01*
X106900000Y-92658608D01*
X106898717Y-92684719D01*
X106894881Y-92710579D01*
X106888529Y-92735938D01*
X106879722Y-92760552D01*
X106868545Y-92784184D01*
X106855105Y-92806607D01*
X106839532Y-92827605D01*
X106821976Y-92846976D01*
X106802605Y-92864532D01*
X106781607Y-92880105D01*
X106759184Y-92893545D01*
X106735552Y-92904722D01*
X106710938Y-92913529D01*
X106685579Y-92919881D01*
X106659719Y-92923717D01*
X106633608Y-92925000D01*
X105541392Y-92925000D01*
X105515281Y-92923717D01*
X105489421Y-92919881D01*
X105464062Y-92913529D01*
X105439448Y-92904722D01*
X105415816Y-92893545D01*
X105393393Y-92880105D01*
X105372395Y-92864532D01*
X105353024Y-92846976D01*
X105335468Y-92827605D01*
X105319895Y-92806607D01*
X105306455Y-92784184D01*
X105295278Y-92760552D01*
X105286471Y-92735938D01*
X105280119Y-92710579D01*
X105276283Y-92684719D01*
X105275000Y-92658608D01*
X105275000Y-89741392D01*
X105276283Y-89715281D01*
X105280119Y-89689421D01*
X105286471Y-89664062D01*
X105295278Y-89639448D01*
X105306455Y-89615816D01*
X105319895Y-89593393D01*
X105335468Y-89572395D01*
X105353024Y-89553024D01*
X105372395Y-89535468D01*
X105393393Y-89519895D01*
X105415816Y-89506455D01*
X105439448Y-89495278D01*
X105464062Y-89486471D01*
X105489421Y-89480119D01*
X105515281Y-89476283D01*
X105541392Y-89475000D01*
X106633608Y-89475000D01*
X106659719Y-89476283D01*
G37*
%TD*%
%TO.C,R25*%
G36*
X100672219Y-97276283D02*
G01*
X100698079Y-97280119D01*
X100723438Y-97286471D01*
X100748052Y-97295278D01*
X100771684Y-97306455D01*
X100794107Y-97319895D01*
X100815105Y-97335468D01*
X100834476Y-97353024D01*
X100852032Y-97372395D01*
X100867605Y-97393393D01*
X100881045Y-97415816D01*
X100892222Y-97439448D01*
X100901029Y-97464062D01*
X100907381Y-97489421D01*
X100911217Y-97515281D01*
X100912500Y-97541392D01*
X100912500Y-100458608D01*
X100911217Y-100484719D01*
X100907381Y-100510579D01*
X100901029Y-100535938D01*
X100892222Y-100560552D01*
X100881045Y-100584184D01*
X100867605Y-100606607D01*
X100852032Y-100627605D01*
X100834476Y-100646976D01*
X100815105Y-100664532D01*
X100794107Y-100680105D01*
X100771684Y-100693545D01*
X100748052Y-100704722D01*
X100723438Y-100713529D01*
X100698079Y-100719881D01*
X100672219Y-100723717D01*
X100646108Y-100725000D01*
X99553892Y-100725000D01*
X99527781Y-100723717D01*
X99501921Y-100719881D01*
X99476562Y-100713529D01*
X99451948Y-100704722D01*
X99428316Y-100693545D01*
X99405893Y-100680105D01*
X99384895Y-100664532D01*
X99365524Y-100646976D01*
X99347968Y-100627605D01*
X99332395Y-100606607D01*
X99318955Y-100584184D01*
X99307778Y-100560552D01*
X99298971Y-100535938D01*
X99292619Y-100510579D01*
X99288783Y-100484719D01*
X99287500Y-100458608D01*
X99287500Y-97541392D01*
X99288783Y-97515281D01*
X99292619Y-97489421D01*
X99298971Y-97464062D01*
X99307778Y-97439448D01*
X99318955Y-97415816D01*
X99332395Y-97393393D01*
X99347968Y-97372395D01*
X99365524Y-97353024D01*
X99384895Y-97335468D01*
X99405893Y-97319895D01*
X99428316Y-97306455D01*
X99451948Y-97295278D01*
X99476562Y-97286471D01*
X99501921Y-97280119D01*
X99527781Y-97276283D01*
X99553892Y-97275000D01*
X100646108Y-97275000D01*
X100672219Y-97276283D01*
G37*
G36*
X106647219Y-97276283D02*
G01*
X106673079Y-97280119D01*
X106698438Y-97286471D01*
X106723052Y-97295278D01*
X106746684Y-97306455D01*
X106769107Y-97319895D01*
X106790105Y-97335468D01*
X106809476Y-97353024D01*
X106827032Y-97372395D01*
X106842605Y-97393393D01*
X106856045Y-97415816D01*
X106867222Y-97439448D01*
X106876029Y-97464062D01*
X106882381Y-97489421D01*
X106886217Y-97515281D01*
X106887500Y-97541392D01*
X106887500Y-100458608D01*
X106886217Y-100484719D01*
X106882381Y-100510579D01*
X106876029Y-100535938D01*
X106867222Y-100560552D01*
X106856045Y-100584184D01*
X106842605Y-100606607D01*
X106827032Y-100627605D01*
X106809476Y-100646976D01*
X106790105Y-100664532D01*
X106769107Y-100680105D01*
X106746684Y-100693545D01*
X106723052Y-100704722D01*
X106698438Y-100713529D01*
X106673079Y-100719881D01*
X106647219Y-100723717D01*
X106621108Y-100725000D01*
X105528892Y-100725000D01*
X105502781Y-100723717D01*
X105476921Y-100719881D01*
X105451562Y-100713529D01*
X105426948Y-100704722D01*
X105403316Y-100693545D01*
X105380893Y-100680105D01*
X105359895Y-100664532D01*
X105340524Y-100646976D01*
X105322968Y-100627605D01*
X105307395Y-100606607D01*
X105293955Y-100584184D01*
X105282778Y-100560552D01*
X105273971Y-100535938D01*
X105267619Y-100510579D01*
X105263783Y-100484719D01*
X105262500Y-100458608D01*
X105262500Y-97541392D01*
X105263783Y-97515281D01*
X105267619Y-97489421D01*
X105273971Y-97464062D01*
X105282778Y-97439448D01*
X105293955Y-97415816D01*
X105307395Y-97393393D01*
X105322968Y-97372395D01*
X105340524Y-97353024D01*
X105359895Y-97335468D01*
X105380893Y-97319895D01*
X105403316Y-97306455D01*
X105426948Y-97295278D01*
X105451562Y-97286471D01*
X105476921Y-97280119D01*
X105502781Y-97276283D01*
X105528892Y-97275000D01*
X106621108Y-97275000D01*
X106647219Y-97276283D01*
G37*
%TD*%
D17*
%TO.C,D20*%
X147370200Y-71423400D03*
D18*
X147370200Y-76503400D03*
%TD*%
D17*
%TO.C,D21*%
X157870200Y-88083400D03*
D18*
X157870200Y-83003400D03*
%TD*%
D17*
%TO.C,D22*%
X154370200Y-88083400D03*
D18*
X154370200Y-83003400D03*
%TD*%
D17*
%TO.C,D25*%
X162250200Y-71423400D03*
D18*
X162250200Y-76503400D03*
%TD*%
D17*
%TO.C,D26*%
X172750200Y-88083400D03*
D18*
X172750200Y-83003400D03*
%TD*%
D17*
%TO.C,D27*%
X169250200Y-88083400D03*
D18*
X169250200Y-83003400D03*
%TD*%
D17*
%TO.C,D30*%
X177000200Y-71423400D03*
D18*
X177000200Y-76503400D03*
%TD*%
D17*
%TO.C,D31*%
X187500200Y-88083400D03*
D18*
X187500200Y-83003400D03*
%TD*%
D17*
%TO.C,D32*%
X184000200Y-88083400D03*
D18*
X184000200Y-83003400D03*
%TD*%
D14*
%TO.C,J13*%
X164350000Y-112550000D03*
D15*
X174350000Y-112550000D03*
D14*
X169350000Y-112550000D03*
%TD*%
D10*
%TO.C,R32*%
G36*
X138084719Y-103326283D02*
G01*
X138110579Y-103330119D01*
X138135938Y-103336471D01*
X138160552Y-103345278D01*
X138184184Y-103356455D01*
X138206607Y-103369895D01*
X138227605Y-103385468D01*
X138246976Y-103403024D01*
X138264532Y-103422395D01*
X138280105Y-103443393D01*
X138293545Y-103465816D01*
X138304722Y-103489448D01*
X138313529Y-103514062D01*
X138319881Y-103539421D01*
X138323717Y-103565281D01*
X138325000Y-103591392D01*
X138325000Y-106508608D01*
X138323717Y-106534719D01*
X138319881Y-106560579D01*
X138313529Y-106585938D01*
X138304722Y-106610552D01*
X138293545Y-106634184D01*
X138280105Y-106656607D01*
X138264532Y-106677605D01*
X138246976Y-106696976D01*
X138227605Y-106714532D01*
X138206607Y-106730105D01*
X138184184Y-106743545D01*
X138160552Y-106754722D01*
X138135938Y-106763529D01*
X138110579Y-106769881D01*
X138084719Y-106773717D01*
X138058608Y-106775000D01*
X136966392Y-106775000D01*
X136940281Y-106773717D01*
X136914421Y-106769881D01*
X136889062Y-106763529D01*
X136864448Y-106754722D01*
X136840816Y-106743545D01*
X136818393Y-106730105D01*
X136797395Y-106714532D01*
X136778024Y-106696976D01*
X136760468Y-106677605D01*
X136744895Y-106656607D01*
X136731455Y-106634184D01*
X136720278Y-106610552D01*
X136711471Y-106585938D01*
X136705119Y-106560579D01*
X136701283Y-106534719D01*
X136700000Y-106508608D01*
X136700000Y-103591392D01*
X136701283Y-103565281D01*
X136705119Y-103539421D01*
X136711471Y-103514062D01*
X136720278Y-103489448D01*
X136731455Y-103465816D01*
X136744895Y-103443393D01*
X136760468Y-103422395D01*
X136778024Y-103403024D01*
X136797395Y-103385468D01*
X136818393Y-103369895D01*
X136840816Y-103356455D01*
X136864448Y-103345278D01*
X136889062Y-103336471D01*
X136914421Y-103330119D01*
X136940281Y-103326283D01*
X136966392Y-103325000D01*
X138058608Y-103325000D01*
X138084719Y-103326283D01*
G37*
G36*
X144059719Y-103326283D02*
G01*
X144085579Y-103330119D01*
X144110938Y-103336471D01*
X144135552Y-103345278D01*
X144159184Y-103356455D01*
X144181607Y-103369895D01*
X144202605Y-103385468D01*
X144221976Y-103403024D01*
X144239532Y-103422395D01*
X144255105Y-103443393D01*
X144268545Y-103465816D01*
X144279722Y-103489448D01*
X144288529Y-103514062D01*
X144294881Y-103539421D01*
X144298717Y-103565281D01*
X144300000Y-103591392D01*
X144300000Y-106508608D01*
X144298717Y-106534719D01*
X144294881Y-106560579D01*
X144288529Y-106585938D01*
X144279722Y-106610552D01*
X144268545Y-106634184D01*
X144255105Y-106656607D01*
X144239532Y-106677605D01*
X144221976Y-106696976D01*
X144202605Y-106714532D01*
X144181607Y-106730105D01*
X144159184Y-106743545D01*
X144135552Y-106754722D01*
X144110938Y-106763529D01*
X144085579Y-106769881D01*
X144059719Y-106773717D01*
X144033608Y-106775000D01*
X142941392Y-106775000D01*
X142915281Y-106773717D01*
X142889421Y-106769881D01*
X142864062Y-106763529D01*
X142839448Y-106754722D01*
X142815816Y-106743545D01*
X142793393Y-106730105D01*
X142772395Y-106714532D01*
X142753024Y-106696976D01*
X142735468Y-106677605D01*
X142719895Y-106656607D01*
X142706455Y-106634184D01*
X142695278Y-106610552D01*
X142686471Y-106585938D01*
X142680119Y-106560579D01*
X142676283Y-106534719D01*
X142675000Y-106508608D01*
X142675000Y-103591392D01*
X142676283Y-103565281D01*
X142680119Y-103539421D01*
X142686471Y-103514062D01*
X142695278Y-103489448D01*
X142706455Y-103465816D01*
X142719895Y-103443393D01*
X142735468Y-103422395D01*
X142753024Y-103403024D01*
X142772395Y-103385468D01*
X142793393Y-103369895D01*
X142815816Y-103356455D01*
X142839448Y-103345278D01*
X142864062Y-103336471D01*
X142889421Y-103330119D01*
X142915281Y-103326283D01*
X142941392Y-103325000D01*
X144033608Y-103325000D01*
X144059719Y-103326283D01*
G37*
%TD*%
%TO.C,R33*%
G36*
X138084719Y-107176283D02*
G01*
X138110579Y-107180119D01*
X138135938Y-107186471D01*
X138160552Y-107195278D01*
X138184184Y-107206455D01*
X138206607Y-107219895D01*
X138227605Y-107235468D01*
X138246976Y-107253024D01*
X138264532Y-107272395D01*
X138280105Y-107293393D01*
X138293545Y-107315816D01*
X138304722Y-107339448D01*
X138313529Y-107364062D01*
X138319881Y-107389421D01*
X138323717Y-107415281D01*
X138325000Y-107441392D01*
X138325000Y-110358608D01*
X138323717Y-110384719D01*
X138319881Y-110410579D01*
X138313529Y-110435938D01*
X138304722Y-110460552D01*
X138293545Y-110484184D01*
X138280105Y-110506607D01*
X138264532Y-110527605D01*
X138246976Y-110546976D01*
X138227605Y-110564532D01*
X138206607Y-110580105D01*
X138184184Y-110593545D01*
X138160552Y-110604722D01*
X138135938Y-110613529D01*
X138110579Y-110619881D01*
X138084719Y-110623717D01*
X138058608Y-110625000D01*
X136966392Y-110625000D01*
X136940281Y-110623717D01*
X136914421Y-110619881D01*
X136889062Y-110613529D01*
X136864448Y-110604722D01*
X136840816Y-110593545D01*
X136818393Y-110580105D01*
X136797395Y-110564532D01*
X136778024Y-110546976D01*
X136760468Y-110527605D01*
X136744895Y-110506607D01*
X136731455Y-110484184D01*
X136720278Y-110460552D01*
X136711471Y-110435938D01*
X136705119Y-110410579D01*
X136701283Y-110384719D01*
X136700000Y-110358608D01*
X136700000Y-107441392D01*
X136701283Y-107415281D01*
X136705119Y-107389421D01*
X136711471Y-107364062D01*
X136720278Y-107339448D01*
X136731455Y-107315816D01*
X136744895Y-107293393D01*
X136760468Y-107272395D01*
X136778024Y-107253024D01*
X136797395Y-107235468D01*
X136818393Y-107219895D01*
X136840816Y-107206455D01*
X136864448Y-107195278D01*
X136889062Y-107186471D01*
X136914421Y-107180119D01*
X136940281Y-107176283D01*
X136966392Y-107175000D01*
X138058608Y-107175000D01*
X138084719Y-107176283D01*
G37*
G36*
X144059719Y-107176283D02*
G01*
X144085579Y-107180119D01*
X144110938Y-107186471D01*
X144135552Y-107195278D01*
X144159184Y-107206455D01*
X144181607Y-107219895D01*
X144202605Y-107235468D01*
X144221976Y-107253024D01*
X144239532Y-107272395D01*
X144255105Y-107293393D01*
X144268545Y-107315816D01*
X144279722Y-107339448D01*
X144288529Y-107364062D01*
X144294881Y-107389421D01*
X144298717Y-107415281D01*
X144300000Y-107441392D01*
X144300000Y-110358608D01*
X144298717Y-110384719D01*
X144294881Y-110410579D01*
X144288529Y-110435938D01*
X144279722Y-110460552D01*
X144268545Y-110484184D01*
X144255105Y-110506607D01*
X144239532Y-110527605D01*
X144221976Y-110546976D01*
X144202605Y-110564532D01*
X144181607Y-110580105D01*
X144159184Y-110593545D01*
X144135552Y-110604722D01*
X144110938Y-110613529D01*
X144085579Y-110619881D01*
X144059719Y-110623717D01*
X144033608Y-110625000D01*
X142941392Y-110625000D01*
X142915281Y-110623717D01*
X142889421Y-110619881D01*
X142864062Y-110613529D01*
X142839448Y-110604722D01*
X142815816Y-110593545D01*
X142793393Y-110580105D01*
X142772395Y-110564532D01*
X142753024Y-110546976D01*
X142735468Y-110527605D01*
X142719895Y-110506607D01*
X142706455Y-110484184D01*
X142695278Y-110460552D01*
X142686471Y-110435938D01*
X142680119Y-110410579D01*
X142676283Y-110384719D01*
X142675000Y-110358608D01*
X142675000Y-107441392D01*
X142676283Y-107415281D01*
X142680119Y-107389421D01*
X142686471Y-107364062D01*
X142695278Y-107339448D01*
X142706455Y-107315816D01*
X142719895Y-107293393D01*
X142735468Y-107272395D01*
X142753024Y-107253024D01*
X142772395Y-107235468D01*
X142793393Y-107219895D01*
X142815816Y-107206455D01*
X142839448Y-107195278D01*
X142864062Y-107186471D01*
X142889421Y-107180119D01*
X142915281Y-107176283D01*
X142941392Y-107175000D01*
X144033608Y-107175000D01*
X144059719Y-107176283D01*
G37*
%TD*%
%TO.C,R34*%
G36*
X138084719Y-111026283D02*
G01*
X138110579Y-111030119D01*
X138135938Y-111036471D01*
X138160552Y-111045278D01*
X138184184Y-111056455D01*
X138206607Y-111069895D01*
X138227605Y-111085468D01*
X138246976Y-111103024D01*
X138264532Y-111122395D01*
X138280105Y-111143393D01*
X138293545Y-111165816D01*
X138304722Y-111189448D01*
X138313529Y-111214062D01*
X138319881Y-111239421D01*
X138323717Y-111265281D01*
X138325000Y-111291392D01*
X138325000Y-114208608D01*
X138323717Y-114234719D01*
X138319881Y-114260579D01*
X138313529Y-114285938D01*
X138304722Y-114310552D01*
X138293545Y-114334184D01*
X138280105Y-114356607D01*
X138264532Y-114377605D01*
X138246976Y-114396976D01*
X138227605Y-114414532D01*
X138206607Y-114430105D01*
X138184184Y-114443545D01*
X138160552Y-114454722D01*
X138135938Y-114463529D01*
X138110579Y-114469881D01*
X138084719Y-114473717D01*
X138058608Y-114475000D01*
X136966392Y-114475000D01*
X136940281Y-114473717D01*
X136914421Y-114469881D01*
X136889062Y-114463529D01*
X136864448Y-114454722D01*
X136840816Y-114443545D01*
X136818393Y-114430105D01*
X136797395Y-114414532D01*
X136778024Y-114396976D01*
X136760468Y-114377605D01*
X136744895Y-114356607D01*
X136731455Y-114334184D01*
X136720278Y-114310552D01*
X136711471Y-114285938D01*
X136705119Y-114260579D01*
X136701283Y-114234719D01*
X136700000Y-114208608D01*
X136700000Y-111291392D01*
X136701283Y-111265281D01*
X136705119Y-111239421D01*
X136711471Y-111214062D01*
X136720278Y-111189448D01*
X136731455Y-111165816D01*
X136744895Y-111143393D01*
X136760468Y-111122395D01*
X136778024Y-111103024D01*
X136797395Y-111085468D01*
X136818393Y-111069895D01*
X136840816Y-111056455D01*
X136864448Y-111045278D01*
X136889062Y-111036471D01*
X136914421Y-111030119D01*
X136940281Y-111026283D01*
X136966392Y-111025000D01*
X138058608Y-111025000D01*
X138084719Y-111026283D01*
G37*
G36*
X144059719Y-111026283D02*
G01*
X144085579Y-111030119D01*
X144110938Y-111036471D01*
X144135552Y-111045278D01*
X144159184Y-111056455D01*
X144181607Y-111069895D01*
X144202605Y-111085468D01*
X144221976Y-111103024D01*
X144239532Y-111122395D01*
X144255105Y-111143393D01*
X144268545Y-111165816D01*
X144279722Y-111189448D01*
X144288529Y-111214062D01*
X144294881Y-111239421D01*
X144298717Y-111265281D01*
X144300000Y-111291392D01*
X144300000Y-114208608D01*
X144298717Y-114234719D01*
X144294881Y-114260579D01*
X144288529Y-114285938D01*
X144279722Y-114310552D01*
X144268545Y-114334184D01*
X144255105Y-114356607D01*
X144239532Y-114377605D01*
X144221976Y-114396976D01*
X144202605Y-114414532D01*
X144181607Y-114430105D01*
X144159184Y-114443545D01*
X144135552Y-114454722D01*
X144110938Y-114463529D01*
X144085579Y-114469881D01*
X144059719Y-114473717D01*
X144033608Y-114475000D01*
X142941392Y-114475000D01*
X142915281Y-114473717D01*
X142889421Y-114469881D01*
X142864062Y-114463529D01*
X142839448Y-114454722D01*
X142815816Y-114443545D01*
X142793393Y-114430105D01*
X142772395Y-114414532D01*
X142753024Y-114396976D01*
X142735468Y-114377605D01*
X142719895Y-114356607D01*
X142706455Y-114334184D01*
X142695278Y-114310552D01*
X142686471Y-114285938D01*
X142680119Y-114260579D01*
X142676283Y-114234719D01*
X142675000Y-114208608D01*
X142675000Y-111291392D01*
X142676283Y-111265281D01*
X142680119Y-111239421D01*
X142686471Y-111214062D01*
X142695278Y-111189448D01*
X142706455Y-111165816D01*
X142719895Y-111143393D01*
X142735468Y-111122395D01*
X142753024Y-111103024D01*
X142772395Y-111085468D01*
X142793393Y-111069895D01*
X142815816Y-111056455D01*
X142839448Y-111045278D01*
X142864062Y-111036471D01*
X142889421Y-111030119D01*
X142915281Y-111026283D01*
X142941392Y-111025000D01*
X144033608Y-111025000D01*
X144059719Y-111026283D01*
G37*
%TD*%
D19*
%TO.C,J7*%
X182160000Y-58790000D03*
X182160000Y-56250000D03*
X179620000Y-58790000D03*
X179620000Y-56250000D03*
X177080000Y-58790000D03*
X177080000Y-56250000D03*
X174540000Y-58790000D03*
X174540000Y-56250000D03*
X172000000Y-58790000D03*
D20*
X172000000Y-56250000D03*
%TD*%
D24*
%TO.C,TH1*%
X147270000Y-78900000D03*
D25*
X146000000Y-78900000D03*
%TD*%
D19*
%TO.C,J11*%
X133080000Y-54660000D03*
X133080000Y-57200000D03*
X130540000Y-54660000D03*
X130540000Y-57200000D03*
X128000000Y-54660000D03*
D20*
X128000000Y-57200000D03*
%TD*%
D24*
%TO.C,J6*%
X120480000Y-60100000D03*
D25*
X121750000Y-60100000D03*
%TD*%
%TO.C,J1*%
X124750000Y-59250000D03*
D24*
X124750000Y-60520000D03*
%TD*%
D10*
%TO.C,C33*%
G36*
X129615484Y-88001252D02*
G01*
X129640723Y-88004996D01*
X129665474Y-88011196D01*
X129689498Y-88019791D01*
X129712563Y-88030700D01*
X129734448Y-88043818D01*
X129754942Y-88059017D01*
X129773848Y-88076152D01*
X129790983Y-88095058D01*
X129806182Y-88115552D01*
X129819300Y-88137437D01*
X129830209Y-88160502D01*
X129838804Y-88184526D01*
X129845004Y-88209277D01*
X129848748Y-88234516D01*
X129850000Y-88260000D01*
X129850000Y-92240000D01*
X129848748Y-92265484D01*
X129845004Y-92290723D01*
X129838804Y-92315474D01*
X129830209Y-92339498D01*
X129819300Y-92362563D01*
X129806182Y-92384448D01*
X129790983Y-92404942D01*
X129773848Y-92423848D01*
X129754942Y-92440983D01*
X129734448Y-92456182D01*
X129712563Y-92469300D01*
X129689498Y-92480209D01*
X129665474Y-92488804D01*
X129640723Y-92495004D01*
X129615484Y-92498748D01*
X129590000Y-92500000D01*
X127510000Y-92500000D01*
X127484516Y-92498748D01*
X127459277Y-92495004D01*
X127434526Y-92488804D01*
X127410502Y-92480209D01*
X127387437Y-92469300D01*
X127365552Y-92456182D01*
X127345058Y-92440983D01*
X127326152Y-92423848D01*
X127309017Y-92404942D01*
X127293818Y-92384448D01*
X127280700Y-92362563D01*
X127269791Y-92339498D01*
X127261196Y-92315474D01*
X127254996Y-92290723D01*
X127251252Y-92265484D01*
X127250000Y-92240000D01*
X127250000Y-88260000D01*
X127251252Y-88234516D01*
X127254996Y-88209277D01*
X127261196Y-88184526D01*
X127269791Y-88160502D01*
X127280700Y-88137437D01*
X127293818Y-88115552D01*
X127309017Y-88095058D01*
X127326152Y-88076152D01*
X127345058Y-88059017D01*
X127365552Y-88043818D01*
X127387437Y-88030700D01*
X127410502Y-88019791D01*
X127434526Y-88011196D01*
X127459277Y-88004996D01*
X127484516Y-88001252D01*
X127510000Y-88000000D01*
X129590000Y-88000000D01*
X129615484Y-88001252D01*
G37*
G36*
X129615484Y-96401252D02*
G01*
X129640723Y-96404996D01*
X129665474Y-96411196D01*
X129689498Y-96419791D01*
X129712563Y-96430700D01*
X129734448Y-96443818D01*
X129754942Y-96459017D01*
X129773848Y-96476152D01*
X129790983Y-96495058D01*
X129806182Y-96515552D01*
X129819300Y-96537437D01*
X129830209Y-96560502D01*
X129838804Y-96584526D01*
X129845004Y-96609277D01*
X129848748Y-96634516D01*
X129850000Y-96660000D01*
X129850000Y-100640000D01*
X129848748Y-100665484D01*
X129845004Y-100690723D01*
X129838804Y-100715474D01*
X129830209Y-100739498D01*
X129819300Y-100762563D01*
X129806182Y-100784448D01*
X129790983Y-100804942D01*
X129773848Y-100823848D01*
X129754942Y-100840983D01*
X129734448Y-100856182D01*
X129712563Y-100869300D01*
X129689498Y-100880209D01*
X129665474Y-100888804D01*
X129640723Y-100895004D01*
X129615484Y-100898748D01*
X129590000Y-100900000D01*
X127510000Y-100900000D01*
X127484516Y-100898748D01*
X127459277Y-100895004D01*
X127434526Y-100888804D01*
X127410502Y-100880209D01*
X127387437Y-100869300D01*
X127365552Y-100856182D01*
X127345058Y-100840983D01*
X127326152Y-100823848D01*
X127309017Y-100804942D01*
X127293818Y-100784448D01*
X127280700Y-100762563D01*
X127269791Y-100739498D01*
X127261196Y-100715474D01*
X127254996Y-100690723D01*
X127251252Y-100665484D01*
X127250000Y-100640000D01*
X127250000Y-96660000D01*
X127251252Y-96634516D01*
X127254996Y-96609277D01*
X127261196Y-96584526D01*
X127269791Y-96560502D01*
X127280700Y-96537437D01*
X127293818Y-96515552D01*
X127309017Y-96495058D01*
X127326152Y-96476152D01*
X127345058Y-96459017D01*
X127365552Y-96443818D01*
X127387437Y-96430700D01*
X127410502Y-96419791D01*
X127434526Y-96411196D01*
X127459277Y-96404996D01*
X127484516Y-96401252D01*
X127510000Y-96400000D01*
X129590000Y-96400000D01*
X129615484Y-96401252D01*
G37*
%TD*%
%TO.C,C34*%
G36*
X146015484Y-93501252D02*
G01*
X146040723Y-93504996D01*
X146065474Y-93511196D01*
X146089498Y-93519791D01*
X146112563Y-93530700D01*
X146134448Y-93543818D01*
X146154942Y-93559017D01*
X146173848Y-93576152D01*
X146190983Y-93595058D01*
X146206182Y-93615552D01*
X146219300Y-93637437D01*
X146230209Y-93660502D01*
X146238804Y-93684526D01*
X146245004Y-93709277D01*
X146248748Y-93734516D01*
X146250000Y-93760000D01*
X146250000Y-95840000D01*
X146248748Y-95865484D01*
X146245004Y-95890723D01*
X146238804Y-95915474D01*
X146230209Y-95939498D01*
X146219300Y-95962563D01*
X146206182Y-95984448D01*
X146190983Y-96004942D01*
X146173848Y-96023848D01*
X146154942Y-96040983D01*
X146134448Y-96056182D01*
X146112563Y-96069300D01*
X146089498Y-96080209D01*
X146065474Y-96088804D01*
X146040723Y-96095004D01*
X146015484Y-96098748D01*
X145990000Y-96100000D01*
X142010000Y-96100000D01*
X141984516Y-96098748D01*
X141959277Y-96095004D01*
X141934526Y-96088804D01*
X141910502Y-96080209D01*
X141887437Y-96069300D01*
X141865552Y-96056182D01*
X141845058Y-96040983D01*
X141826152Y-96023848D01*
X141809017Y-96004942D01*
X141793818Y-95984448D01*
X141780700Y-95962563D01*
X141769791Y-95939498D01*
X141761196Y-95915474D01*
X141754996Y-95890723D01*
X141751252Y-95865484D01*
X141750000Y-95840000D01*
X141750000Y-93760000D01*
X141751252Y-93734516D01*
X141754996Y-93709277D01*
X141761196Y-93684526D01*
X141769791Y-93660502D01*
X141780700Y-93637437D01*
X141793818Y-93615552D01*
X141809017Y-93595058D01*
X141826152Y-93576152D01*
X141845058Y-93559017D01*
X141865552Y-93543818D01*
X141887437Y-93530700D01*
X141910502Y-93519791D01*
X141934526Y-93511196D01*
X141959277Y-93504996D01*
X141984516Y-93501252D01*
X142010000Y-93500000D01*
X145990000Y-93500000D01*
X146015484Y-93501252D01*
G37*
G36*
X137615484Y-93501252D02*
G01*
X137640723Y-93504996D01*
X137665474Y-93511196D01*
X137689498Y-93519791D01*
X137712563Y-93530700D01*
X137734448Y-93543818D01*
X137754942Y-93559017D01*
X137773848Y-93576152D01*
X137790983Y-93595058D01*
X137806182Y-93615552D01*
X137819300Y-93637437D01*
X137830209Y-93660502D01*
X137838804Y-93684526D01*
X137845004Y-93709277D01*
X137848748Y-93734516D01*
X137850000Y-93760000D01*
X137850000Y-95840000D01*
X137848748Y-95865484D01*
X137845004Y-95890723D01*
X137838804Y-95915474D01*
X137830209Y-95939498D01*
X137819300Y-95962563D01*
X137806182Y-95984448D01*
X137790983Y-96004942D01*
X137773848Y-96023848D01*
X137754942Y-96040983D01*
X137734448Y-96056182D01*
X137712563Y-96069300D01*
X137689498Y-96080209D01*
X137665474Y-96088804D01*
X137640723Y-96095004D01*
X137615484Y-96098748D01*
X137590000Y-96100000D01*
X133610000Y-96100000D01*
X133584516Y-96098748D01*
X133559277Y-96095004D01*
X133534526Y-96088804D01*
X133510502Y-96080209D01*
X133487437Y-96069300D01*
X133465552Y-96056182D01*
X133445058Y-96040983D01*
X133426152Y-96023848D01*
X133409017Y-96004942D01*
X133393818Y-95984448D01*
X133380700Y-95962563D01*
X133369791Y-95939498D01*
X133361196Y-95915474D01*
X133354996Y-95890723D01*
X133351252Y-95865484D01*
X133350000Y-95840000D01*
X133350000Y-93760000D01*
X133351252Y-93734516D01*
X133354996Y-93709277D01*
X133361196Y-93684526D01*
X133369791Y-93660502D01*
X133380700Y-93637437D01*
X133393818Y-93615552D01*
X133409017Y-93595058D01*
X133426152Y-93576152D01*
X133445058Y-93559017D01*
X133465552Y-93543818D01*
X133487437Y-93530700D01*
X133510502Y-93519791D01*
X133534526Y-93511196D01*
X133559277Y-93504996D01*
X133584516Y-93501252D01*
X133610000Y-93500000D01*
X137590000Y-93500000D01*
X137615484Y-93501252D01*
G37*
%TD*%
%TO.C,C35*%
G36*
X177565484Y-88001252D02*
G01*
X177590723Y-88004996D01*
X177615474Y-88011196D01*
X177639498Y-88019791D01*
X177662563Y-88030700D01*
X177684448Y-88043818D01*
X177704942Y-88059017D01*
X177723848Y-88076152D01*
X177740983Y-88095058D01*
X177756182Y-88115552D01*
X177769300Y-88137437D01*
X177780209Y-88160502D01*
X177788804Y-88184526D01*
X177795004Y-88209277D01*
X177798748Y-88234516D01*
X177800000Y-88260000D01*
X177800000Y-92240000D01*
X177798748Y-92265484D01*
X177795004Y-92290723D01*
X177788804Y-92315474D01*
X177780209Y-92339498D01*
X177769300Y-92362563D01*
X177756182Y-92384448D01*
X177740983Y-92404942D01*
X177723848Y-92423848D01*
X177704942Y-92440983D01*
X177684448Y-92456182D01*
X177662563Y-92469300D01*
X177639498Y-92480209D01*
X177615474Y-92488804D01*
X177590723Y-92495004D01*
X177565484Y-92498748D01*
X177540000Y-92500000D01*
X175460000Y-92500000D01*
X175434516Y-92498748D01*
X175409277Y-92495004D01*
X175384526Y-92488804D01*
X175360502Y-92480209D01*
X175337437Y-92469300D01*
X175315552Y-92456182D01*
X175295058Y-92440983D01*
X175276152Y-92423848D01*
X175259017Y-92404942D01*
X175243818Y-92384448D01*
X175230700Y-92362563D01*
X175219791Y-92339498D01*
X175211196Y-92315474D01*
X175204996Y-92290723D01*
X175201252Y-92265484D01*
X175200000Y-92240000D01*
X175200000Y-88260000D01*
X175201252Y-88234516D01*
X175204996Y-88209277D01*
X175211196Y-88184526D01*
X175219791Y-88160502D01*
X175230700Y-88137437D01*
X175243818Y-88115552D01*
X175259017Y-88095058D01*
X175276152Y-88076152D01*
X175295058Y-88059017D01*
X175315552Y-88043818D01*
X175337437Y-88030700D01*
X175360502Y-88019791D01*
X175384526Y-88011196D01*
X175409277Y-88004996D01*
X175434516Y-88001252D01*
X175460000Y-88000000D01*
X177540000Y-88000000D01*
X177565484Y-88001252D01*
G37*
G36*
X177565484Y-96401252D02*
G01*
X177590723Y-96404996D01*
X177615474Y-96411196D01*
X177639498Y-96419791D01*
X177662563Y-96430700D01*
X177684448Y-96443818D01*
X177704942Y-96459017D01*
X177723848Y-96476152D01*
X177740983Y-96495058D01*
X177756182Y-96515552D01*
X177769300Y-96537437D01*
X177780209Y-96560502D01*
X177788804Y-96584526D01*
X177795004Y-96609277D01*
X177798748Y-96634516D01*
X177800000Y-96660000D01*
X177800000Y-100640000D01*
X177798748Y-100665484D01*
X177795004Y-100690723D01*
X177788804Y-100715474D01*
X177780209Y-100739498D01*
X177769300Y-100762563D01*
X177756182Y-100784448D01*
X177740983Y-100804942D01*
X177723848Y-100823848D01*
X177704942Y-100840983D01*
X177684448Y-100856182D01*
X177662563Y-100869300D01*
X177639498Y-100880209D01*
X177615474Y-100888804D01*
X177590723Y-100895004D01*
X177565484Y-100898748D01*
X177540000Y-100900000D01*
X175460000Y-100900000D01*
X175434516Y-100898748D01*
X175409277Y-100895004D01*
X175384526Y-100888804D01*
X175360502Y-100880209D01*
X175337437Y-100869300D01*
X175315552Y-100856182D01*
X175295058Y-100840983D01*
X175276152Y-100823848D01*
X175259017Y-100804942D01*
X175243818Y-100784448D01*
X175230700Y-100762563D01*
X175219791Y-100739498D01*
X175211196Y-100715474D01*
X175204996Y-100690723D01*
X175201252Y-100665484D01*
X175200000Y-100640000D01*
X175200000Y-96660000D01*
X175201252Y-96634516D01*
X175204996Y-96609277D01*
X175211196Y-96584526D01*
X175219791Y-96560502D01*
X175230700Y-96537437D01*
X175243818Y-96515552D01*
X175259017Y-96495058D01*
X175276152Y-96476152D01*
X175295058Y-96459017D01*
X175315552Y-96443818D01*
X175337437Y-96430700D01*
X175360502Y-96419791D01*
X175384526Y-96411196D01*
X175409277Y-96404996D01*
X175434516Y-96401252D01*
X175460000Y-96400000D01*
X177540000Y-96400000D01*
X177565484Y-96401252D01*
G37*
%TD*%
%TO.C,C36*%
G36*
X148915484Y-93501252D02*
G01*
X148940723Y-93504996D01*
X148965474Y-93511196D01*
X148989498Y-93519791D01*
X149012563Y-93530700D01*
X149034448Y-93543818D01*
X149054942Y-93559017D01*
X149073848Y-93576152D01*
X149090983Y-93595058D01*
X149106182Y-93615552D01*
X149119300Y-93637437D01*
X149130209Y-93660502D01*
X149138804Y-93684526D01*
X149145004Y-93709277D01*
X149148748Y-93734516D01*
X149150000Y-93760000D01*
X149150000Y-95840000D01*
X149148748Y-95865484D01*
X149145004Y-95890723D01*
X149138804Y-95915474D01*
X149130209Y-95939498D01*
X149119300Y-95962563D01*
X149106182Y-95984448D01*
X149090983Y-96004942D01*
X149073848Y-96023848D01*
X149054942Y-96040983D01*
X149034448Y-96056182D01*
X149012563Y-96069300D01*
X148989498Y-96080209D01*
X148965474Y-96088804D01*
X148940723Y-96095004D01*
X148915484Y-96098748D01*
X148890000Y-96100000D01*
X144910000Y-96100000D01*
X144884516Y-96098748D01*
X144859277Y-96095004D01*
X144834526Y-96088804D01*
X144810502Y-96080209D01*
X144787437Y-96069300D01*
X144765552Y-96056182D01*
X144745058Y-96040983D01*
X144726152Y-96023848D01*
X144709017Y-96004942D01*
X144693818Y-95984448D01*
X144680700Y-95962563D01*
X144669791Y-95939498D01*
X144661196Y-95915474D01*
X144654996Y-95890723D01*
X144651252Y-95865484D01*
X144650000Y-95840000D01*
X144650000Y-93760000D01*
X144651252Y-93734516D01*
X144654996Y-93709277D01*
X144661196Y-93684526D01*
X144669791Y-93660502D01*
X144680700Y-93637437D01*
X144693818Y-93615552D01*
X144709017Y-93595058D01*
X144726152Y-93576152D01*
X144745058Y-93559017D01*
X144765552Y-93543818D01*
X144787437Y-93530700D01*
X144810502Y-93519791D01*
X144834526Y-93511196D01*
X144859277Y-93504996D01*
X144884516Y-93501252D01*
X144910000Y-93500000D01*
X148890000Y-93500000D01*
X148915484Y-93501252D01*
G37*
G36*
X157315484Y-93501252D02*
G01*
X157340723Y-93504996D01*
X157365474Y-93511196D01*
X157389498Y-93519791D01*
X157412563Y-93530700D01*
X157434448Y-93543818D01*
X157454942Y-93559017D01*
X157473848Y-93576152D01*
X157490983Y-93595058D01*
X157506182Y-93615552D01*
X157519300Y-93637437D01*
X157530209Y-93660502D01*
X157538804Y-93684526D01*
X157545004Y-93709277D01*
X157548748Y-93734516D01*
X157550000Y-93760000D01*
X157550000Y-95840000D01*
X157548748Y-95865484D01*
X157545004Y-95890723D01*
X157538804Y-95915474D01*
X157530209Y-95939498D01*
X157519300Y-95962563D01*
X157506182Y-95984448D01*
X157490983Y-96004942D01*
X157473848Y-96023848D01*
X157454942Y-96040983D01*
X157434448Y-96056182D01*
X157412563Y-96069300D01*
X157389498Y-96080209D01*
X157365474Y-96088804D01*
X157340723Y-96095004D01*
X157315484Y-96098748D01*
X157290000Y-96100000D01*
X153310000Y-96100000D01*
X153284516Y-96098748D01*
X153259277Y-96095004D01*
X153234526Y-96088804D01*
X153210502Y-96080209D01*
X153187437Y-96069300D01*
X153165552Y-96056182D01*
X153145058Y-96040983D01*
X153126152Y-96023848D01*
X153109017Y-96004942D01*
X153093818Y-95984448D01*
X153080700Y-95962563D01*
X153069791Y-95939498D01*
X153061196Y-95915474D01*
X153054996Y-95890723D01*
X153051252Y-95865484D01*
X153050000Y-95840000D01*
X153050000Y-93760000D01*
X153051252Y-93734516D01*
X153054996Y-93709277D01*
X153061196Y-93684526D01*
X153069791Y-93660502D01*
X153080700Y-93637437D01*
X153093818Y-93615552D01*
X153109017Y-93595058D01*
X153126152Y-93576152D01*
X153145058Y-93559017D01*
X153165552Y-93543818D01*
X153187437Y-93530700D01*
X153210502Y-93519791D01*
X153234526Y-93511196D01*
X153259277Y-93504996D01*
X153284516Y-93501252D01*
X153310000Y-93500000D01*
X157290000Y-93500000D01*
X157315484Y-93501252D01*
G37*
%TD*%
%TO.C,C37*%
G36*
X163365484Y-88001252D02*
G01*
X163390723Y-88004996D01*
X163415474Y-88011196D01*
X163439498Y-88019791D01*
X163462563Y-88030700D01*
X163484448Y-88043818D01*
X163504942Y-88059017D01*
X163523848Y-88076152D01*
X163540983Y-88095058D01*
X163556182Y-88115552D01*
X163569300Y-88137437D01*
X163580209Y-88160502D01*
X163588804Y-88184526D01*
X163595004Y-88209277D01*
X163598748Y-88234516D01*
X163600000Y-88260000D01*
X163600000Y-92240000D01*
X163598748Y-92265484D01*
X163595004Y-92290723D01*
X163588804Y-92315474D01*
X163580209Y-92339498D01*
X163569300Y-92362563D01*
X163556182Y-92384448D01*
X163540983Y-92404942D01*
X163523848Y-92423848D01*
X163504942Y-92440983D01*
X163484448Y-92456182D01*
X163462563Y-92469300D01*
X163439498Y-92480209D01*
X163415474Y-92488804D01*
X163390723Y-92495004D01*
X163365484Y-92498748D01*
X163340000Y-92500000D01*
X161260000Y-92500000D01*
X161234516Y-92498748D01*
X161209277Y-92495004D01*
X161184526Y-92488804D01*
X161160502Y-92480209D01*
X161137437Y-92469300D01*
X161115552Y-92456182D01*
X161095058Y-92440983D01*
X161076152Y-92423848D01*
X161059017Y-92404942D01*
X161043818Y-92384448D01*
X161030700Y-92362563D01*
X161019791Y-92339498D01*
X161011196Y-92315474D01*
X161004996Y-92290723D01*
X161001252Y-92265484D01*
X161000000Y-92240000D01*
X161000000Y-88260000D01*
X161001252Y-88234516D01*
X161004996Y-88209277D01*
X161011196Y-88184526D01*
X161019791Y-88160502D01*
X161030700Y-88137437D01*
X161043818Y-88115552D01*
X161059017Y-88095058D01*
X161076152Y-88076152D01*
X161095058Y-88059017D01*
X161115552Y-88043818D01*
X161137437Y-88030700D01*
X161160502Y-88019791D01*
X161184526Y-88011196D01*
X161209277Y-88004996D01*
X161234516Y-88001252D01*
X161260000Y-88000000D01*
X163340000Y-88000000D01*
X163365484Y-88001252D01*
G37*
G36*
X163365484Y-96401252D02*
G01*
X163390723Y-96404996D01*
X163415474Y-96411196D01*
X163439498Y-96419791D01*
X163462563Y-96430700D01*
X163484448Y-96443818D01*
X163504942Y-96459017D01*
X163523848Y-96476152D01*
X163540983Y-96495058D01*
X163556182Y-96515552D01*
X163569300Y-96537437D01*
X163580209Y-96560502D01*
X163588804Y-96584526D01*
X163595004Y-96609277D01*
X163598748Y-96634516D01*
X163600000Y-96660000D01*
X163600000Y-100640000D01*
X163598748Y-100665484D01*
X163595004Y-100690723D01*
X163588804Y-100715474D01*
X163580209Y-100739498D01*
X163569300Y-100762563D01*
X163556182Y-100784448D01*
X163540983Y-100804942D01*
X163523848Y-100823848D01*
X163504942Y-100840983D01*
X163484448Y-100856182D01*
X163462563Y-100869300D01*
X163439498Y-100880209D01*
X163415474Y-100888804D01*
X163390723Y-100895004D01*
X163365484Y-100898748D01*
X163340000Y-100900000D01*
X161260000Y-100900000D01*
X161234516Y-100898748D01*
X161209277Y-100895004D01*
X161184526Y-100888804D01*
X161160502Y-100880209D01*
X161137437Y-100869300D01*
X161115552Y-100856182D01*
X161095058Y-100840983D01*
X161076152Y-100823848D01*
X161059017Y-100804942D01*
X161043818Y-100784448D01*
X161030700Y-100762563D01*
X161019791Y-100739498D01*
X161011196Y-100715474D01*
X161004996Y-100690723D01*
X161001252Y-100665484D01*
X161000000Y-100640000D01*
X161000000Y-96660000D01*
X161001252Y-96634516D01*
X161004996Y-96609277D01*
X161011196Y-96584526D01*
X161019791Y-96560502D01*
X161030700Y-96537437D01*
X161043818Y-96515552D01*
X161059017Y-96495058D01*
X161076152Y-96476152D01*
X161095058Y-96459017D01*
X161115552Y-96443818D01*
X161137437Y-96430700D01*
X161160502Y-96419791D01*
X161184526Y-96411196D01*
X161209277Y-96404996D01*
X161234516Y-96401252D01*
X161260000Y-96400000D01*
X163340000Y-96400000D01*
X163365484Y-96401252D01*
G37*
%TD*%
D26*
%TO.C,J10*%
X174100000Y-48850000D03*
X178100000Y-48850000D03*
D27*
X173275000Y-46500000D03*
X178925000Y-46500000D03*
%TD*%
D28*
X99500000Y-88000000D03*
X100750000Y-87500000D03*
X99500000Y-86750000D03*
X100750000Y-86250000D03*
X99500000Y-85500000D03*
X100750000Y-85000000D03*
X107000000Y-57500000D03*
X99500000Y-84250000D03*
X100750000Y-83750000D03*
X95000000Y-67000000D03*
X109499996Y-49500000D03*
X120000000Y-57250000D03*
X118250000Y-56750000D03*
X94750010Y-75000000D03*
X160350000Y-61400000D03*
X142400000Y-55400000D03*
X166402163Y-52625010D03*
X97750000Y-52250000D03*
X153900000Y-58600000D03*
X137400000Y-54700000D03*
X107700000Y-62600000D03*
X115700000Y-61400000D03*
X98000000Y-64800000D03*
X173800000Y-53300000D03*
X147000000Y-54250000D03*
X170500000Y-47900000D03*
X171000000Y-49500000D03*
X110600000Y-69100000D03*
X114380000Y-88000000D03*
X115630000Y-87500000D03*
X114380000Y-86750000D03*
X115630000Y-86250000D03*
X114380000Y-85500000D03*
X115630000Y-85000000D03*
X114380000Y-84250000D03*
X115630000Y-83750000D03*
X125480000Y-69100000D03*
X113780000Y-69800000D03*
X129130000Y-88000000D03*
X130380000Y-87500000D03*
X129130000Y-86750000D03*
X130380000Y-86250000D03*
X129130000Y-85500000D03*
X130380000Y-85000000D03*
X129130000Y-84250000D03*
X130380000Y-83750000D03*
X140230000Y-69100000D03*
X128530000Y-69800000D03*
X146370200Y-88003400D03*
X147620200Y-87503400D03*
X146370200Y-86753400D03*
X147620200Y-86253400D03*
X146370200Y-85503400D03*
X147620200Y-85003400D03*
X146370200Y-84253400D03*
X147620200Y-83753400D03*
X157470200Y-69103400D03*
X145770200Y-69803400D03*
X161250200Y-88003400D03*
X162500200Y-87503400D03*
X161250200Y-86753400D03*
X162500200Y-86253400D03*
X161250200Y-85503400D03*
X162500200Y-85003400D03*
X161250200Y-84253400D03*
X162500200Y-83753400D03*
X172350200Y-69103400D03*
X160650200Y-69803400D03*
X176000200Y-88003400D03*
X177250200Y-87503400D03*
X176000200Y-86753400D03*
X177250200Y-86253400D03*
X176000200Y-85503400D03*
X177250200Y-85003400D03*
X176000200Y-84253400D03*
X177250200Y-83753400D03*
X187100200Y-69103400D03*
X175400200Y-69803400D03*
X144000000Y-78750000D03*
X183700000Y-64100000D03*
X98200000Y-69500000D03*
X148500000Y-51250000D03*
X96500000Y-90750000D03*
X141250000Y-113500000D03*
X107000000Y-55000000D03*
X106500000Y-52000000D03*
X92500002Y-66750000D03*
X92475000Y-67775000D03*
X113000000Y-55000000D03*
X160371183Y-60400212D03*
X125500000Y-52250000D03*
X124250000Y-47750000D03*
X156500000Y-53750000D03*
X183100000Y-51100000D03*
X183300000Y-55000000D03*
X113000000Y-53750000D03*
X154500000Y-62600000D03*
X97500000Y-68500000D03*
X97600000Y-66800000D03*
X152900000Y-51799998D03*
X154300000Y-53500000D03*
X120500000Y-65750000D03*
X124500000Y-65750000D03*
X109750000Y-65750000D03*
X135250000Y-65750000D03*
X145250000Y-66250000D03*
X125500000Y-65750000D03*
X119500000Y-65750000D03*
X110750000Y-65750000D03*
X134250000Y-65750000D03*
X146250000Y-66250000D03*
X156500000Y-65750000D03*
X167250000Y-65750000D03*
X171500000Y-65750000D03*
X166250000Y-65750000D03*
X157500000Y-65750000D03*
X105700000Y-67600000D03*
X152750000Y-66249988D03*
X151500000Y-66250000D03*
X103000000Y-62800000D03*
X103000000Y-63800000D03*
X137800000Y-58200000D03*
X155300000Y-55100000D03*
X157500000Y-50600000D03*
X168700000Y-53300000D03*
X147500000Y-58100000D03*
X155200000Y-54100000D03*
X159100000Y-57200000D03*
X159162660Y-58262660D03*
X137800000Y-60900000D03*
X154500000Y-57700000D03*
X165519445Y-58094123D03*
X168500000Y-59800000D03*
X159000000Y-50700000D03*
X169700000Y-52300000D03*
X169748005Y-59830010D03*
X165324961Y-59075039D03*
X170800000Y-59800000D03*
X165325021Y-60117243D03*
X165400008Y-62400000D03*
X169675492Y-62125010D03*
X170600000Y-62725010D03*
X164505225Y-62852460D03*
X172200000Y-63500000D03*
X163993205Y-63711448D03*
X138750000Y-52300000D03*
X141200000Y-48600000D03*
X137500000Y-52300000D03*
X140200000Y-48700000D03*
X159200000Y-54600000D03*
X160600000Y-52150011D03*
X136500000Y-52200000D03*
X139200000Y-48700000D03*
X153900000Y-56000000D03*
X140250000Y-64250000D03*
X134500000Y-62750000D03*
X123200000Y-64500000D03*
X118700000Y-63800000D03*
X148200000Y-59600000D03*
X107600000Y-71450004D03*
X109500000Y-67150000D03*
X122480000Y-71450004D03*
X124380000Y-67150000D03*
X137230000Y-71450004D03*
X139130000Y-67150000D03*
X110500000Y-94250000D03*
X109000000Y-94250000D03*
X107500000Y-94250000D03*
X107500000Y-92500000D03*
X109000000Y-92500000D03*
X110500000Y-92500000D03*
X110500000Y-91000000D03*
X109000000Y-91000000D03*
X107500000Y-91000000D03*
X97613046Y-89571374D03*
X125380000Y-94250000D03*
X123880000Y-94250000D03*
X122380000Y-94250000D03*
X122380000Y-92500000D03*
X123880000Y-92500000D03*
X125380000Y-92500000D03*
X125380000Y-91000000D03*
X123880000Y-91000000D03*
X122380000Y-91000000D03*
X140130000Y-94250000D03*
X138630000Y-94250000D03*
X137130000Y-94250000D03*
X137130000Y-92500000D03*
X138630000Y-92500000D03*
X140130000Y-92500000D03*
X140130000Y-91000000D03*
X138630000Y-91000000D03*
X137130000Y-91000000D03*
X139000000Y-60900000D03*
X151750000Y-60750000D03*
X149000000Y-113000000D03*
X157370200Y-94253400D03*
X155870200Y-94253400D03*
X154370200Y-94253400D03*
X154370200Y-92503400D03*
X155870200Y-92503400D03*
X157370200Y-92503400D03*
X157370200Y-91003400D03*
X155870200Y-91003400D03*
X154370200Y-91003400D03*
X172250200Y-94253400D03*
X170750200Y-94253400D03*
X169250200Y-94253400D03*
X169250200Y-92503400D03*
X170750200Y-92503400D03*
X172250200Y-92503400D03*
X172250200Y-91003400D03*
X170750200Y-91003400D03*
X169250200Y-91003400D03*
X187000200Y-94253400D03*
X185500200Y-94253400D03*
X184000200Y-94253400D03*
X184000200Y-92503400D03*
X185500200Y-92503400D03*
X187000200Y-92503400D03*
X187000200Y-91003400D03*
X185500200Y-91003400D03*
X184000200Y-91003400D03*
X169900000Y-64500000D03*
X152200000Y-64500000D03*
X167400000Y-64525010D03*
X155069898Y-64850012D03*
X155250000Y-57000000D03*
X154470200Y-71453404D03*
X156370200Y-67153400D03*
X169350200Y-71453404D03*
X171250200Y-67153400D03*
X184100200Y-71453404D03*
X186000200Y-67153400D03*
X155200000Y-63400000D03*
X156400000Y-58900000D03*
X179500000Y-50700000D03*
X174300000Y-50424957D03*
X165003259Y-61402448D03*
X168700000Y-61800000D03*
X148300000Y-57300000D03*
X157800000Y-61800000D03*
M02*
